<?xml version="1.0" standalone="no"?><!-- Generator: Gravit.io --><svg xmlns="http://www.w3.org/2000/svg" xmlns:xlink="http://www.w3.org/1999/xlink" style="isolation:isolate" viewBox="0 0 120 380" width="120" height="380"><defs><clipPath id="_clipPath_n7KHv589Zz74XZlpwuOYL9KqdIL0ZCaf"><rect width="120" height="380"/></clipPath></defs><g clip-path="url(#_clipPath_n7KHv589Zz74XZlpwuOYL9KqdIL0ZCaf)"><rect width="120" height="380" style="fill:rgb(30,30,30)"/><path d="M 24.609 67.875 L 94.641 67.875 C 106.292 67.875 115.75 77.333 115.75 88.984 L 115.75 176.891 C 115.75 188.542 106.292 198 94.641 198 L 24.609 198 C 12.958 198 3.5 188.542 3.5 176.891 L 3.5 88.984 C 3.5 77.333 12.958 67.875 24.609 67.875 Z" style="stroke:none;fill:#0B0B0B;stroke-miterlimit:10;opacity:0.77;"/><path d="M 24.609 207 L 94.641 207 C 106.292 207 115.75 216.458 115.75 228.109 L 115.75 316.016 C 115.75 327.667 106.292 337.125 94.641 337.125 L 24.609 337.125 C 12.958 337.125 3.5 327.667 3.5 316.016 L 3.5 228.109 C 3.5 216.458 12.958 207 24.609 207 Z" style="stroke:none;fill:#0B0B0B;stroke-miterlimit:10;opacity:0.77;"/><g opacity="0.48"><path d=" M -514.445 -151.682 C -513.078 -142.504 -511.688 -133.426 -510.278 -124.446 C -494.161 0.054 -474.943 114.159 -454.451 219.172 L -462.483 145.63 C -460.093 157.535 -457.68 169.297 -455.249 180.918 L -461.176 128.217 L -461.176 128.217 L -461.176 128.217 C -460.199 133.271 -459.218 138.305 -458.235 143.319 L -465.956 75.627 C -463.675 86.955 -461.373 98.164 -459.053 109.255 L -463.518 71.178 C -462.823 74.739 -462.127 78.292 -461.428 81.836 L -465.12 50.678 C -463.392 58.393 -461.655 66.002 -459.912 73.507 L -468.284 2.532 L -468.284 2.532 L -468.284 2.532 C -467.99 4.025 -467.696 5.516 -467.402 7.005 L -469.263 -8.245 C -467.231 0.948 -465.187 10.001 -463.135 18.917 L -543.558 -638.521 L -552.637 -712.736 C -552.633 -712.62 -552.629 -712.505 -552.625 -712.389 C -552.624 -712.376 -552.624 -712.363 -552.623 -712.35 C -552.614 -712.077 -552.604 -711.804 -552.595 -711.531 L -552.595 -711.531 L -552.595 -711.531 L -552.595 -711.531 L -553.627 -720 L -553.627 -720 L -553.627 -720 L -553.627 -720 C -553.365 -712.368 -553.085 -704.78 -552.787 -697.238 L -553.085 -699.598 C -553.06 -698.951 -553.035 -698.303 -553.01 -697.656 L -553.01 -697.656 L -553.01 -697.656 L -553.063 -698.074 C -553.032 -697.257 -553.002 -696.44 -552.971 -695.623 L -554.004 -704.01 C -553.976 -703.271 -553.947 -702.531 -553.918 -701.792 L -554.034 -702.738 C -553.978 -701.243 -553.922 -699.748 -553.864 -698.255 L -554.094 -700.192 C -554.043 -698.717 -553.992 -697.243 -553.94 -695.77 L -554.154 -697.647 C -554.132 -696.938 -554.11 -696.229 -554.087 -695.52 L -554.184 -696.374 C -554.152 -695.303 -554.119 -694.233 -554.086 -693.164 L -554.086 -693.164 L -554.086 -693.164 L -554.086 -693.164 L -554.086 -693.164 L -554.229 -694.465 C -553.456 -666.319 -552.499 -638.573 -551.369 -611.219 L -558.046 -666.085 C -557.649 -652.845 -557.209 -639.744 -556.726 -626.778 L -562.103 -667.931 C -561.9 -662.489 -561.687 -657.069 -561.463 -651.672 L -561.463 -651.672 L -561.463 -651.672 L -565.677 -686.315 C -562.665 -598.696 -557.191 -515.095 -549.819 -435.344 L -549.819 -435.344 L -549.819 -435.344 L -581.671 -694.324 C -579.613 -627.849 -576.383 -564.903 -572.166 -505.217 L -572.166 -505.217 L -572.166 -505.217 L -572.166 -505.217 L -595.564 -703 C -593.974 -645.121 -591.632 -589.945 -588.629 -537.293 L -604.342 -672 L -604.342 -672 L -604.342 -672 L -604.342 -672 L -604.342 -672 L -604.342 -672 L -604.342 -672 C -593.143 -298.497 -552.991 -42.941 -508.86 146.561 L -529.207 -27.876 C -520.264 19.551 -510.787 63.755 -500.994 105.151 L -500.665 119.332 L -499.344 112.086 C -499.465 111.581 -499.585 111.076 -499.706 110.571 L -493.903 209.691 Q -496.178 203.282 -492.09 270.549 L -494.251 197.439 L -493.577 250.38 L -492.984 218.813 L -492.654 273.64 L -492.336 229.419 L -491.511 295.695 L -491.739 240.306 L -488.897 338 L -489.824 272.286 L -495.869 206.31 L -494.863 186.632 L -497.04 184.415 L -499.026 110.341 L -499.22 111.406 L -500.085 104.096 L -507.595 -24.198 C -501.536 5.021 -495.282 33.056 -488.897 60 L -513.831 -142.73 L -514.445 -151.682 Z  M -515.459 -158.532 C -516.16 -163.296 -516.854 -168.087 -517.542 -172.905 L -515.173 -153.641 L -515.459 -158.532 Z  M -508.213 -27.186 C -515.112 -60.615 -521.753 -95.589 -528.044 -132.247 L -501.245 94.287 L -502.12 56.507 L -505.638 33.318 L -508.213 -27.186 Z  M -27.233 233.062 C -25.577 240.271 -23.916 247.375 -22.25 254.393 L -27.233 233.062 L -27.233 233.062 L -27.233 233.062 L -27.233 233.062 L -27.233 233.062 L -27.233 233.062 L -27.233 233.062 L -27.233 233.062 L -27.233 233.062 L -27.233 233.062 L -27.233 233.062 L -27.233 233.062 L -27.233 233.062 L -27.233 233.062 L -27.233 233.062 L -27.233 233.062 L -27.233 233.062 L -27.233 233.062 L -27.233 233.062 L -27.233 233.062 L -27.233 233.062 L -27.233 233.062 L -27.233 233.062 L -27.233 233.062 L -27.233 233.062 L -27.233 233.062 L -27.233 233.062 L -27.233 233.062 L -27.233 233.062 L -27.233 233.062 L -27.233 233.062 Z  M 127.789 503.45 C 128.851 507.938 129.924 512.352 131 516.745 L 127.789 503.45 L 127.789 503.45 L 127.789 503.45 L 127.789 503.45 Z  M 109.181 52.249 C 110.08 56.863 110.988 61.425 111.899 65.973 L 109.181 52.249 L 109.181 52.249 L 109.181 52.249 L 109.181 52.249 L 109.181 52.249 L 109.181 52.249 L 109.181 52.249 L 109.181 52.249 L 109.181 52.249 L 109.181 52.249 L 109.181 52.249 L 109.181 52.249 L 109.181 52.249 L 109.181 52.249 L 109.181 52.249 L 109.181 52.249 L 109.181 52.249 L 109.181 52.249 L 109.181 52.249 L 109.181 52.249 L 109.181 52.249 L 109.181 52.249 L 109.181 52.249 L 109.181 52.249 L 109.181 52.249 L 109.181 52.249 L 109.181 52.249 L 109.181 52.249 L 109.181 52.249 L 109.181 52.249 L 109.181 52.249 L 109.181 52.249 L 109.181 52.249 L 109.181 52.249 L 109.181 52.249 L 109.181 52.249 L 109.181 52.249 L 109.181 52.249 L 109.181 52.249 L 109.181 52.249 L 109.181 52.249 L 109.181 52.249 L 109.181 52.249 Z  M -93.303 -232.208 C -86.36 -59.7 -60.867 95.896 -31.24 231.502 L -93.303 -232.208 L -93.303 -232.208 L -93.303 -232.208 L -93.303 -232.208 L -93.303 -232.208 L -93.303 -232.208 L -93.303 -232.208 L -93.303 -232.208 L -93.303 -232.208 L -93.303 -232.208 L -93.303 -232.208 L -93.303 -232.208 L -93.303 -232.208 L -93.303 -232.208 L -93.303 -232.208 L -93.303 -232.208 L -93.303 -232.208 L -93.303 -232.208 L -93.303 -232.208 L -93.303 -232.208 L -93.303 -232.208 L -93.303 -232.208 L -93.303 -232.208 L -93.303 -232.208 L -93.303 -232.208 L -93.303 -232.208 L -93.303 -232.208 L -93.303 -232.208 L -93.303 -232.208 L -93.303 -232.208 L -93.303 -232.208 L -93.303 -232.208 L -93.303 -232.208 L -93.303 -232.208 L -93.303 -232.208 L -93.303 -232.208 L -93.303 -232.208 L -93.303 -232.208 L -93.303 -232.208 L -93.303 -232.208 L -93.303 -232.208 L -93.303 -232.208 L -93.303 -232.208 L -93.303 -232.208 L -93.303 -232.208 L -93.303 -232.208 L -93.303 -232.208 L -93.303 -232.208 L -93.303 -232.208 L -93.303 -232.208 L -93.303 -232.208 L -93.303 -232.208 Z  M 112.993 68.352 C 114.998 76.862 117.013 85.295 119.038 93.63 L 112.993 68.352 L 112.993 68.352 L 112.993 68.352 L 112.993 68.352 L 112.993 68.352 L 112.993 68.352 L 112.993 68.352 L 112.993 68.352 L 112.993 68.352 L 112.993 68.352 L 112.993 68.352 L 112.993 68.352 L 112.993 68.352 L 112.993 68.352 L 112.993 68.352 L 112.993 68.352 L 112.993 68.352 L 112.993 68.352 L 112.993 68.352 L 112.993 68.352 L 112.993 68.352 L 112.993 68.352 L 112.993 68.352 L 112.993 68.352 L 112.993 68.352 L 112.993 68.352 L 112.993 68.352 L 112.993 68.352 L 112.993 68.352 L 112.993 68.352 L 112.993 68.352 L 112.993 68.352 L 112.993 68.352 Z  M -31.501 221.15 C -30.55 226.034 -29.59 230.86 -28.627 235.67 L -31.501 221.15 L -31.501 221.15 L -31.501 221.15 L -31.501 221.15 L -31.501 221.15 L -31.501 221.15 L -31.501 221.15 L -31.501 221.15 L -31.501 221.15 L -31.501 221.15 L -31.501 221.15 L -31.501 221.15 L -31.501 221.15 L -31.501 221.15 L -31.501 221.15 L -31.501 221.15 L -31.501 221.15 L -31.501 221.15 L -31.501 221.15 L -31.501 221.15 L -31.501 221.15 L -31.501 221.15 L -31.501 221.15 L -31.501 221.15 L -31.501 221.15 L -31.501 221.15 L -31.501 221.15 L -31.501 221.15 L -31.501 221.15 L -31.501 221.15 L -31.501 221.15 L -31.501 221.15 L -31.501 221.15 L -31.501 221.15 L -31.501 221.15 Z  M 108.875 64.605 C 109.34 66.852 109.806 69.091 110.274 71.322 C 110.296 71.429 110.319 71.536 110.341 71.646 C 111.094 75.231 111.849 78.799 112.606 82.357 L 108.875 64.605 L 108.875 64.605 L 108.875 64.605 L 108.875 64.605 L 108.875 64.605 L 108.875 64.605 L 108.875 64.605 L 108.875 64.605 L 108.875 64.605 L 108.875 64.605 L 108.875 64.605 L 108.875 64.605 L 108.875 64.605 L 108.875 64.605 L 108.875 64.605 L 108.875 64.605 L 108.875 64.605 L 108.875 64.605 L 108.875 64.605 L 108.875 64.605 L 108.875 64.605 L 108.875 64.605 L 108.875 64.605 L 108.875 64.605 L 108.875 64.605 L 108.875 64.605 L 108.875 64.605 L 108.875 64.605 L 108.875 64.605 L 108.875 64.605 L 108.875 64.605 L 108.875 64.605 L 108.875 64.605 L 108.875 64.605 L 108.875 64.605 L 108.875 64.605 L 108.875 64.605 Z  M 108.407 26.976 C 109.575 32.624 110.753 38.213 111.936 43.774 L 108.407 26.976 L 108.407 26.976 L 108.407 26.976 L 108.407 26.976 L 108.407 26.976 L 108.407 26.976 L 108.407 26.976 L 108.407 26.976 L 108.407 26.976 L 108.407 26.976 L 108.407 26.976 L 108.407 26.976 L 108.407 26.976 L 108.407 26.976 L 108.407 26.976 L 108.407 26.976 L 108.407 26.976 L 108.407 26.976 L 108.407 26.976 L 108.407 26.976 L 108.407 26.976 L 108.407 26.976 L 108.407 26.976 L 108.407 26.976 L 108.407 26.976 L 108.407 26.976 L 108.407 26.976 L 108.407 26.976 L 108.407 26.976 L 108.407 26.976 L 108.407 26.976 L 108.407 26.976 L 108.407 26.976 L 108.407 26.976 L 108.407 26.976 L 108.407 26.976 L 108.407 26.976 L 108.407 26.976 L 108.407 26.976 L 108.407 26.976 L 108.407 26.976 L 108.407 26.976 L 108.407 26.976 L 108.407 26.976 L 108.407 26.976 Z  M -31.24 231.502 L -31.24 231.502 C -30.559 234.673 -29.87 237.806 -29.179 240.928 L -31.24 231.502 L -31.24 231.502 L -31.24 231.502 L -31.24 231.502 L -31.24 231.502 L -31.24 231.502 L -31.24 231.502 L -31.24 231.502 L -31.24 231.502 L -31.24 231.502 L -31.24 231.502 L -31.24 231.502 L -31.24 231.502 L -31.24 231.502 L -31.24 231.502 L -31.24 231.502 L -31.24 231.502 L -31.24 231.502 L -31.24 231.502 L -31.24 231.502 L -31.24 231.502 L -31.24 231.502 L -31.24 231.502 L -31.24 231.502 L -31.24 231.502 L -31.24 231.502 L -31.24 231.502 L -31.24 231.502 L -31.24 231.502 L -31.24 231.502 L -31.24 231.502 L -31.24 231.502 L -31.24 231.502 L -31.24 231.502 L -31.24 231.502 L -31.24 231.502 L -31.24 231.502 L -31.24 231.502 L -31.24 231.502 L -31.24 231.502 L -31.24 231.502 L -31.24 231.502 L -31.24 231.502 L -31.24 231.502 L -31.24 231.502 L -31.24 231.502 L -31.24 231.502 L -31.24 231.502 L -31.24 231.502 L -31.24 231.502 L -31.24 231.502 Z  M 120.843 72.225 L 120.843 72.225 C 122.023 77.039 123.209 81.794 124.399 86.489 L 118.931 46.872 C 120.52 53.307 122.124 59.658 123.74 65.926 L 114.449 1.139 L 64.487 -347.26 L 63.807 -352 L 63.807 -352 L 63.807 -352 C 63.979 -347.713 64.163 -343.448 64.357 -339.206 L 64 -341.809 C 70.831 -172.099 95.686 -24.895 124.794 101 L 120.843 72.225 L 120.843 72.225 L 120.843 72.225 L 120.843 72.225 L 120.843 72.225 L 120.843 72.225 L 120.843 72.225 L 120.843 72.225 L 120.843 72.225 L 120.843 72.225 L 120.843 72.225 L 120.843 72.225 L 120.843 72.225 L 120.843 72.225 L 120.843 72.225 L 120.843 72.225 L 120.843 72.225 L 120.843 72.225 L 120.843 72.225 L 120.843 72.225 L 120.843 72.225 L 120.843 72.225 L 120.843 72.225 L 120.843 72.225 L 120.843 72.225 L 120.843 72.225 L 120.843 72.225 L 120.843 72.225 L 120.843 72.225 L 120.843 72.225 L 120.843 72.225 L 120.843 72.225 L 120.843 72.225 L 120.843 72.225 L 120.843 72.225 L 120.843 72.225 L 120.843 72.225 L 120.843 72.225 L 120.843 72.225 L 120.843 72.225 L 120.843 72.225 L 120.843 72.225 L 120.843 72.225 L 120.843 72.225 L 120.843 72.225 L 120.843 72.225 L 120.843 72.225 L 120.843 72.225 L 120.843 72.225 L 120.843 72.225 L 120.843 72.225 L 120.843 72.225 L 120.843 72.225 L 120.843 72.225 L 120.843 72.225 Z  M 115.384 81.48 C 116.27 85.353 117.163 89.183 118.061 92.992 L 115.384 81.48 L 115.384 81.48 L 115.384 81.48 L 115.384 81.48 L 115.384 81.48 L 115.384 81.48 L 115.384 81.48 L 115.384 81.48 L 115.384 81.48 L 115.384 81.48 L 115.384 81.48 L 115.384 81.48 L 115.384 81.48 L 115.384 81.48 L 115.384 81.48 L 115.384 81.48 L 115.384 81.48 L 115.384 81.48 L 115.384 81.48 L 115.384 81.48 L 115.384 81.48 L 115.384 81.48 L 115.384 81.48 L 115.384 81.48 L 115.384 81.48 L 115.384 81.48 L 115.384 81.48 L 115.384 81.48 L 115.384 81.48 L 115.384 81.48 L 115.384 81.48 L 115.384 81.48 L 115.384 81.48 L 115.384 81.48 L 115.384 81.48 L 115.384 81.48 L 115.384 81.48 L 115.384 81.48 L 115.384 81.48 L 115.384 81.48 L 115.384 81.48 L 115.384 81.48 L 115.384 81.48 L 115.384 81.48 L 115.384 81.48 L 115.384 81.48 L 115.384 81.48 L 115.384 81.48 L 115.384 81.48 L 115.384 81.48 L 115.384 81.48 L 115.384 81.48 L 115.384 81.48 L 115.384 81.48 Z  M 112.124 50.157 C 113.462 55.319 114.806 60.438 116.157 65.502 L 112.124 50.157 L 112.124 50.157 L 112.124 50.157 L 112.124 50.157 L 112.124 50.157 L 112.124 50.157 L 112.124 50.157 L 112.124 50.157 L 112.124 50.157 L 112.124 50.157 L 112.124 50.157 L 112.124 50.157 L 112.124 50.157 L 112.124 50.157 L 112.124 50.157 L 112.124 50.157 L 112.124 50.157 L 112.124 50.157 L 112.124 50.157 L 112.124 50.157 L 112.124 50.157 L 112.124 50.157 L 112.124 50.157 L 112.124 50.157 L 112.124 50.157 L 112.124 50.157 L 112.124 50.157 L 112.124 50.157 L 112.124 50.157 L 112.124 50.157 L 112.124 50.157 L 112.124 50.157 L 112.124 50.157 L 112.124 50.157 L 112.124 50.157 L 112.124 50.157 L 112.124 50.157 L 112.124 50.157 L 112.124 50.157 L 112.124 50.157 L 112.124 50.157 L 112.124 50.157 L 112.124 50.157 L 112.124 50.157 L 112.124 50.157 L 112.124 50.157 L 112.124 50.157 L 112.124 50.157 L 112.124 50.157 L 112.124 50.157 L 112.124 50.157 L 112.124 50.157 L 112.124 50.157 L 112.124 50.157 L 112.124 50.157 L 112.124 50.157 L 112.124 50.157 L 112.124 50.157 L 112.124 50.157 L 112.124 50.157 Z  M -480.534 -145.605 C -478.505 -136.502 -476.457 -127.507 -474.394 -118.617 L -544.09 -647.612 L -552.598 -712.189 L -552.625 -712.389 L -552.682 -712.824 L -552.729 -713.179 L -552.623 -712.35 L -552.597 -712.142 L -543.836 -643.264 L -480.534 -145.605 L -480.534 -145.605 L -480.534 -145.605 L -480.534 -145.605 L -480.534 -145.605 L -480.534 -145.605 L -480.534 -145.605 L -480.534 -145.605 L -480.534 -145.605 L -480.534 -145.605 L -480.534 -145.605 L -480.534 -145.605 L -480.534 -145.605 L -480.534 -145.605 L -480.534 -145.605 L -480.534 -145.605 L -480.534 -145.605 L -480.534 -145.605 L -480.534 -145.605 L -480.534 -145.605 L -480.534 -145.605 L -480.534 -145.605 L -480.534 -145.605 L -480.534 -145.605 L -480.534 -145.605 L -480.534 -145.605 L -480.534 -145.605 L -480.534 -145.605 L -480.534 -145.605 L -480.534 -145.605 L -480.534 -145.605 L -480.534 -145.605 L -480.534 -145.605 L -480.534 -145.605 Z  M 108.77 65.47 C 109.293 67.538 109.817 69.593 110.341 71.646 C 110.925 73.906 111.509 76.163 112.095 78.405 L 110.274 71.322 L 108.77 65.47 L 108.77 65.47 L 108.77 65.47 L 108.77 65.47 L 108.77 65.47 L 108.77 65.47 L 108.77 65.47 L 108.77 65.47 L 108.77 65.47 L 108.77 65.47 L 108.77 65.47 L 108.77 65.47 L 108.77 65.47 L 108.77 65.47 L 108.77 65.47 L 108.77 65.47 L 108.77 65.47 L 108.77 65.47 L 108.77 65.47 L 108.77 65.47 L 108.77 65.47 L 108.77 65.47 L 108.77 65.47 L 108.77 65.47 L 108.77 65.47 L 108.77 65.47 L 108.77 65.47 L 108.77 65.47 L 108.77 65.47 L 108.77 65.47 L 108.77 65.47 L 108.77 65.47 L 108.77 65.47 L 108.77 65.47 L 108.77 65.47 L 108.77 65.47 L 108.77 65.47 L 108.77 65.47 L 108.77 65.47 L 108.77 65.47 L 108.77 65.47 L 108.77 65.47 L 108.77 65.47 L 108.77 65.47 L 108.77 65.47 L 108.77 65.47 L 108.77 65.47 L 108.77 65.47 L 108.77 65.47 L 108.77 65.47 L 108.77 65.47 L 108.77 65.47 L 108.77 65.47 L 108.77 65.47 L 108.77 65.47 L 108.77 65.47 L 108.77 65.47 Z  M 21.741 648.633 L 21.47 644.276 C 21.359 644.582 21.247 644.887 21.135 645.193 L 21.741 648.633 L 21.741 648.633 Z  M -12.725 368.978 C -11.559 374.078 -10.382 379.117 -9.201 384.128 L -12.725 368.978 L -12.725 368.978 L -12.725 368.978 L -12.725 368.978 L -12.725 368.978 L -12.725 368.978 L -12.725 368.978 L -12.725 368.978 L -12.725 368.978 L -12.725 368.978 L -12.725 368.978 L -12.725 368.978 L -12.725 368.978 L -12.725 368.978 L -12.725 368.978 L -12.725 368.978 L -12.725 368.978 L -12.725 368.978 L -12.725 368.978 L -12.725 368.978 L -12.725 368.978 L -12.725 368.978 L -12.725 368.978 L -12.725 368.978 L -12.725 368.978 L -12.725 368.978 L -12.725 368.978 L -12.725 368.978 L -12.725 368.978 Z  M -11.993 393.367 C -11.096 397.553 -10.19 401.685 -9.28 405.803 L -11.993 393.367 L -11.993 393.367 L -11.993 393.367 L -11.993 393.367 L -11.993 393.367 L -11.993 393.367 L -11.993 393.367 L -11.993 393.367 L -11.993 393.367 L -11.993 393.367 L -11.993 393.367 L -11.993 393.367 L -11.993 393.367 L -11.993 393.367 L -11.993 393.367 L -11.993 393.367 L -11.993 393.367 L -11.993 393.367 L -11.993 393.367 L -11.993 393.367 L -11.993 393.367 L -11.993 393.367 L -11.993 393.367 L -11.993 393.367 L -11.993 393.367 L -11.993 393.367 L -11.993 393.367 Z  M -11.488 355.623 C -9.65 362.596 -7.804 369.498 -5.948 376.311 L -11.488 355.623 L -11.488 355.623 L -11.488 355.623 L -11.488 355.623 L -11.488 355.623 L -11.488 355.623 L -11.488 355.623 L -11.488 355.623 L -11.488 355.623 L -11.488 355.623 L -11.488 355.623 L -11.488 355.623 L -11.488 355.623 L -11.488 355.623 L -11.488 355.623 L -11.488 355.623 L -11.488 355.623 L -11.488 355.623 L -11.488 355.623 L -11.488 355.623 L -11.488 355.623 L -11.488 355.623 L -11.488 355.623 L -11.488 355.623 L -11.488 355.623 Z  M -10.661 386.75 C -9.143 392.671 -7.621 398.496 -6.095 404.243 L -10.661 386.75 L -10.661 386.75 L -10.661 386.75 L -10.661 386.75 L -10.661 386.75 L -10.661 386.75 L -10.661 386.75 L -10.661 386.75 L -10.661 386.75 L -10.661 386.75 L -10.661 386.75 L -10.661 386.75 L -10.661 386.75 L -10.661 386.75 L -10.661 386.75 L -10.661 386.75 L -10.661 386.75 L -10.661 386.75 L -10.661 386.75 L -10.661 386.75 L -10.661 386.75 L -10.661 386.75 L -10.661 386.75 Z  M -9.906 415.149 C -8.692 420.466 -7.466 425.71 -6.235 430.921 L -9.906 415.149 L -9.906 415.149 L -9.906 415.149 L -9.906 415.149 L -9.906 415.149 L -9.906 415.149 L -9.906 415.149 L -9.906 415.149 L -9.906 415.149 L -9.906 415.149 L -9.906 415.149 L -9.906 415.149 L -9.906 415.149 L -9.906 415.149 L -9.906 415.149 L -9.906 415.149 L -9.906 415.149 L -9.906 415.149 L -9.906 415.149 L -9.906 415.149 L -9.906 415.149 Z  M 135.095 381.288 C 136.029 385.672 136.973 389.992 137.92 394.295 L 135.095 381.288 L 135.095 381.288 L 135.095 381.288 L 135.095 381.288 L 135.095 381.288 L 135.095 381.288 L 135.095 381.288 L 135.095 381.288 L 135.095 381.288 L 135.095 381.288 L 135.095 381.288 L 135.095 381.288 L 135.095 381.288 L 135.095 381.288 L 135.095 381.288 L 135.095 381.288 L 135.095 381.288 L 135.095 381.288 L 135.095 381.288 Z  M -9.015 380.327 C -7.118 387.502 -5.212 394.601 -3.295 401.604 L -9.015 380.327 L -9.015 380.327 L -9.015 380.327 L -9.015 380.327 L -9.015 380.327 L -9.015 380.327 L -9.015 380.327 L -9.015 380.327 L -9.015 380.327 L -9.015 380.327 L -9.015 380.327 L -9.015 380.327 L -9.015 380.327 L -9.015 380.327 L -9.015 380.327 L -9.015 380.327 L -9.015 380.327 Z  M -8.177 413.069 C -6.611 419.165 -5.039 425.159 -3.463 431.071 L -8.177 413.069 L -8.177 413.069 L -8.177 413.069 L -8.177 413.069 L -8.177 413.069 L -8.177 413.069 L -8.177 413.069 L -8.177 413.069 L -8.177 413.069 L -8.177 413.069 L -8.177 413.069 L -8.177 413.069 L -8.177 413.069 L -8.177 413.069 L -8.177 413.069 Z  M -658.948 -572 C -648.796 -233.417 -608.996 39.025 -562.103 263.222 L -658.948 -572 L -658.948 -572 L -658.948 -572 L -658.948 -572 L -658.948 -572 L -658.948 -572 L -658.948 -572 L -658.948 -572 L -658.948 -572 L -658.948 -572 L -658.948 -572 L -658.948 -572 L -658.948 -572 L -658.948 -572 Z  M 136.869 382.017 C 138.123 387.506 139.388 392.916 140.658 398.291 L 136.869 382.017 L 136.869 382.017 L 136.869 382.017 L 136.869 382.017 L 136.869 382.017 L 136.869 382.017 L 136.869 382.017 L 136.869 382.017 L 136.869 382.017 L 136.869 382.017 L 136.869 382.017 L 136.869 382.017 L 136.869 382.017 Z  M 137.597 410.481 C 137.753 411.213 137.909 411.942 138.066 412.665 C 138.875 416.454 139.693 420.194 140.512 423.922 L 138.197 413.248 L 137.597 410.481 L 137.597 410.481 L 137.597 410.481 L 137.597 410.481 L 137.597 410.481 L 137.597 410.481 L 137.597 410.481 L 137.597 410.481 L 137.597 410.481 L 137.597 410.481 L 137.597 410.481 Z  M -8.105 405.231 C -6.177 412.455 -4.24 419.595 -2.291 426.63 L -8.105 405.231 L -8.105 405.231 L -8.105 405.231 L -8.105 405.231 L -8.105 405.231 L -8.105 405.231 L -8.105 405.231 L -8.105 405.231 L -8.105 405.231 Z  M 136.983 379.265 C 138.575 385.415 140.172 391.454 141.774 397.403 L 136.983 379.265 L 136.983 379.265 L 136.983 379.265 L 136.983 379.265 L 136.983 379.265 L 136.983 379.265 L 136.983 379.265 L 136.983 379.265 Z  M 137.718 411.157 C 137.834 411.662 137.949 412.167 138.066 412.665 C 138.109 412.863 138.153 413.056 138.197 413.248 C 139.313 418.108 140.438 422.906 141.567 427.673 L 137.718 411.157 L 137.718 411.157 L 137.718 411.157 L 137.718 411.157 L 137.718 411.157 L 137.718 411.157 Z  M 47.011 792.026 C 51.198 763.799 52.462 731.605 51.583 695.641 C 51.863 694.759 52.14 693.877 52.411 692.992 L 52.411 692.992 L 52.411 692.992 L 52.411 692.992 L 52.411 692.992 L 52.411 692.992 L 52.411 692.992 L 52.411 692.992 L 52.411 692.992 L 52.411 692.992 L 52.411 692.992 L 52.411 692.992 L 52.411 692.992 L 52.411 692.992 L 52.411 692.992 L 52.411 692.992 L 52.411 692.992 L 52.411 692.992 L 52.411 692.992 L 52.411 692.992 L 52.411 692.992 L 52.411 692.992 L 52.411 692.992 L 52.411 692.992 L 52.411 692.992 L 52.411 692.992 L 52.411 692.992 L 52.411 692.992 L 52.411 692.992 L 52.411 692.992 L 52.411 692.992 L 52.411 692.992 L 52.411 692.992 L 52.411 692.992 L 52.411 692.992 L 52.411 692.992 L 52.411 692.992 L 52.411 692.992 L 52.411 692.992 L 52.411 692.992 L 52.411 692.992 L 52.411 692.992 L 52.411 692.992 L 52.411 692.992 L 52.411 692.992 L 52.411 692.992 L 52.411 692.992 L 52.411 692.992 L 52.411 692.992 L 52.411 692.992 L 52.411 692.992 C 52.937 691.3 53.442 689.6 53.928 687.893 C 81.914 589.622 45.15 466.687 8.65 288.941 L 8.65 288.941 C -0.801 209.482 -9.958 123.71 -16.616 32.162 L -6.968 187.227 L -4.973 219.293 C -13.174 174.825 -20.924 127.214 -27.413 76.085 L -27.413 76.085 L -27.413 76.085 L -27.413 76.085 L -9.549 225.053 C -13.592 200.681 -17.534 175.14 -21.204 148.3 C -21.787 142.075 -22.362 135.83 -22.924 129.552 L -21.618 145.28 C -23.363 132.416 -25.044 119.256 -26.643 105.787 L 18.982 632.98 L -59.13 189.73 L 19.011 633.314 L 20.246 647.576 L 20.246 647.576 C 20.539 646.801 20.828 646.026 21.114 645.25 L 21.758 648.906 L 26.107 718.813 L -65.881 246.146 L 26.914 731.78 L 31.845 811.022 L -90 261.66 L 32.379 819.607 L 33.938 844.66 C 34.784 842.425 35.597 840.15 36.377 837.835 L 150.772 1359.382 L 43.843 809.943 C 45.035 804.2 46.082 798.269 46.992 792.152 L 143.909 1342.315 L -66.94 -303.213 Q -34.171 -35.686 -6.968 187.227 Q 28.107 474.647 53.928 687.893 Q 118.694 1222.764 125.241 1290.995 L -12.315 760.711 L 135.763 1325.329 L -70.198 494.884 L 153.336 1359.221 L -85.044 371.255 L 154.195 1362.666 L 37.223 835.27 C 39.323 828.76 41.171 821.944 42.783 814.827 L 148.865 1370 L 47.011 792.026 L 47.011 792.026 Z " fill-rule="evenodd" fill="none" vector-effect="non-scaling-stroke" stroke-width="0.2" stroke="rgb(191,191,191)" stroke-linejoin="miter" stroke-linecap="square" stroke-miterlimit="3"/></g><g style="isolation:isolate"><path d=" M 32.838 21.922 L 34.197 21.922 L 34.197 38.492 L 33.26 38.492 L 33.26 22.93 L 26.85 31.332 L 20.428 22.93 L 20.428 38.492 L 19.49 38.492 L 19.49 21.922 L 20.85 21.922 L 26.85 29.773 L 32.838 21.922 L 32.838 21.922 Z  M 36.682 28.32 L 37.607 28.32 L 37.607 38.492 L 36.682 38.492 L 36.682 28.32 L 36.682 28.32 Z  M 37.15 24.723 L 37.15 24.723 Q 37.525 24.723 37.801 24.992 L 37.801 24.992 L 37.801 24.992 Q 38.076 25.262 38.076 25.637 L 38.076 25.637 L 38.076 25.637 Q 38.076 26.035 37.801 26.305 L 37.801 26.305 L 37.801 26.305 Q 37.525 26.574 37.15 26.574 L 37.15 26.574 L 37.15 26.574 Q 36.764 26.574 36.488 26.305 L 36.488 26.305 L 36.488 26.305 Q 36.213 26.035 36.213 25.637 L 36.213 25.637 L 36.213 25.637 Q 36.213 25.262 36.488 24.992 L 36.488 24.992 L 36.488 24.992 Q 36.764 24.723 37.15 24.723 L 37.15 24.723 L 37.15 24.723 Z  M 51.107 21.922 L 51.107 38.492 L 50.17 38.492 L 50.17 36.418 L 50.17 36.418 Q 49.9 36.781 49.584 37.109 L 49.584 37.109 L 49.584 37.109 Q 47.92 38.785 45.553 38.785 L 45.553 38.785 L 45.553 38.785 Q 43.209 38.785 41.539 37.115 L 41.539 37.115 L 41.539 37.115 Q 39.869 35.445 39.869 33.102 L 39.869 33.102 L 39.869 33.102 Q 39.869 30.734 41.539 29.07 L 41.539 29.07 L 41.539 29.07 Q 43.209 27.406 45.553 27.406 L 45.553 27.406 L 45.553 27.406 Q 47.92 27.406 49.584 29.07 L 49.584 29.07 L 49.584 29.07 Q 49.9 29.398 50.17 29.762 L 50.17 29.762 L 50.17 21.922 L 51.107 21.922 L 51.107 21.922 Z  M 50.17 34.016 L 50.17 34.016 L 50.17 32.176 L 50.17 32.176 Q 49.912 30.805 48.881 29.773 L 48.881 29.773 L 48.881 29.773 Q 47.498 28.391 45.553 28.391 L 45.553 28.391 L 45.553 28.391 Q 43.607 28.391 42.23 29.773 L 42.23 29.773 L 42.23 29.773 Q 40.854 31.156 40.854 33.102 L 40.854 33.102 L 40.854 33.102 Q 40.854 35.047 42.23 36.418 L 42.23 36.418 L 42.23 36.418 Q 43.607 37.789 45.553 37.789 L 45.553 37.789 L 45.553 37.789 Q 47.498 37.789 48.881 36.406 L 48.881 36.406 L 48.881 36.406 Q 49.912 35.375 50.17 34.016 Z  M 51.541 38.492 L 59.041 21.922 L 60.107 21.922 L 52.596 38.492 L 51.541 38.492 L 51.541 38.492 Z  M 65.299 29.316 L 65.299 29.316 L 65.299 29.316 Q 63.529 28.73 62.504 27.705 L 62.504 27.705 L 62.504 27.705 Q 61.479 26.68 61.479 25.215 L 61.479 25.215 L 61.479 25.215 Q 61.479 23.785 62.504 22.754 L 62.504 22.754 L 62.504 22.754 Q 63.529 21.723 64.994 21.723 L 64.994 21.723 L 64.994 21.723 Q 66.436 21.723 67.479 22.754 L 67.479 22.754 L 67.479 22.754 Q 68.041 23.305 68.264 23.984 L 68.264 23.984 L 67.42 24.313 L 67.42 24.313 Q 67.232 23.809 66.811 23.387 L 66.811 23.387 L 66.811 23.387 Q 66.061 22.637 64.994 22.637 L 64.994 22.637 L 64.994 22.637 Q 63.928 22.637 63.172 23.387 L 63.172 23.387 L 63.172 23.387 Q 62.416 24.137 62.416 25.215 L 62.416 25.215 L 62.416 25.215 Q 62.416 26.281 63.166 27.043 L 63.166 27.043 L 63.166 27.043 Q 63.869 27.734 65.111 28.309 L 65.111 28.309 L 65.111 28.309 Q 67.104 28.953 68.463 30.313 L 68.463 30.313 L 68.463 30.313 Q 69.893 31.742 69.893 33.77 L 69.893 33.77 L 69.893 33.77 Q 69.893 35.809 68.457 37.25 L 68.457 37.25 L 68.457 37.25 Q 67.021 38.691 64.994 38.691 L 64.994 38.691 L 64.994 38.691 Q 62.955 38.691 61.525 37.238 L 61.525 37.238 L 61.525 37.238 Q 60.365 36.09 60.143 34.566 L 60.143 34.566 L 61.021 34.25 L 61.021 34.25 Q 61.162 35.598 62.17 36.594 L 62.17 36.594 L 62.17 36.594 Q 63.342 37.766 64.994 37.766 L 64.994 37.766 L 64.994 37.766 Q 66.646 37.766 67.818 36.594 L 67.818 36.594 L 67.818 36.594 Q 68.99 35.422 68.99 33.77 L 68.99 33.77 L 68.99 33.77 Q 68.99 32.129 67.818 30.957 L 67.818 30.957 L 67.818 30.957 Q 66.787 29.926 65.299 29.316 Z  M 71.932 28.32 L 72.857 28.32 L 72.857 38.492 L 71.932 38.492 L 71.932 28.32 L 71.932 28.32 Z  M 72.4 24.723 L 72.4 24.723 Q 72.775 24.723 73.051 24.992 L 73.051 24.992 L 73.051 24.992 Q 73.326 25.262 73.326 25.637 L 73.326 25.637 L 73.326 25.637 Q 73.326 26.035 73.051 26.305 L 73.051 26.305 L 73.051 26.305 Q 72.775 26.574 72.4 26.574 L 72.4 26.574 L 72.4 26.574 Q 72.014 26.574 71.738 26.305 L 71.738 26.305 L 71.738 26.305 Q 71.463 26.035 71.463 25.637 L 71.463 25.637 L 71.463 25.637 Q 71.463 25.262 71.738 24.992 L 71.738 24.992 L 71.738 24.992 Q 72.014 24.723 72.4 24.723 L 72.4 24.723 L 72.4 24.723 Z  M 86.357 21.922 L 86.357 38.492 L 85.42 38.492 L 85.42 36.418 L 85.42 36.418 Q 85.15 36.781 84.834 37.109 L 84.834 37.109 L 84.834 37.109 Q 83.17 38.785 80.803 38.785 L 80.803 38.785 L 80.803 38.785 Q 78.459 38.785 76.789 37.115 L 76.789 37.115 L 76.789 37.115 Q 75.119 35.445 75.119 33.102 L 75.119 33.102 L 75.119 33.102 Q 75.119 30.734 76.789 29.07 L 76.789 29.07 L 76.789 29.07 Q 78.459 27.406 80.803 27.406 L 80.803 27.406 L 80.803 27.406 Q 83.17 27.406 84.834 29.07 L 84.834 29.07 L 84.834 29.07 Q 85.15 29.398 85.42 29.762 L 85.42 29.762 L 85.42 21.922 L 86.357 21.922 L 86.357 21.922 Z  M 85.42 34.016 L 85.42 34.016 L 85.42 32.176 L 85.42 32.176 Q 85.162 30.805 84.131 29.773 L 84.131 29.773 L 84.131 29.773 Q 82.748 28.391 80.803 28.391 L 80.803 28.391 L 80.803 28.391 Q 78.857 28.391 77.48 29.773 L 77.48 29.773 L 77.48 29.773 Q 76.104 31.156 76.104 33.102 L 76.104 33.102 L 76.104 33.102 Q 76.104 35.047 77.48 36.418 L 77.48 36.418 L 77.48 36.418 Q 78.857 37.789 80.803 37.789 L 80.803 37.789 L 80.803 37.789 Q 82.748 37.789 84.131 36.406 L 84.131 36.406 L 84.131 36.406 Q 85.162 35.375 85.42 34.016 Z  M 89.205 31.625 L 89.205 31.625 L 98.135 31.625 L 98.135 31.625 Q 97.807 30.559 97.021 29.773 L 97.021 29.773 L 97.021 29.773 Q 95.639 28.391 93.693 28.391 L 93.693 28.391 L 93.693 28.391 Q 91.748 28.391 90.365 29.773 L 90.365 29.773 L 90.365 29.773 Q 89.545 30.605 89.205 31.625 Z  M 99.189 32.574 L 89.029 32.574 L 89.029 32.574 Q 88.994 32.82 88.994 33.102 L 88.994 33.102 L 88.994 33.102 Q 88.994 35.047 90.371 36.418 L 90.371 36.418 L 90.371 36.418 Q 91.748 37.789 93.693 37.789 L 93.693 37.789 L 93.693 37.789 Q 95.639 37.789 97.021 36.406 L 97.021 36.406 L 97.021 36.406 Q 97.256 36.172 97.467 35.914 L 97.467 35.914 L 98.463 36.266 L 98.463 36.266 Q 98.287 36.559 97.725 37.109 L 97.725 37.109 L 97.725 37.109 Q 96.061 38.785 93.693 38.785 L 93.693 38.785 L 93.693 38.785 Q 91.35 38.785 89.68 37.115 L 89.68 37.115 L 89.68 37.115 Q 88.01 35.445 88.01 33.102 L 88.01 33.102 L 88.01 33.102 Q 88.01 30.734 89.68 29.07 L 89.68 29.07 L 89.68 29.07 Q 91.35 27.406 93.693 27.406 L 93.693 27.406 L 93.693 27.406 Q 96.061 27.406 97.725 29.07 L 97.725 29.07 L 97.725 29.07 Q 99.189 30.547 99.189 32.574 L 99.189 32.574 L 99.189 32.574 Z " fill-rule="evenodd" fill="rgb(191,191,191)"/><path d=" M 40.596 76.063 L 40.596 76.063 L 45.061 76.063 L 45.061 76.063 Q 44.896 75.529 44.504 75.137 L 44.504 75.137 L 44.504 75.137 Q 43.813 74.445 42.84 74.445 L 42.84 74.445 L 42.84 74.445 Q 41.867 74.445 41.176 75.137 L 41.176 75.137 L 41.176 75.137 Q 40.766 75.553 40.596 76.063 Z  M 45.588 76.537 L 40.508 76.537 L 40.508 76.537 Q 40.49 76.66 40.49 76.801 L 40.49 76.801 L 40.49 76.801 Q 40.49 77.773 41.179 78.459 L 41.179 78.459 L 41.179 78.459 Q 41.867 79.145 42.84 79.145 L 42.84 79.145 L 42.84 79.145 Q 43.813 79.145 44.504 78.453 L 44.504 78.453 L 44.504 78.453 Q 44.621 78.336 44.727 78.207 L 44.727 78.207 L 45.225 78.383 L 45.225 78.383 Q 45.137 78.529 44.855 78.805 L 44.855 78.805 L 44.855 78.805 Q 44.023 79.643 42.84 79.643 L 42.84 79.643 L 42.84 79.643 Q 41.668 79.643 40.833 78.808 L 40.833 78.808 L 40.833 78.808 Q 39.998 77.973 39.998 76.801 L 39.998 76.801 L 39.998 76.801 Q 39.998 75.617 40.833 74.785 L 40.833 74.785 L 40.833 74.785 Q 41.668 73.953 42.84 73.953 L 42.84 73.953 L 42.84 73.953 Q 44.023 73.953 44.855 74.785 L 44.855 74.785 L 44.855 74.785 Q 45.588 75.523 45.588 76.537 L 45.588 76.537 L 45.588 76.537 Z  M 46.848 75.547 L 46.848 75.547 L 46.848 79.496 L 46.379 79.496 L 46.379 74.41 L 46.848 74.41 L 46.848 74.738 L 46.848 74.738 Q 47.48 74.105 48.324 74.105 L 48.324 74.105 L 48.324 74.105 Q 49.227 74.105 49.792 74.671 L 49.792 74.671 L 49.792 74.671 Q 50.357 75.236 50.369 76.092 L 50.369 76.092 L 50.369 79.496 L 49.906 79.496 L 49.906 76.139 L 49.906 76.139 Q 49.906 75.488 49.438 75.031 L 49.438 75.031 L 49.438 75.031 Q 48.969 74.574 48.324 74.574 L 48.324 74.574 L 48.324 74.574 Q 47.686 74.574 47.217 75.025 L 47.217 75.025 L 47.217 75.025 Q 46.965 75.277 46.848 75.547 Z  M 55.924 78.271 L 55.924 78.271 L 56.416 78.453 L 56.416 78.453 Q 56.281 78.635 56.111 78.805 L 56.111 78.805 L 56.111 78.805 Q 55.279 79.643 54.096 79.643 L 54.096 79.643 L 54.096 79.643 Q 52.924 79.643 52.089 78.808 L 52.089 78.808 L 52.089 78.808 Q 51.254 77.973 51.254 76.795 L 51.254 76.795 L 51.254 76.795 Q 51.254 75.617 52.089 74.785 L 52.089 74.785 L 52.089 74.785 Q 52.924 73.953 54.096 73.953 L 54.096 73.953 L 54.096 73.953 Q 55.279 73.953 56.111 74.785 L 56.111 74.785 L 56.111 74.785 Q 56.281 74.955 56.416 75.137 L 56.416 75.137 L 55.924 75.318 L 55.924 75.318 Q 55.848 75.225 55.76 75.131 L 55.76 75.131 L 55.76 75.131 Q 55.068 74.445 54.096 74.445 L 54.096 74.445 L 54.096 74.445 Q 53.129 74.445 52.44 75.134 L 52.44 75.134 L 52.44 75.134 Q 51.752 75.822 51.752 76.795 L 51.752 76.795 L 51.752 76.795 Q 51.752 77.768 52.44 78.456 L 52.44 78.456 L 52.44 78.456 Q 53.129 79.145 54.096 79.145 L 54.096 79.145 L 54.096 79.145 Q 55.068 79.145 55.76 78.453 L 55.76 78.453 L 55.76 78.453 Q 55.848 78.365 55.924 78.271 Z  M 59.984 73.953 L 59.984 73.953 L 59.984 73.953 Q 61.168 73.953 61.997 74.785 L 61.997 74.785 L 61.997 74.785 Q 62.826 75.617 62.826 76.801 L 62.826 76.801 L 62.826 76.801 Q 62.826 77.973 61.997 78.808 L 61.997 78.808 L 61.997 78.808 Q 61.168 79.643 59.984 79.643 L 59.984 79.643 L 59.984 79.643 Q 58.813 79.643 57.978 78.808 L 57.978 78.808 L 57.978 78.808 Q 57.143 77.973 57.143 76.801 L 57.143 76.801 L 57.143 76.801 Q 57.143 75.617 57.978 74.785 L 57.978 74.785 L 57.978 74.785 Q 58.813 73.953 59.984 73.953 Z  M 59.984 74.445 L 59.984 74.445 Q 59.012 74.445 58.323 75.137 L 58.323 75.137 L 58.323 75.137 Q 57.635 75.828 57.635 76.801 L 57.635 76.801 L 57.635 76.801 Q 57.635 77.773 58.323 78.459 L 58.323 78.459 L 58.323 78.459 Q 59.012 79.145 59.984 79.145 L 59.984 79.145 L 59.984 79.145 Q 60.957 79.145 61.646 78.459 L 61.646 78.459 L 61.646 78.459 Q 62.334 77.773 62.334 76.801 L 62.334 76.801 L 62.334 76.801 Q 62.334 75.828 61.646 75.137 L 61.646 75.137 L 61.646 75.137 Q 60.957 74.445 59.984 74.445 L 59.984 74.445 L 59.984 74.445 Z  M 69.301 71.211 L 69.301 79.496 L 68.832 79.496 L 68.832 78.459 L 68.832 78.459 Q 68.697 78.641 68.539 78.805 L 68.539 78.805 L 68.539 78.805 Q 67.707 79.643 66.523 79.643 L 66.523 79.643 L 66.523 79.643 Q 65.352 79.643 64.517 78.808 L 64.517 78.808 L 64.517 78.808 Q 63.682 77.973 63.682 76.801 L 63.682 76.801 L 63.682 76.801 Q 63.682 75.617 64.517 74.785 L 64.517 74.785 L 64.517 74.785 Q 65.352 73.953 66.523 73.953 L 66.523 73.953 L 66.523 73.953 Q 67.707 73.953 68.539 74.785 L 68.539 74.785 L 68.539 74.785 Q 68.697 74.949 68.832 75.131 L 68.832 75.131 L 68.832 71.211 L 69.301 71.211 L 69.301 71.211 Z  M 68.832 77.258 L 68.832 77.258 L 68.832 76.338 L 68.832 76.338 Q 68.703 75.652 68.188 75.137 L 68.188 75.137 L 68.188 75.137 Q 67.496 74.445 66.523 74.445 L 66.523 74.445 L 66.523 74.445 Q 65.551 74.445 64.862 75.137 L 64.862 75.137 L 64.862 75.137 Q 64.174 75.828 64.174 76.801 L 64.174 76.801 L 64.174 76.801 Q 64.174 77.773 64.862 78.459 L 64.862 78.459 L 64.862 78.459 Q 65.551 79.145 66.523 79.145 L 66.523 79.145 L 66.523 79.145 Q 67.496 79.145 68.188 78.453 L 68.188 78.453 L 68.188 78.453 Q 68.703 77.938 68.832 77.258 Z  M 70.725 76.063 L 70.725 76.063 L 75.189 76.063 L 75.189 76.063 Q 75.025 75.529 74.633 75.137 L 74.633 75.137 L 74.633 75.137 Q 73.941 74.445 72.969 74.445 L 72.969 74.445 L 72.969 74.445 Q 71.996 74.445 71.305 75.137 L 71.305 75.137 L 71.305 75.137 Q 70.895 75.553 70.725 76.063 Z  M 75.717 76.537 L 70.637 76.537 L 70.637 76.537 Q 70.619 76.66 70.619 76.801 L 70.619 76.801 L 70.619 76.801 Q 70.619 77.773 71.308 78.459 L 71.308 78.459 L 71.308 78.459 Q 71.996 79.145 72.969 79.145 L 72.969 79.145 L 72.969 79.145 Q 73.941 79.145 74.633 78.453 L 74.633 78.453 L 74.633 78.453 Q 74.75 78.336 74.855 78.207 L 74.855 78.207 L 75.354 78.383 L 75.354 78.383 Q 75.266 78.529 74.984 78.805 L 74.984 78.805 L 74.984 78.805 Q 74.152 79.643 72.969 79.643 L 72.969 79.643 L 72.969 79.643 Q 71.797 79.643 70.962 78.808 L 70.962 78.808 L 70.962 78.808 Q 70.127 77.973 70.127 76.801 L 70.127 76.801 L 70.127 76.801 Q 70.127 75.617 70.962 74.785 L 70.962 74.785 L 70.962 74.785 Q 71.797 73.953 72.969 73.953 L 72.969 73.953 L 72.969 73.953 Q 74.152 73.953 74.984 74.785 L 74.984 74.785 L 74.984 74.785 Q 75.717 75.523 75.717 76.537 L 75.717 76.537 L 75.717 76.537 Z  M 78.049 74.369 L 78.307 74.82 L 78.307 74.82 Q 77.809 74.896 77.328 75.453 L 77.328 75.453 L 77.328 75.453 Q 76.848 76.01 76.848 76.578 L 76.848 76.578 L 76.848 79.496 L 76.379 79.496 L 76.379 74.41 L 76.848 74.41 L 76.848 75.512 L 76.848 75.512 Q 77.141 74.744 78.049 74.369 L 78.049 74.369 L 78.049 74.369 Z " fill-rule="evenodd" fill="rgb(191,191,191)"/><path d=" M 45.034 210.711 L 45.034 218.996 L 44.565 218.996 L 44.565 217.959 L 44.565 217.959 Q 44.431 218.141 44.272 218.305 L 44.272 218.305 L 44.272 218.305 Q 43.44 219.143 42.257 219.143 L 42.257 219.143 L 42.257 219.143 Q 41.085 219.143 40.25 218.308 L 40.25 218.308 L 40.25 218.308 Q 39.415 217.473 39.415 216.301 L 39.415 216.301 L 39.415 216.301 Q 39.415 215.117 40.25 214.285 L 40.25 214.285 L 40.25 214.285 Q 41.085 213.453 42.257 213.453 L 42.257 213.453 L 42.257 213.453 Q 43.44 213.453 44.272 214.285 L 44.272 214.285 L 44.272 214.285 Q 44.431 214.449 44.565 214.631 L 44.565 214.631 L 44.565 210.711 L 45.034 210.711 L 45.034 210.711 Z  M 44.565 216.758 L 44.565 216.758 L 44.565 215.838 L 44.565 215.838 Q 44.437 215.152 43.921 214.637 L 43.921 214.637 L 43.921 214.637 Q 43.229 213.945 42.257 213.945 L 42.257 213.945 L 42.257 213.945 Q 41.284 213.945 40.596 214.637 L 40.596 214.637 L 40.596 214.637 Q 39.907 215.328 39.907 216.301 L 39.907 216.301 L 39.907 216.301 Q 39.907 217.273 40.596 217.959 L 40.596 217.959 L 40.596 217.959 Q 41.284 218.645 42.257 218.645 L 42.257 218.645 L 42.257 218.645 Q 43.229 218.645 43.921 217.953 L 43.921 217.953 L 43.921 217.953 Q 44.437 217.438 44.565 216.758 Z  M 46.458 215.563 L 46.458 215.563 L 50.923 215.563 L 50.923 215.563 Q 50.759 215.029 50.366 214.637 L 50.366 214.637 L 50.366 214.637 Q 49.675 213.945 48.702 213.945 L 48.702 213.945 L 48.702 213.945 Q 47.729 213.945 47.038 214.637 L 47.038 214.637 L 47.038 214.637 Q 46.628 215.053 46.458 215.563 Z  M 51.45 216.037 L 46.37 216.037 L 46.37 216.037 Q 46.353 216.16 46.353 216.301 L 46.353 216.301 L 46.353 216.301 Q 46.353 217.273 47.041 217.959 L 47.041 217.959 L 47.041 217.959 Q 47.729 218.645 48.702 218.645 L 48.702 218.645 L 48.702 218.645 Q 49.675 218.645 50.366 217.953 L 50.366 217.953 L 50.366 217.953 Q 50.483 217.836 50.589 217.707 L 50.589 217.707 L 51.087 217.883 L 51.087 217.883 Q 50.999 218.029 50.718 218.305 L 50.718 218.305 L 50.718 218.305 Q 49.886 219.143 48.702 219.143 L 48.702 219.143 L 48.702 219.143 Q 47.53 219.143 46.695 218.308 L 46.695 218.308 L 46.695 218.308 Q 45.86 217.473 45.86 216.301 L 45.86 216.301 L 45.86 216.301 Q 45.86 215.117 46.695 214.285 L 46.695 214.285 L 46.695 214.285 Q 47.53 213.453 48.702 213.453 L 48.702 213.453 L 48.702 213.453 Q 49.886 213.453 50.718 214.285 L 50.718 214.285 L 50.718 214.285 Q 51.45 215.023 51.45 216.037 L 51.45 216.037 L 51.45 216.037 Z  M 56.636 217.771 L 56.636 217.771 L 57.128 217.953 L 57.128 217.953 Q 56.993 218.135 56.823 218.305 L 56.823 218.305 L 56.823 218.305 Q 55.991 219.143 54.808 219.143 L 54.808 219.143 L 54.808 219.143 Q 53.636 219.143 52.801 218.308 L 52.801 218.308 L 52.801 218.308 Q 51.966 217.473 51.966 216.295 L 51.966 216.295 L 51.966 216.295 Q 51.966 215.117 52.801 214.285 L 52.801 214.285 L 52.801 214.285 Q 53.636 213.453 54.808 213.453 L 54.808 213.453 L 54.808 213.453 Q 55.991 213.453 56.823 214.285 L 56.823 214.285 L 56.823 214.285 Q 56.993 214.455 57.128 214.637 L 57.128 214.637 L 56.636 214.818 L 56.636 214.818 Q 56.56 214.725 56.472 214.631 L 56.472 214.631 L 56.472 214.631 Q 55.78 213.945 54.808 213.945 L 54.808 213.945 L 54.808 213.945 Q 53.841 213.945 53.152 214.634 L 53.152 214.634 L 53.152 214.634 Q 52.464 215.322 52.464 216.295 L 52.464 216.295 L 52.464 216.295 Q 52.464 217.268 53.152 217.956 L 53.152 217.956 L 53.152 217.956 Q 53.841 218.645 54.808 218.645 L 54.808 218.645 L 54.808 218.645 Q 55.78 218.645 56.472 217.953 L 56.472 217.953 L 56.472 217.953 Q 56.56 217.865 56.636 217.771 Z  M 60.696 213.453 L 60.696 213.453 L 60.696 213.453 Q 61.88 213.453 62.709 214.285 L 62.709 214.285 L 62.709 214.285 Q 63.538 215.117 63.538 216.301 L 63.538 216.301 L 63.538 216.301 Q 63.538 217.473 62.709 218.308 L 62.709 218.308 L 62.709 218.308 Q 61.88 219.143 60.696 219.143 L 60.696 219.143 L 60.696 219.143 Q 59.524 219.143 58.689 218.308 L 58.689 218.308 L 58.689 218.308 Q 57.854 217.473 57.854 216.301 L 57.854 216.301 L 57.854 216.301 Q 57.854 215.117 58.689 214.285 L 58.689 214.285 L 58.689 214.285 Q 59.524 213.453 60.696 213.453 Z  M 60.696 213.945 L 60.696 213.945 Q 59.724 213.945 59.035 214.637 L 59.035 214.637 L 59.035 214.637 Q 58.347 215.328 58.347 216.301 L 58.347 216.301 L 58.347 216.301 Q 58.347 217.273 59.035 217.959 L 59.035 217.959 L 59.035 217.959 Q 59.724 218.645 60.696 218.645 L 60.696 218.645 L 60.696 218.645 Q 61.669 218.645 62.357 217.959 L 62.357 217.959 L 62.357 217.959 Q 63.046 217.273 63.046 216.301 L 63.046 216.301 L 63.046 216.301 Q 63.046 215.328 62.357 214.637 L 62.357 214.637 L 62.357 214.637 Q 61.669 213.945 60.696 213.945 L 60.696 213.945 L 60.696 213.945 Z  M 70.013 210.711 L 70.013 218.996 L 69.544 218.996 L 69.544 217.959 L 69.544 217.959 Q 69.409 218.141 69.251 218.305 L 69.251 218.305 L 69.251 218.305 Q 68.419 219.143 67.235 219.143 L 67.235 219.143 L 67.235 219.143 Q 66.063 219.143 65.229 218.308 L 65.229 218.308 L 65.229 218.308 Q 64.394 217.473 64.394 216.301 L 64.394 216.301 L 64.394 216.301 Q 64.394 215.117 65.229 214.285 L 65.229 214.285 L 65.229 214.285 Q 66.063 213.453 67.235 213.453 L 67.235 213.453 L 67.235 213.453 Q 68.419 213.453 69.251 214.285 L 69.251 214.285 L 69.251 214.285 Q 69.409 214.449 69.544 214.631 L 69.544 214.631 L 69.544 210.711 L 70.013 210.711 L 70.013 210.711 Z  M 69.544 216.758 L 69.544 216.758 L 69.544 215.838 L 69.544 215.838 Q 69.415 215.152 68.899 214.637 L 68.899 214.637 L 68.899 214.637 Q 68.208 213.945 67.235 213.945 L 67.235 213.945 L 67.235 213.945 Q 66.263 213.945 65.574 214.637 L 65.574 214.637 L 65.574 214.637 Q 64.886 215.328 64.886 216.301 L 64.886 216.301 L 64.886 216.301 Q 64.886 217.273 65.574 217.959 L 65.574 217.959 L 65.574 217.959 Q 66.263 218.645 67.235 218.645 L 67.235 218.645 L 67.235 218.645 Q 68.208 218.645 68.899 217.953 L 68.899 217.953 L 68.899 217.953 Q 69.415 217.438 69.544 216.758 Z  M 71.437 215.563 L 71.437 215.563 L 75.901 215.563 L 75.901 215.563 Q 75.737 215.029 75.345 214.637 L 75.345 214.637 L 75.345 214.637 Q 74.653 213.945 73.681 213.945 L 73.681 213.945 L 73.681 213.945 Q 72.708 213.945 72.017 214.637 L 72.017 214.637 L 72.017 214.637 Q 71.606 215.053 71.437 215.563 Z  M 76.429 216.037 L 71.349 216.037 L 71.349 216.037 Q 71.331 216.16 71.331 216.301 L 71.331 216.301 L 71.331 216.301 Q 71.331 217.273 72.02 217.959 L 72.02 217.959 L 72.02 217.959 Q 72.708 218.645 73.681 218.645 L 73.681 218.645 L 73.681 218.645 Q 74.653 218.645 75.345 217.953 L 75.345 217.953 L 75.345 217.953 Q 75.462 217.836 75.567 217.707 L 75.567 217.707 L 76.065 217.883 L 76.065 217.883 Q 75.978 218.029 75.696 218.305 L 75.696 218.305 L 75.696 218.305 Q 74.864 219.143 73.681 219.143 L 73.681 219.143 L 73.681 219.143 Q 72.509 219.143 71.674 218.308 L 71.674 218.308 L 71.674 218.308 Q 70.839 217.473 70.839 216.301 L 70.839 216.301 L 70.839 216.301 Q 70.839 215.117 71.674 214.285 L 71.674 214.285 L 71.674 214.285 Q 72.509 213.453 73.681 213.453 L 73.681 213.453 L 73.681 213.453 Q 74.864 213.453 75.696 214.285 L 75.696 214.285 L 75.696 214.285 Q 76.429 215.023 76.429 216.037 L 76.429 216.037 L 76.429 216.037 Z  M 78.761 213.869 L 79.019 214.32 L 79.019 214.32 Q 78.521 214.396 78.04 214.953 L 78.04 214.953 L 78.04 214.953 Q 77.56 215.51 77.56 216.078 L 77.56 216.078 L 77.56 218.996 L 77.091 218.996 L 77.091 213.91 L 77.56 213.91 L 77.56 215.012 L 77.56 215.012 Q 77.853 214.244 78.761 213.869 L 78.761 213.869 L 78.761 213.869 Z " fill-rule="evenodd" fill="rgb(191,191,191)"/><path d=" M 53.911 347.996 L 54.704 347.996 L 54.704 357.662 L 54.157 357.662 L 54.157 348.584 L 50.417 353.485 L 46.671 348.584 L 46.671 357.662 L 46.125 357.662 L 46.125 347.996 L 46.917 347.996 L 50.417 352.576 L 53.911 347.996 L 53.911 347.996 Z  M 59.147 351.195 L 59.147 351.195 L 59.147 351.195 Q 60.528 351.195 61.495 352.166 L 61.495 352.166 L 61.495 352.166 Q 62.462 353.137 62.462 354.518 L 62.462 354.518 L 62.462 354.518 Q 62.462 355.885 61.495 356.859 L 61.495 356.859 L 61.495 356.859 Q 60.528 357.833 59.147 357.833 L 59.147 357.833 L 59.147 357.833 Q 57.78 357.833 56.806 356.859 L 56.806 356.859 L 56.806 356.859 Q 55.832 355.885 55.832 354.518 L 55.832 354.518 L 55.832 354.518 Q 55.832 353.137 56.806 352.166 L 56.806 352.166 L 56.806 352.166 Q 57.78 351.195 59.147 351.195 Z  M 59.147 351.77 L 59.147 351.77 Q 58.012 351.77 57.209 352.576 L 57.209 352.576 L 57.209 352.576 Q 56.406 353.383 56.406 354.518 L 56.406 354.518 L 56.406 354.518 Q 56.406 355.652 57.209 356.452 L 57.209 356.452 L 57.209 356.452 Q 58.012 357.252 59.147 357.252 L 59.147 357.252 L 59.147 357.252 Q 60.282 357.252 61.085 356.452 L 61.085 356.452 L 61.085 356.452 Q 61.888 355.652 61.888 354.518 L 61.888 354.518 L 61.888 354.518 Q 61.888 353.383 61.085 352.576 L 61.085 352.576 L 61.085 352.576 Q 60.282 351.77 59.147 351.77 L 59.147 351.77 L 59.147 351.77 Z  M 70.016 347.996 L 70.016 357.662 L 69.469 357.662 L 69.469 356.452 L 69.469 356.452 Q 69.312 356.664 69.127 356.855 L 69.127 356.855 L 69.127 356.855 Q 68.157 357.833 66.776 357.833 L 66.776 357.833 L 66.776 357.833 Q 65.409 357.833 64.435 356.859 L 64.435 356.859 L 64.435 356.859 Q 63.46 355.885 63.46 354.518 L 63.46 354.518 L 63.46 354.518 Q 63.46 353.137 64.435 352.166 L 64.435 352.166 L 64.435 352.166 Q 65.409 351.195 66.776 351.195 L 66.776 351.195 L 66.776 351.195 Q 68.157 351.195 69.127 352.166 L 69.127 352.166 L 69.127 352.166 Q 69.312 352.357 69.469 352.569 L 69.469 352.569 L 69.469 347.996 L 70.016 347.996 L 70.016 347.996 Z  M 69.469 355.051 L 69.469 355.051 L 69.469 353.978 L 69.469 353.978 Q 69.319 353.178 68.717 352.576 L 68.717 352.576 L 68.717 352.576 Q 67.911 351.77 66.776 351.77 L 66.776 351.77 L 66.776 351.77 Q 65.641 351.77 64.838 352.576 L 64.838 352.576 L 64.838 352.576 Q 64.035 353.383 64.035 354.518 L 64.035 354.518 L 64.035 354.518 Q 64.035 355.652 64.838 356.452 L 64.838 356.452 L 64.838 356.452 Q 65.641 357.252 66.776 357.252 L 66.776 357.252 L 66.776 357.252 Q 67.911 357.252 68.717 356.445 L 68.717 356.445 L 68.717 356.445 Q 69.319 355.844 69.469 355.051 Z  M 73.667 357.744 L 73.667 357.744 L 73.667 357.744 Q 72.552 357.744 71.896 357.088 L 71.896 357.088 L 71.896 357.088 Q 71.24 356.432 71.219 355.427 L 71.219 355.427 L 71.219 351.722 L 71.766 351.722 L 71.766 355.379 L 71.766 355.379 Q 71.766 356.131 72.313 356.664 L 72.313 356.664 L 72.313 356.664 Q 72.853 357.204 73.66 357.204 L 73.66 357.204 L 73.66 357.204 Q 74.412 357.204 74.955 356.667 L 74.955 356.667 L 74.955 356.667 Q 75.499 356.131 75.499 355.379 L 75.499 355.379 L 75.499 351.722 L 76.045 351.722 L 76.045 355.427 L 76.045 355.427 Q 76.025 356.432 75.369 357.088 L 75.369 357.088 L 75.369 357.088 Q 74.712 357.744 73.667 357.744 Z  M 77.392 347.996 L 77.939 347.996 L 77.939 357.662 L 77.392 357.662 L 77.392 347.996 L 77.392 347.996 Z  M 79.744 353.656 L 79.744 353.656 L 84.953 353.656 L 84.953 353.656 Q 84.761 353.034 84.303 352.576 L 84.303 352.576 L 84.303 352.576 Q 83.497 351.77 82.362 351.77 L 82.362 351.77 L 82.362 351.77 Q 81.227 351.77 80.42 352.576 L 80.42 352.576 L 80.42 352.576 Q 79.942 353.062 79.744 353.656 Z  M 85.568 354.21 L 79.641 354.21 L 79.641 354.21 Q 79.621 354.354 79.621 354.518 L 79.621 354.518 L 79.621 354.518 Q 79.621 355.652 80.424 356.452 L 80.424 356.452 L 80.424 356.452 Q 81.227 357.252 82.362 357.252 L 82.362 357.252 L 82.362 357.252 Q 83.497 357.252 84.303 356.445 L 84.303 356.445 L 84.303 356.445 Q 84.44 356.309 84.563 356.158 L 84.563 356.158 L 85.144 356.363 L 85.144 356.363 Q 85.042 356.534 84.713 356.855 L 84.713 356.855 L 84.713 356.855 Q 83.743 357.833 82.362 357.833 L 82.362 357.833 L 82.362 357.833 Q 80.995 357.833 80.021 356.859 L 80.021 356.859 L 80.021 356.859 Q 79.046 355.885 79.046 354.518 L 79.046 354.518 L 79.046 354.518 Q 79.046 353.137 80.021 352.166 L 80.021 352.166 L 80.021 352.166 Q 80.995 351.195 82.362 351.195 L 82.362 351.195 L 82.362 351.195 Q 83.743 351.195 84.713 352.166 L 84.713 352.166 L 84.713 352.166 Q 85.568 353.027 85.568 354.21 L 85.568 354.21 L 85.568 354.21 Z  M 88.029 354.477 L 88.029 354.477 L 88.029 354.477 Q 87.338 354.101 87.072 353.834 L 87.072 353.834 L 87.072 353.834 Q 86.655 353.417 86.655 352.829 L 86.655 352.829 L 86.655 352.829 Q 86.655 352.241 87.072 351.821 L 87.072 351.821 L 87.072 351.821 Q 87.489 351.4 88.077 351.4 L 88.077 351.4 L 88.077 351.4 Q 88.665 351.4 89.054 351.79 L 89.054 351.79 L 89.054 351.79 Q 89.43 352.166 89.43 352.651 L 89.43 352.651 L 89.43 352.679 L 88.958 352.87 L 88.958 352.87 Q 88.897 352.412 88.671 352.18 L 88.671 352.18 L 88.671 352.18 Q 88.446 351.947 88.077 351.947 L 88.077 351.947 L 88.077 351.947 Q 87.714 351.947 87.455 352.207 L 87.455 352.207 L 87.455 352.207 Q 87.195 352.467 87.195 352.829 L 87.195 352.829 L 87.195 352.829 Q 87.195 353.191 87.455 353.451 L 87.455 353.451 L 87.455 353.451 Q 87.605 353.608 88.09 353.916 L 88.09 353.916 L 88.09 353.916 Q 88.863 354.333 89.191 354.661 L 89.191 354.661 L 89.191 354.661 Q 89.704 355.181 89.704 355.898 L 89.704 355.898 L 89.704 355.898 Q 89.704 356.637 89.191 357.153 L 89.191 357.153 L 89.191 357.153 Q 88.678 357.669 87.947 357.669 L 87.947 357.669 L 87.947 357.669 Q 87.215 357.669 86.703 357.153 L 86.703 357.153 L 86.703 357.153 Q 86.19 356.637 86.19 356.021 L 86.19 356.021 L 86.73 355.885 L 86.73 355.885 Q 86.73 356.411 87.089 356.77 L 87.089 356.77 L 87.089 356.77 Q 87.448 357.129 87.947 357.129 L 87.947 357.129 L 87.947 357.129 Q 88.446 357.129 88.808 356.77 L 88.808 356.77 L 88.808 356.77 Q 89.17 356.411 89.17 355.898 L 89.17 355.898 L 89.17 355.898 Q 89.17 355.399 88.808 355.044 L 88.808 355.044 L 88.808 355.044 Q 88.617 354.853 88.029 354.477 Z  M 34.845 351.729 L 34.845 357.662 L 34.298 357.662 L 34.298 356.452 L 34.298 356.452 Q 34.141 356.664 33.957 356.855 L 33.957 356.855 L 33.957 356.855 Q 32.986 357.833 31.605 357.833 L 31.605 357.833 L 31.605 357.833 Q 30.238 357.833 29.264 356.859 L 29.264 356.859 L 29.264 356.859 Q 28.29 355.885 28.29 354.518 L 28.29 354.518 L 28.29 354.518 Q 28.29 353.137 29.264 352.166 L 29.264 352.166 L 29.264 352.166 Q 30.238 351.195 31.605 351.195 L 31.605 351.195 L 31.605 351.195 Q 32.986 351.195 33.957 352.166 L 33.957 352.166 L 33.957 352.166 Q 34.141 352.357 34.298 352.569 L 34.298 352.569 L 34.298 351.729 L 34.845 351.729 L 34.845 351.729 Z  M 34.298 355.051 L 34.298 355.051 L 34.298 353.978 L 34.298 353.978 Q 34.148 353.178 33.546 352.576 L 33.546 352.576 L 33.546 352.576 Q 32.74 351.77 31.605 351.77 L 31.605 351.77 L 31.605 351.77 Q 30.47 351.77 29.667 352.576 L 29.667 352.576 L 29.667 352.576 Q 28.864 353.383 28.864 354.518 L 28.864 354.518 L 28.864 354.518 Q 28.864 355.652 29.667 356.452 L 29.667 356.452 L 29.667 356.452 Q 30.47 357.252 31.605 357.252 L 31.605 357.252 L 31.605 357.252 Q 32.74 357.252 33.546 356.445 L 33.546 356.445 L 33.546 356.445 Q 34.148 355.844 34.298 355.051 Z  M 38.407 354.313 L 36.766 354.313 L 36.766 357.662 L 36.219 357.662 L 36.219 347.996 L 38.755 347.996 L 38.755 347.996 Q 39.863 348.146 40.635 348.919 L 40.635 348.919 L 40.635 348.919 Q 41.558 349.849 41.558 351.147 L 41.558 351.147 L 41.558 351.147 Q 41.558 352.46 40.635 353.386 L 40.635 353.386 L 40.635 353.386 Q 39.712 354.313 38.407 354.313 L 38.407 354.313 L 38.407 354.313 Z  M 38.407 348.55 L 36.766 348.55 L 36.766 353.759 L 38.407 353.759 L 38.407 353.759 Q 39.48 353.759 40.246 352.997 L 40.246 352.997 L 40.246 352.997 Q 41.011 352.234 41.011 351.147 L 41.011 351.147 L 41.011 351.147 Q 41.011 350.067 40.246 349.309 L 40.246 349.309 L 40.246 349.309 Q 39.48 348.55 38.407 348.55 L 38.407 348.55 L 38.407 348.55 Z " fill-rule="evenodd" fill="rgb(191,191,191)"/><path d=" M 25.474 147.233 L 26.606 147.233 L 26.606 161.041 L 25.825 161.041 L 25.825 148.073 L 20.483 155.074 L 15.132 148.073 L 15.132 161.041 L 14.351 161.041 L 14.351 147.233 L 15.483 147.233 L 20.483 153.776 L 25.474 147.233 L 25.474 147.233 Z  M 28.677 152.565 L 29.448 152.565 L 29.448 161.041 L 28.677 161.041 L 28.677 152.565 L 28.677 152.565 Z  M 29.067 149.567 L 29.067 149.567 Q 29.38 149.567 29.609 149.791 L 29.609 149.791 L 29.609 149.791 Q 29.839 150.016 29.839 150.328 L 29.839 150.328 L 29.839 150.328 Q 29.839 150.66 29.609 150.885 L 29.609 150.885 L 29.609 150.885 Q 29.38 151.11 29.067 151.11 L 29.067 151.11 L 29.067 151.11 Q 28.745 151.11 28.516 150.885 L 28.516 150.885 L 28.516 150.885 Q 28.286 150.66 28.286 150.328 L 28.286 150.328 L 28.286 150.328 Q 28.286 150.016 28.516 149.791 L 28.516 149.791 L 28.516 149.791 Q 28.745 149.567 29.067 149.567 L 29.067 149.567 L 29.067 149.567 Z  M 40.698 147.233 L 40.698 161.041 L 39.917 161.041 L 39.917 159.313 L 39.917 159.313 Q 39.692 159.616 39.429 159.889 L 39.429 159.889 L 39.429 159.889 Q 38.042 161.285 36.069 161.285 L 36.069 161.285 L 36.069 161.285 Q 34.116 161.285 32.725 159.894 L 32.725 159.894 L 32.725 159.894 Q 31.333 158.502 31.333 156.549 L 31.333 156.549 L 31.333 156.549 Q 31.333 154.576 32.725 153.19 L 32.725 153.19 L 32.725 153.19 Q 34.116 151.803 36.069 151.803 L 36.069 151.803 L 36.069 151.803 Q 38.042 151.803 39.429 153.19 L 39.429 153.19 L 39.429 153.19 Q 39.692 153.463 39.917 153.766 L 39.917 153.766 L 39.917 147.233 L 40.698 147.233 L 40.698 147.233 Z  M 39.917 157.311 L 39.917 157.311 L 39.917 155.778 L 39.917 155.778 Q 39.702 154.635 38.843 153.776 L 38.843 153.776 L 38.843 153.776 Q 37.69 152.623 36.069 152.623 L 36.069 152.623 L 36.069 152.623 Q 34.448 152.623 33.301 153.776 L 33.301 153.776 L 33.301 153.776 Q 32.153 154.928 32.153 156.549 L 32.153 156.549 L 32.153 156.549 Q 32.153 158.17 33.301 159.313 L 33.301 159.313 L 33.301 159.313 Q 34.448 160.455 36.069 160.455 L 36.069 160.455 L 36.069 160.455 Q 37.69 160.455 38.843 159.303 L 38.843 159.303 L 38.843 159.303 Q 39.702 158.444 39.917 157.311 Z " fill-rule="evenodd" fill="rgb(191,191,191)"/><path d=" M 78.62 153.395 L 78.62 153.395 L 78.62 153.395 Q 77.146 152.907 76.291 152.052 L 76.291 152.052 L 76.291 152.052 Q 75.437 151.198 75.437 149.977 L 75.437 149.977 L 75.437 149.977 Q 75.437 148.785 76.291 147.926 L 76.291 147.926 L 76.291 147.926 Q 77.146 147.067 78.366 147.067 L 78.366 147.067 L 78.366 147.067 Q 79.567 147.067 80.437 147.926 L 80.437 147.926 L 80.437 147.926 Q 80.905 148.385 81.091 148.951 L 81.091 148.951 L 80.388 149.225 L 80.388 149.225 Q 80.231 148.805 79.88 148.453 L 79.88 148.453 L 79.88 148.453 Q 79.255 147.828 78.366 147.828 L 78.366 147.828 L 78.366 147.828 Q 77.478 147.828 76.848 148.453 L 76.848 148.453 L 76.848 148.453 Q 76.218 149.078 76.218 149.977 L 76.218 149.977 L 76.218 149.977 Q 76.218 150.866 76.843 151.5 L 76.843 151.5 L 76.843 151.5 Q 77.429 152.076 78.464 152.555 L 78.464 152.555 L 78.464 152.555 Q 80.124 153.092 81.257 154.225 L 81.257 154.225 L 81.257 154.225 Q 82.448 155.416 82.448 157.106 L 82.448 157.106 L 82.448 157.106 Q 82.448 158.805 81.252 160.006 L 81.252 160.006 L 81.252 160.006 Q 80.056 161.207 78.366 161.207 L 78.366 161.207 L 78.366 161.207 Q 76.667 161.207 75.476 159.996 L 75.476 159.996 L 75.476 159.996 Q 74.509 159.039 74.323 157.77 L 74.323 157.77 L 75.056 157.506 L 75.056 157.506 Q 75.173 158.629 76.013 159.459 L 76.013 159.459 L 76.013 159.459 Q 76.989 160.436 78.366 160.436 L 78.366 160.436 L 78.366 160.436 Q 79.743 160.436 80.72 159.459 L 80.72 159.459 L 80.72 159.459 Q 81.696 158.483 81.696 157.106 L 81.696 157.106 L 81.696 157.106 Q 81.696 155.739 80.72 154.762 L 80.72 154.762 L 80.72 154.762 Q 79.86 153.903 78.62 153.395 Z  M 84.147 152.565 L 84.919 152.565 L 84.919 161.041 L 84.147 161.041 L 84.147 152.565 L 84.147 152.565 Z  M 84.538 149.567 L 84.538 149.567 Q 84.851 149.567 85.08 149.791 L 85.08 149.791 L 85.08 149.791 Q 85.31 150.016 85.31 150.328 L 85.31 150.328 L 85.31 150.328 Q 85.31 150.66 85.08 150.885 L 85.08 150.885 L 85.08 150.885 Q 84.851 151.11 84.538 151.11 L 84.538 151.11 L 84.538 151.11 Q 84.216 151.11 83.986 150.885 L 83.986 150.885 L 83.986 150.885 Q 83.757 150.66 83.757 150.328 L 83.757 150.328 L 83.757 150.328 Q 83.757 150.016 83.986 149.791 L 83.986 149.791 L 83.986 149.791 Q 84.216 149.567 84.538 149.567 L 84.538 149.567 L 84.538 149.567 Z  M 96.169 147.233 L 96.169 161.041 L 95.388 161.041 L 95.388 159.313 L 95.388 159.313 Q 95.163 159.616 94.899 159.889 L 94.899 159.889 L 94.899 159.889 Q 93.513 161.285 91.54 161.285 L 91.54 161.285 L 91.54 161.285 Q 89.587 161.285 88.195 159.894 L 88.195 159.894 L 88.195 159.894 Q 86.804 158.502 86.804 156.549 L 86.804 156.549 L 86.804 156.549 Q 86.804 154.576 88.195 153.19 L 88.195 153.19 L 88.195 153.19 Q 89.587 151.803 91.54 151.803 L 91.54 151.803 L 91.54 151.803 Q 93.513 151.803 94.899 153.19 L 94.899 153.19 L 94.899 153.19 Q 95.163 153.463 95.388 153.766 L 95.388 153.766 L 95.388 147.233 L 96.169 147.233 L 96.169 147.233 Z  M 95.388 157.311 L 95.388 157.311 L 95.388 155.778 L 95.388 155.778 Q 95.173 154.635 94.313 153.776 L 94.313 153.776 L 94.313 153.776 Q 93.161 152.623 91.54 152.623 L 91.54 152.623 L 91.54 152.623 Q 89.919 152.623 88.771 153.776 L 88.771 153.776 L 88.771 153.776 Q 87.624 154.928 87.624 156.549 L 87.624 156.549 L 87.624 156.549 Q 87.624 158.17 88.771 159.313 L 88.771 159.313 L 88.771 159.313 Q 89.919 160.455 91.54 160.455 L 91.54 160.455 L 91.54 160.455 Q 93.161 160.455 94.313 159.303 L 94.313 159.303 L 94.313 159.303 Q 95.173 158.444 95.388 157.311 Z  M 98.542 155.319 L 98.542 155.319 L 105.983 155.319 L 105.983 155.319 Q 105.71 154.43 105.056 153.776 L 105.056 153.776 L 105.056 153.776 Q 103.903 152.623 102.282 152.623 L 102.282 152.623 L 102.282 152.623 Q 100.661 152.623 99.509 153.776 L 99.509 153.776 L 99.509 153.776 Q 98.825 154.469 98.542 155.319 Z  M 106.862 156.11 L 98.396 156.11 L 98.396 156.11 Q 98.366 156.315 98.366 156.549 L 98.366 156.549 L 98.366 156.549 Q 98.366 158.17 99.514 159.313 L 99.514 159.313 L 99.514 159.313 Q 100.661 160.455 102.282 160.455 L 102.282 160.455 L 102.282 160.455 Q 103.903 160.455 105.056 159.303 L 105.056 159.303 L 105.056 159.303 Q 105.251 159.108 105.427 158.893 L 105.427 158.893 L 106.257 159.186 L 106.257 159.186 Q 106.11 159.43 105.642 159.889 L 105.642 159.889 L 105.642 159.889 Q 104.255 161.285 102.282 161.285 L 102.282 161.285 L 102.282 161.285 Q 100.329 161.285 98.938 159.894 L 98.938 159.894 L 98.938 159.894 Q 97.546 158.502 97.546 156.549 L 97.546 156.549 L 97.546 156.549 Q 97.546 154.576 98.938 153.19 L 98.938 153.19 L 98.938 153.19 Q 100.329 151.803 102.282 151.803 L 102.282 151.803 L 102.282 151.803 Q 104.255 151.803 105.642 153.19 L 105.642 153.19 L 105.642 153.19 Q 106.862 154.42 106.862 156.11 L 106.862 156.11 L 106.862 156.11 Z " fill-rule="evenodd" fill="rgb(191,191,191)"/><path d=" M 21.431 103.768 L 15.386 103.768 L 15.386 89.959 L 16.167 89.959 L 16.167 102.986 L 21.431 102.986 L 21.431 103.768 L 21.431 103.768 Z  M 23.442 98.045 L 23.442 98.045 L 30.884 98.045 L 30.884 98.045 Q 30.61 97.156 29.956 96.502 L 29.956 96.502 L 29.956 96.502 Q 28.804 95.35 27.183 95.35 L 27.183 95.35 L 27.183 95.35 Q 25.562 95.35 24.409 96.502 L 24.409 96.502 L 24.409 96.502 Q 23.726 97.195 23.442 98.045 Z  M 31.763 98.836 L 23.296 98.836 L 23.296 98.836 Q 23.267 99.041 23.267 99.275 L 23.267 99.275 L 23.267 99.275 Q 23.267 100.896 24.414 102.039 L 24.414 102.039 L 24.414 102.039 Q 25.562 103.182 27.183 103.182 L 27.183 103.182 L 27.183 103.182 Q 28.804 103.182 29.956 102.029 L 29.956 102.029 L 29.956 102.029 Q 30.151 101.834 30.327 101.619 L 30.327 101.619 L 31.157 101.912 L 31.157 101.912 Q 31.011 102.156 30.542 102.615 L 30.542 102.615 L 30.542 102.615 Q 29.155 104.012 27.183 104.012 L 27.183 104.012 L 27.183 104.012 Q 25.229 104.012 23.838 102.62 L 23.838 102.62 L 23.838 102.62 Q 22.446 101.229 22.446 99.275 L 22.446 99.275 L 22.446 99.275 Q 22.446 97.303 23.838 95.916 L 23.838 95.916 L 23.838 95.916 Q 25.229 94.529 27.183 94.529 L 27.183 94.529 L 27.183 94.529 Q 29.155 94.529 30.542 95.916 L 30.542 95.916 L 30.542 95.916 Q 31.763 97.146 31.763 98.836 L 31.763 98.836 L 31.763 98.836 Z  M 35.698 96.072 L 33.97 96.072 L 33.97 103.768 L 33.188 103.768 L 33.188 96.072 L 32.329 96.072 L 32.329 95.291 L 33.188 95.291 L 33.188 92.996 L 33.188 92.996 Q 33.247 92.039 33.921 91.346 L 33.921 91.346 L 33.921 91.346 Q 34.634 90.691 35.552 90.691 L 35.552 90.691 L 35.552 90.691 Q 36.04 90.691 36.577 90.877 L 36.577 90.877 L 36.333 91.57 L 36.333 91.57 Q 35.972 91.414 35.63 91.414 L 35.63 91.414 L 35.63 91.414 Q 35.024 91.414 34.478 91.902 L 34.478 91.902 L 34.478 91.902 Q 33.999 92.381 33.97 93.055 L 33.97 93.055 L 33.97 95.291 L 35.698 95.291 L 35.698 96.072 L 35.698 96.072 Z  M 36.167 95.291 L 37.896 95.291 L 37.896 91.688 L 38.667 91.688 L 38.667 95.291 L 40.396 95.291 L 40.396 96.072 L 38.667 96.072 L 38.667 103.768 L 37.896 103.768 L 37.896 96.072 L 36.167 96.072 L 36.167 95.291 L 36.167 95.291 Z " fill-rule="evenodd" fill="rgb(191,191,191)"/><path d=" M 76.579 90.75 L 74.235 90.75 L 74.235 98.191 L 76.579 98.191 L 76.579 98.191 Q 78.112 98.191 79.206 97.103 L 79.206 97.103 L 79.206 97.103 Q 80.3 96.014 80.3 94.461 L 80.3 94.461 L 80.3 94.461 Q 80.3 92.918 79.206 91.834 L 79.206 91.834 L 79.206 91.834 Q 78.112 90.75 76.579 90.75 L 76.579 90.75 L 76.579 90.75 Z  M 79.89 103.768 L 76.813 98.982 L 74.235 98.982 L 74.235 103.768 L 73.454 103.768 L 73.454 89.959 L 77.077 89.959 L 77.077 89.959 Q 78.659 90.174 79.763 91.277 L 79.763 91.277 L 79.763 91.277 Q 81.081 92.605 81.081 94.461 L 81.081 94.461 L 81.081 94.461 Q 81.081 96.336 79.763 97.654 L 79.763 97.654 L 79.763 97.654 Q 78.845 98.572 77.663 98.855 L 77.663 98.855 L 80.847 103.768 L 79.89 103.768 L 79.89 103.768 Z  M 82.888 95.291 L 83.659 95.291 L 83.659 103.768 L 82.888 103.768 L 82.888 95.291 L 82.888 95.291 Z  M 83.278 92.293 L 83.278 92.293 Q 83.591 92.293 83.82 92.518 L 83.82 92.518 L 83.82 92.518 Q 84.05 92.742 84.05 93.055 L 84.05 93.055 L 84.05 93.055 Q 84.05 93.387 83.82 93.611 L 83.82 93.611 L 83.82 93.611 Q 83.591 93.836 83.278 93.836 L 83.278 93.836 L 83.278 93.836 Q 82.956 93.836 82.727 93.611 L 82.727 93.611 L 82.727 93.611 Q 82.497 93.387 82.497 93.055 L 82.497 93.055 L 82.497 93.055 Q 82.497 92.742 82.727 92.518 L 82.727 92.518 L 82.727 92.518 Q 82.956 92.293 83.278 92.293 L 83.278 92.293 L 83.278 92.293 Z  M 93.903 100.096 L 93.903 98.465 L 93.903 98.465 Q 93.679 97.352 92.839 96.502 L 92.839 96.502 L 92.839 96.502 Q 91.687 95.35 90.065 95.35 L 90.065 95.35 L 90.065 95.35 Q 88.444 95.35 87.297 96.502 L 87.297 96.502 L 87.297 96.502 Q 86.149 97.654 86.149 99.275 L 86.149 99.275 L 86.149 99.275 Q 86.149 100.896 87.297 102.044 L 87.297 102.044 L 87.297 102.044 Q 88.444 103.191 90.065 103.191 L 90.065 103.191 L 90.065 103.191 Q 91.687 103.191 92.839 102.039 L 92.839 102.039 L 92.839 102.039 Q 93.669 101.209 93.903 100.096 L 93.903 100.096 L 93.903 100.096 Z  M 93.894 102.088 L 93.894 102.088 L 93.894 102.088 Q 93.669 102.361 93.425 102.615 L 93.425 102.615 L 93.425 102.615 Q 92.038 104.012 90.065 104.012 L 90.065 104.012 L 90.065 104.012 Q 88.112 104.012 86.721 102.62 L 86.721 102.62 L 86.721 102.62 Q 85.329 101.229 85.329 99.275 L 85.329 99.275 L 85.329 99.275 Q 85.329 97.303 86.721 95.921 L 86.721 95.921 L 86.721 95.921 Q 88.112 94.539 90.065 94.539 L 90.065 94.539 L 90.065 94.539 Q 92.038 94.539 93.425 95.916 L 93.425 95.916 L 93.425 95.916 Q 93.688 96.189 93.913 96.492 L 93.913 96.492 L 93.913 95.291 L 94.694 95.291 L 94.694 101.873 L 94.694 101.873 Q 94.694 103.787 93.337 105.135 L 93.337 105.135 L 93.337 105.135 Q 91.95 106.531 89.987 106.531 L 89.987 106.531 L 89.987 106.531 Q 88.024 106.531 86.628 105.135 L 86.628 105.135 L 86.628 105.135 Q 86.345 104.852 86.12 104.549 L 86.12 104.549 L 86.94 104.246 L 86.94 104.246 Q 87.067 104.402 87.224 104.549 L 87.224 104.549 L 87.224 104.549 Q 88.366 105.701 89.987 105.701 L 89.987 105.701 L 89.987 105.701 Q 91.599 105.701 92.751 104.549 L 92.751 104.549 L 92.751 104.549 Q 93.796 103.504 93.894 102.088 Z  M 96.315 103.768 L 96.315 89.959 L 97.097 89.959 L 97.097 95.73 L 97.097 95.73 Q 98.073 94.783 99.46 94.783 L 99.46 94.783 L 99.46 94.783 Q 100.954 94.783 101.896 95.726 L 101.896 95.726 L 101.896 95.726 Q 102.839 96.668 102.868 98.094 L 102.868 98.094 L 102.868 103.768 L 102.087 103.768 L 102.087 98.172 L 102.087 98.172 Q 102.087 97.088 101.306 96.326 L 101.306 96.326 L 101.306 96.326 Q 100.524 95.564 99.46 95.564 L 99.46 95.564 L 99.46 95.564 Q 98.386 95.564 97.614 96.316 L 97.614 96.316 L 97.614 96.316 Q 97.263 96.658 97.097 97.029 L 97.097 97.029 L 97.097 103.768 L 96.315 103.768 L 96.315 103.768 Z  M 104.099 95.291 L 105.827 95.291 L 105.827 91.688 L 106.599 91.688 L 106.599 95.291 L 108.327 95.291 L 108.327 96.072 L 106.599 96.072 L 106.599 103.768 L 105.827 103.768 L 105.827 96.072 L 104.099 96.072 L 104.099 95.291 L 104.099 95.291 Z " fill-rule="evenodd" fill="rgb(191,191,191)"/><path d=" M 25.474 226.506 L 26.606 226.506 L 26.606 240.315 L 25.825 240.315 L 25.825 227.346 L 20.483 234.348 L 15.132 227.346 L 15.132 240.315 L 14.351 240.315 L 14.351 226.506 L 15.483 226.506 L 20.483 233.049 L 25.474 226.506 L 25.474 226.506 Z  M 28.677 231.838 L 29.448 231.838 L 29.448 240.315 L 28.677 240.315 L 28.677 231.838 L 28.677 231.838 Z  M 29.067 228.84 L 29.067 228.84 Q 29.38 228.84 29.609 229.065 L 29.609 229.065 L 29.609 229.065 Q 29.839 229.29 29.839 229.602 L 29.839 229.602 L 29.839 229.602 Q 29.839 229.934 29.609 230.159 L 29.609 230.159 L 29.609 230.159 Q 29.38 230.383 29.067 230.383 L 29.067 230.383 L 29.067 230.383 Q 28.745 230.383 28.516 230.159 L 28.516 230.159 L 28.516 230.159 Q 28.286 229.934 28.286 229.602 L 28.286 229.602 L 28.286 229.602 Q 28.286 229.29 28.516 229.065 L 28.516 229.065 L 28.516 229.065 Q 28.745 228.84 29.067 228.84 L 29.067 228.84 L 29.067 228.84 Z  M 40.698 226.506 L 40.698 240.315 L 39.917 240.315 L 39.917 238.586 L 39.917 238.586 Q 39.692 238.889 39.429 239.163 L 39.429 239.163 L 39.429 239.163 Q 38.042 240.559 36.069 240.559 L 36.069 240.559 L 36.069 240.559 Q 34.116 240.559 32.725 239.168 L 32.725 239.168 L 32.725 239.168 Q 31.333 237.776 31.333 235.823 L 31.333 235.823 L 31.333 235.823 Q 31.333 233.85 32.725 232.463 L 32.725 232.463 L 32.725 232.463 Q 34.116 231.077 36.069 231.077 L 36.069 231.077 L 36.069 231.077 Q 38.042 231.077 39.429 232.463 L 39.429 232.463 L 39.429 232.463 Q 39.692 232.737 39.917 233.04 L 39.917 233.04 L 39.917 226.506 L 40.698 226.506 L 40.698 226.506 Z  M 39.917 236.585 L 39.917 236.585 L 39.917 235.051 L 39.917 235.051 Q 39.702 233.909 38.843 233.049 L 38.843 233.049 L 38.843 233.049 Q 37.69 231.897 36.069 231.897 L 36.069 231.897 L 36.069 231.897 Q 34.448 231.897 33.301 233.049 L 33.301 233.049 L 33.301 233.049 Q 32.153 234.202 32.153 235.823 L 32.153 235.823 L 32.153 235.823 Q 32.153 237.444 33.301 238.586 L 33.301 238.586 L 33.301 238.586 Q 34.448 239.729 36.069 239.729 L 36.069 239.729 L 36.069 239.729 Q 37.69 239.729 38.843 238.577 L 38.843 238.577 L 38.843 238.577 Q 39.702 237.717 39.917 236.585 Z " fill-rule="evenodd" fill="rgb(191,191,191)"/><path d=" M 78.62 232.669 L 78.62 232.669 L 78.62 232.669 Q 77.146 232.18 76.291 231.326 L 76.291 231.326 L 76.291 231.326 Q 75.437 230.471 75.437 229.251 L 75.437 229.251 L 75.437 229.251 Q 75.437 228.059 76.291 227.2 L 76.291 227.2 L 76.291 227.2 Q 77.146 226.34 78.366 226.34 L 78.366 226.34 L 78.366 226.34 Q 79.567 226.34 80.437 227.2 L 80.437 227.2 L 80.437 227.2 Q 80.905 227.659 81.091 228.225 L 81.091 228.225 L 80.388 228.499 L 80.388 228.499 Q 80.231 228.079 79.88 227.727 L 79.88 227.727 L 79.88 227.727 Q 79.255 227.102 78.366 227.102 L 78.366 227.102 L 78.366 227.102 Q 77.478 227.102 76.848 227.727 L 76.848 227.727 L 76.848 227.727 Q 76.218 228.352 76.218 229.251 L 76.218 229.251 L 76.218 229.251 Q 76.218 230.139 76.843 230.774 L 76.843 230.774 L 76.843 230.774 Q 77.429 231.35 78.464 231.829 L 78.464 231.829 L 78.464 231.829 Q 80.124 232.366 81.257 233.499 L 81.257 233.499 L 81.257 233.499 Q 82.448 234.69 82.448 236.379 L 82.448 236.379 L 82.448 236.379 Q 82.448 238.079 81.252 239.28 L 81.252 239.28 L 81.252 239.28 Q 80.056 240.481 78.366 240.481 L 78.366 240.481 L 78.366 240.481 Q 76.667 240.481 75.476 239.27 L 75.476 239.27 L 75.476 239.27 Q 74.509 238.313 74.323 237.044 L 74.323 237.044 L 75.056 236.78 L 75.056 236.78 Q 75.173 237.903 76.013 238.733 L 76.013 238.733 L 76.013 238.733 Q 76.989 239.71 78.366 239.71 L 78.366 239.71 L 78.366 239.71 Q 79.743 239.71 80.72 238.733 L 80.72 238.733 L 80.72 238.733 Q 81.696 237.756 81.696 236.379 L 81.696 236.379 L 81.696 236.379 Q 81.696 235.012 80.72 234.036 L 80.72 234.036 L 80.72 234.036 Q 79.86 233.176 78.62 232.669 Z  M 84.147 231.838 L 84.919 231.838 L 84.919 240.315 L 84.147 240.315 L 84.147 231.838 L 84.147 231.838 Z  M 84.538 228.84 L 84.538 228.84 Q 84.851 228.84 85.08 229.065 L 85.08 229.065 L 85.08 229.065 Q 85.31 229.29 85.31 229.602 L 85.31 229.602 L 85.31 229.602 Q 85.31 229.934 85.08 230.159 L 85.08 230.159 L 85.08 230.159 Q 84.851 230.383 84.538 230.383 L 84.538 230.383 L 84.538 230.383 Q 84.216 230.383 83.986 230.159 L 83.986 230.159 L 83.986 230.159 Q 83.757 229.934 83.757 229.602 L 83.757 229.602 L 83.757 229.602 Q 83.757 229.29 83.986 229.065 L 83.986 229.065 L 83.986 229.065 Q 84.216 228.84 84.538 228.84 L 84.538 228.84 L 84.538 228.84 Z  M 96.169 226.506 L 96.169 240.315 L 95.388 240.315 L 95.388 238.586 L 95.388 238.586 Q 95.163 238.889 94.899 239.163 L 94.899 239.163 L 94.899 239.163 Q 93.513 240.559 91.54 240.559 L 91.54 240.559 L 91.54 240.559 Q 89.587 240.559 88.195 239.168 L 88.195 239.168 L 88.195 239.168 Q 86.804 237.776 86.804 235.823 L 86.804 235.823 L 86.804 235.823 Q 86.804 233.85 88.195 232.463 L 88.195 232.463 L 88.195 232.463 Q 89.587 231.077 91.54 231.077 L 91.54 231.077 L 91.54 231.077 Q 93.513 231.077 94.899 232.463 L 94.899 232.463 L 94.899 232.463 Q 95.163 232.737 95.388 233.04 L 95.388 233.04 L 95.388 226.506 L 96.169 226.506 L 96.169 226.506 Z  M 95.388 236.585 L 95.388 236.585 L 95.388 235.051 L 95.388 235.051 Q 95.173 233.909 94.313 233.049 L 94.313 233.049 L 94.313 233.049 Q 93.161 231.897 91.54 231.897 L 91.54 231.897 L 91.54 231.897 Q 89.919 231.897 88.771 233.049 L 88.771 233.049 L 88.771 233.049 Q 87.624 234.202 87.624 235.823 L 87.624 235.823 L 87.624 235.823 Q 87.624 237.444 88.771 238.586 L 88.771 238.586 L 88.771 238.586 Q 89.919 239.729 91.54 239.729 L 91.54 239.729 L 91.54 239.729 Q 93.161 239.729 94.313 238.577 L 94.313 238.577 L 94.313 238.577 Q 95.173 237.717 95.388 236.585 Z  M 98.542 234.592 L 98.542 234.592 L 105.983 234.592 L 105.983 234.592 Q 105.71 233.704 105.056 233.049 L 105.056 233.049 L 105.056 233.049 Q 103.903 231.897 102.282 231.897 L 102.282 231.897 L 102.282 231.897 Q 100.661 231.897 99.509 233.049 L 99.509 233.049 L 99.509 233.049 Q 98.825 233.743 98.542 234.592 Z  M 106.862 235.383 L 98.396 235.383 L 98.396 235.383 Q 98.366 235.588 98.366 235.823 L 98.366 235.823 L 98.366 235.823 Q 98.366 237.444 99.514 238.586 L 99.514 238.586 L 99.514 238.586 Q 100.661 239.729 102.282 239.729 L 102.282 239.729 L 102.282 239.729 Q 103.903 239.729 105.056 238.577 L 105.056 238.577 L 105.056 238.577 Q 105.251 238.381 105.427 238.167 L 105.427 238.167 L 106.257 238.46 L 106.257 238.46 Q 106.11 238.704 105.642 239.163 L 105.642 239.163 L 105.642 239.163 Q 104.255 240.559 102.282 240.559 L 102.282 240.559 L 102.282 240.559 Q 100.329 240.559 98.938 239.168 L 98.938 239.168 L 98.938 239.168 Q 97.546 237.776 97.546 235.823 L 97.546 235.823 L 97.546 235.823 Q 97.546 233.85 98.938 232.463 L 98.938 232.463 L 98.938 232.463 Q 100.329 231.077 102.282 231.077 L 102.282 231.077 L 102.282 231.077 Q 104.255 231.077 105.642 232.463 L 105.642 232.463 L 105.642 232.463 Q 106.862 233.694 106.862 235.383 L 106.862 235.383 L 106.862 235.383 Z " fill-rule="evenodd" fill="rgb(191,191,191)"/><path d=" M 21.431 297.589 L 15.386 297.589 L 15.386 283.78 L 16.167 283.78 L 16.167 296.807 L 21.431 296.807 L 21.431 297.589 L 21.431 297.589 Z  M 23.442 291.866 L 23.442 291.866 L 30.884 291.866 L 30.884 291.866 Q 30.61 290.977 29.956 290.323 L 29.956 290.323 L 29.956 290.323 Q 28.804 289.171 27.183 289.171 L 27.183 289.171 L 27.183 289.171 Q 25.562 289.171 24.409 290.323 L 24.409 290.323 L 24.409 290.323 Q 23.726 291.016 23.442 291.866 Z  M 31.763 292.657 L 23.296 292.657 L 23.296 292.657 Q 23.267 292.862 23.267 293.097 L 23.267 293.097 L 23.267 293.097 Q 23.267 294.718 24.414 295.86 L 24.414 295.86 L 24.414 295.86 Q 25.562 297.003 27.183 297.003 L 27.183 297.003 L 27.183 297.003 Q 28.804 297.003 29.956 295.85 L 29.956 295.85 L 29.956 295.85 Q 30.151 295.655 30.327 295.44 L 30.327 295.44 L 31.157 295.733 L 31.157 295.733 Q 31.011 295.977 30.542 296.436 L 30.542 296.436 L 30.542 296.436 Q 29.155 297.833 27.183 297.833 L 27.183 297.833 L 27.183 297.833 Q 25.229 297.833 23.838 296.441 L 23.838 296.441 L 23.838 296.441 Q 22.446 295.05 22.446 293.097 L 22.446 293.097 L 22.446 293.097 Q 22.446 291.124 23.838 289.737 L 23.838 289.737 L 23.838 289.737 Q 25.229 288.35 27.183 288.35 L 27.183 288.35 L 27.183 288.35 Q 29.155 288.35 30.542 289.737 L 30.542 289.737 L 30.542 289.737 Q 31.763 290.968 31.763 292.657 L 31.763 292.657 L 31.763 292.657 Z  M 35.698 289.893 L 33.97 289.893 L 33.97 297.589 L 33.188 297.589 L 33.188 289.893 L 32.329 289.893 L 32.329 289.112 L 33.188 289.112 L 33.188 286.817 L 33.188 286.817 Q 33.247 285.86 33.921 285.167 L 33.921 285.167 L 33.921 285.167 Q 34.634 284.513 35.552 284.513 L 35.552 284.513 L 35.552 284.513 Q 36.04 284.513 36.577 284.698 L 36.577 284.698 L 36.333 285.391 L 36.333 285.391 Q 35.972 285.235 35.63 285.235 L 35.63 285.235 L 35.63 285.235 Q 35.024 285.235 34.478 285.723 L 34.478 285.723 L 34.478 285.723 Q 33.999 286.202 33.97 286.876 L 33.97 286.876 L 33.97 289.112 L 35.698 289.112 L 35.698 289.893 L 35.698 289.893 Z  M 36.167 289.112 L 37.896 289.112 L 37.896 285.509 L 38.667 285.509 L 38.667 289.112 L 40.396 289.112 L 40.396 289.893 L 38.667 289.893 L 38.667 297.589 L 37.896 297.589 L 37.896 289.893 L 36.167 289.893 L 36.167 289.112 L 36.167 289.112 Z " fill-rule="evenodd" fill="rgb(191,191,191)"/><path d=" M 76.579 284.571 L 74.235 284.571 L 74.235 292.013 L 76.579 292.013 L 76.579 292.013 Q 78.112 292.013 79.206 290.924 L 79.206 290.924 L 79.206 290.924 Q 80.3 289.835 80.3 288.282 L 80.3 288.282 L 80.3 288.282 Q 80.3 286.739 79.206 285.655 L 79.206 285.655 L 79.206 285.655 Q 78.112 284.571 76.579 284.571 L 76.579 284.571 L 76.579 284.571 Z  M 79.89 297.589 L 76.813 292.804 L 74.235 292.804 L 74.235 297.589 L 73.454 297.589 L 73.454 283.78 L 77.077 283.78 L 77.077 283.78 Q 78.659 283.995 79.763 285.098 L 79.763 285.098 L 79.763 285.098 Q 81.081 286.427 81.081 288.282 L 81.081 288.282 L 81.081 288.282 Q 81.081 290.157 79.763 291.475 L 79.763 291.475 L 79.763 291.475 Q 78.845 292.393 77.663 292.677 L 77.663 292.677 L 80.847 297.589 L 79.89 297.589 L 79.89 297.589 Z  M 82.888 289.112 L 83.659 289.112 L 83.659 297.589 L 82.888 297.589 L 82.888 289.112 L 82.888 289.112 Z  M 83.278 286.114 L 83.278 286.114 Q 83.591 286.114 83.82 286.339 L 83.82 286.339 L 83.82 286.339 Q 84.05 286.563 84.05 286.876 L 84.05 286.876 L 84.05 286.876 Q 84.05 287.208 83.82 287.432 L 83.82 287.432 L 83.82 287.432 Q 83.591 287.657 83.278 287.657 L 83.278 287.657 L 83.278 287.657 Q 82.956 287.657 82.727 287.432 L 82.727 287.432 L 82.727 287.432 Q 82.497 287.208 82.497 286.876 L 82.497 286.876 L 82.497 286.876 Q 82.497 286.563 82.727 286.339 L 82.727 286.339 L 82.727 286.339 Q 82.956 286.114 83.278 286.114 L 83.278 286.114 L 83.278 286.114 Z  M 93.903 293.917 L 93.903 292.286 L 93.903 292.286 Q 93.679 291.173 92.839 290.323 L 92.839 290.323 L 92.839 290.323 Q 91.687 289.171 90.065 289.171 L 90.065 289.171 L 90.065 289.171 Q 88.444 289.171 87.297 290.323 L 87.297 290.323 L 87.297 290.323 Q 86.149 291.475 86.149 293.097 L 86.149 293.097 L 86.149 293.097 Q 86.149 294.718 87.297 295.865 L 87.297 295.865 L 87.297 295.865 Q 88.444 297.013 90.065 297.013 L 90.065 297.013 L 90.065 297.013 Q 91.687 297.013 92.839 295.86 L 92.839 295.86 L 92.839 295.86 Q 93.669 295.03 93.903 293.917 L 93.903 293.917 L 93.903 293.917 Z  M 93.894 295.909 L 93.894 295.909 L 93.894 295.909 Q 93.669 296.182 93.425 296.436 L 93.425 296.436 L 93.425 296.436 Q 92.038 297.833 90.065 297.833 L 90.065 297.833 L 90.065 297.833 Q 88.112 297.833 86.721 296.441 L 86.721 296.441 L 86.721 296.441 Q 85.329 295.05 85.329 293.097 L 85.329 293.097 L 85.329 293.097 Q 85.329 291.124 86.721 289.742 L 86.721 289.742 L 86.721 289.742 Q 88.112 288.36 90.065 288.36 L 90.065 288.36 L 90.065 288.36 Q 92.038 288.36 93.425 289.737 L 93.425 289.737 L 93.425 289.737 Q 93.688 290.011 93.913 290.313 L 93.913 290.313 L 93.913 289.112 L 94.694 289.112 L 94.694 295.694 L 94.694 295.694 Q 94.694 297.608 93.337 298.956 L 93.337 298.956 L 93.337 298.956 Q 91.95 300.352 89.987 300.352 L 89.987 300.352 L 89.987 300.352 Q 88.024 300.352 86.628 298.956 L 86.628 298.956 L 86.628 298.956 Q 86.345 298.673 86.12 298.37 L 86.12 298.37 L 86.94 298.067 L 86.94 298.067 Q 87.067 298.223 87.224 298.37 L 87.224 298.37 L 87.224 298.37 Q 88.366 299.522 89.987 299.522 L 89.987 299.522 L 89.987 299.522 Q 91.599 299.522 92.751 298.37 L 92.751 298.37 L 92.751 298.37 Q 93.796 297.325 93.894 295.909 Z  M 96.315 297.589 L 96.315 283.78 L 97.097 283.78 L 97.097 289.552 L 97.097 289.552 Q 98.073 288.604 99.46 288.604 L 99.46 288.604 L 99.46 288.604 Q 100.954 288.604 101.896 289.547 L 101.896 289.547 L 101.896 289.547 Q 102.839 290.489 102.868 291.915 L 102.868 291.915 L 102.868 297.589 L 102.087 297.589 L 102.087 291.993 L 102.087 291.993 Q 102.087 290.909 101.306 290.147 L 101.306 290.147 L 101.306 290.147 Q 100.524 289.386 99.46 289.386 L 99.46 289.386 L 99.46 289.386 Q 98.386 289.386 97.614 290.138 L 97.614 290.138 L 97.614 290.138 Q 97.263 290.479 97.097 290.85 L 97.097 290.85 L 97.097 297.589 L 96.315 297.589 L 96.315 297.589 Z  M 104.099 289.112 L 105.827 289.112 L 105.827 285.509 L 106.599 285.509 L 106.599 289.112 L 108.327 289.112 L 108.327 289.893 L 106.599 289.893 L 106.599 297.589 L 105.827 297.589 L 105.827 289.893 L 104.099 289.893 L 104.099 289.112 L 104.099 289.112 Z " fill-rule="evenodd" fill="rgb(191,191,191)"/><path d=" M 72.549 33.066 L 73.568 33.066 L 71.485 45.494 L 70.782 45.494 L 72.733 33.822 L 66.871 40.124 L 63.109 33.822 L 61.158 45.494 L 60.455 45.494 L 62.538 33.066 L 63.557 33.066 L 67.073 38.955 L 72.549 33.066 L 72.549 33.066 Z  M 82.665 37.865 L 81.382 45.494 L 80.678 45.494 L 80.942 43.938 L 80.942 43.938 Q 80.696 44.211 80.415 44.457 L 80.415 44.457 L 80.415 44.457 Q 78.956 45.714 77.18 45.714 L 77.18 45.714 L 77.18 45.714 Q 75.423 45.714 74.381 44.461 L 74.381 44.461 L 74.381 44.461 Q 73.34 43.209 73.63 41.451 L 73.63 41.451 L 73.63 41.451 Q 73.928 39.676 75.392 38.428 L 75.392 38.428 L 75.392 38.428 Q 76.855 37.18 78.613 37.18 L 78.613 37.18 L 78.613 37.18 Q 80.388 37.18 81.425 38.428 L 81.425 38.428 L 81.425 38.428 Q 81.619 38.674 81.777 38.946 L 81.777 38.946 L 81.962 37.865 L 82.665 37.865 L 82.665 37.865 Z  M 81.241 42.137 L 81.241 42.137 L 81.478 40.757 L 81.478 40.757 Q 81.452 39.729 80.81 38.955 L 80.81 38.955 L 80.81 38.955 Q 79.949 37.918 78.49 37.918 L 78.49 37.918 L 78.49 37.918 Q 77.031 37.918 75.822 38.955 L 75.822 38.955 L 75.822 38.955 Q 74.614 39.992 74.368 41.451 L 74.368 41.451 L 74.368 41.451 Q 74.131 42.91 74.992 43.938 L 74.992 43.938 L 74.992 43.938 Q 75.853 44.967 77.312 44.967 L 77.312 44.967 L 77.312 44.967 Q 78.771 44.967 79.975 43.93 L 79.975 43.93 L 79.975 43.93 Q 80.881 43.156 81.241 42.137 Z  M 83.719 37.865 L 85.275 37.865 L 85.82 34.622 L 86.514 34.622 L 85.969 37.865 L 87.525 37.865 L 87.411 38.568 L 85.855 38.568 L 84.695 45.494 L 84.001 45.494 L 85.161 38.568 L 83.605 38.568 L 83.719 37.865 L 83.719 37.865 Z  M 90.997 37.804 L 91.278 38.48 L 91.278 38.48 Q 90.505 38.595 89.643 39.43 L 89.643 39.43 L 89.643 39.43 Q 88.791 40.265 88.641 41.117 L 88.641 41.117 L 87.912 45.494 L 87.209 45.494 L 88.483 37.865 L 89.186 37.865 L 88.914 39.518 L 88.914 39.518 Q 89.547 38.366 90.997 37.804 L 90.997 37.804 L 90.997 37.804 Z  M 92.421 37.865 L 93.115 37.865 L 91.84 45.494 L 91.146 45.494 L 92.421 37.865 L 92.421 37.865 Z  M 93.229 35.167 L 93.229 35.167 Q 93.51 35.167 93.682 35.369 L 93.682 35.369 L 93.682 35.369 Q 93.853 35.571 93.809 35.853 L 93.809 35.853 L 93.809 35.853 Q 93.757 36.151 93.515 36.354 L 93.515 36.354 L 93.515 36.354 Q 93.273 36.556 92.992 36.556 L 92.992 36.556 L 92.992 36.556 Q 92.702 36.556 92.53 36.354 L 92.53 36.354 L 92.53 36.354 Q 92.359 36.151 92.412 35.853 L 92.412 35.853 L 92.412 35.853 Q 92.456 35.571 92.697 35.369 L 92.697 35.369 L 92.697 35.369 Q 92.939 35.167 93.229 35.167 L 93.229 35.167 L 93.229 35.167 Z  M 92.886 45.494 L 96.068 41.46 L 94.424 37.865 L 95.242 37.865 L 96.578 40.81 L 98.898 37.865 L 99.715 37.865 L 96.877 41.46 L 98.705 45.494 L 97.896 45.494 L 96.358 42.119 L 93.695 45.494 L 92.886 45.494 L 92.886 45.494 Z " fill-rule="evenodd" fill="rgb(56,255,238)"/></g></g></svg>