<?xml version="1.0" standalone="no"?><!-- Generator: Gravit.io --><svg xmlns="http://www.w3.org/2000/svg" xmlns:xlink="http://www.w3.org/1999/xlink" style="isolation:isolate" viewBox="0 0 150 380" width="150" height="380"><defs><clipPath id="_clipPath_1kcobEOIOKWqtUmyjm4Awg1zQJN00cmx"><rect width="150" height="380"/></clipPath></defs><g clip-path="url(#_clipPath_1kcobEOIOKWqtUmyjm4Awg1zQJN00cmx)"><rect width="150" height="380" style="fill:rgb(0,0,0)"/><g style="isolation:isolate"><path d=" M 68.911 357.996 L 69.704 357.996 L 69.704 367.662 L 69.157 367.662 L 69.157 358.584 L 65.417 363.485 L 61.671 358.584 L 61.671 367.662 L 61.125 367.662 L 61.125 357.996 L 61.917 357.996 L 65.417 362.576 L 68.911 357.996 L 68.911 357.996 Z  M 74.147 361.195 L 74.147 361.195 L 74.147 361.195 Q 75.528 361.195 76.495 362.166 L 76.495 362.166 L 76.495 362.166 Q 77.462 363.137 77.462 364.518 L 77.462 364.518 L 77.462 364.518 Q 77.462 365.885 76.495 366.859 L 76.495 366.859 L 76.495 366.859 Q 75.528 367.833 74.147 367.833 L 74.147 367.833 L 74.147 367.833 Q 72.78 367.833 71.806 366.859 L 71.806 366.859 L 71.806 366.859 Q 70.832 365.885 70.832 364.518 L 70.832 364.518 L 70.832 364.518 Q 70.832 363.137 71.806 362.166 L 71.806 362.166 L 71.806 362.166 Q 72.78 361.195 74.147 361.195 Z  M 74.147 361.77 L 74.147 361.77 Q 73.012 361.77 72.209 362.576 L 72.209 362.576 L 72.209 362.576 Q 71.406 363.383 71.406 364.518 L 71.406 364.518 L 71.406 364.518 Q 71.406 365.652 72.209 366.452 L 72.209 366.452 L 72.209 366.452 Q 73.012 367.252 74.147 367.252 L 74.147 367.252 L 74.147 367.252 Q 75.282 367.252 76.085 366.452 L 76.085 366.452 L 76.085 366.452 Q 76.888 365.652 76.888 364.518 L 76.888 364.518 L 76.888 364.518 Q 76.888 363.383 76.085 362.576 L 76.085 362.576 L 76.085 362.576 Q 75.282 361.77 74.147 361.77 L 74.147 361.77 L 74.147 361.77 Z  M 85.016 357.996 L 85.016 367.662 L 84.469 367.662 L 84.469 366.452 L 84.469 366.452 Q 84.312 366.664 84.127 366.855 L 84.127 366.855 L 84.127 366.855 Q 83.157 367.833 81.776 367.833 L 81.776 367.833 L 81.776 367.833 Q 80.409 367.833 79.435 366.859 L 79.435 366.859 L 79.435 366.859 Q 78.46 365.885 78.46 364.518 L 78.46 364.518 L 78.46 364.518 Q 78.46 363.137 79.435 362.166 L 79.435 362.166 L 79.435 362.166 Q 80.409 361.195 81.776 361.195 L 81.776 361.195 L 81.776 361.195 Q 83.157 361.195 84.127 362.166 L 84.127 362.166 L 84.127 362.166 Q 84.312 362.357 84.469 362.569 L 84.469 362.569 L 84.469 357.996 L 85.016 357.996 L 85.016 357.996 Z  M 84.469 365.051 L 84.469 365.051 L 84.469 363.978 L 84.469 363.978 Q 84.319 363.178 83.717 362.576 L 83.717 362.576 L 83.717 362.576 Q 82.911 361.77 81.776 361.77 L 81.776 361.77 L 81.776 361.77 Q 80.641 361.77 79.838 362.576 L 79.838 362.576 L 79.838 362.576 Q 79.035 363.383 79.035 364.518 L 79.035 364.518 L 79.035 364.518 Q 79.035 365.652 79.838 366.452 L 79.838 366.452 L 79.838 366.452 Q 80.641 367.252 81.776 367.252 L 81.776 367.252 L 81.776 367.252 Q 82.911 367.252 83.717 366.445 L 83.717 366.445 L 83.717 366.445 Q 84.319 365.844 84.469 365.051 Z  M 88.667 367.744 L 88.667 367.744 L 88.667 367.744 Q 87.552 367.744 86.896 367.088 L 86.896 367.088 L 86.896 367.088 Q 86.24 366.432 86.219 365.427 L 86.219 365.427 L 86.219 361.722 L 86.766 361.722 L 86.766 365.379 L 86.766 365.379 Q 86.766 366.131 87.313 366.664 L 87.313 366.664 L 87.313 366.664 Q 87.853 367.204 88.66 367.204 L 88.66 367.204 L 88.66 367.204 Q 89.412 367.204 89.955 366.667 L 89.955 366.667 L 89.955 366.667 Q 90.499 366.131 90.499 365.379 L 90.499 365.379 L 90.499 361.722 L 91.045 361.722 L 91.045 365.427 L 91.045 365.427 Q 91.025 366.432 90.369 367.088 L 90.369 367.088 L 90.369 367.088 Q 89.712 367.744 88.667 367.744 Z  M 92.392 357.996 L 92.939 357.996 L 92.939 367.662 L 92.392 367.662 L 92.392 357.996 L 92.392 357.996 Z  M 94.744 363.656 L 94.744 363.656 L 99.953 363.656 L 99.953 363.656 Q 99.761 363.034 99.303 362.576 L 99.303 362.576 L 99.303 362.576 Q 98.497 361.77 97.362 361.77 L 97.362 361.77 L 97.362 361.77 Q 96.227 361.77 95.42 362.576 L 95.42 362.576 L 95.42 362.576 Q 94.942 363.062 94.744 363.656 Z  M 100.568 364.21 L 94.641 364.21 L 94.641 364.21 Q 94.621 364.354 94.621 364.518 L 94.621 364.518 L 94.621 364.518 Q 94.621 365.652 95.424 366.452 L 95.424 366.452 L 95.424 366.452 Q 96.227 367.252 97.362 367.252 L 97.362 367.252 L 97.362 367.252 Q 98.497 367.252 99.303 366.445 L 99.303 366.445 L 99.303 366.445 Q 99.44 366.309 99.563 366.158 L 99.563 366.158 L 100.144 366.363 L 100.144 366.363 Q 100.042 366.534 99.713 366.855 L 99.713 366.855 L 99.713 366.855 Q 98.743 367.833 97.362 367.833 L 97.362 367.833 L 97.362 367.833 Q 95.995 367.833 95.021 366.859 L 95.021 366.859 L 95.021 366.859 Q 94.046 365.885 94.046 364.518 L 94.046 364.518 L 94.046 364.518 Q 94.046 363.137 95.021 362.166 L 95.021 362.166 L 95.021 362.166 Q 95.995 361.195 97.362 361.195 L 97.362 361.195 L 97.362 361.195 Q 98.743 361.195 99.713 362.166 L 99.713 362.166 L 99.713 362.166 Q 100.568 363.027 100.568 364.21 L 100.568 364.21 L 100.568 364.21 Z  M 103.029 364.477 L 103.029 364.477 L 103.029 364.477 Q 102.338 364.101 102.072 363.834 L 102.072 363.834 L 102.072 363.834 Q 101.655 363.417 101.655 362.829 L 101.655 362.829 L 101.655 362.829 Q 101.655 362.241 102.072 361.821 L 102.072 361.821 L 102.072 361.821 Q 102.489 361.4 103.077 361.4 L 103.077 361.4 L 103.077 361.4 Q 103.665 361.4 104.054 361.79 L 104.054 361.79 L 104.054 361.79 Q 104.43 362.166 104.43 362.651 L 104.43 362.651 L 104.43 362.679 L 103.958 362.87 L 103.958 362.87 Q 103.897 362.412 103.671 362.18 L 103.671 362.18 L 103.671 362.18 Q 103.446 361.947 103.077 361.947 L 103.077 361.947 L 103.077 361.947 Q 102.714 361.947 102.455 362.207 L 102.455 362.207 L 102.455 362.207 Q 102.195 362.467 102.195 362.829 L 102.195 362.829 L 102.195 362.829 Q 102.195 363.191 102.455 363.451 L 102.455 363.451 L 102.455 363.451 Q 102.605 363.608 103.09 363.916 L 103.09 363.916 L 103.09 363.916 Q 103.863 364.333 104.191 364.661 L 104.191 364.661 L 104.191 364.661 Q 104.704 365.181 104.704 365.898 L 104.704 365.898 L 104.704 365.898 Q 104.704 366.637 104.191 367.153 L 104.191 367.153 L 104.191 367.153 Q 103.678 367.669 102.947 367.669 L 102.947 367.669 L 102.947 367.669 Q 102.215 367.669 101.703 367.153 L 101.703 367.153 L 101.703 367.153 Q 101.19 366.637 101.19 366.021 L 101.19 366.021 L 101.73 365.885 L 101.73 365.885 Q 101.73 366.411 102.089 366.77 L 102.089 366.77 L 102.089 366.77 Q 102.448 367.129 102.947 367.129 L 102.947 367.129 L 102.947 367.129 Q 103.446 367.129 103.808 366.77 L 103.808 366.77 L 103.808 366.77 Q 104.17 366.411 104.17 365.898 L 104.17 365.898 L 104.17 365.898 Q 104.17 365.399 103.808 365.044 L 103.808 365.044 L 103.808 365.044 Q 103.617 364.853 103.029 364.477 Z  M 49.845 361.729 L 49.845 367.662 L 49.298 367.662 L 49.298 366.452 L 49.298 366.452 Q 49.141 366.664 48.957 366.855 L 48.957 366.855 L 48.957 366.855 Q 47.986 367.833 46.605 367.833 L 46.605 367.833 L 46.605 367.833 Q 45.238 367.833 44.264 366.859 L 44.264 366.859 L 44.264 366.859 Q 43.29 365.885 43.29 364.518 L 43.29 364.518 L 43.29 364.518 Q 43.29 363.137 44.264 362.166 L 44.264 362.166 L 44.264 362.166 Q 45.238 361.195 46.605 361.195 L 46.605 361.195 L 46.605 361.195 Q 47.986 361.195 48.957 362.166 L 48.957 362.166 L 48.957 362.166 Q 49.141 362.357 49.298 362.569 L 49.298 362.569 L 49.298 361.729 L 49.845 361.729 L 49.845 361.729 Z  M 49.298 365.051 L 49.298 365.051 L 49.298 363.978 L 49.298 363.978 Q 49.148 363.178 48.546 362.576 L 48.546 362.576 L 48.546 362.576 Q 47.74 361.77 46.605 361.77 L 46.605 361.77 L 46.605 361.77 Q 45.47 361.77 44.667 362.576 L 44.667 362.576 L 44.667 362.576 Q 43.864 363.383 43.864 364.518 L 43.864 364.518 L 43.864 364.518 Q 43.864 365.652 44.667 366.452 L 44.667 366.452 L 44.667 366.452 Q 45.47 367.252 46.605 367.252 L 46.605 367.252 L 46.605 367.252 Q 47.74 367.252 48.546 366.445 L 48.546 366.445 L 48.546 366.445 Q 49.148 365.844 49.298 365.051 Z  M 53.407 364.313 L 51.766 364.313 L 51.766 367.662 L 51.219 367.662 L 51.219 357.996 L 53.755 357.996 L 53.755 357.996 Q 54.863 358.146 55.635 358.919 L 55.635 358.919 L 55.635 358.919 Q 56.558 359.849 56.558 361.147 L 56.558 361.147 L 56.558 361.147 Q 56.558 362.46 55.635 363.386 L 55.635 363.386 L 55.635 363.386 Q 54.712 364.313 53.407 364.313 L 53.407 364.313 L 53.407 364.313 Z  M 53.407 358.55 L 51.766 358.55 L 51.766 363.759 L 53.407 363.759 L 53.407 363.759 Q 54.48 363.759 55.246 362.997 L 55.246 362.997 L 55.246 362.997 Q 56.011 362.234 56.011 361.147 L 56.011 361.147 L 56.011 361.147 Q 56.011 360.067 55.246 359.309 L 55.246 359.309 L 55.246 359.309 Q 54.48 358.55 53.407 358.55 L 53.407 358.55 L 53.407 358.55 Z " fill-rule="evenodd" fill="rgb(191,191,191)"/><path d=" M 22.412 84.115 L 22.412 84.115 L 22.77 84.432 L 22.77 84.432 Q 21.557 85.533 19.916 85.533 L 19.916 85.533 L 19.916 85.533 Q 18.152 85.533 16.913 84.294 L 16.913 84.294 L 16.913 84.294 Q 15.674 83.055 15.674 81.291 L 15.674 81.291 L 15.674 81.291 Q 15.674 79.539 16.913 78.294 L 16.913 78.294 L 16.913 78.294 Q 18.152 77.049 19.916 77.049 L 19.916 77.049 L 19.916 77.049 Q 21.557 77.049 22.77 78.156 L 22.77 78.156 L 22.412 78.473 L 22.412 78.473 Q 21.346 77.529 19.916 77.529 L 19.916 77.529 L 19.916 77.529 Q 18.357 77.529 17.253 78.631 L 17.253 78.631 L 17.253 78.631 Q 16.148 79.732 16.148 81.291 L 16.148 81.291 L 16.148 81.291 Q 16.148 82.855 17.253 83.957 L 17.253 83.957 L 17.253 83.957 Q 18.357 85.059 19.916 85.059 L 19.916 85.059 L 19.916 85.059 Q 21.346 85.059 22.412 84.115 Z  M 23.777 77.148 L 24.246 77.148 L 24.246 85.434 L 23.777 85.434 L 23.777 77.148 L 23.777 77.148 Z  M 28.154 79.891 L 28.154 79.891 L 28.154 79.891 Q 29.338 79.891 30.167 80.723 L 30.167 80.723 L 30.167 80.723 Q 30.996 81.555 30.996 82.738 L 30.996 82.738 L 30.996 82.738 Q 30.996 83.91 30.167 84.745 L 30.167 84.745 L 30.167 84.745 Q 29.338 85.58 28.154 85.58 L 28.154 85.58 L 28.154 85.58 Q 26.982 85.58 26.147 84.745 L 26.147 84.745 L 26.147 84.745 Q 25.313 83.91 25.313 82.738 L 25.313 82.738 L 25.313 82.738 Q 25.313 81.555 26.147 80.723 L 26.147 80.723 L 26.147 80.723 Q 26.982 79.891 28.154 79.891 Z  M 28.154 80.383 L 28.154 80.383 Q 27.182 80.383 26.493 81.074 L 26.493 81.074 L 26.493 81.074 Q 25.805 81.766 25.805 82.738 L 25.805 82.738 L 25.805 82.738 Q 25.805 83.711 26.493 84.396 L 26.493 84.396 L 26.493 84.396 Q 27.182 85.082 28.154 85.082 L 28.154 85.082 L 28.154 85.082 Q 29.127 85.082 29.815 84.396 L 29.815 84.396 L 29.815 84.396 Q 30.504 83.711 30.504 82.738 L 30.504 82.738 L 30.504 82.738 Q 30.504 81.766 29.815 81.074 L 29.815 81.074 L 29.815 81.074 Q 29.127 80.383 28.154 80.383 L 28.154 80.383 L 28.154 80.383 Z  M 36.393 84.209 L 36.393 84.209 L 36.885 84.391 L 36.885 84.391 Q 36.75 84.572 36.58 84.742 L 36.58 84.742 L 36.58 84.742 Q 35.748 85.58 34.564 85.58 L 34.564 85.58 L 34.564 85.58 Q 33.393 85.58 32.558 84.745 L 32.558 84.745 L 32.558 84.745 Q 31.723 83.91 31.723 82.732 L 31.723 82.732 L 31.723 82.732 Q 31.723 81.555 32.558 80.723 L 32.558 80.723 L 32.558 80.723 Q 33.393 79.891 34.564 79.891 L 34.564 79.891 L 34.564 79.891 Q 35.748 79.891 36.58 80.723 L 36.58 80.723 L 36.58 80.723 Q 36.75 80.893 36.885 81.074 L 36.885 81.074 L 36.393 81.256 L 36.393 81.256 Q 36.316 81.162 36.229 81.068 L 36.229 81.068 L 36.229 81.068 Q 35.537 80.383 34.564 80.383 L 34.564 80.383 L 34.564 80.383 Q 33.598 80.383 32.909 81.071 L 32.909 81.071 L 32.909 81.071 Q 32.221 81.76 32.221 82.732 L 32.221 82.732 L 32.221 82.732 Q 32.221 83.705 32.909 84.394 L 32.909 84.394 L 32.909 84.394 Q 33.598 85.082 34.564 85.082 L 34.564 85.082 L 34.564 85.082 Q 35.537 85.082 36.229 84.391 L 36.229 84.391 L 36.229 84.391 Q 36.316 84.303 36.393 84.209 Z  M 39.65 80.348 L 40.248 80.348 L 38.994 81.9 L 40.992 85.434 L 40.418 85.434 L 38.689 82.275 L 38.238 82.838 L 38.238 85.434 L 37.77 85.434 L 37.77 78.186 L 38.238 78.186 L 38.238 82.094 L 39.65 80.348 L 39.65 80.348 Z " fill-rule="evenodd" fill="rgb(191,191,191)"/><path d=" M 112.935 80.846 L 112.935 80.846 L 112.935 80.846 Q 112.05 80.553 111.537 80.04 L 111.537 80.04 L 111.537 80.04 Q 111.024 79.527 111.024 78.795 L 111.024 78.795 L 111.024 78.795 Q 111.024 78.08 111.537 77.564 L 111.537 77.564 L 111.537 77.564 Q 112.05 77.049 112.782 77.049 L 112.782 77.049 L 112.782 77.049 Q 113.503 77.049 114.024 77.564 L 114.024 77.564 L 114.024 77.564 Q 114.306 77.84 114.417 78.18 L 114.417 78.18 L 113.995 78.344 L 113.995 78.344 Q 113.901 78.092 113.69 77.881 L 113.69 77.881 L 113.69 77.881 Q 113.315 77.506 112.782 77.506 L 112.782 77.506 L 112.782 77.506 Q 112.249 77.506 111.871 77.881 L 111.871 77.881 L 111.871 77.881 Q 111.493 78.256 111.493 78.795 L 111.493 78.795 L 111.493 78.795 Q 111.493 79.328 111.868 79.709 L 111.868 79.709 L 111.868 79.709 Q 112.22 80.055 112.841 80.342 L 112.841 80.342 L 112.841 80.342 Q 113.837 80.664 114.517 81.344 L 114.517 81.344 L 114.517 81.344 Q 115.231 82.059 115.231 83.072 L 115.231 83.072 L 115.231 83.072 Q 115.231 84.092 114.514 84.813 L 114.514 84.813 L 114.514 84.813 Q 113.796 85.533 112.782 85.533 L 112.782 85.533 L 112.782 85.533 Q 111.763 85.533 111.048 84.807 L 111.048 84.807 L 111.048 84.807 Q 110.468 84.232 110.356 83.471 L 110.356 83.471 L 110.796 83.313 L 110.796 83.313 Q 110.866 83.986 111.37 84.484 L 111.37 84.484 L 111.37 84.484 Q 111.956 85.07 112.782 85.07 L 112.782 85.07 L 112.782 85.07 Q 113.608 85.07 114.194 84.484 L 114.194 84.484 L 114.194 84.484 Q 114.78 83.898 114.78 83.072 L 114.78 83.072 L 114.78 83.072 Q 114.78 82.252 114.194 81.666 L 114.194 81.666 L 114.194 81.666 Q 113.679 81.15 112.935 80.846 Z  M 120.03 80.348 L 116.755 87.367 L 116.233 87.367 L 117.575 84.49 L 115.642 80.348 L 116.163 80.348 L 117.833 83.898 L 119.509 80.348 L 120.03 80.348 L 120.03 80.348 Z  M 121.167 81.484 L 121.167 81.484 L 121.167 85.434 L 120.698 85.434 L 120.698 80.348 L 121.167 80.348 L 121.167 80.676 L 121.167 80.676 Q 121.8 80.043 122.644 80.043 L 122.644 80.043 L 122.644 80.043 Q 123.546 80.043 124.111 80.608 L 124.111 80.608 L 124.111 80.608 Q 124.677 81.174 124.688 82.029 L 124.688 82.029 L 124.688 85.434 L 124.226 85.434 L 124.226 82.076 L 124.226 82.076 Q 124.226 81.426 123.757 80.969 L 123.757 80.969 L 123.757 80.969 Q 123.288 80.512 122.644 80.512 L 122.644 80.512 L 122.644 80.512 Q 122.005 80.512 121.536 80.963 L 121.536 80.963 L 121.536 80.963 Q 121.284 81.215 121.167 81.484 Z  M 130.243 84.209 L 130.243 84.209 L 130.735 84.391 L 130.735 84.391 Q 130.601 84.572 130.431 84.742 L 130.431 84.742 L 130.431 84.742 Q 129.599 85.58 128.415 85.58 L 128.415 85.58 L 128.415 85.58 Q 127.243 85.58 126.408 84.745 L 126.408 84.745 L 126.408 84.745 Q 125.573 83.91 125.573 82.732 L 125.573 82.732 L 125.573 82.732 Q 125.573 81.555 126.408 80.723 L 126.408 80.723 L 126.408 80.723 Q 127.243 79.891 128.415 79.891 L 128.415 79.891 L 128.415 79.891 Q 129.599 79.891 130.431 80.723 L 130.431 80.723 L 130.431 80.723 Q 130.601 80.893 130.735 81.074 L 130.735 81.074 L 130.243 81.256 L 130.243 81.256 Q 130.167 81.162 130.079 81.068 L 130.079 81.068 L 130.079 81.068 Q 129.388 80.383 128.415 80.383 L 128.415 80.383 L 128.415 80.383 Q 127.448 80.383 126.76 81.071 L 126.76 81.071 L 126.76 81.071 Q 126.071 81.76 126.071 82.732 L 126.071 82.732 L 126.071 82.732 Q 126.071 83.705 126.76 84.394 L 126.76 84.394 L 126.76 84.394 Q 127.448 85.082 128.415 85.082 L 128.415 85.082 L 128.415 85.082 Q 129.388 85.082 130.079 84.391 L 130.079 84.391 L 130.079 84.391 Q 130.167 84.303 130.243 84.209 Z " fill-rule="evenodd" fill="rgb(191,191,191)"/><path d=" M 65.961 182.625 L 65.961 182.625 L 65.961 182.625 Q 65.172 182.195 64.867 181.891 L 64.867 181.891 L 64.867 181.891 Q 64.391 181.414 64.391 180.742 L 64.391 180.742 L 64.391 180.742 Q 64.391 180.07 64.867 179.59 L 64.867 179.59 L 64.867 179.59 Q 65.344 179.109 66.016 179.109 L 66.016 179.109 L 66.016 179.109 Q 66.687 179.109 67.133 179.555 L 67.133 179.555 L 67.133 179.555 Q 67.562 179.984 67.562 180.539 L 67.562 180.539 L 67.562 180.57 L 67.023 180.789 L 67.023 180.789 Q 66.953 180.266 66.695 180 L 66.695 180 L 66.695 180 Q 66.437 179.734 66.016 179.734 L 66.016 179.734 L 66.016 179.734 Q 65.602 179.734 65.305 180.031 L 65.305 180.031 L 65.305 180.031 Q 65.008 180.328 65.008 180.742 L 65.008 180.742 L 65.008 180.742 Q 65.008 181.156 65.305 181.453 L 65.305 181.453 L 65.305 181.453 Q 65.477 181.633 66.031 181.984 L 66.031 181.984 L 66.031 181.984 Q 66.914 182.461 67.289 182.836 L 67.289 182.836 L 67.289 182.836 Q 67.875 183.43 67.875 184.25 L 67.875 184.25 L 67.875 184.25 Q 67.875 185.094 67.289 185.684 L 67.289 185.684 L 67.289 185.684 Q 66.703 186.273 65.867 186.273 L 65.867 186.273 L 65.867 186.273 Q 65.031 186.273 64.445 185.684 L 64.445 185.684 L 64.445 185.684 Q 63.859 185.094 63.859 184.391 L 63.859 184.391 L 64.477 184.234 L 64.477 184.234 Q 64.477 184.836 64.887 185.246 L 64.887 185.246 L 64.887 185.246 Q 65.297 185.656 65.867 185.656 L 65.867 185.656 L 65.867 185.656 Q 66.437 185.656 66.852 185.246 L 66.852 185.246 L 66.852 185.246 Q 67.266 184.836 67.266 184.25 L 67.266 184.25 L 67.266 184.25 Q 67.266 183.68 66.852 183.273 L 66.852 183.273 L 66.852 183.273 Q 66.633 183.055 65.961 182.625 Z  M 71.742 179.484 L 72.539 179.484 L 70.867 181.555 L 73.531 186.266 L 72.766 186.266 L 70.461 182.055 L 69.859 182.805 L 69.859 186.266 L 69.234 186.266 L 69.234 176.602 L 69.859 176.602 L 69.859 181.813 L 71.742 179.484 L 71.742 179.484 Z  M 74.352 179.484 L 74.969 179.484 L 74.969 186.266 L 74.352 186.266 L 74.352 179.484 L 74.352 179.484 Z  M 74.664 177.086 L 74.664 177.086 Q 74.914 177.086 75.098 177.266 L 75.098 177.266 L 75.098 177.266 Q 75.281 177.445 75.281 177.695 L 75.281 177.695 L 75.281 177.695 Q 75.281 177.961 75.098 178.141 L 75.098 178.141 L 75.098 178.141 Q 74.914 178.32 74.664 178.32 L 74.664 178.32 L 74.664 178.32 Q 74.406 178.32 74.223 178.141 L 74.223 178.141 L 74.223 178.141 Q 74.039 177.961 74.039 177.695 L 74.039 177.695 L 74.039 177.695 Q 74.039 177.445 74.223 177.266 L 74.223 177.266 L 74.223 177.266 Q 74.406 177.086 74.664 177.086 L 74.664 177.086 L 74.664 177.086 Z  M 76.617 188.852 L 76.617 179.484 L 77.242 179.484 L 77.242 180.438 L 77.242 180.438 Q 77.414 180.203 77.633 179.984 L 77.633 179.984 L 77.633 179.984 Q 78.742 178.883 80.312 178.883 L 80.312 178.883 L 80.312 178.883 Q 81.883 178.883 82.992 179.988 L 82.992 179.988 L 82.992 179.988 Q 84.102 181.094 84.102 182.672 L 84.102 182.672 L 84.102 182.672 Q 84.102 184.234 82.992 185.348 L 82.992 185.348 L 82.992 185.348 Q 81.883 186.461 80.312 186.461 L 80.312 186.461 L 80.312 186.461 Q 78.742 186.461 77.633 185.344 L 77.633 185.344 L 77.633 185.344 Q 77.414 185.125 77.242 184.891 L 77.242 184.891 L 77.242 188.852 L 76.617 188.852 L 76.617 188.852 Z  M 77.242 182.023 L 77.242 182.023 L 77.242 183.32 L 77.242 183.32 Q 77.414 184.211 78.094 184.883 L 78.094 184.883 L 78.094 184.883 Q 79.016 185.805 80.312 185.805 L 80.312 185.805 L 80.312 185.805 Q 81.609 185.805 82.527 184.887 L 82.527 184.887 L 82.527 184.887 Q 83.445 183.969 83.445 182.672 L 83.445 182.672 L 83.445 182.672 Q 83.445 181.375 82.527 180.453 L 82.527 180.453 L 82.527 180.453 Q 81.609 179.531 80.312 179.531 L 80.312 179.531 L 80.312 179.531 Q 79.016 179.531 78.094 180.453 L 78.094 180.453 L 78.094 180.453 Q 77.414 181.133 77.242 182.023 Z " fill-rule="evenodd" fill="rgb(191,191,191)"/><path d=" M 68.621 307.604 L 68.621 307.604 L 68.621 307.604 Q 70.199 307.604 71.305 308.714 L 71.305 308.714 L 71.305 308.714 Q 72.41 309.823 72.41 311.401 L 72.41 311.401 L 72.41 311.401 Q 72.41 312.964 71.305 314.077 L 71.305 314.077 L 71.305 314.077 Q 70.199 315.19 68.621 315.19 L 68.621 315.19 L 68.621 315.19 Q 67.059 315.19 65.945 314.077 L 65.945 314.077 L 65.945 314.077 Q 64.832 312.964 64.832 311.401 L 64.832 311.401 L 64.832 311.401 Q 64.832 309.823 65.945 308.714 L 65.945 308.714 L 65.945 308.714 Q 67.059 307.604 68.621 307.604 Z  M 68.621 308.26 L 68.621 308.26 Q 67.324 308.26 66.406 309.182 L 66.406 309.182 L 66.406 309.182 Q 65.488 310.104 65.488 311.401 L 65.488 311.401 L 65.488 311.401 Q 65.488 312.698 66.406 313.612 L 66.406 313.612 L 66.406 313.612 Q 67.324 314.526 68.621 314.526 L 68.621 314.526 L 68.621 314.526 Q 69.918 314.526 70.836 313.612 L 70.836 313.612 L 70.836 313.612 Q 71.754 312.698 71.754 311.401 L 71.754 311.401 L 71.754 311.401 Q 71.754 310.104 70.836 309.182 L 70.836 309.182 L 70.836 309.182 Q 69.918 308.26 68.621 308.26 L 68.621 308.26 L 68.621 308.26 Z  M 76.449 315.089 L 76.449 315.089 L 76.449 315.089 Q 75.176 315.089 74.426 314.339 L 74.426 314.339 L 74.426 314.339 Q 73.676 313.589 73.652 312.44 L 73.652 312.44 L 73.652 308.206 L 74.277 308.206 L 74.277 312.385 L 74.277 312.385 Q 74.277 313.245 74.902 313.854 L 74.902 313.854 L 74.902 313.854 Q 75.52 314.471 76.441 314.471 L 76.441 314.471 L 76.441 314.471 Q 77.301 314.471 77.922 313.858 L 77.922 313.858 L 77.922 313.858 Q 78.543 313.245 78.543 312.385 L 78.543 312.385 L 78.543 308.206 L 79.168 308.206 L 79.168 312.44 L 79.168 312.44 Q 79.145 313.589 78.395 314.339 L 78.395 314.339 L 78.395 314.339 Q 77.645 315.089 76.449 315.089 Z  M 80.098 308.214 L 81.48 308.214 L 81.48 305.331 L 82.098 305.331 L 82.098 308.214 L 83.48 308.214 L 83.48 308.839 L 82.098 308.839 L 82.098 314.995 L 81.48 314.995 L 81.48 308.839 L 80.098 308.839 L 80.098 308.214 L 80.098 308.214 Z " fill-rule="evenodd" fill="rgb(191,191,191)"/><path d=" M 60.617 271.995 L 60.617 265.214 L 61.242 265.214 L 61.242 265.378 L 61.242 265.378 Q 61.82 264.815 62.625 264.815 L 62.625 264.815 L 62.625 264.815 Q 63.461 264.815 64.047 265.401 L 64.047 265.401 L 64.047 265.401 Q 64.203 265.557 64.32 265.745 L 64.32 265.745 L 64.32 265.745 Q 64.445 265.565 64.609 265.401 L 64.609 265.401 L 64.609 265.401 Q 65.195 264.815 66.031 264.815 L 66.031 264.815 L 66.031 264.815 Q 66.867 264.815 67.453 265.401 L 67.453 265.401 L 67.453 265.401 Q 68.008 265.971 68.039 266.76 L 68.039 266.76 L 68.039 271.995 L 67.414 271.995 L 67.414 266.76 L 67.422 266.76 L 67.422 266.76 Q 67.398 266.221 67.016 265.846 L 67.016 265.846 L 67.016 265.846 Q 66.602 265.44 66.031 265.44 L 66.031 265.44 L 66.031 265.44 Q 65.453 265.44 65.043 265.846 L 65.043 265.846 L 65.043 265.846 Q 64.633 266.253 64.633 266.862 L 64.633 266.862 L 64.633 271.995 L 64.016 271.995 L 64.016 266.76 L 64.023 266.76 L 64.023 266.76 Q 63.992 266.221 63.609 265.846 L 63.609 265.846 L 63.609 265.846 Q 63.195 265.44 62.625 265.44 L 62.625 265.44 L 62.625 265.44 Q 62.055 265.44 61.648 265.846 L 61.648 265.846 L 61.648 265.846 Q 61.289 266.198 61.242 266.706 L 61.242 266.706 L 61.242 271.995 L 60.617 271.995 L 60.617 271.995 Z  M 72.289 272.089 L 72.289 272.089 L 72.289 272.089 Q 71.016 272.089 70.266 271.339 L 70.266 271.339 L 70.266 271.339 Q 69.516 270.589 69.492 269.44 L 69.492 269.44 L 69.492 265.206 L 70.117 265.206 L 70.117 269.385 L 70.117 269.385 Q 70.117 270.245 70.742 270.854 L 70.742 270.854 L 70.742 270.854 Q 71.359 271.471 72.281 271.471 L 72.281 271.471 L 72.281 271.471 Q 73.141 271.471 73.762 270.858 L 73.762 270.858 L 73.762 270.858 Q 74.383 270.245 74.383 269.385 L 74.383 269.385 L 74.383 265.206 L 75.008 265.206 L 75.008 269.44 L 75.008 269.44 Q 74.984 270.589 74.234 271.339 L 74.234 271.339 L 74.234 271.339 Q 73.484 272.089 72.289 272.089 Z  M 75.938 265.214 L 77.32 265.214 L 77.32 262.331 L 77.938 262.331 L 77.938 265.214 L 79.32 265.214 L 79.32 265.839 L 77.938 265.839 L 77.938 271.995 L 77.32 271.995 L 77.32 265.839 L 75.938 265.839 L 75.938 265.214 L 75.938 265.214 Z  M 80.773 267.417 L 80.773 267.417 L 86.727 267.417 L 86.727 267.417 Q 86.508 266.706 85.984 266.182 L 85.984 266.182 L 85.984 266.182 Q 85.063 265.26 83.766 265.26 L 83.766 265.26 L 83.766 265.26 Q 82.469 265.26 81.547 266.182 L 81.547 266.182 L 81.547 266.182 Q 81 266.737 80.773 267.417 Z  M 87.43 268.049 L 80.656 268.049 L 80.656 268.049 Q 80.633 268.214 80.633 268.401 L 80.633 268.401 L 80.633 268.401 Q 80.633 269.698 81.551 270.612 L 81.551 270.612 L 81.551 270.612 Q 82.469 271.526 83.766 271.526 L 83.766 271.526 L 83.766 271.526 Q 85.063 271.526 85.984 270.604 L 85.984 270.604 L 85.984 270.604 Q 86.141 270.448 86.281 270.276 L 86.281 270.276 L 86.945 270.51 L 86.945 270.51 Q 86.828 270.706 86.453 271.073 L 86.453 271.073 L 86.453 271.073 Q 85.344 272.19 83.766 272.19 L 83.766 272.19 L 83.766 272.19 Q 82.203 272.19 81.09 271.077 L 81.09 271.077 L 81.09 271.077 Q 79.977 269.964 79.977 268.401 L 79.977 268.401 L 79.977 268.401 Q 79.977 266.823 81.09 265.714 L 81.09 265.714 L 81.09 265.714 Q 82.203 264.604 83.766 264.604 L 83.766 264.604 L 83.766 264.604 Q 85.344 264.604 86.453 265.714 L 86.453 265.714 L 86.453 265.714 Q 87.43 266.698 87.43 268.049 L 87.43 268.049 L 87.43 268.049 Z " fill-rule="evenodd" fill="rgb(191,191,191)"/><path d=" M 64.848 93.992 L 65.191 94.594 L 65.191 94.594 Q 64.527 94.695 63.887 95.438 L 63.887 95.438 L 63.887 95.438 Q 63.246 96.18 63.246 96.938 L 63.246 96.938 L 63.246 100.828 L 62.621 100.828 L 62.621 94.047 L 63.246 94.047 L 63.246 95.516 L 63.246 95.516 Q 63.637 94.492 64.848 93.992 L 64.848 93.992 L 64.848 93.992 Z  M 73.262 94.047 L 73.262 100.828 L 72.637 100.828 L 72.637 99.445 L 72.637 99.445 Q 72.457 99.688 72.246 99.906 L 72.246 99.906 L 72.246 99.906 Q 71.137 101.023 69.559 101.023 L 69.559 101.023 L 69.559 101.023 Q 67.996 101.023 66.883 99.91 L 66.883 99.91 L 66.883 99.91 Q 65.77 98.797 65.77 97.234 L 65.77 97.234 L 65.77 97.234 Q 65.77 95.656 66.883 94.547 L 66.883 94.547 L 66.883 94.547 Q 67.996 93.438 69.559 93.438 L 69.559 93.438 L 69.559 93.438 Q 71.137 93.438 72.246 94.547 L 72.246 94.547 L 72.246 94.547 Q 72.457 94.766 72.637 95.008 L 72.637 95.008 L 72.637 94.047 L 73.262 94.047 L 73.262 94.047 Z  M 72.637 97.844 L 72.637 97.844 L 72.637 96.617 L 72.637 96.617 Q 72.465 95.703 71.777 95.016 L 71.777 95.016 L 71.777 95.016 Q 70.855 94.094 69.559 94.094 L 69.559 94.094 L 69.559 94.094 Q 68.262 94.094 67.344 95.016 L 67.344 95.016 L 67.344 95.016 Q 66.426 95.938 66.426 97.234 L 66.426 97.234 L 66.426 97.234 Q 66.426 98.531 67.344 99.445 L 67.344 99.445 L 67.344 99.445 Q 68.262 100.359 69.559 100.359 L 69.559 100.359 L 69.559 100.359 Q 70.855 100.359 71.777 99.438 L 71.777 99.438 L 71.777 99.438 Q 72.465 98.75 72.637 97.844 Z  M 74.207 94.047 L 75.59 94.047 L 75.59 91.164 L 76.207 91.164 L 76.207 94.047 L 77.59 94.047 L 77.59 94.672 L 76.207 94.672 L 76.207 100.828 L 75.59 100.828 L 75.59 94.672 L 74.207 94.672 L 74.207 94.047 L 74.207 94.047 Z  M 79.043 96.25 L 79.043 96.25 L 84.996 96.25 L 84.996 96.25 Q 84.777 95.539 84.254 95.016 L 84.254 95.016 L 84.254 95.016 Q 83.332 94.094 82.035 94.094 L 82.035 94.094 L 82.035 94.094 Q 80.738 94.094 79.816 95.016 L 79.816 95.016 L 79.816 95.016 Q 79.27 95.57 79.043 96.25 Z  M 85.699 96.883 L 78.926 96.883 L 78.926 96.883 Q 78.902 97.047 78.902 97.234 L 78.902 97.234 L 78.902 97.234 Q 78.902 98.531 79.82 99.445 L 79.82 99.445 L 79.82 99.445 Q 80.738 100.359 82.035 100.359 L 82.035 100.359 L 82.035 100.359 Q 83.332 100.359 84.254 99.438 L 84.254 99.438 L 84.254 99.438 Q 84.41 99.281 84.551 99.109 L 84.551 99.109 L 85.215 99.344 L 85.215 99.344 Q 85.098 99.539 84.723 99.906 L 84.723 99.906 L 84.723 99.906 Q 83.613 101.023 82.035 101.023 L 82.035 101.023 L 82.035 101.023 Q 80.473 101.023 79.359 99.91 L 79.359 99.91 L 79.359 99.91 Q 78.246 98.797 78.246 97.234 L 78.246 97.234 L 78.246 97.234 Q 78.246 95.656 79.359 94.547 L 79.359 94.547 L 79.359 94.547 Q 80.473 93.438 82.035 93.438 L 82.035 93.438 L 82.035 93.438 Q 83.613 93.438 84.723 94.547 L 84.723 94.547 L 84.723 94.547 Q 85.699 95.531 85.699 96.883 L 85.699 96.883 L 85.699 96.883 Z " fill-rule="evenodd" fill="rgb(191,191,191)"/><path d=" M 52.795 25.359 L 48.6 25.359 L 48.6 40.992 L 47.674 40.992 L 47.674 25.359 L 43.479 25.359 L 43.479 24.422 L 52.795 24.422 L 52.795 25.359 L 52.795 25.359 Z  M 54.975 34.125 L 54.975 34.125 L 63.904 34.125 L 63.904 34.125 Q 63.576 33.059 62.791 32.273 L 62.791 32.273 L 62.791 32.273 Q 61.408 30.891 59.463 30.891 L 59.463 30.891 L 59.463 30.891 Q 57.518 30.891 56.135 32.273 L 56.135 32.273 L 56.135 32.273 Q 55.314 33.105 54.975 34.125 Z  M 64.959 35.074 L 54.799 35.074 L 54.799 35.074 Q 54.764 35.32 54.764 35.602 L 54.764 35.602 L 54.764 35.602 Q 54.764 37.547 56.141 38.918 L 56.141 38.918 L 56.141 38.918 Q 57.518 40.289 59.463 40.289 L 59.463 40.289 L 59.463 40.289 Q 61.408 40.289 62.791 38.906 L 62.791 38.906 L 62.791 38.906 Q 63.025 38.672 63.236 38.414 L 63.236 38.414 L 64.232 38.766 L 64.232 38.766 Q 64.057 39.059 63.494 39.609 L 63.494 39.609 L 63.494 39.609 Q 61.83 41.285 59.463 41.285 L 59.463 41.285 L 59.463 41.285 Q 57.119 41.285 55.449 39.615 L 55.449 39.615 L 55.449 39.615 Q 53.779 37.945 53.779 35.602 L 53.779 35.602 L 53.779 35.602 Q 53.779 33.234 55.449 31.57 L 55.449 31.57 L 55.449 31.57 Q 57.119 29.906 59.463 29.906 L 59.463 29.906 L 59.463 29.906 Q 61.83 29.906 63.494 31.57 L 63.494 31.57 L 63.494 31.57 Q 64.959 33.047 64.959 35.074 L 64.959 35.074 L 64.959 35.074 Z  M 66.541 40.992 L 66.541 30.82 L 67.479 30.82 L 67.479 31.066 L 67.479 31.066 Q 68.346 30.223 69.553 30.223 L 69.553 30.223 L 69.553 30.223 Q 70.807 30.223 71.686 31.102 L 71.686 31.102 L 71.686 31.102 Q 71.92 31.336 72.096 31.617 L 72.096 31.617 L 72.096 31.617 Q 72.283 31.348 72.529 31.102 L 72.529 31.102 L 72.529 31.102 Q 73.408 30.223 74.662 30.223 L 74.662 30.223 L 74.662 30.223 Q 75.916 30.223 76.795 31.102 L 76.795 31.102 L 76.795 31.102 Q 77.627 31.957 77.674 33.141 L 77.674 33.141 L 77.674 40.992 L 76.736 40.992 L 76.736 33.141 L 76.748 33.141 L 76.748 33.141 Q 76.713 32.332 76.139 31.77 L 76.139 31.77 L 76.139 31.77 Q 75.518 31.16 74.662 31.16 L 74.662 31.16 L 74.662 31.16 Q 73.795 31.16 73.18 31.77 L 73.18 31.77 L 73.18 31.77 Q 72.564 32.379 72.564 33.293 L 72.564 33.293 L 72.564 40.992 L 71.639 40.992 L 71.639 33.141 L 71.65 33.141 L 71.65 33.141 Q 71.604 32.332 71.029 31.77 L 71.029 31.77 L 71.029 31.77 Q 70.408 31.16 69.553 31.16 L 69.553 31.16 L 69.553 31.16 Q 68.697 31.16 68.088 31.77 L 68.088 31.77 L 68.088 31.77 Q 67.549 32.297 67.479 33.059 L 67.479 33.059 L 67.479 40.992 L 66.541 40.992 L 66.541 40.992 Z  M 79.912 44.871 L 79.912 30.82 L 80.85 30.82 L 80.85 32.25 L 80.85 32.25 Q 81.107 31.898 81.436 31.57 L 81.436 31.57 L 81.436 31.57 Q 83.1 29.918 85.455 29.918 L 85.455 29.918 L 85.455 29.918 Q 87.811 29.918 89.475 31.576 L 89.475 31.576 L 89.475 31.576 Q 91.139 33.234 91.139 35.602 L 91.139 35.602 L 91.139 35.602 Q 91.139 37.945 89.475 39.615 L 89.475 39.615 L 89.475 39.615 Q 87.811 41.285 85.455 41.285 L 85.455 41.285 L 85.455 41.285 Q 83.1 41.285 81.436 39.609 L 81.436 39.609 L 81.436 39.609 Q 81.107 39.281 80.85 38.93 L 80.85 38.93 L 80.85 44.871 L 79.912 44.871 L 79.912 44.871 Z  M 80.85 34.629 L 80.85 34.629 L 80.85 36.574 L 80.85 36.574 Q 81.107 37.91 82.127 38.918 L 82.127 38.918 L 82.127 38.918 Q 83.51 40.301 85.455 40.301 L 85.455 40.301 L 85.455 40.301 Q 87.4 40.301 88.777 38.924 L 88.777 38.924 L 88.777 38.924 Q 90.154 37.547 90.154 35.602 L 90.154 35.602 L 90.154 35.602 Q 90.154 33.656 88.777 32.273 L 88.777 32.273 L 88.777 32.273 Q 87.4 30.891 85.455 30.891 L 85.455 30.891 L 85.455 30.891 Q 83.51 30.891 82.127 32.273 L 82.127 32.273 L 82.127 32.273 Q 81.107 33.293 80.85 34.629 Z  M 98.369 29.906 L 98.369 29.906 L 98.369 29.906 Q 100.736 29.906 102.395 31.57 L 102.395 31.57 L 102.395 31.57 Q 104.053 33.234 104.053 35.602 L 104.053 35.602 L 104.053 35.602 Q 104.053 37.945 102.395 39.615 L 102.395 39.615 L 102.395 39.615 Q 100.736 41.285 98.369 41.285 L 98.369 41.285 L 98.369 41.285 Q 96.025 41.285 94.355 39.615 L 94.355 39.615 L 94.355 39.615 Q 92.686 37.945 92.686 35.602 L 92.686 35.602 L 92.686 35.602 Q 92.686 33.234 94.355 31.57 L 94.355 31.57 L 94.355 31.57 Q 96.025 29.906 98.369 29.906 Z  M 98.369 30.891 L 98.369 30.891 Q 96.424 30.891 95.047 32.273 L 95.047 32.273 L 95.047 32.273 Q 93.67 33.656 93.67 35.602 L 93.67 35.602 L 93.67 35.602 Q 93.67 37.547 95.047 38.918 L 95.047 38.918 L 95.047 38.918 Q 96.424 40.289 98.369 40.289 L 98.369 40.289 L 98.369 40.289 Q 100.314 40.289 101.691 38.918 L 101.691 38.918 L 101.691 38.918 Q 103.068 37.547 103.068 35.602 L 103.068 35.602 L 103.068 35.602 Q 103.068 33.656 101.691 32.273 L 101.691 32.273 L 101.691 32.273 Q 100.314 30.891 98.369 30.891 L 98.369 30.891 L 98.369 30.891 Z " fill-rule="evenodd" fill="rgb(223,220,220)"/></g><g style="isolation:isolate"><line x1="54.375" y1="95" x2="18.938" y2="95" vector-effect="non-scaling-stroke" stroke-width="0.5" stroke="rgb(191,191,191)" stroke-linejoin="miter" stroke-linecap="square" stroke-miterlimit="3"/><line x1="135.813" y1="96" x2="96.328" y2="96" vector-effect="non-scaling-stroke" stroke-width="0.5" stroke="rgb(191,191,191)" stroke-linejoin="miter" stroke-linecap="square" stroke-miterlimit="3"/><line x1="56.813" y1="181.031" x2="18.938" y2="181.031" vector-effect="non-scaling-stroke" stroke-width="0.5" stroke="rgb(191,191,191)" stroke-linejoin="miter" stroke-linecap="square" stroke-miterlimit="3"/><line x1="135.813" y1="181.031" x2="88.667" y2="181.031" vector-effect="non-scaling-stroke" stroke-width="0.5" stroke="rgb(191,191,191)" stroke-linejoin="miter" stroke-linecap="square" stroke-miterlimit="3"/><line x1="59.875" y1="311.333" x2="18.938" y2="311" vector-effect="non-scaling-stroke" stroke-width="0.5" stroke="rgb(191,191,191)" stroke-linejoin="miter" stroke-linecap="square" stroke-miterlimit="3"/><line x1="135.813" y1="311" x2="88.667" y2="311.333" vector-effect="non-scaling-stroke" stroke-width="0.5" stroke="rgb(191,191,191)" stroke-linejoin="miter" stroke-linecap="square" stroke-miterlimit="3"/><line x1="55.875" y1="266.464" x2="18.938" y2="266.057" vector-effect="non-scaling-stroke" stroke-width="0.5" stroke="rgb(191,191,191)" stroke-linejoin="miter" stroke-linecap="square" stroke-miterlimit="3"/><line x1="135.813" y1="266.057" x2="93.094" y2="266.464" vector-effect="non-scaling-stroke" stroke-width="0.5" stroke="rgb(191,191,191)" stroke-linejoin="miter" stroke-linecap="square" stroke-miterlimit="3"/></g></g></svg>