<?xml version="1.0" standalone="no"?><!-- Generator: Gravit.io --><svg xmlns="http://www.w3.org/2000/svg" xmlns:xlink="http://www.w3.org/1999/xlink" style="isolation:isolate" viewBox="0 0 150 380" width="150" height="380"><defs><clipPath id="_clipPath_bzAUl0YVqFPQ4aT67wll0WfIvKcQjfs6"><rect width="150" height="380"/></clipPath></defs><g clip-path="url(#_clipPath_bzAUl0YVqFPQ4aT67wll0WfIvKcQjfs6)"><rect width="150" height="380" style="fill:rgb(0,0,0)"/><g style="isolation:isolate"><path d="M 112.776 276.188 L 126.224 276.188 C 129.964 276.188 133 279.224 133 282.964 L 133 329.224 C 133 332.964 129.964 336 126.224 336 L 112.776 336 C 109.036 336 106 332.964 106 329.224 L 106 282.964 C 106 279.224 109.036 276.188 112.776 276.188 Z" style="stroke:none;fill:#EBEBEB;stroke-miterlimit:10;"/><path d="M 112.776 276.188 L 126.224 276.188 C 129.964 276.188 133 279.224 133 282.964 L 133 329.224 C 133 332.964 129.964 336 126.224 336 L 112.776 336 C 109.036 336 106 332.964 106 329.224 L 106 282.964 C 106 279.224 109.036 276.188 112.776 276.188 Z" style="fill:none;stroke:#000000;stroke-width:1;stroke-linecap:square;stroke-miterlimit:3;mix-blend-mode:soft-light;"/><path d=" M 29 80 L 29 90 L 39 98" fill="none" vector-effect="non-scaling-stroke" stroke-width="0.5" stroke="rgb(191,191,191)" stroke-linejoin="miter" stroke-linecap="square" stroke-miterlimit="3"/><line x1="89" y1="64" x2="104" y2="64" vector-effect="non-scaling-stroke" stroke-width="0.5" stroke="rgb(191,191,191)" stroke-linejoin="miter" stroke-linecap="square" stroke-miterlimit="3"/><g style="opacity:0.25;"><path d=" M 113.198 106 C 116.054 112.582 117.627 120.01 117.566 127.854" fill="rgb(0,0,0)" vector-effect="non-scaling-stroke" stroke-width="0.5" stroke="rgb(191,191,191)" stroke-linejoin="miter" stroke-linecap="butt" stroke-miterlimit="4"/><g><path d=" M 47.837 164.777 C 47.569 164.523 47.303 164.266 47.044 164" fill="rgb(0,0,0)" vector-effect="non-scaling-stroke" stroke-width="0.5" stroke="rgb(191,191,191)" stroke-linejoin="miter" stroke-linecap="butt" stroke-miterlimit="4"/><path d=" M 47.044 164 C 37.986 155.03 32.32 141.751 32.434 126.998 C 32.493 119.464 34.053 112.346 36.773 106" fill="rgb(0,0,0)" vector-effect="non-scaling-stroke" stroke-width="0.3" stroke="rgb(191,191,191)" stroke-linejoin="miter" stroke-linecap="butt" stroke-miterlimit="4"/><path d=" M 102.981 164 C 102.898 164.089 102.812 164.175 102.725 164.259" fill="rgb(0,0,0)" vector-effect="non-scaling-stroke" stroke-width="0.5" stroke="rgb(191,191,191)" stroke-linejoin="miter" stroke-linecap="butt" stroke-miterlimit="4"/><path d=" M 117.566 127.854 C 117.454 142.293 111.83 155.207 102.981 164" fill="rgb(0,0,0)" vector-effect="non-scaling-stroke" stroke-width="0.3" stroke="rgb(191,191,191)" stroke-linejoin="miter" stroke-linecap="butt" stroke-miterlimit="4"/></g></g><g opacity="0.61"><line x1="41.859" y1="274.922" x2="100.484" y2="252.505" vector-effect="non-scaling-stroke" stroke-width="1" stroke="rgb(0,0,0)" stroke-linejoin="miter" stroke-linecap="square" stroke-miterlimit="3"/></g><g opacity="0.61"><line x1="11.609" y1="233.297" x2="70.234" y2="210.88" vector-effect="non-scaling-stroke" stroke-width="1" stroke="rgb(0,0,0)" stroke-linejoin="miter" stroke-linecap="square" stroke-miterlimit="3"/></g><g opacity="0.61"><line x1="99.375" y1="218.875" x2="113.625" y2="212.625" vector-effect="non-scaling-stroke" stroke-width="1" stroke="rgb(0,0,0)" stroke-linejoin="miter" stroke-linecap="square" stroke-miterlimit="3"/></g><g opacity="0.61"><line x1="7.859" y1="279.609" x2="66.484" y2="257.193" vector-effect="non-scaling-stroke" stroke-width="1" stroke="rgb(0,0,0)" stroke-linejoin="miter" stroke-linecap="square" stroke-miterlimit="3"/></g><g opacity="0.61"><line x1="43.313" y1="343.875" x2="77.813" y2="335.625" vector-effect="non-scaling-stroke" stroke-width="1" stroke="rgb(0,0,0)" stroke-linejoin="miter" stroke-linecap="square" stroke-miterlimit="3"/></g><line x1="108.261" y1="93.523" x2="108.265" y2="93.523"/><g style="opacity:0.45;"><g opacity="0.23"><line x1="2.909" y1="-18.824" x2="-9.25" y2="291.75" vector-effect="non-scaling-stroke" stroke-width="1" stroke="rgb(191,191,191)" stroke-linejoin="miter" stroke-linecap="square" stroke-miterlimit="3"/></g><g opacity="0.23"><line x1="8.468" y1="-22.046" x2="-9.25" y2="291.75" vector-effect="non-scaling-stroke" stroke-width="1" stroke="rgb(191,191,191)" stroke-linejoin="miter" stroke-linecap="square" stroke-miterlimit="3"/></g><g opacity="0.23"><line x1="13.679" y1="-22.69" x2="-9.25" y2="291.75" vector-effect="non-scaling-stroke" stroke-width="1" stroke="rgb(191,191,191)" stroke-linejoin="miter" stroke-linecap="square" stroke-miterlimit="3"/></g><g opacity="0.23"><line x1="18.89" y1="-25.268" x2="-9.25" y2="291.75" vector-effect="non-scaling-stroke" stroke-width="1" stroke="rgb(191,191,191)" stroke-linejoin="miter" stroke-linecap="square" stroke-miterlimit="3"/></g><g opacity="0.23"><line x1="26.88" y1="-23.335" x2="-9.25" y2="291.75" vector-effect="non-scaling-stroke" stroke-width="1" stroke="rgb(191,191,191)" stroke-linejoin="miter" stroke-linecap="square" stroke-miterlimit="3"/></g><g opacity="0.23"><line x1="-2.302" y1="-27.845" x2="-9.25" y2="291.75" vector-effect="non-scaling-stroke" stroke-width="1" stroke="rgb(191,191,191)" stroke-linejoin="miter" stroke-linecap="square" stroke-miterlimit="3"/></g><g opacity="0.23"><line x1="36.955" y1="-33" x2="-9.25" y2="291.75" vector-effect="non-scaling-stroke" stroke-width="1" stroke="rgb(191,191,191)" stroke-linejoin="miter" stroke-linecap="square" stroke-miterlimit="3"/></g><g opacity="0.23"><line x1="44.25" y1="-28.49" x2="-9.25" y2="291.75" vector-effect="non-scaling-stroke" stroke-width="1" stroke="rgb(191,191,191)" stroke-linejoin="miter" stroke-linecap="square" stroke-miterlimit="3"/></g></g><g opacity="0.07"><line x1="117.168" y1="453.451" x2="228.003" y2="108.998" vector-effect="non-scaling-stroke" stroke-width="1" stroke="rgb(191,191,191)" stroke-linejoin="miter" stroke-linecap="square" stroke-miterlimit="3"/></g><g opacity="0.07"><line x1="108.212" y1="454.937" x2="228.003" y2="108.998" vector-effect="non-scaling-stroke" stroke-width="1" stroke="rgb(191,191,191)" stroke-linejoin="miter" stroke-linecap="square" stroke-miterlimit="3"/></g><g opacity="0.07"><line x1="100.53" y1="453.659" x2="228.003" y2="108.998" vector-effect="non-scaling-stroke" stroke-width="1" stroke="rgb(191,191,191)" stroke-linejoin="miter" stroke-linecap="square" stroke-miterlimit="3"/></g><g opacity="0.07"><line x1="92.267" y1="454.553" x2="228.003" y2="108.998" vector-effect="non-scaling-stroke" stroke-width="1" stroke="rgb(191,191,191)" stroke-linejoin="miter" stroke-linecap="square" stroke-miterlimit="3"/></g><g opacity="0.07"><line x1="81.366" y1="449.31" x2="228.003" y2="108.998" vector-effect="non-scaling-stroke" stroke-width="1" stroke="rgb(191,191,191)" stroke-linejoin="miter" stroke-linecap="square" stroke-miterlimit="3"/></g><g opacity="0.07"><line x1="121.944" y1="465.594" x2="228.003" y2="108.998" vector-effect="non-scaling-stroke" stroke-width="1" stroke="rgb(191,191,191)" stroke-linejoin="miter" stroke-linecap="square" stroke-miterlimit="3"/></g><g opacity="0.07"><line x1="63.983" y1="456.303" x2="228.003" y2="108.998" vector-effect="non-scaling-stroke" stroke-width="1" stroke="rgb(191,191,191)" stroke-linejoin="miter" stroke-linecap="square" stroke-miterlimit="3"/></g><g opacity="0.07"><line x1="54.856" y1="448.43" x2="228.003" y2="108.998" vector-effect="non-scaling-stroke" stroke-width="1" stroke="rgb(191,191,191)" stroke-linejoin="miter" stroke-linecap="square" stroke-miterlimit="3"/></g><g opacity="0.07"><line x1="114.168" y1="444.451" x2="225.003" y2="99.998" vector-effect="non-scaling-stroke" stroke-width="1" stroke="rgb(191,191,191)" stroke-linejoin="miter" stroke-linecap="square" stroke-miterlimit="3"/></g><g opacity="0.07"><line x1="105.212" y1="445.937" x2="225.003" y2="99.998" vector-effect="non-scaling-stroke" stroke-width="1" stroke="rgb(191,191,191)" stroke-linejoin="miter" stroke-linecap="square" stroke-miterlimit="3"/></g><g opacity="0.07"><line x1="97.53" y1="444.659" x2="225.003" y2="99.998" vector-effect="non-scaling-stroke" stroke-width="1" stroke="rgb(191,191,191)" stroke-linejoin="miter" stroke-linecap="square" stroke-miterlimit="3"/></g><g opacity="0.07"><line x1="89.267" y1="445.553" x2="225.003" y2="99.998" vector-effect="non-scaling-stroke" stroke-width="1" stroke="rgb(191,191,191)" stroke-linejoin="miter" stroke-linecap="square" stroke-miterlimit="3"/></g><g opacity="0.07"><line x1="78.366" y1="440.31" x2="225.003" y2="99.998" vector-effect="non-scaling-stroke" stroke-width="1" stroke="rgb(191,191,191)" stroke-linejoin="miter" stroke-linecap="square" stroke-miterlimit="3"/></g><g opacity="0.07"><line x1="119.944" y1="456.594" x2="226.003" y2="99.998" vector-effect="non-scaling-stroke" stroke-width="1" stroke="rgb(191,191,191)" stroke-linejoin="miter" stroke-linecap="square" stroke-miterlimit="3"/></g><g opacity="0.07"><line x1="60.983" y1="447.303" x2="225.003" y2="99.998" vector-effect="non-scaling-stroke" stroke-width="1" stroke="rgb(191,191,191)" stroke-linejoin="miter" stroke-linecap="square" stroke-miterlimit="3"/></g><g opacity="0.03"><line x1="51.856" y1="439.43" x2="225.003" y2="99.998" vector-effect="non-scaling-stroke" stroke-width="1" stroke="rgb(191,191,191)" stroke-linejoin="miter" stroke-linecap="square" stroke-miterlimit="3"/></g><g opacity="0.03"><line x1="99.668" y1="426.451" x2="210.503" y2="81.998" vector-effect="non-scaling-stroke" stroke-width="1" stroke="rgb(191,191,191)" stroke-linejoin="miter" stroke-linecap="square" stroke-miterlimit="3"/></g><g opacity="0.03"><line x1="90.712" y1="427.937" x2="210.503" y2="81.998" vector-effect="non-scaling-stroke" stroke-width="1" stroke="rgb(191,191,191)" stroke-linejoin="miter" stroke-linecap="square" stroke-miterlimit="3"/></g><g opacity="0.03"><line x1="83.03" y1="426.659" x2="210.503" y2="81.998" vector-effect="non-scaling-stroke" stroke-width="1" stroke="rgb(191,191,191)" stroke-linejoin="miter" stroke-linecap="square" stroke-miterlimit="3"/></g><g opacity="0.03"><line x1="74.767" y1="427.553" x2="210.503" y2="81.998" vector-effect="non-scaling-stroke" stroke-width="1" stroke="rgb(191,191,191)" stroke-linejoin="miter" stroke-linecap="square" stroke-miterlimit="3"/></g><g opacity="0.03"><line x1="63.866" y1="422.31" x2="210.503" y2="81.998" vector-effect="non-scaling-stroke" stroke-width="1" stroke="rgb(191,191,191)" stroke-linejoin="miter" stroke-linecap="square" stroke-miterlimit="3"/></g><g opacity="0.03"><line x1="104.444" y1="438.594" x2="210.503" y2="81.998" vector-effect="non-scaling-stroke" stroke-width="1" stroke="rgb(191,191,191)" stroke-linejoin="miter" stroke-linecap="square" stroke-miterlimit="3"/></g><g opacity="0.03"><line x1="46.483" y1="429.303" x2="210.503" y2="81.998" vector-effect="non-scaling-stroke" stroke-width="1" stroke="rgb(191,191,191)" stroke-linejoin="miter" stroke-linecap="square" stroke-miterlimit="3"/></g><g opacity="0.03"><line x1="37.356" y1="421.43" x2="210.503" y2="81.998" vector-effect="non-scaling-stroke" stroke-width="1" stroke="rgb(191,191,191)" stroke-linejoin="miter" stroke-linecap="square" stroke-miterlimit="3"/></g><g opacity="0.03"><line x1="67.491" y1="437.004" x2="207.308" y2="-15.826" vector-effect="non-scaling-stroke" stroke-width="1" stroke="rgb(191,191,191)" stroke-linejoin="miter" stroke-linecap="square" stroke-miterlimit="3"/></g><g opacity="0.03"><line x1="58.234" y1="439.614" x2="207.308" y2="-15.826" vector-effect="non-scaling-stroke" stroke-width="1" stroke="rgb(191,191,191)" stroke-linejoin="miter" stroke-linecap="square" stroke-miterlimit="3"/></g><g opacity="0.03"><line x1="50.492" y1="438.561" x2="207.308" y2="-15.826" vector-effect="non-scaling-stroke" stroke-width="1" stroke="rgb(191,191,191)" stroke-linejoin="miter" stroke-linecap="square" stroke-miterlimit="3"/></g><g opacity="0.03"><line x1="41.988" y1="440.355" x2="207.308" y2="-15.826" vector-effect="non-scaling-stroke" stroke-width="1" stroke="rgb(191,191,191)" stroke-linejoin="miter" stroke-linecap="square" stroke-miterlimit="3"/></g><g opacity="0.03"><line x1="31.268" y1="434.437" x2="207.308" y2="-15.826" vector-effect="non-scaling-stroke" stroke-width="1" stroke="rgb(191,191,191)" stroke-linejoin="miter" stroke-linecap="square" stroke-miterlimit="3"/></g><g opacity="0.03"><line x1="71.425" y1="452.295" x2="207.308" y2="-15.826" vector-effect="non-scaling-stroke" stroke-width="1" stroke="rgb(191,191,191)" stroke-linejoin="miter" stroke-linecap="square" stroke-miterlimit="3"/></g><g opacity="0.03"><line x1="12.983" y1="444.803" x2="207.308" y2="-15.826" vector-effect="non-scaling-stroke" stroke-width="1" stroke="rgb(191,191,191)" stroke-linejoin="miter" stroke-linecap="square" stroke-miterlimit="3"/></g><g opacity="0.03"><line x1="4.277" y1="435.356" x2="207.308" y2="-15.826" vector-effect="non-scaling-stroke" stroke-width="1" stroke="rgb(191,191,191)" stroke-linejoin="miter" stroke-linecap="square" stroke-miterlimit="3"/></g></g><g style="isolation:isolate"><path d=" M 71.393 31.663 L 71.393 31.663 L 71.393 31.663 Q 69.623 31.077 68.598 30.052 L 68.598 30.052 L 68.598 30.052 Q 67.572 29.026 67.572 27.561 L 67.572 27.561 L 67.572 27.561 Q 67.572 26.132 68.598 25.101 L 68.598 25.101 L 68.598 25.101 Q 69.623 24.069 71.088 24.069 L 71.088 24.069 L 71.088 24.069 Q 72.529 24.069 73.572 25.101 L 73.572 25.101 L 73.572 25.101 Q 74.135 25.651 74.357 26.331 L 74.357 26.331 L 73.514 26.659 L 73.514 26.659 Q 73.326 26.155 72.904 25.733 L 72.904 25.733 L 72.904 25.733 Q 72.154 24.983 71.088 24.983 L 71.088 24.983 L 71.088 24.983 Q 70.021 24.983 69.266 25.733 L 69.266 25.733 L 69.266 25.733 Q 68.51 26.483 68.51 27.561 L 68.51 27.561 L 68.51 27.561 Q 68.51 28.628 69.26 29.39 L 69.26 29.39 L 69.26 29.39 Q 69.963 30.081 71.205 30.655 L 71.205 30.655 L 71.205 30.655 Q 73.197 31.3 74.557 32.659 L 74.557 32.659 L 74.557 32.659 Q 75.986 34.089 75.986 36.116 L 75.986 36.116 L 75.986 36.116 Q 75.986 38.155 74.551 39.597 L 74.551 39.597 L 74.551 39.597 Q 73.115 41.038 71.088 41.038 L 71.088 41.038 L 71.088 41.038 Q 69.049 41.038 67.619 39.585 L 67.619 39.585 L 67.619 39.585 Q 66.459 38.436 66.236 36.913 L 66.236 36.913 L 67.115 36.597 L 67.115 36.597 Q 67.256 37.944 68.264 38.94 L 68.264 38.94 L 68.264 38.94 Q 69.436 40.112 71.088 40.112 L 71.088 40.112 L 71.088 40.112 Q 72.74 40.112 73.912 38.94 L 73.912 38.94 L 73.912 38.94 Q 75.084 37.769 75.084 36.116 L 75.084 36.116 L 75.084 36.116 Q 75.084 34.476 73.912 33.304 L 73.912 33.304 L 73.912 33.304 Q 72.881 32.272 71.393 31.663 Z  M 88.736 30.667 L 88.736 40.839 L 87.799 40.839 L 87.799 38.765 L 87.799 38.765 Q 87.529 39.128 87.213 39.456 L 87.213 39.456 L 87.213 39.456 Q 85.549 41.132 83.182 41.132 L 83.182 41.132 L 83.182 41.132 Q 80.838 41.132 79.168 39.462 L 79.168 39.462 L 79.168 39.462 Q 77.498 37.792 77.498 35.448 L 77.498 35.448 L 77.498 35.448 Q 77.498 33.081 79.168 31.417 L 79.168 31.417 L 79.168 31.417 Q 80.838 29.753 83.182 29.753 L 83.182 29.753 L 83.182 29.753 Q 85.549 29.753 87.213 31.417 L 87.213 31.417 L 87.213 31.417 Q 87.529 31.745 87.799 32.108 L 87.799 32.108 L 87.799 30.667 L 88.736 30.667 L 88.736 30.667 Z  M 87.799 36.362 L 87.799 36.362 L 87.799 34.522 L 87.799 34.522 Q 87.541 33.151 86.51 32.12 L 86.51 32.12 L 86.51 32.12 Q 85.127 30.737 83.182 30.737 L 83.182 30.737 L 83.182 30.737 Q 81.236 30.737 79.859 32.12 L 79.859 32.12 L 79.859 32.12 Q 78.482 33.503 78.482 35.448 L 78.482 35.448 L 78.482 35.448 Q 78.482 37.394 79.859 38.765 L 79.859 38.765 L 79.859 38.765 Q 81.236 40.136 83.182 40.136 L 83.182 40.136 L 83.182 40.136 Q 85.127 40.136 86.51 38.753 L 86.51 38.753 L 86.51 38.753 Q 87.541 37.722 87.799 36.362 Z  M 90.939 40.839 L 90.939 30.667 L 91.877 30.667 L 91.877 30.913 L 91.877 30.913 Q 92.744 30.069 93.951 30.069 L 93.951 30.069 L 93.951 30.069 Q 95.205 30.069 96.084 30.948 L 96.084 30.948 L 96.084 30.948 Q 96.318 31.183 96.494 31.464 L 96.494 31.464 L 96.494 31.464 Q 96.682 31.194 96.928 30.948 L 96.928 30.948 L 96.928 30.948 Q 97.807 30.069 99.061 30.069 L 99.061 30.069 L 99.061 30.069 Q 100.314 30.069 101.193 30.948 L 101.193 30.948 L 101.193 30.948 Q 102.025 31.804 102.072 32.987 L 102.072 32.987 L 102.072 40.839 L 101.135 40.839 L 101.135 32.987 L 101.146 32.987 L 101.146 32.987 Q 101.111 32.179 100.537 31.616 L 100.537 31.616 L 100.537 31.616 Q 99.916 31.007 99.061 31.007 L 99.061 31.007 L 99.061 31.007 Q 98.193 31.007 97.578 31.616 L 97.578 31.616 L 97.578 31.616 Q 96.963 32.226 96.963 33.14 L 96.963 33.14 L 96.963 40.839 L 96.037 40.839 L 96.037 32.987 L 96.049 32.987 L 96.049 32.987 Q 96.002 32.179 95.428 31.616 L 95.428 31.616 L 95.428 31.616 Q 94.807 31.007 93.951 31.007 L 93.951 31.007 L 93.951 31.007 Q 93.096 31.007 92.486 31.616 L 92.486 31.616 L 92.486 31.616 Q 91.947 32.144 91.877 32.905 L 91.877 32.905 L 91.877 40.839 L 90.939 40.839 L 90.939 40.839 Z  M 104.311 44.718 L 104.311 30.667 L 105.248 30.667 L 105.248 32.097 L 105.248 32.097 Q 105.506 31.745 105.834 31.417 L 105.834 31.417 L 105.834 31.417 Q 107.498 29.765 109.854 29.765 L 109.854 29.765 L 109.854 29.765 Q 112.209 29.765 113.873 31.423 L 113.873 31.423 L 113.873 31.423 Q 115.537 33.081 115.537 35.448 L 115.537 35.448 L 115.537 35.448 Q 115.537 37.792 113.873 39.462 L 113.873 39.462 L 113.873 39.462 Q 112.209 41.132 109.854 41.132 L 109.854 41.132 L 109.854 41.132 Q 107.498 41.132 105.834 39.456 L 105.834 39.456 L 105.834 39.456 Q 105.506 39.128 105.248 38.776 L 105.248 38.776 L 105.248 44.718 L 104.311 44.718 L 104.311 44.718 Z  M 105.248 34.476 L 105.248 34.476 L 105.248 36.421 L 105.248 36.421 Q 105.506 37.757 106.525 38.765 L 106.525 38.765 L 106.525 38.765 Q 107.908 40.147 109.854 40.147 L 109.854 40.147 L 109.854 40.147 Q 111.799 40.147 113.176 38.77 L 113.176 38.77 L 113.176 38.77 Q 114.553 37.394 114.553 35.448 L 114.553 35.448 L 114.553 35.448 Q 114.553 33.503 113.176 32.12 L 113.176 32.12 L 113.176 32.12 Q 111.799 30.737 109.854 30.737 L 109.854 30.737 L 109.854 30.737 Q 107.908 30.737 106.525 32.12 L 106.525 32.12 L 106.525 32.12 Q 105.506 33.14 105.248 34.476 Z  M 117.529 24.269 L 118.467 24.269 L 118.467 40.839 L 117.529 40.839 L 117.529 24.269 L 117.529 24.269 Z  M 121.561 33.972 L 121.561 33.972 L 130.49 33.972 L 130.49 33.972 Q 130.162 32.905 129.377 32.12 L 129.377 32.12 L 129.377 32.12 Q 127.994 30.737 126.049 30.737 L 126.049 30.737 L 126.049 30.737 Q 124.104 30.737 122.721 32.12 L 122.721 32.12 L 122.721 32.12 Q 121.9 32.952 121.561 33.972 Z  M 131.545 34.921 L 121.385 34.921 L 121.385 34.921 Q 121.35 35.167 121.35 35.448 L 121.35 35.448 L 121.35 35.448 Q 121.35 37.394 122.727 38.765 L 122.727 38.765 L 122.727 38.765 Q 124.104 40.136 126.049 40.136 L 126.049 40.136 L 126.049 40.136 Q 127.994 40.136 129.377 38.753 L 129.377 38.753 L 129.377 38.753 Q 129.611 38.519 129.822 38.261 L 129.822 38.261 L 130.818 38.612 L 130.818 38.612 Q 130.643 38.905 130.08 39.456 L 130.08 39.456 L 130.08 39.456 Q 128.416 41.132 126.049 41.132 L 126.049 41.132 L 126.049 41.132 Q 123.705 41.132 122.035 39.462 L 122.035 39.462 L 122.035 39.462 Q 120.365 37.792 120.365 35.448 L 120.365 35.448 L 120.365 35.448 Q 120.365 33.081 122.035 31.417 L 122.035 31.417 L 122.035 31.417 Q 123.705 29.753 126.049 29.753 L 126.049 29.753 L 126.049 29.753 Q 128.416 29.753 130.08 31.417 L 130.08 31.417 L 130.08 31.417 Q 131.545 32.894 131.545 34.921 L 131.545 34.921 L 131.545 34.921 Z  M 136.209 30.585 L 136.725 31.487 L 136.725 31.487 Q 135.729 31.64 134.768 32.753 L 134.768 32.753 L 134.768 32.753 Q 133.807 33.866 133.807 35.003 L 133.807 35.003 L 133.807 40.839 L 132.869 40.839 L 132.869 30.667 L 133.807 30.667 L 133.807 32.87 L 133.807 32.87 Q 134.393 31.335 136.209 30.585 L 136.209 30.585 L 136.209 30.585 Z  M 13.525 39.901 L 17.357 39.901 L 17.357 39.901 Q 19.197 39.901 20.498 38.595 L 20.498 38.595 L 20.498 38.595 Q 21.799 37.288 21.799 35.436 L 21.799 35.436 L 21.799 35.436 Q 21.799 33.585 20.498 32.272 L 20.498 32.272 L 20.498 32.272 Q 19.197 30.96 17.357 30.96 L 17.357 30.96 L 13.525 30.96 L 13.525 39.901 L 13.525 39.901 Z  M 17.521 25.194 L 13.525 25.194 L 13.525 30.022 L 17.744 30.022 L 17.744 30.022 Q 18.764 29.917 19.268 29.413 L 19.268 29.413 L 19.268 29.413 Q 19.982 28.698 19.982 27.667 L 19.982 27.667 L 19.982 27.667 Q 19.982 26.647 19.262 25.921 L 19.262 25.921 L 19.262 25.921 Q 18.541 25.194 17.521 25.194 L 17.521 25.194 L 17.521 25.194 Z  M 19.514 30.444 L 19.514 30.444 L 19.514 30.444 Q 20.428 30.831 21.189 31.604 L 21.189 31.604 L 21.189 31.604 Q 22.771 33.186 22.771 35.436 L 22.771 35.436 L 22.771 35.436 Q 22.771 37.675 21.189 39.257 L 21.189 39.257 L 21.189 39.257 Q 19.865 40.581 17.967 40.839 L 17.967 40.839 L 12.588 40.839 L 12.588 24.269 L 17.533 24.269 L 17.533 24.269 Q 18.951 24.269 19.941 25.265 L 19.941 25.265 L 19.941 25.265 Q 20.932 26.261 20.932 27.667 L 20.932 27.667 L 20.932 27.667 Q 20.932 29.073 19.936 30.069 L 19.936 30.069 L 19.936 30.069 Q 19.725 30.292 19.514 30.444 Z  M 28.596 40.979 L 28.596 40.979 L 28.596 40.979 Q 26.686 40.979 25.561 39.854 L 25.561 39.854 L 25.561 39.854 Q 24.436 38.729 24.4 37.007 L 24.4 37.007 L 24.4 30.655 L 25.338 30.655 L 25.338 36.925 L 25.338 36.925 Q 25.338 38.214 26.275 39.128 L 26.275 39.128 L 26.275 39.128 Q 27.201 40.054 28.584 40.054 L 28.584 40.054 L 28.584 40.054 Q 29.873 40.054 30.805 39.134 L 30.805 39.134 L 30.805 39.134 Q 31.736 38.214 31.736 36.925 L 31.736 36.925 L 31.736 30.655 L 32.674 30.655 L 32.674 37.007 L 32.674 37.007 Q 32.639 38.729 31.514 39.854 L 31.514 39.854 L 31.514 39.854 Q 30.389 40.979 28.596 40.979 Z  M 37.994 31.604 L 35.92 31.604 L 35.92 40.839 L 34.982 40.839 L 34.982 31.604 L 33.951 31.604 L 33.951 30.667 L 34.982 30.667 L 34.982 27.913 L 34.982 27.913 Q 35.053 26.765 35.861 25.933 L 35.861 25.933 L 35.861 25.933 Q 36.717 25.147 37.818 25.147 L 37.818 25.147 L 37.818 25.147 Q 38.404 25.147 39.049 25.37 L 39.049 25.37 L 38.756 26.202 L 38.756 26.202 Q 38.322 26.015 37.912 26.015 L 37.912 26.015 L 37.912 26.015 Q 37.186 26.015 36.529 26.601 L 36.529 26.601 L 36.529 26.601 Q 35.955 27.175 35.92 27.983 L 35.92 27.983 L 35.92 30.667 L 37.994 30.667 L 37.994 31.604 L 37.994 31.604 Z  M 42.482 31.604 L 40.408 31.604 L 40.408 40.839 L 39.471 40.839 L 39.471 31.604 L 38.439 31.604 L 38.439 30.667 L 39.471 30.667 L 39.471 27.913 L 39.471 27.913 Q 39.541 26.765 40.35 25.933 L 40.35 25.933 L 40.35 25.933 Q 41.205 25.147 42.307 25.147 L 42.307 25.147 L 42.307 25.147 Q 42.893 25.147 43.537 25.37 L 43.537 25.37 L 43.244 26.202 L 43.244 26.202 Q 42.811 26.015 42.4 26.015 L 42.4 26.015 L 42.4 26.015 Q 41.674 26.015 41.018 26.601 L 41.018 26.601 L 41.018 26.601 Q 40.443 27.175 40.408 27.983 L 40.408 27.983 L 40.408 30.667 L 42.482 30.667 L 42.482 31.604 L 42.482 31.604 Z  M 44.475 33.972 L 44.475 33.972 L 53.404 33.972 L 53.404 33.972 Q 53.076 32.905 52.291 32.12 L 52.291 32.12 L 52.291 32.12 Q 50.908 30.737 48.963 30.737 L 48.963 30.737 L 48.963 30.737 Q 47.018 30.737 45.635 32.12 L 45.635 32.12 L 45.635 32.12 Q 44.814 32.952 44.475 33.972 Z  M 54.459 34.921 L 44.299 34.921 L 44.299 34.921 Q 44.264 35.167 44.264 35.448 L 44.264 35.448 L 44.264 35.448 Q 44.264 37.394 45.641 38.765 L 45.641 38.765 L 45.641 38.765 Q 47.018 40.136 48.963 40.136 L 48.963 40.136 L 48.963 40.136 Q 50.908 40.136 52.291 38.753 L 52.291 38.753 L 52.291 38.753 Q 52.525 38.519 52.736 38.261 L 52.736 38.261 L 53.732 38.612 L 53.732 38.612 Q 53.557 38.905 52.994 39.456 L 52.994 39.456 L 52.994 39.456 Q 51.33 41.132 48.963 41.132 L 48.963 41.132 L 48.963 41.132 Q 46.619 41.132 44.949 39.462 L 44.949 39.462 L 44.949 39.462 Q 43.279 37.792 43.279 35.448 L 43.279 35.448 L 43.279 35.448 Q 43.279 33.081 44.949 31.417 L 44.949 31.417 L 44.949 31.417 Q 46.619 29.753 48.963 29.753 L 48.963 29.753 L 48.963 29.753 Q 51.33 29.753 52.994 31.417 L 52.994 31.417 L 52.994 31.417 Q 54.459 32.894 54.459 34.921 L 54.459 34.921 L 54.459 34.921 Z  M 59.123 30.585 L 59.639 31.487 L 59.639 31.487 Q 58.643 31.64 57.682 32.753 L 57.682 32.753 L 57.682 32.753 Q 56.721 33.866 56.721 35.003 L 56.721 35.003 L 56.721 40.839 L 55.783 40.839 L 55.783 30.667 L 56.721 30.667 L 56.721 32.87 L 56.721 32.87 Q 57.307 31.335 59.123 30.585 L 59.123 30.585 L 59.123 30.585 Z " fill-rule="evenodd" fill="rgb(223,220,220)"/><path d=" M 62.994 357.996 L 64.785 357.996 L 64.785 357.996 Q 67.171 358.01 68.483 359.329 L 68.483 359.329 L 68.483 359.329 Q 69.933 360.785 69.933 362.829 L 69.933 362.829 L 69.933 362.829 Q 69.933 364.887 68.483 366.336 L 68.483 366.336 L 68.483 366.336 Q 67.171 367.648 64.785 367.662 L 64.785 367.662 L 62.994 367.662 L 62.994 357.996 L 62.994 357.996 Z  M 64.778 358.563 L 63.541 358.563 L 63.541 367.102 L 64.778 367.102 L 64.778 367.102 Q 66.863 367.102 68.066 365.939 L 68.066 365.939 L 68.066 365.939 Q 69.352 364.654 69.352 362.829 L 69.352 362.829 L 69.352 362.829 Q 69.352 361.011 68.066 359.719 L 68.066 359.719 L 68.066 359.719 Q 66.863 358.563 64.778 358.563 L 64.778 358.563 L 64.778 358.563 Z  M 71.409 363.656 L 71.409 363.656 L 76.618 363.656 L 76.618 363.656 Q 76.427 363.034 75.969 362.576 L 75.969 362.576 L 75.969 362.576 Q 75.162 361.77 74.027 361.77 L 74.027 361.77 L 74.027 361.77 Q 72.893 361.77 72.086 362.576 L 72.086 362.576 L 72.086 362.576 Q 71.607 363.062 71.409 363.656 Z  M 77.233 364.21 L 71.307 364.21 L 71.307 364.21 Q 71.286 364.354 71.286 364.518 L 71.286 364.518 L 71.286 364.518 Q 71.286 365.652 72.089 366.452 L 72.089 366.452 L 72.089 366.452 Q 72.893 367.252 74.027 367.252 L 74.027 367.252 L 74.027 367.252 Q 75.162 367.252 75.969 366.445 L 75.969 366.445 L 75.969 366.445 Q 76.105 366.309 76.229 366.158 L 76.229 366.158 L 76.81 366.363 L 76.81 366.363 Q 76.707 366.534 76.379 366.855 L 76.379 366.855 L 76.379 366.855 Q 75.408 367.833 74.027 367.833 L 74.027 367.833 L 74.027 367.833 Q 72.66 367.833 71.686 366.859 L 71.686 366.859 L 71.686 366.859 Q 70.712 365.885 70.712 364.518 L 70.712 364.518 L 70.712 364.518 Q 70.712 363.137 71.686 362.166 L 71.686 362.166 L 71.686 362.166 Q 72.66 361.195 74.027 361.195 L 74.027 361.195 L 74.027 361.195 Q 75.408 361.195 76.379 362.166 L 76.379 362.166 L 76.379 362.166 Q 77.233 363.027 77.233 364.21 L 77.233 364.21 L 77.233 364.21 Z  M 82.408 361.729 L 83.044 361.729 L 80.392 367.662 L 80.104 367.662 L 77.479 361.729 L 78.115 361.729 L 80.248 366.671 L 82.408 361.729 L 82.408 361.729 Z  M 83.857 361.729 L 84.397 361.729 L 84.397 367.662 L 83.857 367.662 L 83.857 361.729 L 83.857 361.729 Z  M 84.131 359.63 L 84.131 359.63 Q 84.35 359.63 84.51 359.787 L 84.51 359.787 L 84.51 359.787 Q 84.671 359.944 84.671 360.163 L 84.671 360.163 L 84.671 360.163 Q 84.671 360.396 84.51 360.553 L 84.51 360.553 L 84.51 360.553 Q 84.35 360.71 84.131 360.71 L 84.131 360.71 L 84.131 360.71 Q 83.905 360.71 83.745 360.553 L 83.745 360.553 L 83.745 360.553 Q 83.584 360.396 83.584 360.163 L 83.584 360.163 L 83.584 360.163 Q 83.584 359.944 83.745 359.787 L 83.745 359.787 L 83.745 359.787 Q 83.905 359.63 84.131 359.63 L 84.131 359.63 L 84.131 359.63 Z  M 91.015 366.233 L 91.015 366.233 L 91.589 366.445 L 91.589 366.445 Q 91.432 366.657 91.233 366.855 L 91.233 366.855 L 91.233 366.855 Q 90.263 367.833 88.882 367.833 L 88.882 367.833 L 88.882 367.833 Q 87.515 367.833 86.541 366.859 L 86.541 366.859 L 86.541 366.859 Q 85.566 365.885 85.566 364.511 L 85.566 364.511 L 85.566 364.511 Q 85.566 363.137 86.541 362.166 L 86.541 362.166 L 86.541 362.166 Q 87.515 361.195 88.882 361.195 L 88.882 361.195 L 88.882 361.195 Q 90.263 361.195 91.233 362.166 L 91.233 362.166 L 91.233 362.166 Q 91.432 362.364 91.589 362.576 L 91.589 362.576 L 91.015 362.788 L 91.015 362.788 Q 90.926 362.679 90.823 362.569 L 90.823 362.569 L 90.823 362.569 Q 90.017 361.77 88.882 361.77 L 88.882 361.77 L 88.882 361.77 Q 87.754 361.77 86.951 362.573 L 86.951 362.573 L 86.951 362.573 Q 86.147 363.376 86.147 364.511 L 86.147 364.511 L 86.147 364.511 Q 86.147 365.646 86.951 366.449 L 86.951 366.449 L 86.951 366.449 Q 87.754 367.252 88.882 367.252 L 88.882 367.252 L 88.882 367.252 Q 90.017 367.252 90.823 366.445 L 90.823 366.445 L 90.823 366.445 Q 90.926 366.343 91.015 366.233 Z  M 92.997 363.656 L 92.997 363.656 L 98.206 363.656 L 98.206 363.656 Q 98.015 363.034 97.557 362.576 L 97.557 362.576 L 97.557 362.576 Q 96.75 361.77 95.615 361.77 L 95.615 361.77 L 95.615 361.77 Q 94.48 361.77 93.674 362.576 L 93.674 362.576 L 93.674 362.576 Q 93.195 363.062 92.997 363.656 Z  M 98.821 364.21 L 92.895 364.21 L 92.895 364.21 Q 92.874 364.354 92.874 364.518 L 92.874 364.518 L 92.874 364.518 Q 92.874 365.652 93.677 366.452 L 93.677 366.452 L 93.677 366.452 Q 94.48 367.252 95.615 367.252 L 95.615 367.252 L 95.615 367.252 Q 96.75 367.252 97.557 366.445 L 97.557 366.445 L 97.557 366.445 Q 97.693 366.309 97.816 366.158 L 97.816 366.158 L 98.397 366.363 L 98.397 366.363 Q 98.295 366.534 97.967 366.855 L 97.967 366.855 L 97.967 366.855 Q 96.996 367.833 95.615 367.833 L 95.615 367.833 L 95.615 367.833 Q 94.248 367.833 93.274 366.859 L 93.274 366.859 L 93.274 366.859 Q 92.3 365.885 92.3 364.518 L 92.3 364.518 L 92.3 364.518 Q 92.3 363.137 93.274 362.166 L 93.274 362.166 L 93.274 362.166 Q 94.248 361.195 95.615 361.195 L 95.615 361.195 L 95.615 361.195 Q 96.996 361.195 97.967 362.166 L 97.967 362.166 L 97.967 362.166 Q 98.821 363.027 98.821 364.21 L 98.821 364.21 L 98.821 364.21 Z  M 101.282 364.477 L 101.282 364.477 L 101.282 364.477 Q 100.592 364.101 100.325 363.834 L 100.325 363.834 L 100.325 363.834 Q 99.908 363.417 99.908 362.829 L 99.908 362.829 L 99.908 362.829 Q 99.908 362.241 100.325 361.821 L 100.325 361.821 L 100.325 361.821 Q 100.742 361.4 101.33 361.4 L 101.33 361.4 L 101.33 361.4 Q 101.918 361.4 102.308 361.79 L 102.308 361.79 L 102.308 361.79 Q 102.684 362.166 102.684 362.651 L 102.684 362.651 L 102.684 362.679 L 102.212 362.87 L 102.212 362.87 Q 102.15 362.412 101.925 362.18 L 101.925 362.18 L 101.925 362.18 Q 101.699 361.947 101.33 361.947 L 101.33 361.947 L 101.33 361.947 Q 100.968 361.947 100.708 362.207 L 100.708 362.207 L 100.708 362.207 Q 100.448 362.467 100.448 362.829 L 100.448 362.829 L 100.448 362.829 Q 100.448 363.191 100.708 363.451 L 100.708 363.451 L 100.708 363.451 Q 100.858 363.608 101.344 363.916 L 101.344 363.916 L 101.344 363.916 Q 102.116 364.333 102.444 364.661 L 102.444 364.661 L 102.444 364.661 Q 102.957 365.181 102.957 365.898 L 102.957 365.898 L 102.957 365.898 Q 102.957 366.637 102.444 367.153 L 102.444 367.153 L 102.444 367.153 Q 101.932 367.669 101.2 367.669 L 101.2 367.669 L 101.2 367.669 Q 100.469 367.669 99.956 367.153 L 99.956 367.153 L 99.956 367.153 Q 99.443 366.637 99.443 366.021 L 99.443 366.021 L 99.983 365.885 L 99.983 365.885 Q 99.983 366.411 100.342 366.77 L 100.342 366.77 L 100.342 366.77 Q 100.701 367.129 101.2 367.129 L 101.2 367.129 L 101.2 367.129 Q 101.699 367.129 102.062 366.77 L 102.062 366.77 L 102.062 366.77 Q 102.424 366.411 102.424 365.898 L 102.424 365.898 L 102.424 365.898 Q 102.424 365.399 102.062 365.044 L 102.062 365.044 L 102.062 365.044 Q 101.87 364.853 101.282 364.477 Z  M 51.592 361.729 L 51.592 367.662 L 51.045 367.662 L 51.045 366.452 L 51.045 366.452 Q 50.888 366.664 50.703 366.855 L 50.703 366.855 L 50.703 366.855 Q 49.732 367.833 48.352 367.833 L 48.352 367.833 L 48.352 367.833 Q 46.984 367.833 46.01 366.859 L 46.01 366.859 L 46.01 366.859 Q 45.036 365.885 45.036 364.518 L 45.036 364.518 L 45.036 364.518 Q 45.036 363.137 46.01 362.166 L 46.01 362.166 L 46.01 362.166 Q 46.984 361.195 48.352 361.195 L 48.352 361.195 L 48.352 361.195 Q 49.732 361.195 50.703 362.166 L 50.703 362.166 L 50.703 362.166 Q 50.888 362.357 51.045 362.569 L 51.045 362.569 L 51.045 361.729 L 51.592 361.729 L 51.592 361.729 Z  M 51.045 365.051 L 51.045 365.051 L 51.045 363.978 L 51.045 363.978 Q 50.895 363.178 50.293 362.576 L 50.293 362.576 L 50.293 362.576 Q 49.486 361.77 48.352 361.77 L 48.352 361.77 L 48.352 361.77 Q 47.217 361.77 46.414 362.576 L 46.414 362.576 L 46.414 362.576 Q 45.61 363.383 45.61 364.518 L 45.61 364.518 L 45.61 364.518 Q 45.61 365.652 46.414 366.452 L 46.414 366.452 L 46.414 366.452 Q 47.217 367.252 48.352 367.252 L 48.352 367.252 L 48.352 367.252 Q 49.486 367.252 50.293 366.445 L 50.293 366.445 L 50.293 366.445 Q 50.895 365.844 51.045 365.051 Z  M 55.153 364.313 L 53.513 364.313 L 53.513 367.662 L 52.966 367.662 L 52.966 357.996 L 55.502 357.996 L 55.502 357.996 Q 56.609 358.146 57.382 358.919 L 57.382 358.919 L 57.382 358.919 Q 58.305 359.849 58.305 361.147 L 58.305 361.147 L 58.305 361.147 Q 58.305 362.46 57.382 363.386 L 57.382 363.386 L 57.382 363.386 Q 56.459 364.313 55.153 364.313 L 55.153 364.313 L 55.153 364.313 Z  M 55.153 358.55 L 53.513 358.55 L 53.513 363.759 L 55.153 363.759 L 55.153 363.759 Q 56.227 363.759 56.992 362.997 L 56.992 362.997 L 56.992 362.997 Q 57.758 362.234 57.758 361.147 L 57.758 361.147 L 57.758 361.147 Q 57.758 360.067 56.992 359.309 L 56.992 359.309 L 56.992 359.309 Q 56.227 358.55 55.153 358.55 L 55.153 358.55 L 55.153 358.55 Z " fill-rule="evenodd" fill="rgb(191,191,191)"/><path d=" M 113.178 264.938 L 113.178 264.938 L 113.178 264.938 Q 114.756 264.938 115.861 266.047 L 115.861 266.047 L 115.861 266.047 Q 116.967 267.156 116.967 268.734 L 116.967 268.734 L 116.967 268.734 Q 116.967 270.297 115.861 271.41 L 115.861 271.41 L 115.861 271.41 Q 114.756 272.523 113.178 272.523 L 113.178 272.523 L 113.178 272.523 Q 111.615 272.523 110.502 271.41 L 110.502 271.41 L 110.502 271.41 Q 109.389 270.297 109.389 268.734 L 109.389 268.734 L 109.389 268.734 Q 109.389 267.156 110.502 266.047 L 110.502 266.047 L 110.502 266.047 Q 111.615 264.938 113.178 264.938 Z  M 113.178 265.594 L 113.178 265.594 Q 111.881 265.594 110.963 266.516 L 110.963 266.516 L 110.963 266.516 Q 110.045 267.438 110.045 268.734 L 110.045 268.734 L 110.045 268.734 Q 110.045 270.031 110.963 270.945 L 110.963 270.945 L 110.963 270.945 Q 111.881 271.859 113.178 271.859 L 113.178 271.859 L 113.178 271.859 Q 114.475 271.859 115.393 270.945 L 115.393 270.945 L 115.393 270.945 Q 116.311 270.031 116.311 268.734 L 116.311 268.734 L 116.311 268.734 Q 116.311 267.438 115.393 266.516 L 115.393 266.516 L 115.393 266.516 Q 114.475 265.594 113.178 265.594 L 113.178 265.594 L 113.178 265.594 Z  M 121.006 272.422 L 121.006 272.422 L 121.006 272.422 Q 119.732 272.422 118.982 271.672 L 118.982 271.672 L 118.982 271.672 Q 118.232 270.922 118.209 269.773 L 118.209 269.773 L 118.209 265.539 L 118.834 265.539 L 118.834 269.719 L 118.834 269.719 Q 118.834 270.578 119.459 271.188 L 119.459 271.188 L 119.459 271.188 Q 120.076 271.805 120.998 271.805 L 120.998 271.805 L 120.998 271.805 Q 121.857 271.805 122.479 271.191 L 122.479 271.191 L 122.479 271.191 Q 123.1 270.578 123.1 269.719 L 123.1 269.719 L 123.1 265.539 L 123.725 265.539 L 123.725 269.773 L 123.725 269.773 Q 123.701 270.922 122.951 271.672 L 122.951 271.672 L 122.951 271.672 Q 122.201 272.422 121.006 272.422 Z  M 124.654 265.547 L 126.037 265.547 L 126.037 262.664 L 126.654 262.664 L 126.654 265.547 L 128.037 265.547 L 128.037 266.172 L 126.654 266.172 L 126.654 272.328 L 126.037 272.328 L 126.037 266.172 L 124.654 266.172 L 124.654 265.547 L 124.654 265.547 Z " fill-rule="evenodd" fill="rgb(191,191,191)"/><path d=" M 25.229 265.547 L 25.847 265.547 L 25.847 272.328 L 25.229 272.328 L 25.229 265.547 L 25.229 265.547 Z  M 25.542 263.148 L 25.542 263.148 Q 25.792 263.148 25.976 263.328 L 25.976 263.328 L 25.976 263.328 Q 26.159 263.508 26.159 263.758 L 26.159 263.758 L 26.159 263.758 Q 26.159 264.023 25.976 264.203 L 25.976 264.203 L 25.976 264.203 Q 25.792 264.383 25.542 264.383 L 25.542 264.383 L 25.542 264.383 Q 25.284 264.383 25.101 264.203 L 25.101 264.203 L 25.101 264.203 Q 24.917 264.023 24.917 263.758 L 24.917 263.758 L 24.917 263.758 Q 24.917 263.508 25.101 263.328 L 25.101 263.328 L 25.101 263.328 Q 25.284 263.148 25.542 263.148 L 25.542 263.148 L 25.542 263.148 Z  M 28.175 267.063 L 28.175 267.063 L 28.175 272.328 L 27.55 272.328 L 27.55 265.547 L 28.175 265.547 L 28.175 265.984 L 28.175 265.984 Q 29.019 265.141 30.144 265.141 L 30.144 265.141 L 30.144 265.141 Q 31.347 265.141 32.101 265.895 L 32.101 265.895 L 32.101 265.895 Q 32.854 266.648 32.87 267.789 L 32.87 267.789 L 32.87 272.328 L 32.253 272.328 L 32.253 267.852 L 32.253 267.852 Q 32.253 266.984 31.628 266.375 L 31.628 266.375 L 31.628 266.375 Q 31.003 265.766 30.144 265.766 L 30.144 265.766 L 30.144 265.766 Q 29.292 265.766 28.667 266.367 L 28.667 266.367 L 28.667 266.367 Q 28.331 266.703 28.175 267.063 Z " fill-rule="evenodd" fill="rgb(191,191,191)"/><path d=" M 64.231 267.75 L 64.231 267.75 L 70.185 267.75 L 70.185 267.75 Q 69.966 267.039 69.442 266.516 L 69.442 266.516 L 69.442 266.516 Q 68.521 265.594 67.224 265.594 L 67.224 265.594 L 67.224 265.594 Q 65.927 265.594 65.005 266.516 L 65.005 266.516 L 65.005 266.516 Q 64.458 267.07 64.231 267.75 Z  M 70.888 268.383 L 64.114 268.383 L 64.114 268.383 Q 64.091 268.547 64.091 268.734 L 64.091 268.734 L 64.091 268.734 Q 64.091 270.031 65.009 270.945 L 65.009 270.945 L 65.009 270.945 Q 65.927 271.859 67.224 271.859 L 67.224 271.859 L 67.224 271.859 Q 68.521 271.859 69.442 270.938 L 69.442 270.938 L 69.442 270.938 Q 69.599 270.781 69.739 270.609 L 69.739 270.609 L 70.403 270.844 L 70.403 270.844 Q 70.286 271.039 69.911 271.406 L 69.911 271.406 L 69.911 271.406 Q 68.802 272.523 67.224 272.523 L 67.224 272.523 L 67.224 272.523 Q 65.661 272.523 64.548 271.41 L 64.548 271.41 L 64.548 271.41 Q 63.435 270.297 63.435 268.734 L 63.435 268.734 L 63.435 268.734 Q 63.435 267.156 64.548 266.047 L 64.548 266.047 L 64.548 266.047 Q 65.661 264.938 67.224 264.938 L 67.224 264.938 L 67.224 264.938 Q 68.802 264.938 69.911 266.047 L 69.911 266.047 L 69.911 266.047 Q 70.888 267.031 70.888 268.383 L 70.888 268.383 L 70.888 268.383 Z  M 75.521 264.938 L 75.521 264.938 L 75.521 264.938 Q 77.099 264.938 78.204 266.047 L 78.204 266.047 L 78.204 266.047 Q 79.31 267.156 79.31 268.734 L 79.31 268.734 L 79.31 268.734 Q 79.31 270.297 78.204 271.41 L 78.204 271.41 L 78.204 271.41 Q 77.099 272.523 75.521 272.523 L 75.521 272.523 L 75.521 272.523 Q 73.958 272.523 72.845 271.41 L 72.845 271.41 L 72.845 271.41 Q 71.731 270.297 71.731 268.734 L 71.731 268.734 L 71.731 268.734 Q 71.731 267.156 72.845 266.047 L 72.845 266.047 L 72.845 266.047 Q 73.958 264.938 75.521 264.938 Z  M 75.521 265.594 L 75.521 265.594 Q 74.224 265.594 73.306 266.516 L 73.306 266.516 L 73.306 266.516 Q 72.388 267.438 72.388 268.734 L 72.388 268.734 L 72.388 268.734 Q 72.388 270.031 73.306 270.945 L 73.306 270.945 L 73.306 270.945 Q 74.224 271.859 75.521 271.859 L 75.521 271.859 L 75.521 271.859 Q 76.817 271.859 77.735 270.945 L 77.735 270.945 L 77.735 270.945 Q 78.653 270.031 78.653 268.734 L 78.653 268.734 L 78.653 268.734 Q 78.653 267.438 77.735 266.516 L 77.735 266.516 L 77.735 266.516 Q 76.817 265.594 75.521 265.594 L 75.521 265.594 L 75.521 265.594 Z  M 86.505 270.695 L 86.505 270.695 L 87.161 270.938 L 87.161 270.938 Q 86.981 271.18 86.755 271.406 L 86.755 271.406 L 86.755 271.406 Q 85.646 272.523 84.067 272.523 L 84.067 272.523 L 84.067 272.523 Q 82.505 272.523 81.392 271.41 L 81.392 271.41 L 81.392 271.41 Q 80.278 270.297 80.278 268.727 L 80.278 268.727 L 80.278 268.727 Q 80.278 267.156 81.392 266.047 L 81.392 266.047 L 81.392 266.047 Q 82.505 264.938 84.067 264.938 L 84.067 264.938 L 84.067 264.938 Q 85.646 264.938 86.755 266.047 L 86.755 266.047 L 86.755 266.047 Q 86.981 266.273 87.161 266.516 L 87.161 266.516 L 86.505 266.758 L 86.505 266.758 Q 86.403 266.633 86.286 266.508 L 86.286 266.508 L 86.286 266.508 Q 85.364 265.594 84.067 265.594 L 84.067 265.594 L 84.067 265.594 Q 82.778 265.594 81.86 266.512 L 81.86 266.512 L 81.86 266.512 Q 80.942 267.43 80.942 268.727 L 80.942 268.727 L 80.942 268.727 Q 80.942 270.023 81.86 270.941 L 81.86 270.941 L 81.86 270.941 Q 82.778 271.859 84.067 271.859 L 84.067 271.859 L 84.067 271.859 Q 85.364 271.859 86.286 270.938 L 86.286 270.938 L 86.286 270.938 Q 86.403 270.82 86.505 270.695 Z " fill-rule="evenodd" fill="rgb(191,191,191)"/><path d=" M 62.645 339.492 L 62.988 340.094 L 62.988 340.094 Q 62.324 340.195 61.684 340.938 L 61.684 340.938 L 61.684 340.938 Q 61.043 341.68 61.043 342.438 L 61.043 342.438 L 61.043 346.328 L 60.418 346.328 L 60.418 339.547 L 61.043 339.547 L 61.043 341.016 L 61.043 341.016 Q 61.434 339.992 62.645 339.492 L 62.645 339.492 L 62.645 339.492 Z  M 64.191 341.75 L 64.191 341.75 L 70.145 341.75 L 70.145 341.75 Q 69.926 341.039 69.402 340.516 L 69.402 340.516 L 69.402 340.516 Q 68.48 339.594 67.184 339.594 L 67.184 339.594 L 67.184 339.594 Q 65.887 339.594 64.965 340.516 L 64.965 340.516 L 64.965 340.516 Q 64.418 341.07 64.191 341.75 Z  M 70.848 342.383 L 64.074 342.383 L 64.074 342.383 Q 64.051 342.547 64.051 342.734 L 64.051 342.734 L 64.051 342.734 Q 64.051 344.031 64.969 344.945 L 64.969 344.945 L 64.969 344.945 Q 65.887 345.859 67.184 345.859 L 67.184 345.859 L 67.184 345.859 Q 68.48 345.859 69.402 344.938 L 69.402 344.938 L 69.402 344.938 Q 69.559 344.781 69.699 344.609 L 69.699 344.609 L 70.363 344.844 L 70.363 344.844 Q 70.246 345.039 69.871 345.406 L 69.871 345.406 L 69.871 345.406 Q 68.762 346.523 67.184 346.523 L 67.184 346.523 L 67.184 346.523 Q 65.621 346.523 64.508 345.41 L 64.508 345.41 L 64.508 345.41 Q 63.395 344.297 63.395 342.734 L 63.395 342.734 L 63.395 342.734 Q 63.395 341.156 64.508 340.047 L 64.508 340.047 L 64.508 340.047 Q 65.621 338.938 67.184 338.938 L 67.184 338.938 L 67.184 338.938 Q 68.762 338.938 69.871 340.047 L 69.871 340.047 L 69.871 340.047 Q 70.848 341.031 70.848 342.383 L 70.848 342.383 L 70.848 342.383 Z  M 73.66 342.688 L 73.66 342.688 L 73.66 342.688 Q 72.871 342.258 72.566 341.953 L 72.566 341.953 L 72.566 341.953 Q 72.09 341.477 72.09 340.805 L 72.09 340.805 L 72.09 340.805 Q 72.09 340.133 72.566 339.652 L 72.566 339.652 L 72.566 339.652 Q 73.043 339.172 73.715 339.172 L 73.715 339.172 L 73.715 339.172 Q 74.387 339.172 74.832 339.617 L 74.832 339.617 L 74.832 339.617 Q 75.262 340.047 75.262 340.602 L 75.262 340.602 L 75.262 340.633 L 74.723 340.852 L 74.723 340.852 Q 74.652 340.328 74.395 340.063 L 74.395 340.063 L 74.395 340.063 Q 74.137 339.797 73.715 339.797 L 73.715 339.797 L 73.715 339.797 Q 73.301 339.797 73.004 340.094 L 73.004 340.094 L 73.004 340.094 Q 72.707 340.391 72.707 340.805 L 72.707 340.805 L 72.707 340.805 Q 72.707 341.219 73.004 341.516 L 73.004 341.516 L 73.004 341.516 Q 73.176 341.695 73.73 342.047 L 73.73 342.047 L 73.73 342.047 Q 74.613 342.523 74.988 342.898 L 74.988 342.898 L 74.988 342.898 Q 75.574 343.492 75.574 344.313 L 75.574 344.313 L 75.574 344.313 Q 75.574 345.156 74.988 345.746 L 74.988 345.746 L 74.988 345.746 Q 74.402 346.336 73.566 346.336 L 73.566 346.336 L 73.566 346.336 Q 72.73 346.336 72.145 345.746 L 72.145 345.746 L 72.145 345.746 Q 71.559 345.156 71.559 344.453 L 71.559 344.453 L 72.176 344.297 L 72.176 344.297 Q 72.176 344.898 72.586 345.309 L 72.586 345.309 L 72.586 345.309 Q 72.996 345.719 73.566 345.719 L 73.566 345.719 L 73.566 345.719 Q 74.137 345.719 74.551 345.309 L 74.551 345.309 L 74.551 345.309 Q 74.965 344.898 74.965 344.313 L 74.965 344.313 L 74.965 344.313 Q 74.965 343.742 74.551 343.336 L 74.551 343.336 L 74.551 343.336 Q 74.332 343.117 73.66 342.688 Z  M 77.363 341.75 L 77.363 341.75 L 83.316 341.75 L 83.316 341.75 Q 83.098 341.039 82.574 340.516 L 82.574 340.516 L 82.574 340.516 Q 81.652 339.594 80.355 339.594 L 80.355 339.594 L 80.355 339.594 Q 79.059 339.594 78.137 340.516 L 78.137 340.516 L 78.137 340.516 Q 77.59 341.07 77.363 341.75 Z  M 84.02 342.383 L 77.246 342.383 L 77.246 342.383 Q 77.223 342.547 77.223 342.734 L 77.223 342.734 L 77.223 342.734 Q 77.223 344.031 78.141 344.945 L 78.141 344.945 L 78.141 344.945 Q 79.059 345.859 80.355 345.859 L 80.355 345.859 L 80.355 345.859 Q 81.652 345.859 82.574 344.938 L 82.574 344.938 L 82.574 344.938 Q 82.73 344.781 82.871 344.609 L 82.871 344.609 L 83.535 344.844 L 83.535 344.844 Q 83.418 345.039 83.043 345.406 L 83.043 345.406 L 83.043 345.406 Q 81.934 346.523 80.355 346.523 L 80.355 346.523 L 80.355 346.523 Q 78.793 346.523 77.68 345.41 L 77.68 345.41 L 77.68 345.41 Q 76.566 344.297 76.566 342.734 L 76.566 342.734 L 76.566 342.734 Q 76.566 341.156 77.68 340.047 L 77.68 340.047 L 77.68 340.047 Q 78.793 338.938 80.355 338.938 L 80.355 338.938 L 80.355 338.938 Q 81.934 338.938 83.043 340.047 L 83.043 340.047 L 83.043 340.047 Q 84.02 341.031 84.02 342.383 L 84.02 342.383 L 84.02 342.383 Z  M 84.551 339.547 L 85.934 339.547 L 85.934 336.664 L 86.551 336.664 L 86.551 339.547 L 87.934 339.547 L 87.934 340.172 L 86.551 340.172 L 86.551 346.328 L 85.934 346.328 L 85.934 340.172 L 84.551 340.172 L 84.551 339.547 L 84.551 339.547 Z " fill-rule="evenodd" fill="rgb(191,191,191)"/><path d=" M 23.224 219.158 L 23.224 219.158 L 23.224 219.158 Q 22.339 218.865 21.826 218.353 L 21.826 218.353 L 21.826 218.353 Q 21.313 217.84 21.313 217.107 L 21.313 217.107 L 21.313 217.107 Q 21.313 216.393 21.826 215.877 L 21.826 215.877 L 21.826 215.877 Q 22.339 215.361 23.071 215.361 L 23.071 215.361 L 23.071 215.361 Q 23.792 215.361 24.313 215.877 L 24.313 215.877 L 24.313 215.877 Q 24.595 216.152 24.706 216.492 L 24.706 216.492 L 24.284 216.656 L 24.284 216.656 Q 24.19 216.404 23.979 216.193 L 23.979 216.193 L 23.979 216.193 Q 23.604 215.818 23.071 215.818 L 23.071 215.818 L 23.071 215.818 Q 22.538 215.818 22.16 216.193 L 22.16 216.193 L 22.16 216.193 Q 21.782 216.568 21.782 217.107 L 21.782 217.107 L 21.782 217.107 Q 21.782 217.641 22.157 218.021 L 22.157 218.021 L 22.157 218.021 Q 22.509 218.367 23.13 218.654 L 23.13 218.654 L 23.13 218.654 Q 24.126 218.977 24.806 219.656 L 24.806 219.656 L 24.806 219.656 Q 25.521 220.371 25.521 221.385 L 25.521 221.385 L 25.521 221.385 Q 25.521 222.404 24.803 223.125 L 24.803 223.125 L 24.803 223.125 Q 24.085 223.846 23.071 223.846 L 23.071 223.846 L 23.071 223.846 Q 22.052 223.846 21.337 223.119 L 21.337 223.119 L 21.337 223.119 Q 20.757 222.545 20.646 221.783 L 20.646 221.783 L 21.085 221.625 L 21.085 221.625 Q 21.155 222.299 21.659 222.797 L 21.659 222.797 L 21.659 222.797 Q 22.245 223.383 23.071 223.383 L 23.071 223.383 L 23.071 223.383 Q 23.897 223.383 24.483 222.797 L 24.483 222.797 L 24.483 222.797 Q 25.069 222.211 25.069 221.385 L 25.069 221.385 L 25.069 221.385 Q 25.069 220.564 24.483 219.979 L 24.483 219.979 L 24.483 219.979 Q 23.968 219.463 23.224 219.158 Z  M 26.03 218.66 L 27.067 218.66 L 27.067 216.498 L 27.53 216.498 L 27.53 218.66 L 28.567 218.66 L 28.567 219.129 L 27.53 219.129 L 27.53 223.746 L 27.067 223.746 L 27.067 219.129 L 26.03 219.129 L 26.03 218.66 L 26.03 218.66 Z  M 34.808 218.66 L 34.808 223.746 L 34.339 223.746 L 34.339 222.709 L 34.339 222.709 Q 34.204 222.891 34.046 223.055 L 34.046 223.055 L 34.046 223.055 Q 33.214 223.893 32.03 223.893 L 32.03 223.893 L 32.03 223.893 Q 30.858 223.893 30.023 223.058 L 30.023 223.058 L 30.023 223.058 Q 29.188 222.223 29.188 221.051 L 29.188 221.051 L 29.188 221.051 Q 29.188 219.867 30.023 219.035 L 30.023 219.035 L 30.023 219.035 Q 30.858 218.203 32.03 218.203 L 32.03 218.203 L 32.03 218.203 Q 33.214 218.203 34.046 219.035 L 34.046 219.035 L 34.046 219.035 Q 34.204 219.199 34.339 219.381 L 34.339 219.381 L 34.339 218.66 L 34.808 218.66 L 34.808 218.66 Z  M 34.339 221.508 L 34.339 221.508 L 34.339 220.588 L 34.339 220.588 Q 34.21 219.902 33.694 219.387 L 33.694 219.387 L 33.694 219.387 Q 33.003 218.695 32.03 218.695 L 32.03 218.695 L 32.03 218.695 Q 31.058 218.695 30.369 219.387 L 30.369 219.387 L 30.369 219.387 Q 29.681 220.078 29.681 221.051 L 29.681 221.051 L 29.681 221.051 Q 29.681 222.023 30.369 222.709 L 30.369 222.709 L 30.369 222.709 Q 31.058 223.395 32.03 223.395 L 32.03 223.395 L 32.03 223.395 Q 33.003 223.395 33.694 222.703 L 33.694 222.703 L 33.694 222.703 Q 34.21 222.188 34.339 221.508 Z  M 37.45 218.619 L 37.708 219.07 L 37.708 219.07 Q 37.21 219.146 36.729 219.703 L 36.729 219.703 L 36.729 219.703 Q 36.249 220.26 36.249 220.828 L 36.249 220.828 L 36.249 223.746 L 35.78 223.746 L 35.78 218.66 L 36.249 218.66 L 36.249 219.762 L 36.249 219.762 Q 36.542 218.994 37.45 218.619 L 37.45 218.619 L 37.45 218.619 Z  M 37.896 218.66 L 38.933 218.66 L 38.933 216.498 L 39.396 216.498 L 39.396 218.66 L 40.433 218.66 L 40.433 219.129 L 39.396 219.129 L 39.396 223.746 L 38.933 223.746 L 38.933 219.129 L 37.896 219.129 L 37.896 218.66 L 37.896 218.66 Z " fill-rule="evenodd" fill="rgb(191,191,191)"/><path d=" M 56.662 215.461 L 58.197 215.461 L 58.197 215.461 Q 60.242 215.473 61.367 216.604 L 61.367 216.604 L 61.367 216.604 Q 62.609 217.852 62.609 219.604 L 62.609 219.604 L 62.609 219.604 Q 62.609 221.367 61.367 222.609 L 61.367 222.609 L 61.367 222.609 Q 60.242 223.734 58.197 223.746 L 58.197 223.746 L 56.662 223.746 L 56.662 215.461 L 56.662 215.461 Z  M 58.191 215.947 L 57.131 215.947 L 57.131 223.266 L 58.191 223.266 L 58.191 223.266 Q 59.979 223.266 61.01 222.27 L 61.01 222.27 L 61.01 222.27 Q 62.111 221.168 62.111 219.604 L 62.111 219.604 L 62.111 219.604 Q 62.111 218.045 61.01 216.938 L 61.01 216.938 L 61.01 216.938 Q 59.979 215.947 58.191 215.947 L 58.191 215.947 L 58.191 215.947 Z  M 65.094 218.619 L 65.352 219.07 L 65.352 219.07 Q 64.854 219.146 64.373 219.703 L 64.373 219.703 L 64.373 219.703 Q 63.893 220.26 63.893 220.828 L 63.893 220.828 L 63.893 223.746 L 63.424 223.746 L 63.424 218.66 L 63.893 218.66 L 63.893 219.762 L 63.893 219.762 Q 64.186 218.994 65.094 218.619 L 65.094 218.619 L 65.094 218.619 Z  M 69.828 218.66 L 66.553 225.68 L 66.031 225.68 L 67.373 222.803 L 65.439 218.66 L 65.961 218.66 L 67.631 222.211 L 69.307 218.66 L 69.828 218.66 L 69.828 218.66 Z  M 69.611 223.746 L 73.361 215.461 L 73.895 215.461 L 70.139 223.746 L 69.611 223.746 L 69.611 223.746 Z  M 78.148 217.658 L 78.418 217.658 L 80.48 222.99 L 82.502 215.461 L 82.977 215.461 L 80.75 223.746 L 80.281 223.746 L 78.283 218.508 L 76.285 223.746 L 75.816 223.746 L 73.59 215.461 L 74.064 215.461 L 76.092 222.99 L 78.148 217.658 L 78.148 217.658 Z  M 83.879 220.313 L 83.879 220.313 L 88.344 220.313 L 88.344 220.313 Q 88.18 219.779 87.787 219.387 L 87.787 219.387 L 87.787 219.387 Q 87.096 218.695 86.123 218.695 L 86.123 218.695 L 86.123 218.695 Q 85.15 218.695 84.459 219.387 L 84.459 219.387 L 84.459 219.387 Q 84.049 219.803 83.879 220.313 Z  M 88.871 220.787 L 83.791 220.787 L 83.791 220.787 Q 83.773 220.91 83.773 221.051 L 83.773 221.051 L 83.773 221.051 Q 83.773 222.023 84.462 222.709 L 84.462 222.709 L 84.462 222.709 Q 85.15 223.395 86.123 223.395 L 86.123 223.395 L 86.123 223.395 Q 87.096 223.395 87.787 222.703 L 87.787 222.703 L 87.787 222.703 Q 87.904 222.586 88.01 222.457 L 88.01 222.457 L 88.508 222.633 L 88.508 222.633 Q 88.42 222.779 88.139 223.055 L 88.139 223.055 L 88.139 223.055 Q 87.307 223.893 86.123 223.893 L 86.123 223.893 L 86.123 223.893 Q 84.951 223.893 84.116 223.058 L 84.116 223.058 L 84.116 223.058 Q 83.281 222.223 83.281 221.051 L 83.281 221.051 L 83.281 221.051 Q 83.281 219.867 84.116 219.035 L 84.116 219.035 L 84.116 219.035 Q 84.951 218.203 86.123 218.203 L 86.123 218.203 L 86.123 218.203 Q 87.307 218.203 88.139 219.035 L 88.139 219.035 L 88.139 219.035 Q 88.871 219.773 88.871 220.787 L 88.871 220.787 L 88.871 220.787 Z  M 89.27 218.66 L 90.307 218.66 L 90.307 216.498 L 90.77 216.498 L 90.77 218.66 L 91.807 218.66 L 91.807 219.129 L 90.77 219.129 L 90.77 223.746 L 90.307 223.746 L 90.307 219.129 L 89.27 219.129 L 89.27 218.66 L 89.27 218.66 Z " fill-rule="evenodd" fill="rgb(191,191,191)"/><path d=" M 112.205 217.658 L 112.475 217.658 L 114.537 222.99 L 116.559 215.461 L 117.033 215.461 L 114.807 223.746 L 114.338 223.746 L 112.34 218.508 L 110.342 223.746 L 109.873 223.746 L 107.646 215.461 L 108.121 215.461 L 110.148 222.99 L 112.205 217.658 L 112.205 217.658 Z  M 117.73 218.66 L 118.193 218.66 L 118.193 223.746 L 117.73 223.746 L 117.73 218.66 L 117.73 218.66 Z  M 117.965 216.861 L 117.965 216.861 Q 118.152 216.861 118.29 216.996 L 118.29 216.996 L 118.29 216.996 Q 118.428 217.131 118.428 217.318 L 118.428 217.318 L 118.428 217.318 Q 118.428 217.518 118.29 217.652 L 118.29 217.652 L 118.29 217.652 Q 118.152 217.787 117.965 217.787 L 117.965 217.787 L 117.965 217.787 Q 117.771 217.787 117.634 217.652 L 117.634 217.652 L 117.634 217.652 Q 117.496 217.518 117.496 217.318 L 117.496 217.318 L 117.496 217.318 Q 117.496 217.131 117.634 216.996 L 117.634 216.996 L 117.634 216.996 Q 117.771 216.861 117.965 216.861 L 117.965 216.861 L 117.965 216.861 Z  M 124.943 215.461 L 124.943 223.746 L 124.475 223.746 L 124.475 222.709 L 124.475 222.709 Q 124.34 222.891 124.182 223.055 L 124.182 223.055 L 124.182 223.055 Q 123.35 223.893 122.166 223.893 L 122.166 223.893 L 122.166 223.893 Q 120.994 223.893 120.159 223.058 L 120.159 223.058 L 120.159 223.058 Q 119.324 222.223 119.324 221.051 L 119.324 221.051 L 119.324 221.051 Q 119.324 219.867 120.159 219.035 L 120.159 219.035 L 120.159 219.035 Q 120.994 218.203 122.166 218.203 L 122.166 218.203 L 122.166 218.203 Q 123.35 218.203 124.182 219.035 L 124.182 219.035 L 124.182 219.035 Q 124.34 219.199 124.475 219.381 L 124.475 219.381 L 124.475 215.461 L 124.943 215.461 L 124.943 215.461 Z  M 124.475 221.508 L 124.475 221.508 L 124.475 220.588 L 124.475 220.588 Q 124.346 219.902 123.83 219.387 L 123.83 219.387 L 123.83 219.387 Q 123.139 218.695 122.166 218.695 L 122.166 218.695 L 122.166 218.695 Q 121.193 218.695 120.505 219.387 L 120.505 219.387 L 120.505 219.387 Q 119.816 220.078 119.816 221.051 L 119.816 221.051 L 119.816 221.051 Q 119.816 222.023 120.505 222.709 L 120.505 222.709 L 120.505 222.709 Q 121.193 223.395 122.166 223.395 L 122.166 223.395 L 122.166 223.395 Q 123.139 223.395 123.83 222.703 L 123.83 222.703 L 123.83 222.703 Q 124.346 222.188 124.475 221.508 Z  M 125.652 218.66 L 126.689 218.66 L 126.689 216.498 L 127.152 216.498 L 127.152 218.66 L 128.189 218.66 L 128.189 219.129 L 127.152 219.129 L 127.152 223.746 L 126.689 223.746 L 126.689 219.129 L 125.652 219.129 L 125.652 218.66 L 125.652 218.66 Z  M 128.928 223.746 L 128.928 215.461 L 129.396 215.461 L 129.396 218.924 L 129.396 218.924 Q 129.982 218.355 130.814 218.355 L 130.814 218.355 L 130.814 218.355 Q 131.711 218.355 132.276 218.921 L 132.276 218.921 L 132.276 218.921 Q 132.842 219.486 132.859 220.342 L 132.859 220.342 L 132.859 223.746 L 132.391 223.746 L 132.391 220.389 L 132.391 220.389 Q 132.391 219.738 131.922 219.281 L 131.922 219.281 L 131.922 219.281 Q 131.453 218.824 130.814 218.824 L 130.814 218.824 L 130.814 218.824 Q 130.17 218.824 129.707 219.275 L 129.707 219.275 L 129.707 219.275 Q 129.496 219.48 129.396 219.703 L 129.396 219.703 L 129.396 223.746 L 128.928 223.746 L 128.928 223.746 Z " fill-rule="evenodd" fill="rgb(191,191,191)"/><path d=" M 127.394 113.115 L 127.394 113.115 L 127.751 113.432 L 127.751 113.432 Q 126.539 114.533 124.898 114.533 L 124.898 114.533 L 124.898 114.533 Q 123.134 114.533 121.895 113.294 L 121.895 113.294 L 121.895 113.294 Q 120.656 112.055 120.656 110.291 L 120.656 110.291 L 120.656 110.291 Q 120.656 108.539 121.895 107.294 L 121.895 107.294 L 121.895 107.294 Q 123.134 106.049 124.898 106.049 L 124.898 106.049 L 124.898 106.049 Q 126.539 106.049 127.751 107.156 L 127.751 107.156 L 127.394 107.473 L 127.394 107.473 Q 126.328 106.529 124.898 106.529 L 124.898 106.529 L 124.898 106.529 Q 123.339 106.529 122.235 107.631 L 122.235 107.631 L 122.235 107.631 Q 121.13 108.732 121.13 110.291 L 121.13 110.291 L 121.13 110.291 Q 121.13 111.855 122.235 112.957 L 122.235 112.957 L 122.235 112.957 Q 123.339 114.059 124.898 114.059 L 124.898 114.059 L 124.898 114.059 Q 126.328 114.059 127.394 113.115 Z  M 128.759 106.148 L 129.228 106.148 L 129.228 114.434 L 128.759 114.434 L 128.759 106.148 L 128.759 106.148 Z  M 130.775 111 L 130.775 111 L 135.24 111 L 135.24 111 Q 135.076 110.467 134.683 110.074 L 134.683 110.074 L 134.683 110.074 Q 133.992 109.383 133.019 109.383 L 133.019 109.383 L 133.019 109.383 Q 132.046 109.383 131.355 110.074 L 131.355 110.074 L 131.355 110.074 Q 130.945 110.49 130.775 111 Z  M 135.767 111.475 L 130.687 111.475 L 130.687 111.475 Q 130.669 111.598 130.669 111.738 L 130.669 111.738 L 130.669 111.738 Q 130.669 112.711 131.358 113.396 L 131.358 113.396 L 131.358 113.396 Q 132.046 114.082 133.019 114.082 L 133.019 114.082 L 133.019 114.082 Q 133.992 114.082 134.683 113.391 L 134.683 113.391 L 134.683 113.391 Q 134.8 113.273 134.906 113.145 L 134.906 113.145 L 135.404 113.32 L 135.404 113.32 Q 135.316 113.467 135.035 113.742 L 135.035 113.742 L 135.035 113.742 Q 134.203 114.58 133.019 114.58 L 133.019 114.58 L 133.019 114.58 Q 131.847 114.58 131.012 113.745 L 131.012 113.745 L 131.012 113.745 Q 130.177 112.91 130.177 111.738 L 130.177 111.738 L 130.177 111.738 Q 130.177 110.555 131.012 109.723 L 131.012 109.723 L 131.012 109.723 Q 131.847 108.891 133.019 108.891 L 133.019 108.891 L 133.019 108.891 Q 134.203 108.891 135.035 109.723 L 135.035 109.723 L 135.035 109.723 Q 135.767 110.461 135.767 111.475 L 135.767 111.475 L 135.767 111.475 Z  M 142.031 109.348 L 142.031 114.434 L 141.562 114.434 L 141.562 113.396 L 141.562 113.396 Q 141.427 113.578 141.269 113.742 L 141.269 113.742 L 141.269 113.742 Q 140.437 114.58 139.253 114.58 L 139.253 114.58 L 139.253 114.58 Q 138.082 114.58 137.247 113.745 L 137.247 113.745 L 137.247 113.745 Q 136.412 112.91 136.412 111.738 L 136.412 111.738 L 136.412 111.738 Q 136.412 110.555 137.247 109.723 L 137.247 109.723 L 137.247 109.723 Q 138.082 108.891 139.253 108.891 L 139.253 108.891 L 139.253 108.891 Q 140.437 108.891 141.269 109.723 L 141.269 109.723 L 141.269 109.723 Q 141.427 109.887 141.562 110.068 L 141.562 110.068 L 141.562 109.348 L 142.031 109.348 L 142.031 109.348 Z  M 141.562 112.195 L 141.562 112.195 L 141.562 111.275 L 141.562 111.275 Q 141.433 110.59 140.917 110.074 L 140.917 110.074 L 140.917 110.074 Q 140.226 109.383 139.253 109.383 L 139.253 109.383 L 139.253 109.383 Q 138.281 109.383 137.592 110.074 L 137.592 110.074 L 137.592 110.074 Q 136.904 110.766 136.904 111.738 L 136.904 111.738 L 136.904 111.738 Q 136.904 112.711 137.592 113.396 L 137.592 113.396 L 137.592 113.396 Q 138.281 114.082 139.253 114.082 L 139.253 114.082 L 139.253 114.082 Q 140.226 114.082 140.917 113.391 L 140.917 113.391 L 140.917 113.391 Q 141.433 112.875 141.562 112.195 Z  M 144.673 109.307 L 144.931 109.758 L 144.931 109.758 Q 144.433 109.834 143.953 110.391 L 143.953 110.391 L 143.953 110.391 Q 143.472 110.947 143.472 111.516 L 143.472 111.516 L 143.472 114.434 L 143.003 114.434 L 143.003 109.348 L 143.472 109.348 L 143.472 110.449 L 143.472 110.449 Q 143.765 109.682 144.673 109.307 L 144.673 109.307 L 144.673 109.307 Z " fill-rule="evenodd" fill="rgb(191,191,191)"/><g opacity="0.3"><path d=" M 37.773 144.61 L 41.289 144.61 L 43.149 155.772 L 39.633 155.772 L 39.633 155.772 Q 37.333 155.772 35.422 154.139 L 35.422 154.139 L 35.422 154.139 Q 33.51 152.505 33.129 150.176 L 33.129 150.176 L 33.129 150.176 Q 32.734 147.862 34.104 146.236 L 34.104 146.236 L 34.104 146.236 Q 35.473 144.61 37.773 144.61 L 37.773 144.61 L 37.773 144.61 Z  M 36.074 164.136 L 39.487 156.958 L 43.354 156.958 L 44.555 164.136 L 45.727 164.136 L 42.255 143.423 L 36.821 143.423 L 36.821 143.423 Q 34.506 143.745 33.129 145.401 L 33.129 145.401 L 33.129 145.401 Q 31.489 147.393 31.958 150.176 L 31.958 150.176 L 31.958 150.176 Q 32.426 152.989 34.726 154.966 L 34.726 154.966 L 34.726 154.966 Q 36.337 156.343 38.183 156.768 L 38.183 156.768 L 34.638 164.136 L 36.074 164.136 L 36.074 164.136 Z  M 29.614 155.552 L 29.614 155.552 L 18.452 155.552 L 18.452 155.552 Q 18.642 154.219 19.462 153.238 L 19.462 153.238 L 19.462 153.238 Q 20.898 151.509 23.33 151.509 L 23.33 151.509 L 23.33 151.509 Q 25.761 151.509 27.783 153.238 L 27.783 153.238 L 27.783 153.238 Q 28.984 154.278 29.614 155.552 Z  M 17.338 156.739 L 30.039 156.739 L 30.039 156.739 Q 30.141 157.046 30.2 157.398 L 30.2 157.398 L 30.2 157.398 Q 30.595 159.829 29.16 161.543 L 29.16 161.543 L 29.16 161.543 Q 27.724 163.257 25.292 163.257 L 25.292 163.257 L 25.292 163.257 Q 22.861 163.257 20.854 161.529 L 20.854 161.529 L 20.854 161.529 Q 20.502 161.236 20.195 160.913 L 20.195 160.913 L 19.023 161.353 L 19.023 161.353 Q 19.301 161.719 20.122 162.408 L 20.122 162.408 L 20.122 162.408 Q 22.553 164.502 25.512 164.502 L 25.512 164.502 L 25.512 164.502 Q 28.442 164.502 30.178 162.415 L 30.178 162.415 L 30.178 162.415 Q 31.914 160.327 31.43 157.398 L 31.43 157.398 L 31.43 157.398 Q 30.932 154.439 28.493 152.359 L 28.493 152.359 L 28.493 152.359 Q 26.054 150.279 23.125 150.279 L 23.125 150.279 L 23.125 150.279 Q 20.166 150.279 18.437 152.359 L 18.437 152.359 L 18.437 152.359 Q 16.914 154.204 17.338 156.739 L 17.338 156.739 L 17.338 156.739 Z  M 5.371 151.421 L 4.008 151.421 L 11.816 164.136 L 12.431 164.136 L 15.932 151.421 L 14.57 151.421 L 11.772 162.012 L 5.371 151.421 L 5.371 151.421 Z " fill-rule="evenodd" fill="rgb(191,191,191)"/></g><g opacity="0.07"><path d=" M 36.648 146.172 L 40.164 146.172 L 42.024 157.334 L 38.508 157.334 L 38.508 157.334 Q 36.208 157.334 34.297 155.701 L 34.297 155.701 L 34.297 155.701 Q 32.385 154.068 32.004 151.739 L 32.004 151.739 L 32.004 151.739 Q 31.609 149.424 32.979 147.798 L 32.979 147.798 L 32.979 147.798 Q 34.348 146.172 36.648 146.172 L 36.648 146.172 L 36.648 146.172 Z  M 34.949 165.699 L 38.362 158.521 L 42.229 158.521 L 43.43 165.699 L 44.602 165.699 L 41.13 144.986 L 35.696 144.986 L 35.696 144.986 Q 33.381 145.308 32.004 146.963 L 32.004 146.963 L 32.004 146.963 Q 30.364 148.955 30.833 151.739 L 30.833 151.739 L 30.833 151.739 Q 31.301 154.551 33.601 156.529 L 33.601 156.529 L 33.601 156.529 Q 35.212 157.906 37.058 158.33 L 37.058 158.33 L 33.513 165.699 L 34.949 165.699 L 34.949 165.699 Z  M 28.489 157.115 L 28.489 157.115 L 17.327 157.115 L 17.327 157.115 Q 17.517 155.782 18.337 154.8 L 18.337 154.8 L 18.337 154.8 Q 19.773 153.072 22.205 153.072 L 22.205 153.072 L 22.205 153.072 Q 24.636 153.072 26.658 154.8 L 26.658 154.8 L 26.658 154.8 Q 27.859 155.84 28.489 157.115 Z  M 16.213 158.301 L 28.914 158.301 L 28.914 158.301 Q 29.016 158.609 29.075 158.96 L 29.075 158.96 L 29.075 158.96 Q 29.47 161.392 28.035 163.106 L 28.035 163.106 L 28.035 163.106 Q 26.599 164.82 24.167 164.82 L 24.167 164.82 L 24.167 164.82 Q 21.736 164.82 19.729 163.091 L 19.729 163.091 L 19.729 163.091 Q 19.377 162.798 19.07 162.476 L 19.07 162.476 L 17.898 162.915 L 17.898 162.915 Q 18.176 163.282 18.997 163.97 L 18.997 163.97 L 18.997 163.97 Q 21.428 166.065 24.387 166.065 L 24.387 166.065 L 24.387 166.065 Q 27.317 166.065 29.053 163.977 L 29.053 163.977 L 29.053 163.977 Q 30.789 161.89 30.305 158.96 L 30.305 158.96 L 30.305 158.96 Q 29.807 156.001 27.368 153.921 L 27.368 153.921 L 27.368 153.921 Q 24.929 151.841 22 151.841 L 22 151.841 L 22 151.841 Q 19.041 151.841 17.312 153.921 L 17.312 153.921 L 17.312 153.921 Q 15.789 155.767 16.213 158.301 L 16.213 158.301 L 16.213 158.301 Z  M 4.246 152.984 L 2.883 152.984 L 10.691 165.699 L 11.306 165.699 L 14.807 152.984 L 13.445 152.984 L 10.647 163.575 L 4.246 152.984 L 4.246 152.984 Z " fill-rule="evenodd" fill="rgb(191,191,191)"/></g><g opacity="0.3"><path d=" M 110.786 145.142 L 119.854 145.142 L 119.649 146.314 L 111.753 146.314 L 110.318 154.912 L 118.213 154.912 L 118.023 156.084 L 110.127 156.084 L 108.486 165.855 L 107.315 165.855 L 110.786 145.142 L 110.786 145.142 Z  M 127.632 151.997 L 127.632 151.997 L 127.632 151.997 Q 130.591 151.997 132.312 154.077 L 132.312 154.077 L 132.312 154.077 Q 134.033 156.158 133.535 159.117 L 133.535 159.117 L 133.535 159.117 Q 133.052 162.046 130.628 164.134 L 130.628 164.134 L 130.628 164.134 Q 128.203 166.221 125.244 166.221 L 125.244 166.221 L 125.244 166.221 Q 122.315 166.221 120.579 164.134 L 120.579 164.134 L 120.579 164.134 Q 118.843 162.046 119.326 159.117 L 119.326 159.117 L 119.326 159.117 Q 119.824 156.158 122.263 154.077 L 122.263 154.077 L 122.263 154.077 Q 124.702 151.997 127.632 151.997 Z  M 127.427 153.228 L 127.427 153.228 Q 124.995 153.228 122.981 154.956 L 122.981 154.956 L 122.981 154.956 Q 120.967 156.685 120.557 159.117 L 120.557 159.117 L 120.557 159.117 Q 120.161 161.548 121.597 163.262 L 121.597 163.262 L 121.597 163.262 Q 123.032 164.976 125.464 164.976 L 125.464 164.976 L 125.464 164.976 Q 127.896 164.976 129.903 163.262 L 129.903 163.262 L 129.903 163.262 Q 131.909 161.548 132.305 159.117 L 132.305 159.117 L 132.305 159.117 Q 132.715 156.685 131.287 154.956 L 131.287 154.956 L 131.287 154.956 Q 129.859 153.228 127.427 153.228 L 127.427 153.228 L 127.427 153.228 Z  M 150.278 153.14 L 151.611 153.14 L 145.166 165.855 L 144.434 165.855 L 142.852 157.564 L 138.516 165.855 L 137.769 165.855 L 135.586 153.14 L 136.919 153.14 L 138.545 163.584 L 142.91 155.308 L 143.569 155.308 L 145.181 163.584 L 150.278 153.14 L 150.278 153.14 Z " fill-rule="evenodd" fill="rgb(191,191,191)"/></g><g opacity="0.07"><path d=" M 119.583 145.702 L 128.651 145.702 L 128.445 146.874 L 120.55 146.874 L 119.114 155.472 L 127.01 155.472 L 126.819 156.644 L 118.924 156.644 L 117.283 166.415 L 116.111 166.415 L 119.583 145.702 L 119.583 145.702 Z  M 136.429 152.557 L 136.429 152.557 L 136.429 152.557 Q 139.388 152.557 141.109 154.637 L 141.109 154.637 L 141.109 154.637 Q 142.83 156.717 142.332 159.676 L 142.332 159.676 L 142.332 159.676 Q 141.849 162.606 139.424 164.694 L 139.424 164.694 L 139.424 164.694 Q 137 166.781 134.041 166.781 L 134.041 166.781 L 134.041 166.781 Q 131.111 166.781 129.376 164.694 L 129.376 164.694 L 129.376 164.694 Q 127.64 162.606 128.123 159.676 L 128.123 159.676 L 128.123 159.676 Q 128.621 156.717 131.06 154.637 L 131.06 154.637 L 131.06 154.637 Q 133.499 152.557 136.429 152.557 Z  M 136.224 153.788 L 136.224 153.788 Q 133.792 153.788 131.778 155.516 L 131.778 155.516 L 131.778 155.516 Q 129.764 157.245 129.354 159.676 L 129.354 159.676 L 129.354 159.676 Q 128.958 162.108 130.394 163.822 L 130.394 163.822 L 130.394 163.822 Q 131.829 165.536 134.261 165.536 L 134.261 165.536 L 134.261 165.536 Q 136.693 165.536 138.699 163.822 L 138.699 163.822 L 138.699 163.822 Q 140.706 162.108 141.102 159.676 L 141.102 159.676 L 141.102 159.676 Q 141.512 157.245 140.084 155.516 L 140.084 155.516 L 140.084 155.516 Q 138.655 153.788 136.224 153.788 L 136.224 153.788 L 136.224 153.788 Z  M 159.075 153.7 L 160.408 153.7 L 153.963 166.415 L 153.231 166.415 L 151.649 158.124 L 147.313 166.415 L 146.566 166.415 L 144.383 153.7 L 145.716 153.7 L 147.342 164.144 L 151.707 155.868 L 152.366 155.868 L 153.978 164.144 L 159.075 153.7 L 159.075 153.7 Z " fill-rule="evenodd" fill="rgb(191,191,191)"/></g><g><path d=" M 109.823 83.017 L 108.563 83.813 L 108.031 83.44 L 110.5 81.707 L 110.465 96.214 L 109.779 96.23" fill="rgb(191,191,191)"/><line x1="109.823" y1="93.432" x2="109.813" y2="93.432"/></g><g><g><g><path d=" M 141.36 95.679 C 141.36 99.92 137.921 103.358 133.679 103.358 C 129.439 103.358 126 99.92 126 95.679 C 126 91.437 129.439 88 133.679 88 C 137.921 88 141.36 91.437 141.36 95.679 Z " fill="rgb(33,34,33)"/></g><circle vector-effect="non-scaling-stroke" cx="133.68000417292916" cy="95.27936073430352" r="6.376235974700137" fill="rgb(103,105,103)"/><circle vector-effect="non-scaling-stroke" cx="133.68000417292916" cy="95.67886009581026" r="6.376235974700137" fill="rgb(43,45,43)"/></g></g></g><rect x="234.281" y="161.297" width="4.57" height="40.359" transform="matrix(1,0,0,1,0,0)" fill="rgb(0,0,0)"/></g></svg>