<?xml version="1.0" standalone="no"?><!-- Generator: Gravit.io --><svg xmlns="http://www.w3.org/2000/svg" xmlns:xlink="http://www.w3.org/1999/xlink" style="isolation:isolate" viewBox="0 0 150 380" width="150" height="380"><defs><clipPath id="_clipPath_xIFFAjrYlT3gPIidx42OwAiDdd8JbM3b"><rect width="150" height="380"/></clipPath></defs><g clip-path="url(#_clipPath_xIFFAjrYlT3gPIidx42OwAiDdd8JbM3b)"><rect width="150" height="380" style="fill:rgb(30,30,30)"/><g><path d=" M -22.445 48.456 C -11.834 74.143 12.394 87.15 4.745 114.275 C -2.904 141.401 -22.856 125.831 -26.447 144.669 C -30.039 163.508 8.306 171.78 8.356 198.192 C 8.406 224.603 -24.431 222.511 -22.54 247.752 C -20.649 272.993 16.869 265.013 17.527 291.793 C 18.185 318.573 -13.197 312.435 -13.709 335.73 C -14.222 359.025 29.635 356.12 29.368 385.686 C 29.102 415.252 11.412 413.106 -0.081 430.656" fill="rgb(0,0,0)" fill-opacity="0.07" vector-effect="non-scaling-stroke" stroke-width="0.5" stroke="rgb(191,191,191)" stroke-opacity="0.08" stroke-linejoin="miter" stroke-linecap="square" stroke-miterlimit="3"/><path d=" M -14.189 57.919 C -3.578 83.606 20.649 96.613 13.001 123.738 C 5.352 150.863 -14.6 135.293 -18.191 154.132 C -21.783 172.971 16.562 181.243 16.612 207.654 C 16.662 234.066 -16.175 231.974 -14.284 257.215 C -12.393 282.456 25.125 274.476 25.783 301.256 C 26.441 328.036 -4.941 321.898 -5.453 345.193 C -5.966 368.488 37.891 365.583 37.624 395.149 C 37.357 424.715 19.668 422.569 8.175 440.119" fill="rgb(0,0,0)" fill-opacity="0.07" vector-effect="non-scaling-stroke" stroke-width="0.5" stroke="rgb(191,191,191)" stroke-opacity="0.08" stroke-linejoin="miter" stroke-linecap="square" stroke-miterlimit="3"/><path d=" M -5.933 67.381 C 4.678 93.068 28.905 106.076 21.257 133.201 C 13.608 160.326 -6.344 144.756 -9.936 163.595 C -13.527 182.434 24.818 190.706 24.868 217.117 C 24.918 243.528 -7.919 241.437 -6.028 266.678 C -4.137 291.919 33.381 283.939 34.039 310.719 C 34.697 337.499 3.315 331.361 2.803 354.656 C 2.29 377.951 46.147 375.046 45.88 404.612 C 45.613 434.178 27.924 432.032 16.431 449.582" fill="rgb(0,0,0)" fill-opacity="0.07" vector-effect="non-scaling-stroke" stroke-width="0.5" stroke="rgb(191,191,191)" stroke-opacity="0.08" stroke-linejoin="miter" stroke-linecap="square" stroke-miterlimit="3"/><path d=" M 2.323 76.844 C 12.934 102.531 37.161 115.539 29.513 142.664 C 21.864 169.789 1.912 154.219 -1.68 173.058 C -5.271 191.897 33.074 200.169 33.124 226.58 C 33.174 252.991 0.337 250.9 2.228 276.141 C 4.119 301.382 41.637 293.402 42.295 320.182 C 42.953 346.962 11.571 340.824 11.059 364.119 C 10.546 387.414 54.403 384.509 54.136 414.075 C 53.869 443.641 36.18 441.495 24.687 459.045" fill="rgb(0,0,0)" fill-opacity="0.07" vector-effect="non-scaling-stroke" stroke-width="0.5" stroke="rgb(191,191,191)" stroke-opacity="0.08" stroke-linejoin="miter" stroke-linecap="square" stroke-miterlimit="3"/><path d=" M 10.579 86.307 C 21.19 111.994 45.417 125.002 37.769 152.127 C 30.12 179.252 10.168 163.682 6.576 182.521 C 2.985 201.359 41.33 209.632 41.38 236.043 C 41.43 262.454 8.593 260.363 10.484 285.604 C 12.375 310.845 49.893 302.865 50.551 329.644 C 51.209 356.424 19.827 350.286 19.315 373.581 C 18.802 396.876 62.659 393.971 62.392 423.538 C 62.125 453.104 44.436 450.958 32.943 468.508" fill="rgb(0,0,0)" fill-opacity="0.07" vector-effect="non-scaling-stroke" stroke-width="0.5" stroke="rgb(191,191,191)" stroke-opacity="0.08" stroke-linejoin="miter" stroke-linecap="square" stroke-miterlimit="3"/><path d=" M 18.835 95.77 C 29.446 121.457 53.673 134.464 46.025 161.59 C 38.376 188.715 18.424 173.145 14.832 191.984 C 11.241 210.822 49.586 219.095 49.636 245.506 C 49.686 271.917 16.849 269.826 18.74 295.067 C 20.631 320.307 58.149 312.327 58.807 339.107 C 59.465 365.887 28.083 359.749 27.571 383.044 C 27.058 406.339 70.915 403.434 70.648 433 C 70.381 462.567 52.692 460.42 41.199 477.971" fill="rgb(0,0,0)" fill-opacity="0.07" vector-effect="non-scaling-stroke" stroke-width="0.5" stroke="rgb(191,191,191)" stroke-opacity="0.08" stroke-linejoin="miter" stroke-linecap="square" stroke-miterlimit="3"/><path d=" M 27.091 105.233 C 37.702 130.92 61.929 143.927 54.281 171.052 C 46.632 198.178 26.68 182.608 23.088 201.446 C 19.497 220.285 57.842 228.557 57.892 254.969 C 57.942 281.38 25.105 279.288 26.996 304.529 C 28.886 329.77 66.405 321.79 67.063 348.57 C 67.721 375.35 36.339 369.212 35.827 392.507 C 35.314 415.802 79.171 412.897 78.904 442.463 C 78.637 472.029 60.948 469.883 49.455 487.433" fill="rgb(0,0,0)" fill-opacity="0.07" vector-effect="non-scaling-stroke" stroke-width="0.5" stroke="rgb(191,191,191)" stroke-opacity="0.08" stroke-linejoin="miter" stroke-linecap="square" stroke-miterlimit="3"/></g><g style="opacity:0.15;"><path d=" M 212.708 -4 C 200.678 19.16 200.197 19.74 181.883 55.343 C 163.569 90.947 166.838 84.903 154.63 108.613 C 142.423 132.323 148.943 119.13 133.342 149.364 C 117.741 179.597 109.206 196.616 94.844 224.421 C 80.483 252.225 96.366 220.898 80.728 251.195 C 65.09 281.492 59.381 293.013 45.455 320.009 C 31.529 347.004 46.298 317.745 28.737 351.781 C 11.176 385.818 7.181 393.817 -6.615 420.723" fill="none" vector-effect="non-scaling-stroke" stroke-width="0.5" stroke="rgb(191,191,191)" stroke-opacity="0.17" stroke-linejoin="miter" stroke-linecap="square" stroke-miterlimit="3"/><path d=" M 209.57 1.962 C 197.54 25.121 197.059 25.701 178.745 61.305 C 160.431 96.909 163.699 90.865 151.492 114.575 C 139.285 138.284 145.805 125.091 130.204 155.325 C 114.603 185.559 106.067 202.578 91.706 230.382 C 77.345 258.187 93.228 226.86 77.59 257.157 C 61.952 287.453 56.243 298.975 42.317 325.97 C 28.391 352.966 43.16 323.707 25.599 357.743 C 8.038 391.779 4.043 399.779 -9.754 426.684" fill="none" vector-effect="non-scaling-stroke" stroke-width="0.5" stroke="rgb(191,191,191)" stroke-opacity="0.17" stroke-linejoin="miter" stroke-linecap="square" stroke-miterlimit="3"/><path d=" M 206.432 7.923 C 194.402 31.083 193.921 31.663 175.607 67.267 C 157.293 102.87 160.561 96.826 148.354 120.536 C 136.147 144.246 142.667 131.053 127.066 161.287 C 111.465 191.521 102.929 208.54 88.568 236.344 C 74.207 264.148 90.09 232.821 74.452 263.118 C 58.814 293.415 53.105 304.936 39.179 331.932 C 25.253 358.928 40.021 329.668 22.461 363.705 C 4.9 397.741 0.905 405.741 -12.892 432.646" fill="none" vector-effect="non-scaling-stroke" stroke-width="0.5" stroke="rgb(191,191,191)" stroke-opacity="0.17" stroke-linejoin="miter" stroke-linecap="square" stroke-miterlimit="3"/><path d=" M 203.294 13.885 C 191.264 37.044 190.783 37.624 172.469 73.228 C 154.155 108.832 157.423 102.788 145.216 126.498 C 133.009 150.208 139.528 137.015 123.927 167.248 C 108.327 197.482 99.791 214.501 85.43 242.306 C 71.069 270.11 86.952 238.783 71.314 269.08 C 55.676 299.376 49.966 310.898 36.041 337.894 C 22.115 364.889 36.883 335.63 19.323 369.666 C 1.762 403.702 -2.233 411.702 -16.03 438.607" fill="none" vector-effect="non-scaling-stroke" stroke-width="0.5" stroke="rgb(191,191,191)" stroke-opacity="0.17" stroke-linejoin="miter" stroke-linecap="square" stroke-miterlimit="3"/><path d=" M 200.156 19.846 C 188.126 43.006 187.645 43.586 169.331 79.19 C 151.017 114.794 154.285 108.75 142.078 132.459 C 129.871 156.169 136.39 142.976 120.789 173.21 C 105.188 203.444 96.653 220.463 82.292 248.267 C 67.931 276.072 83.814 244.745 68.176 275.041 C 52.538 305.338 46.828 316.86 32.902 343.855 C 18.977 370.851 33.745 341.592 16.185 375.628 C -1.376 409.664 -5.371 417.664 -19.168 444.569" fill="none" vector-effect="non-scaling-stroke" stroke-width="0.5" stroke="rgb(191,191,191)" stroke-opacity="0.17" stroke-linejoin="miter" stroke-linecap="square" stroke-miterlimit="3"/><path d=" M 197.018 25.808 C 184.988 48.968 184.507 49.548 166.193 85.151 C 147.878 120.755 151.147 114.711 138.94 138.421 C 126.732 162.131 133.252 148.938 117.651 179.172 C 102.05 209.406 93.515 226.424 79.154 254.229 C 64.793 282.033 80.676 250.706 65.038 281.003 C 49.4 311.3 43.69 322.821 29.764 349.817 C 15.838 376.813 30.607 347.553 13.046 381.589 C -4.514 415.626 -8.509 423.625 -22.306 450.531" fill="none" vector-effect="non-scaling-stroke" stroke-width="0.5" stroke="rgb(191,191,191)" stroke-opacity="0.17" stroke-linejoin="miter" stroke-linecap="square" stroke-miterlimit="3"/><path d=" M 193.88 31.77 C 181.85 54.929 181.368 55.509 163.054 91.113 C 144.74 126.717 148.009 120.673 135.801 144.383 C 123.594 168.092 130.114 154.899 114.513 185.133 C 98.912 215.367 90.377 232.386 76.016 260.19 C 61.654 287.995 77.537 256.668 61.9 286.965 C 46.262 317.261 40.552 328.783 26.626 355.779 C 12.7 382.774 27.469 353.515 9.908 387.551 C -7.652 421.587 -11.647 429.587 -25.444 456.492" fill="none" vector-effect="non-scaling-stroke" stroke-width="0.5" stroke="rgb(191,191,191)" stroke-opacity="0.17" stroke-linejoin="miter" stroke-linecap="square" stroke-miterlimit="3"/></g><g style="opacity:0.36;"><line x1="105.384" y1="-118.51" x2="-395.463" y2="460.171" vector-effect="non-scaling-stroke" stroke-width="0.2" stroke="rgb(191,191,191)" stroke-linejoin="miter" stroke-linecap="square" stroke-miterlimit="3"/><line x1="109.631" y1="-113.149" x2="-391.216" y2="465.531" vector-effect="non-scaling-stroke" stroke-width="0.2" stroke="rgb(191,191,191)" stroke-linejoin="miter" stroke-linecap="square" stroke-miterlimit="3"/><line x1="118.124" y1="-102.429" x2="-382.723" y2="476.252" vector-effect="non-scaling-stroke" stroke-width="0.2" stroke="rgb(191,191,191)" stroke-linejoin="miter" stroke-linecap="square" stroke-miterlimit="3"/><line x1="122.37" y1="-97.068" x2="-378.477" y2="481.612" vector-effect="non-scaling-stroke" stroke-width="0.2" stroke="rgb(191,191,191)" stroke-linejoin="miter" stroke-linecap="square" stroke-miterlimit="3"/><line x1="126.617" y1="-91.708" x2="-374.23" y2="486.973" vector-effect="non-scaling-stroke" stroke-width="0.2" stroke="rgb(191,191,191)" stroke-linejoin="miter" stroke-linecap="square" stroke-miterlimit="3"/><line x1="130.864" y1="-86.348" x2="-369.984" y2="492.333" vector-effect="non-scaling-stroke" stroke-width="0.2" stroke="rgb(191,191,191)" stroke-linejoin="miter" stroke-linecap="square" stroke-miterlimit="3"/><line x1="113.877" y1="-107.789" x2="-386.97" y2="470.891" vector-effect="non-scaling-stroke" stroke-width="0.2" stroke="rgb(191,191,191)" stroke-linejoin="miter" stroke-linecap="square" stroke-miterlimit="3"/><line x1="134.685" y1="-81.523" x2="-366.162" y2="497.157" vector-effect="non-scaling-stroke" stroke-width="0.2" stroke="rgb(191,191,191)" stroke-linejoin="miter" stroke-linecap="square" stroke-miterlimit="3"/><line x1="138.932" y1="-76.163" x2="-361.915" y2="502.518" vector-effect="non-scaling-stroke" stroke-width="0.2" stroke="rgb(191,191,191)" stroke-linejoin="miter" stroke-linecap="square" stroke-miterlimit="3"/><line x1="147.425" y1="-65.442" x2="-353.422" y2="513.238" vector-effect="non-scaling-stroke" stroke-width="0.2" stroke="rgb(191,191,191)" stroke-linejoin="miter" stroke-linecap="square" stroke-miterlimit="3"/><line x1="151.672" y1="-60.082" x2="-349.176" y2="518.599" vector-effect="non-scaling-stroke" stroke-width="0.2" stroke="rgb(191,191,191)" stroke-linejoin="miter" stroke-linecap="square" stroke-miterlimit="3"/><line x1="155.918" y1="-54.721" x2="-344.929" y2="523.959" vector-effect="non-scaling-stroke" stroke-width="0.2" stroke="rgb(191,191,191)" stroke-linejoin="miter" stroke-linecap="square" stroke-miterlimit="3"/><line x1="160.165" y1="-49.361" x2="-340.682" y2="529.32" vector-effect="non-scaling-stroke" stroke-width="0.2" stroke="rgb(191,191,191)" stroke-linejoin="miter" stroke-linecap="square" stroke-miterlimit="3"/><line x1="143.178" y1="-70.802" x2="-357.669" y2="507.878" vector-effect="non-scaling-stroke" stroke-width="0.2" stroke="rgb(191,191,191)" stroke-linejoin="miter" stroke-linecap="square" stroke-miterlimit="3"/></g><g style="opacity:0.36;"><line x1="9.951" y1="-104.266" x2="146.305" y2="181.093" vector-effect="non-scaling-stroke" stroke-width="0.2" stroke="rgb(191,191,191)" stroke-linejoin="miter" stroke-linecap="square" stroke-miterlimit="3"/><line x1="19.139" y1="-102.166" x2="155.493" y2="183.193" vector-effect="non-scaling-stroke" stroke-width="0.2" stroke="rgb(191,191,191)" stroke-linejoin="miter" stroke-linecap="square" stroke-miterlimit="3"/><line x1="37.515" y1="-97.966" x2="173.869" y2="187.393" vector-effect="non-scaling-stroke" stroke-width="0.2" stroke="rgb(191,191,191)" stroke-linejoin="miter" stroke-linecap="square" stroke-miterlimit="3"/><line x1="46.703" y1="-95.866" x2="183.057" y2="189.493" vector-effect="non-scaling-stroke" stroke-width="0.2" stroke="rgb(191,191,191)" stroke-linejoin="miter" stroke-linecap="square" stroke-miterlimit="3"/><line x1="55.891" y1="-93.766" x2="192.245" y2="191.593" vector-effect="non-scaling-stroke" stroke-width="0.2" stroke="rgb(191,191,191)" stroke-linejoin="miter" stroke-linecap="square" stroke-miterlimit="3"/><line x1="65.079" y1="-91.666" x2="201.433" y2="193.693" vector-effect="non-scaling-stroke" stroke-width="0.2" stroke="rgb(191,191,191)" stroke-linejoin="miter" stroke-linecap="square" stroke-miterlimit="3"/><line x1="28.327" y1="-100.066" x2="164.681" y2="185.293" vector-effect="non-scaling-stroke" stroke-width="0.2" stroke="rgb(191,191,191)" stroke-linejoin="miter" stroke-linecap="square" stroke-miterlimit="3"/><line x1="73.348" y1="-89.776" x2="209.703" y2="195.583" vector-effect="non-scaling-stroke" stroke-width="0.2" stroke="rgb(191,191,191)" stroke-linejoin="miter" stroke-linecap="square" stroke-miterlimit="3"/><line x1="82.536" y1="-87.676" x2="218.89" y2="197.683" vector-effect="non-scaling-stroke" stroke-width="0.2" stroke="rgb(191,191,191)" stroke-linejoin="miter" stroke-linecap="square" stroke-miterlimit="3"/><line x1="100.912" y1="-83.476" x2="237.266" y2="201.883" vector-effect="non-scaling-stroke" stroke-width="0.2" stroke="rgb(191,191,191)" stroke-linejoin="miter" stroke-linecap="square" stroke-miterlimit="3"/><line x1="110.1" y1="-81.375" x2="246.454" y2="203.983" vector-effect="non-scaling-stroke" stroke-width="0.2" stroke="rgb(191,191,191)" stroke-linejoin="miter" stroke-linecap="square" stroke-miterlimit="3"/><line x1="119.288" y1="-79.275" x2="255.642" y2="206.083" vector-effect="non-scaling-stroke" stroke-width="0.2" stroke="rgb(191,191,191)" stroke-linejoin="miter" stroke-linecap="square" stroke-miterlimit="3"/><line x1="128.476" y1="-77.175" x2="264.83" y2="208.184" vector-effect="non-scaling-stroke" stroke-width="0.2" stroke="rgb(191,191,191)" stroke-linejoin="miter" stroke-linecap="square" stroke-miterlimit="3"/><line x1="91.724" y1="-85.576" x2="228.078" y2="199.783" vector-effect="non-scaling-stroke" stroke-width="0.2" stroke="rgb(191,191,191)" stroke-linejoin="miter" stroke-linecap="square" stroke-miterlimit="3"/></g><path d="M 25.398 99.375 L 123.913 99.375 C 133.446 99.375 141.186 107.115 141.186 116.647 L 141.186 155.602 C 141.186 165.135 133.446 172.875 123.913 172.875 L 25.398 172.875 C 15.865 172.875 8.125 165.135 8.125 155.602 L 8.125 116.647 C 8.125 107.115 15.865 99.375 25.398 99.375 Z" style="stroke:none;fill:#0B0B0B;stroke-miterlimit:10;opacity:0.77;"/><path d="M 20.845 190.312 L 128.465 190.312 C 135.486 190.312 141.186 196.012 141.186 203.033 L 141.186 250.28 C 141.186 257.3 135.486 263 128.465 263 L 20.845 263 C 13.825 263 8.125 257.3 8.125 250.28 L 8.125 203.033 C 8.125 196.012 13.825 190.312 20.845 190.312 Z" style="stroke:none;fill:#0B0B0B;stroke-miterlimit:10;opacity:0.77;"/><path d="M 29.579 276.75 L 120.609 276.75 C 127.387 276.75 132.891 282.127 132.891 288.75 L 132.891 288.75 C 132.891 295.373 127.387 300.75 120.609 300.75 L 29.579 300.75 C 22.8 300.75 17.297 295.373 17.297 288.75 L 17.297 288.75 C 17.297 282.127 22.8 276.75 29.579 276.75 Z" style="stroke:none;fill:#0B0B0B;stroke-miterlimit:10;opacity:0.77;"/><g style="isolation:isolate"><path d=" M 68.911 347.996 L 69.704 347.996 L 69.704 357.662 L 69.157 357.662 L 69.157 348.584 L 65.417 353.485 L 61.671 348.584 L 61.671 357.662 L 61.125 357.662 L 61.125 347.996 L 61.917 347.996 L 65.417 352.576 L 68.911 347.996 L 68.911 347.996 Z  M 74.147 351.195 L 74.147 351.195 L 74.147 351.195 Q 75.528 351.195 76.495 352.166 L 76.495 352.166 L 76.495 352.166 Q 77.462 353.137 77.462 354.518 L 77.462 354.518 L 77.462 354.518 Q 77.462 355.885 76.495 356.859 L 76.495 356.859 L 76.495 356.859 Q 75.528 357.833 74.147 357.833 L 74.147 357.833 L 74.147 357.833 Q 72.78 357.833 71.806 356.859 L 71.806 356.859 L 71.806 356.859 Q 70.832 355.885 70.832 354.518 L 70.832 354.518 L 70.832 354.518 Q 70.832 353.137 71.806 352.166 L 71.806 352.166 L 71.806 352.166 Q 72.78 351.195 74.147 351.195 Z  M 74.147 351.77 L 74.147 351.77 Q 73.012 351.77 72.209 352.576 L 72.209 352.576 L 72.209 352.576 Q 71.406 353.383 71.406 354.518 L 71.406 354.518 L 71.406 354.518 Q 71.406 355.652 72.209 356.452 L 72.209 356.452 L 72.209 356.452 Q 73.012 357.252 74.147 357.252 L 74.147 357.252 L 74.147 357.252 Q 75.282 357.252 76.085 356.452 L 76.085 356.452 L 76.085 356.452 Q 76.888 355.652 76.888 354.518 L 76.888 354.518 L 76.888 354.518 Q 76.888 353.383 76.085 352.576 L 76.085 352.576 L 76.085 352.576 Q 75.282 351.77 74.147 351.77 L 74.147 351.77 L 74.147 351.77 Z  M 85.016 347.996 L 85.016 357.662 L 84.469 357.662 L 84.469 356.452 L 84.469 356.452 Q 84.312 356.664 84.127 356.855 L 84.127 356.855 L 84.127 356.855 Q 83.157 357.833 81.776 357.833 L 81.776 357.833 L 81.776 357.833 Q 80.409 357.833 79.435 356.859 L 79.435 356.859 L 79.435 356.859 Q 78.46 355.885 78.46 354.518 L 78.46 354.518 L 78.46 354.518 Q 78.46 353.137 79.435 352.166 L 79.435 352.166 L 79.435 352.166 Q 80.409 351.195 81.776 351.195 L 81.776 351.195 L 81.776 351.195 Q 83.157 351.195 84.127 352.166 L 84.127 352.166 L 84.127 352.166 Q 84.312 352.357 84.469 352.569 L 84.469 352.569 L 84.469 347.996 L 85.016 347.996 L 85.016 347.996 Z  M 84.469 355.051 L 84.469 355.051 L 84.469 353.978 L 84.469 353.978 Q 84.319 353.178 83.717 352.576 L 83.717 352.576 L 83.717 352.576 Q 82.911 351.77 81.776 351.77 L 81.776 351.77 L 81.776 351.77 Q 80.641 351.77 79.838 352.576 L 79.838 352.576 L 79.838 352.576 Q 79.035 353.383 79.035 354.518 L 79.035 354.518 L 79.035 354.518 Q 79.035 355.652 79.838 356.452 L 79.838 356.452 L 79.838 356.452 Q 80.641 357.252 81.776 357.252 L 81.776 357.252 L 81.776 357.252 Q 82.911 357.252 83.717 356.445 L 83.717 356.445 L 83.717 356.445 Q 84.319 355.844 84.469 355.051 Z  M 88.667 357.744 L 88.667 357.744 L 88.667 357.744 Q 87.552 357.744 86.896 357.088 L 86.896 357.088 L 86.896 357.088 Q 86.24 356.432 86.219 355.427 L 86.219 355.427 L 86.219 351.722 L 86.766 351.722 L 86.766 355.379 L 86.766 355.379 Q 86.766 356.131 87.313 356.664 L 87.313 356.664 L 87.313 356.664 Q 87.853 357.204 88.66 357.204 L 88.66 357.204 L 88.66 357.204 Q 89.412 357.204 89.955 356.667 L 89.955 356.667 L 89.955 356.667 Q 90.499 356.131 90.499 355.379 L 90.499 355.379 L 90.499 351.722 L 91.045 351.722 L 91.045 355.427 L 91.045 355.427 Q 91.025 356.432 90.369 357.088 L 90.369 357.088 L 90.369 357.088 Q 89.712 357.744 88.667 357.744 Z  M 92.392 347.996 L 92.939 347.996 L 92.939 357.662 L 92.392 357.662 L 92.392 347.996 L 92.392 347.996 Z  M 94.744 353.656 L 94.744 353.656 L 99.953 353.656 L 99.953 353.656 Q 99.761 353.034 99.303 352.576 L 99.303 352.576 L 99.303 352.576 Q 98.497 351.77 97.362 351.77 L 97.362 351.77 L 97.362 351.77 Q 96.227 351.77 95.42 352.576 L 95.42 352.576 L 95.42 352.576 Q 94.942 353.062 94.744 353.656 Z  M 100.568 354.21 L 94.641 354.21 L 94.641 354.21 Q 94.621 354.354 94.621 354.518 L 94.621 354.518 L 94.621 354.518 Q 94.621 355.652 95.424 356.452 L 95.424 356.452 L 95.424 356.452 Q 96.227 357.252 97.362 357.252 L 97.362 357.252 L 97.362 357.252 Q 98.497 357.252 99.303 356.445 L 99.303 356.445 L 99.303 356.445 Q 99.44 356.309 99.563 356.158 L 99.563 356.158 L 100.144 356.363 L 100.144 356.363 Q 100.042 356.534 99.713 356.855 L 99.713 356.855 L 99.713 356.855 Q 98.743 357.833 97.362 357.833 L 97.362 357.833 L 97.362 357.833 Q 95.995 357.833 95.021 356.859 L 95.021 356.859 L 95.021 356.859 Q 94.046 355.885 94.046 354.518 L 94.046 354.518 L 94.046 354.518 Q 94.046 353.137 95.021 352.166 L 95.021 352.166 L 95.021 352.166 Q 95.995 351.195 97.362 351.195 L 97.362 351.195 L 97.362 351.195 Q 98.743 351.195 99.713 352.166 L 99.713 352.166 L 99.713 352.166 Q 100.568 353.027 100.568 354.21 L 100.568 354.21 L 100.568 354.21 Z  M 103.029 354.477 L 103.029 354.477 L 103.029 354.477 Q 102.338 354.101 102.072 353.834 L 102.072 353.834 L 102.072 353.834 Q 101.655 353.417 101.655 352.829 L 101.655 352.829 L 101.655 352.829 Q 101.655 352.241 102.072 351.821 L 102.072 351.821 L 102.072 351.821 Q 102.489 351.4 103.077 351.4 L 103.077 351.4 L 103.077 351.4 Q 103.665 351.4 104.054 351.79 L 104.054 351.79 L 104.054 351.79 Q 104.43 352.166 104.43 352.651 L 104.43 352.651 L 104.43 352.679 L 103.958 352.87 L 103.958 352.87 Q 103.897 352.412 103.671 352.18 L 103.671 352.18 L 103.671 352.18 Q 103.446 351.947 103.077 351.947 L 103.077 351.947 L 103.077 351.947 Q 102.714 351.947 102.455 352.207 L 102.455 352.207 L 102.455 352.207 Q 102.195 352.467 102.195 352.829 L 102.195 352.829 L 102.195 352.829 Q 102.195 353.191 102.455 353.451 L 102.455 353.451 L 102.455 353.451 Q 102.605 353.608 103.09 353.916 L 103.09 353.916 L 103.09 353.916 Q 103.863 354.333 104.191 354.661 L 104.191 354.661 L 104.191 354.661 Q 104.704 355.181 104.704 355.898 L 104.704 355.898 L 104.704 355.898 Q 104.704 356.637 104.191 357.153 L 104.191 357.153 L 104.191 357.153 Q 103.678 357.669 102.947 357.669 L 102.947 357.669 L 102.947 357.669 Q 102.215 357.669 101.703 357.153 L 101.703 357.153 L 101.703 357.153 Q 101.19 356.637 101.19 356.021 L 101.19 356.021 L 101.73 355.885 L 101.73 355.885 Q 101.73 356.411 102.089 356.77 L 102.089 356.77 L 102.089 356.77 Q 102.448 357.129 102.947 357.129 L 102.947 357.129 L 102.947 357.129 Q 103.446 357.129 103.808 356.77 L 103.808 356.77 L 103.808 356.77 Q 104.17 356.411 104.17 355.898 L 104.17 355.898 L 104.17 355.898 Q 104.17 355.399 103.808 355.044 L 103.808 355.044 L 103.808 355.044 Q 103.617 354.853 103.029 354.477 Z  M 49.845 351.729 L 49.845 357.662 L 49.298 357.662 L 49.298 356.452 L 49.298 356.452 Q 49.141 356.664 48.957 356.855 L 48.957 356.855 L 48.957 356.855 Q 47.986 357.833 46.605 357.833 L 46.605 357.833 L 46.605 357.833 Q 45.238 357.833 44.264 356.859 L 44.264 356.859 L 44.264 356.859 Q 43.29 355.885 43.29 354.518 L 43.29 354.518 L 43.29 354.518 Q 43.29 353.137 44.264 352.166 L 44.264 352.166 L 44.264 352.166 Q 45.238 351.195 46.605 351.195 L 46.605 351.195 L 46.605 351.195 Q 47.986 351.195 48.957 352.166 L 48.957 352.166 L 48.957 352.166 Q 49.141 352.357 49.298 352.569 L 49.298 352.569 L 49.298 351.729 L 49.845 351.729 L 49.845 351.729 Z  M 49.298 355.051 L 49.298 355.051 L 49.298 353.978 L 49.298 353.978 Q 49.148 353.178 48.546 352.576 L 48.546 352.576 L 48.546 352.576 Q 47.74 351.77 46.605 351.77 L 46.605 351.77 L 46.605 351.77 Q 45.47 351.77 44.667 352.576 L 44.667 352.576 L 44.667 352.576 Q 43.864 353.383 43.864 354.518 L 43.864 354.518 L 43.864 354.518 Q 43.864 355.652 44.667 356.452 L 44.667 356.452 L 44.667 356.452 Q 45.47 357.252 46.605 357.252 L 46.605 357.252 L 46.605 357.252 Q 47.74 357.252 48.546 356.445 L 48.546 356.445 L 48.546 356.445 Q 49.148 355.844 49.298 355.051 Z  M 53.407 354.313 L 51.766 354.313 L 51.766 357.662 L 51.219 357.662 L 51.219 347.996 L 53.755 347.996 L 53.755 347.996 Q 54.863 348.146 55.635 348.919 L 55.635 348.919 L 55.635 348.919 Q 56.558 349.849 56.558 351.147 L 56.558 351.147 L 56.558 351.147 Q 56.558 352.46 55.635 353.386 L 55.635 353.386 L 55.635 353.386 Q 54.712 354.313 53.407 354.313 L 53.407 354.313 L 53.407 354.313 Z  M 53.407 348.55 L 51.766 348.55 L 51.766 353.759 L 53.407 353.759 L 53.407 353.759 Q 54.48 353.759 55.246 352.997 L 55.246 352.997 L 55.246 352.997 Q 56.011 352.234 56.011 351.147 L 56.011 351.147 L 56.011 351.147 Q 56.011 350.067 55.246 349.309 L 55.246 349.309 L 55.246 349.309 Q 54.48 348.55 53.407 348.55 L 53.407 348.55 L 53.407 348.55 Z " fill-rule="evenodd" fill="rgb(191,191,191)"/><path d=" M 22.969 82.115 L 22.969 82.115 L 23.326 82.432 L 23.326 82.432 Q 22.113 83.533 20.473 83.533 L 20.473 83.533 L 20.473 83.533 Q 18.709 83.533 17.47 82.294 L 17.47 82.294 L 17.47 82.294 Q 16.23 81.055 16.23 79.291 L 16.23 79.291 L 16.23 79.291 Q 16.23 77.539 17.47 76.294 L 17.47 76.294 L 17.47 76.294 Q 18.709 75.049 20.473 75.049 L 20.473 75.049 L 20.473 75.049 Q 22.113 75.049 23.326 76.156 L 23.326 76.156 L 22.969 76.473 L 22.969 76.473 Q 21.902 75.529 20.473 75.529 L 20.473 75.529 L 20.473 75.529 Q 18.914 75.529 17.81 76.631 L 17.81 76.631 L 17.81 76.631 Q 16.705 77.732 16.705 79.291 L 16.705 79.291 L 16.705 79.291 Q 16.705 80.855 17.81 81.957 L 17.81 81.957 L 17.81 81.957 Q 18.914 83.059 20.473 83.059 L 20.473 83.059 L 20.473 83.059 Q 21.902 83.059 22.969 82.115 Z  M 24.334 75.148 L 24.803 75.148 L 24.803 83.434 L 24.334 83.434 L 24.334 75.148 L 24.334 75.148 Z  M 28.711 77.891 L 28.711 77.891 L 28.711 77.891 Q 29.895 77.891 30.724 78.723 L 30.724 78.723 L 30.724 78.723 Q 31.553 79.555 31.553 80.738 L 31.553 80.738 L 31.553 80.738 Q 31.553 81.91 30.724 82.745 L 30.724 82.745 L 30.724 82.745 Q 29.895 83.58 28.711 83.58 L 28.711 83.58 L 28.711 83.58 Q 27.539 83.58 26.704 82.745 L 26.704 82.745 L 26.704 82.745 Q 25.869 81.91 25.869 80.738 L 25.869 80.738 L 25.869 80.738 Q 25.869 79.555 26.704 78.723 L 26.704 78.723 L 26.704 78.723 Q 27.539 77.891 28.711 77.891 Z  M 28.711 78.383 L 28.711 78.383 Q 27.738 78.383 27.05 79.074 L 27.05 79.074 L 27.05 79.074 Q 26.361 79.766 26.361 80.738 L 26.361 80.738 L 26.361 80.738 Q 26.361 81.711 27.05 82.396 L 27.05 82.396 L 27.05 82.396 Q 27.738 83.082 28.711 83.082 L 28.711 83.082 L 28.711 83.082 Q 29.684 83.082 30.372 82.396 L 30.372 82.396 L 30.372 82.396 Q 31.061 81.711 31.061 80.738 L 31.061 80.738 L 31.061 80.738 Q 31.061 79.766 30.372 79.074 L 30.372 79.074 L 30.372 79.074 Q 29.684 78.383 28.711 78.383 L 28.711 78.383 L 28.711 78.383 Z  M 36.949 82.209 L 36.949 82.209 L 37.441 82.391 L 37.441 82.391 Q 37.307 82.572 37.137 82.742 L 37.137 82.742 L 37.137 82.742 Q 36.305 83.58 35.121 83.58 L 35.121 83.58 L 35.121 83.58 Q 33.949 83.58 33.114 82.745 L 33.114 82.745 L 33.114 82.745 Q 32.279 81.91 32.279 80.732 L 32.279 80.732 L 32.279 80.732 Q 32.279 79.555 33.114 78.723 L 33.114 78.723 L 33.114 78.723 Q 33.949 77.891 35.121 77.891 L 35.121 77.891 L 35.121 77.891 Q 36.305 77.891 37.137 78.723 L 37.137 78.723 L 37.137 78.723 Q 37.307 78.893 37.441 79.074 L 37.441 79.074 L 36.949 79.256 L 36.949 79.256 Q 36.873 79.162 36.785 79.068 L 36.785 79.068 L 36.785 79.068 Q 36.094 78.383 35.121 78.383 L 35.121 78.383 L 35.121 78.383 Q 34.154 78.383 33.466 79.071 L 33.466 79.071 L 33.466 79.071 Q 32.777 79.76 32.777 80.732 L 32.777 80.732 L 32.777 80.732 Q 32.777 81.705 33.466 82.394 L 33.466 82.394 L 33.466 82.394 Q 34.154 83.082 35.121 83.082 L 35.121 83.082 L 35.121 83.082 Q 36.094 83.082 36.785 82.391 L 36.785 82.391 L 36.785 82.391 Q 36.873 82.303 36.949 82.209 Z  M 40.207 78.348 L 40.805 78.348 L 39.551 79.9 L 41.549 83.434 L 40.975 83.434 L 39.246 80.275 L 38.795 80.838 L 38.795 83.434 L 38.326 83.434 L 38.326 76.186 L 38.795 76.186 L 38.795 80.094 L 40.207 78.348 L 40.207 78.348 Z " fill-rule="evenodd" fill="rgb(191,191,191)"/><path d=" M 111.476 78.846 L 111.476 78.846 L 111.476 78.846 Q 110.591 78.553 110.079 78.04 L 110.079 78.04 L 110.079 78.04 Q 109.566 77.527 109.566 76.795 L 109.566 76.795 L 109.566 76.795 Q 109.566 76.08 110.079 75.564 L 110.079 75.564 L 110.079 75.564 Q 110.591 75.049 111.324 75.049 L 111.324 75.049 L 111.324 75.049 Q 112.045 75.049 112.566 75.564 L 112.566 75.564 L 112.566 75.564 Q 112.847 75.84 112.959 76.18 L 112.959 76.18 L 112.537 76.344 L 112.537 76.344 Q 112.443 76.092 112.232 75.881 L 112.232 75.881 L 112.232 75.881 Q 111.857 75.506 111.324 75.506 L 111.324 75.506 L 111.324 75.506 Q 110.791 75.506 110.413 75.881 L 110.413 75.881 L 110.413 75.881 Q 110.035 76.256 110.035 76.795 L 110.035 76.795 L 110.035 76.795 Q 110.035 77.328 110.41 77.709 L 110.41 77.709 L 110.41 77.709 Q 110.761 78.055 111.382 78.342 L 111.382 78.342 L 111.382 78.342 Q 112.379 78.664 113.058 79.344 L 113.058 79.344 L 113.058 79.344 Q 113.773 80.059 113.773 81.072 L 113.773 81.072 L 113.773 81.072 Q 113.773 82.092 113.055 82.813 L 113.055 82.813 L 113.055 82.813 Q 112.338 83.533 111.324 83.533 L 111.324 83.533 L 111.324 83.533 Q 110.304 83.533 109.59 82.807 L 109.59 82.807 L 109.59 82.807 Q 109.009 82.232 108.898 81.471 L 108.898 81.471 L 109.338 81.313 L 109.338 81.313 Q 109.408 81.986 109.912 82.484 L 109.912 82.484 L 109.912 82.484 Q 110.498 83.07 111.324 83.07 L 111.324 83.07 L 111.324 83.07 Q 112.15 83.07 112.736 82.484 L 112.736 82.484 L 112.736 82.484 Q 113.322 81.898 113.322 81.072 L 113.322 81.072 L 113.322 81.072 Q 113.322 80.252 112.736 79.666 L 112.736 79.666 L 112.736 79.666 Q 112.22 79.15 111.476 78.846 Z  M 118.572 78.348 L 115.297 85.367 L 114.775 85.367 L 116.117 82.49 L 114.183 78.348 L 114.705 78.348 L 116.375 81.898 L 118.05 78.348 L 118.572 78.348 L 118.572 78.348 Z  M 119.709 79.484 L 119.709 79.484 L 119.709 83.434 L 119.24 83.434 L 119.24 78.348 L 119.709 78.348 L 119.709 78.676 L 119.709 78.676 Q 120.341 78.043 121.185 78.043 L 121.185 78.043 L 121.185 78.043 Q 122.088 78.043 122.653 78.608 L 122.653 78.608 L 122.653 78.608 Q 123.218 79.174 123.23 80.029 L 123.23 80.029 L 123.23 83.434 L 122.767 83.434 L 122.767 80.076 L 122.767 80.076 Q 122.767 79.426 122.299 78.969 L 122.299 78.969 L 122.299 78.969 Q 121.83 78.512 121.185 78.512 L 121.185 78.512 L 121.185 78.512 Q 120.547 78.512 120.078 78.963 L 120.078 78.963 L 120.078 78.963 Q 119.826 79.215 119.709 79.484 Z  M 128.785 82.209 L 128.785 82.209 L 129.277 82.391 L 129.277 82.391 Q 129.142 82.572 128.972 82.742 L 128.972 82.742 L 128.972 82.742 Q 128.14 83.58 126.957 83.58 L 126.957 83.58 L 126.957 83.58 Q 125.785 83.58 124.95 82.745 L 124.95 82.745 L 124.95 82.745 Q 124.115 81.91 124.115 80.732 L 124.115 80.732 L 124.115 80.732 Q 124.115 79.555 124.95 78.723 L 124.95 78.723 L 124.95 78.723 Q 125.785 77.891 126.957 77.891 L 126.957 77.891 L 126.957 77.891 Q 128.14 77.891 128.972 78.723 L 128.972 78.723 L 128.972 78.723 Q 129.142 78.893 129.277 79.074 L 129.277 79.074 L 128.785 79.256 L 128.785 79.256 Q 128.709 79.162 128.621 79.068 L 128.621 79.068 L 128.621 79.068 Q 127.929 78.383 126.957 78.383 L 126.957 78.383 L 126.957 78.383 Q 125.99 78.383 125.301 79.071 L 125.301 79.071 L 125.301 79.071 Q 124.613 79.76 124.613 80.732 L 124.613 80.732 L 124.613 80.732 Q 124.613 81.705 125.301 82.394 L 125.301 82.394 L 125.301 82.394 Q 125.99 83.082 126.957 83.082 L 126.957 83.082 L 126.957 83.082 Q 127.929 83.082 128.621 82.391 L 128.621 82.391 L 128.621 82.391 Q 128.709 82.303 128.785 82.209 Z " fill-rule="evenodd" fill="rgb(191,191,191)"/><path d=" M 64.794 182.625 L 64.794 182.625 L 64.794 182.625 Q 64.005 182.195 63.701 181.891 L 63.701 181.891 L 63.701 181.891 Q 63.224 181.414 63.224 180.742 L 63.224 180.742 L 63.224 180.742 Q 63.224 180.07 63.701 179.59 L 63.701 179.59 L 63.701 179.59 Q 64.177 179.109 64.849 179.109 L 64.849 179.109 L 64.849 179.109 Q 65.521 179.109 65.966 179.555 L 65.966 179.555 L 65.966 179.555 Q 66.396 179.984 66.396 180.539 L 66.396 180.539 L 66.396 180.57 L 65.857 180.789 L 65.857 180.789 Q 65.786 180.266 65.529 180 L 65.529 180 L 65.529 180 Q 65.271 179.734 64.849 179.734 L 64.849 179.734 L 64.849 179.734 Q 64.435 179.734 64.138 180.031 L 64.138 180.031 L 64.138 180.031 Q 63.841 180.328 63.841 180.742 L 63.841 180.742 L 63.841 180.742 Q 63.841 181.156 64.138 181.453 L 64.138 181.453 L 64.138 181.453 Q 64.31 181.633 64.865 181.984 L 64.865 181.984 L 64.865 181.984 Q 65.747 182.461 66.122 182.836 L 66.122 182.836 L 66.122 182.836 Q 66.708 183.43 66.708 184.25 L 66.708 184.25 L 66.708 184.25 Q 66.708 185.094 66.122 185.684 L 66.122 185.684 L 66.122 185.684 Q 65.536 186.273 64.701 186.273 L 64.701 186.273 L 64.701 186.273 Q 63.865 186.273 63.279 185.684 L 63.279 185.684 L 63.279 185.684 Q 62.693 185.094 62.693 184.391 L 62.693 184.391 L 63.31 184.234 L 63.31 184.234 Q 63.31 184.836 63.72 185.246 L 63.72 185.246 L 63.72 185.246 Q 64.13 185.656 64.701 185.656 L 64.701 185.656 L 64.701 185.656 Q 65.271 185.656 65.685 185.246 L 65.685 185.246 L 65.685 185.246 Q 66.099 184.836 66.099 184.25 L 66.099 184.25 L 66.099 184.25 Q 66.099 183.68 65.685 183.273 L 65.685 183.273 L 65.685 183.273 Q 65.466 183.055 64.794 182.625 Z  M 70.576 179.484 L 71.372 179.484 L 69.701 181.555 L 72.365 186.266 L 71.599 186.266 L 69.294 182.055 L 68.693 182.805 L 68.693 186.266 L 68.068 186.266 L 68.068 176.602 L 68.693 176.602 L 68.693 181.813 L 70.576 179.484 L 70.576 179.484 Z  M 73.185 179.484 L 73.802 179.484 L 73.802 186.266 L 73.185 186.266 L 73.185 179.484 L 73.185 179.484 Z  M 73.497 177.086 L 73.497 177.086 Q 73.747 177.086 73.931 177.266 L 73.931 177.266 L 73.931 177.266 Q 74.115 177.445 74.115 177.695 L 74.115 177.695 L 74.115 177.695 Q 74.115 177.961 73.931 178.141 L 73.931 178.141 L 73.931 178.141 Q 73.747 178.32 73.497 178.32 L 73.497 178.32 L 73.497 178.32 Q 73.24 178.32 73.056 178.141 L 73.056 178.141 L 73.056 178.141 Q 72.872 177.961 72.872 177.695 L 72.872 177.695 L 72.872 177.695 Q 72.872 177.445 73.056 177.266 L 73.056 177.266 L 73.056 177.266 Q 73.24 177.086 73.497 177.086 L 73.497 177.086 L 73.497 177.086 Z  M 75.451 188.852 L 75.451 179.484 L 76.076 179.484 L 76.076 180.438 L 76.076 180.438 Q 76.247 180.203 76.466 179.984 L 76.466 179.984 L 76.466 179.984 Q 77.576 178.883 79.146 178.883 L 79.146 178.883 L 79.146 178.883 Q 80.716 178.883 81.826 179.988 L 81.826 179.988 L 81.826 179.988 Q 82.935 181.094 82.935 182.672 L 82.935 182.672 L 82.935 182.672 Q 82.935 184.234 81.826 185.348 L 81.826 185.348 L 81.826 185.348 Q 80.716 186.461 79.146 186.461 L 79.146 186.461 L 79.146 186.461 Q 77.576 186.461 76.466 185.344 L 76.466 185.344 L 76.466 185.344 Q 76.247 185.125 76.076 184.891 L 76.076 184.891 L 76.076 188.852 L 75.451 188.852 L 75.451 188.852 Z  M 76.076 182.023 L 76.076 182.023 L 76.076 183.32 L 76.076 183.32 Q 76.247 184.211 76.927 184.883 L 76.927 184.883 L 76.927 184.883 Q 77.849 185.805 79.146 185.805 L 79.146 185.805 L 79.146 185.805 Q 80.443 185.805 81.361 184.887 L 81.361 184.887 L 81.361 184.887 Q 82.279 183.969 82.279 182.672 L 82.279 182.672 L 82.279 182.672 Q 82.279 181.375 81.361 180.453 L 81.361 180.453 L 81.361 180.453 Q 80.443 179.531 79.146 179.531 L 79.146 179.531 L 79.146 179.531 Q 77.849 179.531 76.927 180.453 L 76.927 180.453 L 76.927 180.453 Q 76.247 181.133 76.076 182.023 Z " fill-rule="evenodd" fill="rgb(191,191,191)"/><path d=" M 68.454 308.604 L 68.454 308.604 L 68.454 308.604 Q 70.033 308.604 71.138 309.714 L 71.138 309.714 L 71.138 309.714 Q 72.243 310.823 72.243 312.401 L 72.243 312.401 L 72.243 312.401 Q 72.243 313.964 71.138 315.077 L 71.138 315.077 L 71.138 315.077 Q 70.033 316.19 68.454 316.19 L 68.454 316.19 L 68.454 316.19 Q 66.892 316.19 65.779 315.077 L 65.779 315.077 L 65.779 315.077 Q 64.665 313.964 64.665 312.401 L 64.665 312.401 L 64.665 312.401 Q 64.665 310.823 65.779 309.714 L 65.779 309.714 L 65.779 309.714 Q 66.892 308.604 68.454 308.604 Z  M 68.454 309.26 L 68.454 309.26 Q 67.158 309.26 66.24 310.182 L 66.24 310.182 L 66.24 310.182 Q 65.322 311.104 65.322 312.401 L 65.322 312.401 L 65.322 312.401 Q 65.322 313.698 66.24 314.612 L 66.24 314.612 L 66.24 314.612 Q 67.158 315.526 68.454 315.526 L 68.454 315.526 L 68.454 315.526 Q 69.751 315.526 70.669 314.612 L 70.669 314.612 L 70.669 314.612 Q 71.587 313.698 71.587 312.401 L 71.587 312.401 L 71.587 312.401 Q 71.587 311.104 70.669 310.182 L 70.669 310.182 L 70.669 310.182 Q 69.751 309.26 68.454 309.26 L 68.454 309.26 L 68.454 309.26 Z  M 76.283 316.089 L 76.283 316.089 L 76.283 316.089 Q 75.009 316.089 74.259 315.339 L 74.259 315.339 L 74.259 315.339 Q 73.509 314.589 73.486 313.44 L 73.486 313.44 L 73.486 309.206 L 74.111 309.206 L 74.111 313.385 L 74.111 313.385 Q 74.111 314.245 74.736 314.854 L 74.736 314.854 L 74.736 314.854 Q 75.353 315.471 76.275 315.471 L 76.275 315.471 L 76.275 315.471 Q 77.134 315.471 77.755 314.858 L 77.755 314.858 L 77.755 314.858 Q 78.376 314.245 78.376 313.385 L 78.376 313.385 L 78.376 309.206 L 79.001 309.206 L 79.001 313.44 L 79.001 313.44 Q 78.978 314.589 78.228 315.339 L 78.228 315.339 L 78.228 315.339 Q 77.478 316.089 76.283 316.089 Z  M 79.931 309.214 L 81.314 309.214 L 81.314 306.331 L 81.931 306.331 L 81.931 309.214 L 83.314 309.214 L 83.314 309.839 L 81.931 309.839 L 81.931 315.995 L 81.314 315.995 L 81.314 309.839 L 79.931 309.839 L 79.931 309.214 L 79.931 309.214 Z " fill-rule="evenodd" fill="rgb(191,191,191)"/><path d=" M 60.904 273.995 L 60.904 267.214 L 61.529 267.214 L 61.529 267.378 L 61.529 267.378 Q 62.107 266.815 62.911 266.815 L 62.911 266.815 L 62.911 266.815 Q 63.747 266.815 64.333 267.401 L 64.333 267.401 L 64.333 267.401 Q 64.49 267.557 64.607 267.745 L 64.607 267.745 L 64.607 267.745 Q 64.732 267.565 64.896 267.401 L 64.896 267.401 L 64.896 267.401 Q 65.482 266.815 66.318 266.815 L 66.318 266.815 L 66.318 266.815 Q 67.154 266.815 67.74 267.401 L 67.74 267.401 L 67.74 267.401 Q 68.294 267.971 68.326 268.76 L 68.326 268.76 L 68.326 273.995 L 67.701 273.995 L 67.701 268.76 L 67.708 268.76 L 67.708 268.76 Q 67.685 268.221 67.302 267.846 L 67.302 267.846 L 67.302 267.846 Q 66.888 267.44 66.318 267.44 L 66.318 267.44 L 66.318 267.44 Q 65.74 267.44 65.329 267.846 L 65.329 267.846 L 65.329 267.846 Q 64.919 268.253 64.919 268.862 L 64.919 268.862 L 64.919 273.995 L 64.302 273.995 L 64.302 268.76 L 64.31 268.76 L 64.31 268.76 Q 64.279 268.221 63.896 267.846 L 63.896 267.846 L 63.896 267.846 Q 63.482 267.44 62.911 267.44 L 62.911 267.44 L 62.911 267.44 Q 62.341 267.44 61.935 267.846 L 61.935 267.846 L 61.935 267.846 Q 61.576 268.198 61.529 268.706 L 61.529 268.706 L 61.529 273.995 L 60.904 273.995 L 60.904 273.995 Z  M 72.576 274.089 L 72.576 274.089 L 72.576 274.089 Q 71.302 274.089 70.552 273.339 L 70.552 273.339 L 70.552 273.339 Q 69.802 272.589 69.779 271.44 L 69.779 271.44 L 69.779 267.206 L 70.404 267.206 L 70.404 271.385 L 70.404 271.385 Q 70.404 272.245 71.029 272.854 L 71.029 272.854 L 71.029 272.854 Q 71.646 273.471 72.568 273.471 L 72.568 273.471 L 72.568 273.471 Q 73.427 273.471 74.048 272.858 L 74.048 272.858 L 74.048 272.858 Q 74.669 272.245 74.669 271.385 L 74.669 271.385 L 74.669 267.206 L 75.294 267.206 L 75.294 271.44 L 75.294 271.44 Q 75.271 272.589 74.521 273.339 L 74.521 273.339 L 74.521 273.339 Q 73.771 274.089 72.576 274.089 Z  M 76.224 267.214 L 77.607 267.214 L 77.607 264.331 L 78.224 264.331 L 78.224 267.214 L 79.607 267.214 L 79.607 267.839 L 78.224 267.839 L 78.224 273.995 L 77.607 273.995 L 77.607 267.839 L 76.224 267.839 L 76.224 267.214 L 76.224 267.214 Z  M 81.06 269.417 L 81.06 269.417 L 87.013 269.417 L 87.013 269.417 Q 86.794 268.706 86.271 268.182 L 86.271 268.182 L 86.271 268.182 Q 85.349 267.26 84.052 267.26 L 84.052 267.26 L 84.052 267.26 Q 82.755 267.26 81.833 268.182 L 81.833 268.182 L 81.833 268.182 Q 81.286 268.737 81.06 269.417 Z  M 87.716 270.049 L 80.943 270.049 L 80.943 270.049 Q 80.919 270.214 80.919 270.401 L 80.919 270.401 L 80.919 270.401 Q 80.919 271.698 81.837 272.612 L 81.837 272.612 L 81.837 272.612 Q 82.755 273.526 84.052 273.526 L 84.052 273.526 L 84.052 273.526 Q 85.349 273.526 86.271 272.604 L 86.271 272.604 L 86.271 272.604 Q 86.427 272.448 86.568 272.276 L 86.568 272.276 L 87.232 272.51 L 87.232 272.51 Q 87.115 272.706 86.74 273.073 L 86.74 273.073 L 86.74 273.073 Q 85.63 274.19 84.052 274.19 L 84.052 274.19 L 84.052 274.19 Q 82.49 274.19 81.376 273.077 L 81.376 273.077 L 81.376 273.077 Q 80.263 271.964 80.263 270.401 L 80.263 270.401 L 80.263 270.401 Q 80.263 268.823 81.376 267.714 L 81.376 267.714 L 81.376 267.714 Q 82.49 266.604 84.052 266.604 L 84.052 266.604 L 84.052 266.604 Q 85.63 266.604 86.74 267.714 L 86.74 267.714 L 86.74 267.714 Q 87.716 268.698 87.716 270.049 L 87.716 270.049 L 87.716 270.049 Z " fill-rule="evenodd" fill="rgb(191,191,191)"/><path d=" M 64.681 89.992 L 65.025 90.594 L 65.025 90.594 Q 64.361 90.695 63.72 91.438 L 63.72 91.438 L 63.72 91.438 Q 63.079 92.18 63.079 92.938 L 63.079 92.938 L 63.079 96.828 L 62.454 96.828 L 62.454 90.047 L 63.079 90.047 L 63.079 91.516 L 63.079 91.516 Q 63.47 90.492 64.681 89.992 L 64.681 89.992 L 64.681 89.992 Z  M 73.095 90.047 L 73.095 96.828 L 72.47 96.828 L 72.47 95.445 L 72.47 95.445 Q 72.29 95.688 72.079 95.906 L 72.079 95.906 L 72.079 95.906 Q 70.97 97.023 69.392 97.023 L 69.392 97.023 L 69.392 97.023 Q 67.829 97.023 66.716 95.91 L 66.716 95.91 L 66.716 95.91 Q 65.603 94.797 65.603 93.234 L 65.603 93.234 L 65.603 93.234 Q 65.603 91.656 66.716 90.547 L 66.716 90.547 L 66.716 90.547 Q 67.829 89.438 69.392 89.438 L 69.392 89.438 L 69.392 89.438 Q 70.97 89.438 72.079 90.547 L 72.079 90.547 L 72.079 90.547 Q 72.29 90.766 72.47 91.008 L 72.47 91.008 L 72.47 90.047 L 73.095 90.047 L 73.095 90.047 Z  M 72.47 93.844 L 72.47 93.844 L 72.47 92.617 L 72.47 92.617 Q 72.298 91.703 71.611 91.016 L 71.611 91.016 L 71.611 91.016 Q 70.689 90.094 69.392 90.094 L 69.392 90.094 L 69.392 90.094 Q 68.095 90.094 67.177 91.016 L 67.177 91.016 L 67.177 91.016 Q 66.259 91.938 66.259 93.234 L 66.259 93.234 L 66.259 93.234 Q 66.259 94.531 67.177 95.445 L 67.177 95.445 L 67.177 95.445 Q 68.095 96.359 69.392 96.359 L 69.392 96.359 L 69.392 96.359 Q 70.689 96.359 71.611 95.438 L 71.611 95.438 L 71.611 95.438 Q 72.298 94.75 72.47 93.844 Z  M 74.04 90.047 L 75.423 90.047 L 75.423 87.164 L 76.04 87.164 L 76.04 90.047 L 77.423 90.047 L 77.423 90.672 L 76.04 90.672 L 76.04 96.828 L 75.423 96.828 L 75.423 90.672 L 74.04 90.672 L 74.04 90.047 L 74.04 90.047 Z  M 78.876 92.25 L 78.876 92.25 L 84.829 92.25 L 84.829 92.25 Q 84.611 91.539 84.087 91.016 L 84.087 91.016 L 84.087 91.016 Q 83.165 90.094 81.868 90.094 L 81.868 90.094 L 81.868 90.094 Q 80.572 90.094 79.65 91.016 L 79.65 91.016 L 79.65 91.016 Q 79.103 91.57 78.876 92.25 Z  M 85.533 92.883 L 78.759 92.883 L 78.759 92.883 Q 78.736 93.047 78.736 93.234 L 78.736 93.234 L 78.736 93.234 Q 78.736 94.531 79.654 95.445 L 79.654 95.445 L 79.654 95.445 Q 80.572 96.359 81.868 96.359 L 81.868 96.359 L 81.868 96.359 Q 83.165 96.359 84.087 95.438 L 84.087 95.438 L 84.087 95.438 Q 84.243 95.281 84.384 95.109 L 84.384 95.109 L 85.048 95.344 L 85.048 95.344 Q 84.931 95.539 84.556 95.906 L 84.556 95.906 L 84.556 95.906 Q 83.447 97.023 81.868 97.023 L 81.868 97.023 L 81.868 97.023 Q 80.306 97.023 79.193 95.91 L 79.193 95.91 L 79.193 95.91 Q 78.079 94.797 78.079 93.234 L 78.079 93.234 L 78.079 93.234 Q 78.079 91.656 79.193 90.547 L 79.193 90.547 L 79.193 90.547 Q 80.306 89.438 81.868 89.438 L 81.868 89.438 L 81.868 89.438 Q 83.447 89.438 84.556 90.547 L 84.556 90.547 L 84.556 90.547 Q 85.533 91.531 85.533 92.883 L 85.533 92.883 L 85.533 92.883 Z " fill-rule="evenodd" fill="rgb(191,191,191)"/><path d=" M 52.795 25.359 L 48.6 25.359 L 48.6 40.992 L 47.674 40.992 L 47.674 25.359 L 43.479 25.359 L 43.479 24.422 L 52.795 24.422 L 52.795 25.359 L 52.795 25.359 Z  M 54.975 34.125 L 54.975 34.125 L 63.904 34.125 L 63.904 34.125 Q 63.576 33.059 62.791 32.273 L 62.791 32.273 L 62.791 32.273 Q 61.408 30.891 59.463 30.891 L 59.463 30.891 L 59.463 30.891 Q 57.518 30.891 56.135 32.273 L 56.135 32.273 L 56.135 32.273 Q 55.314 33.105 54.975 34.125 Z  M 64.959 35.074 L 54.799 35.074 L 54.799 35.074 Q 54.764 35.32 54.764 35.602 L 54.764 35.602 L 54.764 35.602 Q 54.764 37.547 56.141 38.918 L 56.141 38.918 L 56.141 38.918 Q 57.518 40.289 59.463 40.289 L 59.463 40.289 L 59.463 40.289 Q 61.408 40.289 62.791 38.906 L 62.791 38.906 L 62.791 38.906 Q 63.025 38.672 63.236 38.414 L 63.236 38.414 L 64.232 38.766 L 64.232 38.766 Q 64.057 39.059 63.494 39.609 L 63.494 39.609 L 63.494 39.609 Q 61.83 41.285 59.463 41.285 L 59.463 41.285 L 59.463 41.285 Q 57.119 41.285 55.449 39.615 L 55.449 39.615 L 55.449 39.615 Q 53.779 37.945 53.779 35.602 L 53.779 35.602 L 53.779 35.602 Q 53.779 33.234 55.449 31.57 L 55.449 31.57 L 55.449 31.57 Q 57.119 29.906 59.463 29.906 L 59.463 29.906 L 59.463 29.906 Q 61.83 29.906 63.494 31.57 L 63.494 31.57 L 63.494 31.57 Q 64.959 33.047 64.959 35.074 L 64.959 35.074 L 64.959 35.074 Z  M 66.541 40.992 L 66.541 30.82 L 67.479 30.82 L 67.479 31.066 L 67.479 31.066 Q 68.346 30.223 69.553 30.223 L 69.553 30.223 L 69.553 30.223 Q 70.807 30.223 71.686 31.102 L 71.686 31.102 L 71.686 31.102 Q 71.92 31.336 72.096 31.617 L 72.096 31.617 L 72.096 31.617 Q 72.283 31.348 72.529 31.102 L 72.529 31.102 L 72.529 31.102 Q 73.408 30.223 74.662 30.223 L 74.662 30.223 L 74.662 30.223 Q 75.916 30.223 76.795 31.102 L 76.795 31.102 L 76.795 31.102 Q 77.627 31.957 77.674 33.141 L 77.674 33.141 L 77.674 40.992 L 76.736 40.992 L 76.736 33.141 L 76.748 33.141 L 76.748 33.141 Q 76.713 32.332 76.139 31.77 L 76.139 31.77 L 76.139 31.77 Q 75.518 31.16 74.662 31.16 L 74.662 31.16 L 74.662 31.16 Q 73.795 31.16 73.18 31.77 L 73.18 31.77 L 73.18 31.77 Q 72.564 32.379 72.564 33.293 L 72.564 33.293 L 72.564 40.992 L 71.639 40.992 L 71.639 33.141 L 71.65 33.141 L 71.65 33.141 Q 71.604 32.332 71.029 31.77 L 71.029 31.77 L 71.029 31.77 Q 70.408 31.16 69.553 31.16 L 69.553 31.16 L 69.553 31.16 Q 68.697 31.16 68.088 31.77 L 68.088 31.77 L 68.088 31.77 Q 67.549 32.297 67.479 33.059 L 67.479 33.059 L 67.479 40.992 L 66.541 40.992 L 66.541 40.992 Z  M 79.912 44.871 L 79.912 30.82 L 80.85 30.82 L 80.85 32.25 L 80.85 32.25 Q 81.107 31.898 81.436 31.57 L 81.436 31.57 L 81.436 31.57 Q 83.1 29.918 85.455 29.918 L 85.455 29.918 L 85.455 29.918 Q 87.811 29.918 89.475 31.576 L 89.475 31.576 L 89.475 31.576 Q 91.139 33.234 91.139 35.602 L 91.139 35.602 L 91.139 35.602 Q 91.139 37.945 89.475 39.615 L 89.475 39.615 L 89.475 39.615 Q 87.811 41.285 85.455 41.285 L 85.455 41.285 L 85.455 41.285 Q 83.1 41.285 81.436 39.609 L 81.436 39.609 L 81.436 39.609 Q 81.107 39.281 80.85 38.93 L 80.85 38.93 L 80.85 44.871 L 79.912 44.871 L 79.912 44.871 Z  M 80.85 34.629 L 80.85 34.629 L 80.85 36.574 L 80.85 36.574 Q 81.107 37.91 82.127 38.918 L 82.127 38.918 L 82.127 38.918 Q 83.51 40.301 85.455 40.301 L 85.455 40.301 L 85.455 40.301 Q 87.4 40.301 88.777 38.924 L 88.777 38.924 L 88.777 38.924 Q 90.154 37.547 90.154 35.602 L 90.154 35.602 L 90.154 35.602 Q 90.154 33.656 88.777 32.273 L 88.777 32.273 L 88.777 32.273 Q 87.4 30.891 85.455 30.891 L 85.455 30.891 L 85.455 30.891 Q 83.51 30.891 82.127 32.273 L 82.127 32.273 L 82.127 32.273 Q 81.107 33.293 80.85 34.629 Z  M 98.369 29.906 L 98.369 29.906 L 98.369 29.906 Q 100.736 29.906 102.395 31.57 L 102.395 31.57 L 102.395 31.57 Q 104.053 33.234 104.053 35.602 L 104.053 35.602 L 104.053 35.602 Q 104.053 37.945 102.395 39.615 L 102.395 39.615 L 102.395 39.615 Q 100.736 41.285 98.369 41.285 L 98.369 41.285 L 98.369 41.285 Q 96.025 41.285 94.355 39.615 L 94.355 39.615 L 94.355 39.615 Q 92.686 37.945 92.686 35.602 L 92.686 35.602 L 92.686 35.602 Q 92.686 33.234 94.355 31.57 L 94.355 31.57 L 94.355 31.57 Q 96.025 29.906 98.369 29.906 Z  M 98.369 30.891 L 98.369 30.891 Q 96.424 30.891 95.047 32.273 L 95.047 32.273 L 95.047 32.273 Q 93.67 33.656 93.67 35.602 L 93.67 35.602 L 93.67 35.602 Q 93.67 37.547 95.047 38.918 L 95.047 38.918 L 95.047 38.918 Q 96.424 40.289 98.369 40.289 L 98.369 40.289 L 98.369 40.289 Q 100.314 40.289 101.691 38.918 L 101.691 38.918 L 101.691 38.918 Q 103.068 37.547 103.068 35.602 L 103.068 35.602 L 103.068 35.602 Q 103.068 33.656 101.691 32.273 L 101.691 32.273 L 101.691 32.273 Q 100.314 30.891 98.369 30.891 L 98.369 30.891 L 98.369 30.891 Z " fill-rule="evenodd" fill="rgb(223,220,220)"/><path d=" M 82.608 49.492 L 85.385 32.922 L 86.323 32.922 L 85.01 40.75 L 85.01 40.75 Q 85.327 40.398 85.714 40.07 L 85.714 40.07 L 85.714 40.07 Q 87.647 38.406 90.003 38.406 L 90.003 38.406 L 90.003 38.406 Q 92.358 38.406 93.747 40.07 L 93.747 40.07 L 93.747 40.07 Q 95.135 41.734 94.737 44.102 L 94.737 44.102 L 94.737 44.102 Q 94.35 46.445 92.405 48.115 L 92.405 48.115 L 92.405 48.115 Q 90.46 49.785 88.104 49.785 L 88.104 49.785 L 88.104 49.785 Q 85.749 49.785 84.366 48.109 L 84.366 48.109 L 84.366 48.109 Q 84.085 47.781 83.885 47.43 L 83.885 47.43 L 83.546 49.492 L 82.608 49.492 L 82.608 49.492 Z  M 84.612 43.129 L 84.612 43.129 L 84.284 45.074 L 84.284 45.074 Q 84.319 46.398 85.174 47.406 L 85.174 47.406 L 85.174 47.406 Q 86.323 48.789 88.268 48.789 L 88.268 48.789 L 88.268 48.789 Q 90.214 48.789 91.819 47.418 L 91.819 47.418 L 91.819 47.418 Q 93.424 46.047 93.753 44.102 L 93.753 44.102 L 93.753 44.102 Q 94.081 42.156 92.932 40.773 L 92.932 40.773 L 92.932 40.773 Q 91.784 39.391 89.839 39.391 L 89.839 39.391 L 89.839 39.391 Q 87.893 39.391 86.288 40.773 L 86.288 40.773 L 86.288 40.773 Q 85.092 41.793 84.612 43.129 Z  M 97.667 42.625 L 97.667 42.625 L 106.596 42.625 L 106.596 42.625 Q 106.444 41.559 105.788 40.773 L 105.788 40.773 L 105.788 40.773 Q 104.639 39.391 102.694 39.391 L 102.694 39.391 L 102.694 39.391 Q 100.749 39.391 99.132 40.773 L 99.132 40.773 L 99.132 40.773 Q 98.171 41.605 97.667 42.625 Z  M 107.487 43.574 L 97.327 43.574 L 97.327 43.574 Q 97.245 43.82 97.198 44.102 L 97.198 44.102 L 97.198 44.102 Q 96.882 46.047 98.03 47.418 L 98.03 47.418 L 98.03 47.418 Q 99.178 48.789 101.124 48.789 L 101.124 48.789 L 101.124 48.789 Q 103.069 48.789 104.674 47.406 L 104.674 47.406 L 104.674 47.406 Q 104.956 47.172 105.202 46.914 L 105.202 46.914 L 106.139 47.266 L 106.139 47.266 Q 105.917 47.559 105.26 48.109 L 105.26 48.109 L 105.26 48.109 Q 103.315 49.785 100.948 49.785 L 100.948 49.785 L 100.948 49.785 Q 98.604 49.785 97.215 48.115 L 97.215 48.115 L 97.215 48.115 Q 95.827 46.445 96.214 44.102 L 96.214 44.102 L 96.214 44.102 Q 96.612 41.734 98.563 40.07 L 98.563 40.07 L 98.563 40.07 Q 100.514 38.406 102.858 38.406 L 102.858 38.406 L 102.858 38.406 Q 105.225 38.406 106.608 40.07 L 106.608 40.07 L 106.608 40.07 Q 107.827 41.547 107.487 43.574 L 107.487 43.574 L 107.487 43.574 Z  M 108.987 39.32 L 111.061 39.32 L 111.788 34.996 L 112.714 34.996 L 111.987 39.32 L 114.061 39.32 L 113.909 40.258 L 111.835 40.258 L 110.288 49.492 L 109.362 49.492 L 110.909 40.258 L 108.835 40.258 L 108.987 39.32 L 108.987 39.32 Z  M 126.553 39.32 L 124.842 49.492 L 123.905 49.492 L 124.257 47.418 L 124.257 47.418 Q 123.928 47.781 123.553 48.109 L 123.553 48.109 L 123.553 48.109 Q 121.608 49.785 119.241 49.785 L 119.241 49.785 L 119.241 49.785 Q 116.897 49.785 115.508 48.115 L 115.508 48.115 L 115.508 48.115 Q 114.12 46.445 114.507 44.102 L 114.507 44.102 L 114.507 44.102 Q 114.905 41.734 116.856 40.07 L 116.856 40.07 L 116.856 40.07 Q 118.807 38.406 121.151 38.406 L 121.151 38.406 L 121.151 38.406 Q 123.518 38.406 124.901 40.07 L 124.901 40.07 L 124.901 40.07 Q 125.159 40.398 125.37 40.762 L 125.37 40.762 L 125.616 39.32 L 126.553 39.32 L 126.553 39.32 Z  M 124.655 45.016 L 124.655 45.016 L 124.971 43.176 L 124.971 43.176 Q 124.936 41.805 124.081 40.773 L 124.081 40.773 L 124.081 40.773 Q 122.932 39.391 120.987 39.391 L 120.987 39.391 L 120.987 39.391 Q 119.042 39.391 117.43 40.773 L 117.43 40.773 L 117.43 40.773 Q 115.819 42.156 115.491 44.102 L 115.491 44.102 L 115.491 44.102 Q 115.174 46.047 116.323 47.418 L 116.323 47.418 L 116.323 47.418 Q 117.471 48.789 119.417 48.789 L 119.417 48.789 L 119.417 48.789 Q 121.362 48.789 122.967 47.406 L 122.967 47.406 L 122.967 47.406 Q 124.174 46.375 124.655 45.016 Z " fill-rule="evenodd" fill="rgb(255,126,126)"/></g><g style="isolation:isolate"><line x1="54.375" y1="92" x2="18.938" y2="92" vector-effect="non-scaling-stroke" stroke-width="0.5" stroke="rgb(191,191,191)" stroke-linejoin="miter" stroke-linecap="square" stroke-miterlimit="3"/><line x1="135.813" y1="93" x2="96.328" y2="93" vector-effect="non-scaling-stroke" stroke-width="0.5" stroke="rgb(191,191,191)" stroke-linejoin="miter" stroke-linecap="square" stroke-miterlimit="3"/><line x1="56.813" y1="182.031" x2="18.938" y2="182.031" vector-effect="non-scaling-stroke" stroke-width="0.5" stroke="rgb(191,191,191)" stroke-linejoin="miter" stroke-linecap="square" stroke-miterlimit="3"/><line x1="135.813" y1="182.031" x2="88.667" y2="182.031" vector-effect="non-scaling-stroke" stroke-width="0.5" stroke="rgb(191,191,191)" stroke-linejoin="miter" stroke-linecap="square" stroke-miterlimit="3"/><line x1="59.875" y1="312.333" x2="18.938" y2="312" vector-effect="non-scaling-stroke" stroke-width="0.5" stroke="rgb(191,191,191)" stroke-linejoin="miter" stroke-linecap="square" stroke-miterlimit="3"/><line x1="135.813" y1="312" x2="88.667" y2="312.333" vector-effect="non-scaling-stroke" stroke-width="0.5" stroke="rgb(191,191,191)" stroke-linejoin="miter" stroke-linecap="square" stroke-miterlimit="3"/><line x1="55.875" y1="270.464" x2="18.938" y2="270.057" vector-effect="non-scaling-stroke" stroke-width="0.5" stroke="rgb(191,191,191)" stroke-linejoin="miter" stroke-linecap="square" stroke-miterlimit="3"/><line x1="135.813" y1="270.057" x2="93.094" y2="270.464" vector-effect="non-scaling-stroke" stroke-width="0.5" stroke="rgb(191,191,191)" stroke-linejoin="miter" stroke-linecap="square" stroke-miterlimit="3"/></g></g></svg>