<?xml version="1.0" standalone="no"?><!-- Generator: Gravit.io --><svg xmlns="http://www.w3.org/2000/svg" xmlns:xlink="http://www.w3.org/1999/xlink" style="isolation:isolate" viewBox="0 0 35 35" width="35" height="35"><defs><clipPath id="_clipPath_D5YbFzpPfb6XBSOa66MvtvieSk4lCXgq"><rect width="35" height="35"/></clipPath></defs><g clip-path="url(#_clipPath_D5YbFzpPfb6XBSOa66MvtvieSk4lCXgq)"><rect width="35" height="35" style="fill:rgb(0,0,0)" fill-opacity="0"/><path d=" M 0 17.5 C 0 7.841 7.841 0 17.5 0 C 27.159 0 35 7.841 35 17.5 C 35 27.159 27.159 35 17.5 35 C 7.841 35 0 27.159 0 17.5 Z " fill="rgb(28,28,28)"/><path d=" M 18.086 0.068 C 17.893 0.024 17.7 0 17.503 0 C 17.3 0 17.112 0.024 16.919 0.068 L 16.919 17.72 L 18.086 17.72 L 18.086 0.068 Z " fill-rule="evenodd" fill="rgb(111,111,111)"/><path d=" M 4.375 17.5 C 4.375 10.256 10.256 4.375 17.5 4.375 C 24.744 4.375 30.625 10.256 30.625 17.5 C 30.625 24.744 24.744 30.625 17.5 30.625 C 10.256 30.625 4.375 24.744 4.375 17.5 Z " fill="rgb(48,48,48)"/><path d=" M 7 17.5 C 7 11.705 11.705 7 17.5 7 C 23.295 7 28 11.705 28 17.5 C 28 23.295 23.295 28 17.5 28 C 11.705 28 7 23.295 7 17.5 Z " fill="rgb(0,0,0)"/></g></svg>