<?xml version="1.0" standalone="no"?><!-- Generator: Gravit.io --><svg xmlns="http://www.w3.org/2000/svg" xmlns:xlink="http://www.w3.org/1999/xlink" style="isolation:isolate" viewBox="0 0 90 380" width="90" height="380"><defs><clipPath id="_clipPath_sna2B3EUzjKEq4NcUVgC2QIARgKT0DTp"><rect width="90" height="380"/></clipPath></defs><g clip-path="url(#_clipPath_sna2B3EUzjKEq4NcUVgC2QIARgKT0DTp)"><rect width="90" height="380" style="fill:rgb(30,30,30)"/><g style="opacity:0.36;"><line x1="11.394" y1="-63.574" x2="-52.439" y2="276.017" vector-effect="non-scaling-stroke" stroke-width="0.2" stroke="rgb(191,191,191)" stroke-opacity="0.7" stroke-linejoin="miter" stroke-linecap="square" stroke-miterlimit="3"/><line x1="14.346" y1="-62.399" x2="-49.487" y2="277.191" vector-effect="non-scaling-stroke" stroke-width="0.2" stroke="rgb(191,191,191)" stroke-opacity="0.7" stroke-linejoin="miter" stroke-linecap="square" stroke-miterlimit="3"/><line x1="20.251" y1="-60.049" x2="-43.582" y2="279.541" vector-effect="non-scaling-stroke" stroke-width="0.2" stroke="rgb(191,191,191)" stroke-opacity="0.7" stroke-linejoin="miter" stroke-linecap="square" stroke-miterlimit="3"/><line x1="23.203" y1="-58.874" x2="-40.63" y2="280.716" vector-effect="non-scaling-stroke" stroke-width="0.2" stroke="rgb(191,191,191)" stroke-opacity="0.7" stroke-linejoin="miter" stroke-linecap="square" stroke-miterlimit="3"/><line x1="26.155" y1="-57.7" x2="-37.678" y2="281.891" vector-effect="non-scaling-stroke" stroke-width="0.2" stroke="rgb(191,191,191)" stroke-opacity="0.7" stroke-linejoin="miter" stroke-linecap="square" stroke-miterlimit="3"/><line x1="29.107" y1="-56.525" x2="-34.725" y2="283.065" vector-effect="non-scaling-stroke" stroke-width="0.2" stroke="rgb(191,191,191)" stroke-opacity="0.7" stroke-linejoin="miter" stroke-linecap="square" stroke-miterlimit="3"/><line x1="17.298" y1="-61.224" x2="-46.534" y2="278.366" vector-effect="non-scaling-stroke" stroke-width="0.2" stroke="rgb(191,191,191)" stroke-opacity="0.7" stroke-linejoin="miter" stroke-linecap="square" stroke-miterlimit="3"/><line x1="31.764" y1="-55.468" x2="-32.068" y2="284.123" vector-effect="non-scaling-stroke" stroke-width="0.2" stroke="rgb(191,191,191)" stroke-opacity="0.7" stroke-linejoin="miter" stroke-linecap="square" stroke-miterlimit="3"/><line x1="34.717" y1="-54.293" x2="-29.116" y2="285.297" vector-effect="non-scaling-stroke" stroke-width="0.2" stroke="rgb(191,191,191)" stroke-opacity="0.7" stroke-linejoin="miter" stroke-linecap="square" stroke-miterlimit="3"/><line x1="40.621" y1="-51.943" x2="-23.212" y2="287.647" vector-effect="non-scaling-stroke" stroke-width="0.2" stroke="rgb(191,191,191)" stroke-opacity="0.7" stroke-linejoin="miter" stroke-linecap="square" stroke-miterlimit="3"/><line x1="43.573" y1="-50.768" x2="-20.26" y2="288.822" vector-effect="non-scaling-stroke" stroke-width="0.2" stroke="rgb(191,191,191)" stroke-opacity="0.7" stroke-linejoin="miter" stroke-linecap="square" stroke-miterlimit="3"/><line x1="46.525" y1="-49.594" x2="-17.307" y2="289.997" vector-effect="non-scaling-stroke" stroke-width="0.2" stroke="rgb(191,191,191)" stroke-opacity="0.7" stroke-linejoin="miter" stroke-linecap="square" stroke-miterlimit="3"/><line x1="49.478" y1="-48.419" x2="-14.355" y2="291.171" vector-effect="non-scaling-stroke" stroke-width="0.2" stroke="rgb(191,191,191)" stroke-opacity="0.7" stroke-linejoin="miter" stroke-linecap="square" stroke-miterlimit="3"/><line x1="37.669" y1="-53.118" x2="-26.164" y2="286.472" vector-effect="non-scaling-stroke" stroke-width="0.2" stroke="rgb(191,191,191)" stroke-opacity="0.7" stroke-linejoin="miter" stroke-linecap="square" stroke-miterlimit="3"/></g><g><path d=" M 156.678 -199.844 C 159.458 -155.629 185.154 -141.232 163.802 -86.55 C 142.45 -31.868 123.348 -52.937 110.736 -15.689 C 98.123 21.559 144.013 20.992 132.881 71.056 C 121.749 121.121 80.335 131.075 72.07 178.14 C 63.806 225.205 115.52 194.167 105.015 244.673 C 94.511 295.179 56.687 296.843 46.151 341.236 C 35.616 385.63 93.344 361.529 80.466 417.711 C 67.589 473.893 45.711 477.322 23.466 515.476" fill="none" vector-effect="non-scaling-stroke" stroke-width="0.5" stroke="rgb(191,191,191)" stroke-opacity="0.35" stroke-linejoin="miter" stroke-linecap="square" stroke-miterlimit="3"/><path d=" M 163.302 -185.398 C 166.082 -141.184 191.778 -126.787 170.426 -72.105 C 149.074 -17.423 129.972 -38.491 117.359 -1.243 C 104.747 36.005 150.637 35.437 139.505 85.502 C 128.373 135.566 86.958 145.521 78.694 192.586 C 70.43 239.65 122.144 208.613 111.639 259.119 C 101.135 309.625 63.31 311.288 52.775 355.682 C 42.24 400.075 99.968 375.975 87.09 432.157 C 74.213 488.339 52.335 491.768 30.09 529.922" fill="none" vector-effect="non-scaling-stroke" stroke-width="0.5" stroke="rgb(191,191,191)" stroke-opacity="0.35" stroke-linejoin="miter" stroke-linecap="square" stroke-miterlimit="3"/><path d=" M 169.926 -170.953 C 172.706 -126.739 198.402 -112.342 177.05 -57.659 C 155.698 -2.977 136.596 -24.046 123.983 13.202 C 111.371 50.45 157.261 49.882 146.128 99.947 C 134.996 150.012 93.582 159.966 85.318 207.031 C 77.054 254.096 128.768 223.058 118.263 273.564 C 107.758 324.07 69.934 325.734 59.399 370.127 C 48.864 414.521 106.592 390.42 93.714 446.602 C 80.837 502.784 58.959 506.213 36.714 544.367" fill="none" vector-effect="non-scaling-stroke" stroke-width="0.5" stroke="rgb(191,191,191)" stroke-opacity="0.35" stroke-linejoin="miter" stroke-linecap="square" stroke-miterlimit="3"/><path d=" M 176.549 -156.507 C 179.33 -112.293 205.025 -97.896 183.674 -43.214 C 162.322 11.468 143.22 -9.6 130.607 27.647 C 117.995 64.895 163.884 64.328 152.752 114.392 C 141.62 164.457 100.206 174.411 91.942 221.476 C 83.678 268.541 135.392 237.503 124.887 288.009 C 114.382 338.516 76.558 340.179 66.023 384.572 C 55.488 428.966 113.215 404.866 100.338 461.048 C 87.461 517.229 65.583 520.658 43.338 558.812" fill="none" vector-effect="non-scaling-stroke" stroke-width="0.5" stroke="rgb(191,191,191)" stroke-opacity="0.35" stroke-linejoin="miter" stroke-linecap="square" stroke-miterlimit="3"/><path d=" M 183.173 -142.062 C 185.954 -97.848 211.649 -83.451 190.297 -28.769 C 168.946 25.913 149.843 4.845 137.231 42.093 C 124.619 79.341 170.508 78.773 159.376 128.838 C 148.244 178.902 106.83 188.857 98.566 235.922 C 90.302 282.987 142.015 251.949 131.511 302.455 C 121.006 352.961 83.182 354.624 72.647 399.018 C 62.112 443.412 119.839 419.311 106.962 475.493 C 94.085 531.675 72.207 535.104 49.962 573.258" fill="none" vector-effect="non-scaling-stroke" stroke-width="0.5" stroke="rgb(191,191,191)" stroke-opacity="0.35" stroke-linejoin="miter" stroke-linecap="square" stroke-miterlimit="3"/><path d=" M 189.797 -127.617 C 192.578 -83.403 218.273 -69.006 196.921 -14.323 C 175.57 40.359 156.467 19.29 143.855 56.538 C 131.243 93.786 177.132 93.218 166 143.283 C 154.868 193.348 113.454 203.302 105.19 250.367 C 96.926 297.432 148.639 266.394 138.135 316.9 C 127.63 367.406 89.806 369.07 79.271 413.463 C 68.735 457.857 126.463 433.756 113.586 489.938 C 100.709 546.12 78.831 549.549 56.586 587.703" fill="none" vector-effect="non-scaling-stroke" stroke-width="0.5" stroke="rgb(191,191,191)" stroke-opacity="0.35" stroke-linejoin="miter" stroke-linecap="square" stroke-miterlimit="3"/><path d=" M 196.421 -113.171 C 199.201 -68.957 224.897 -54.56 203.545 0.122 C 182.193 54.804 163.091 33.736 150.479 70.984 C 137.867 108.231 183.756 107.664 172.624 157.728 C 161.492 207.793 120.078 217.747 111.814 264.812 C 103.549 311.877 155.263 280.84 144.759 331.346 C 134.254 381.852 96.43 383.515 85.895 427.909 C 75.359 472.302 133.087 448.202 120.21 504.384 C 107.333 560.566 85.455 563.994 63.21 602.148" fill="none" vector-effect="non-scaling-stroke" stroke-width="0.5" stroke="rgb(191,191,191)" stroke-opacity="0.35" stroke-linejoin="miter" stroke-linecap="square" stroke-miterlimit="3"/></g><g opacity="0.48"><path d=" M -514.445 -151.682 C -513.078 -142.504 -511.688 -133.426 -510.278 -124.446 C -494.161 0.054 -474.943 114.159 -454.451 219.172 L -462.483 145.63 C -460.093 157.535 -457.68 169.297 -455.249 180.918 L -461.176 128.217 L -461.176 128.217 L -461.176 128.217 C -460.199 133.271 -459.218 138.305 -458.235 143.319 L -465.956 75.627 C -463.675 86.955 -461.373 98.164 -459.053 109.255 L -463.518 71.178 C -462.823 74.739 -462.127 78.292 -461.428 81.836 L -465.12 50.678 C -463.392 58.393 -461.655 66.002 -459.912 73.507 L -468.284 2.532 L -468.284 2.532 L -468.284 2.532 C -467.99 4.025 -467.696 5.516 -467.402 7.005 L -469.263 -8.245 C -467.231 0.948 -465.187 10.001 -463.135 18.917 L -543.558 -638.521 L -552.637 -712.736 C -552.633 -712.62 -552.629 -712.505 -552.625 -712.389 C -552.624 -712.376 -552.624 -712.363 -552.623 -712.35 C -552.614 -712.077 -552.604 -711.804 -552.595 -711.531 L -552.595 -711.531 L -552.595 -711.531 L -552.595 -711.531 L -553.627 -720 L -553.627 -720 L -553.627 -720 L -553.627 -720 C -553.365 -712.368 -553.085 -704.78 -552.787 -697.238 L -553.085 -699.598 C -553.06 -698.951 -553.035 -698.303 -553.01 -697.656 L -553.01 -697.656 L -553.01 -697.656 L -553.063 -698.074 C -553.032 -697.257 -553.002 -696.44 -552.971 -695.623 L -554.004 -704.01 C -553.976 -703.271 -553.947 -702.531 -553.918 -701.792 L -554.034 -702.738 C -553.978 -701.243 -553.922 -699.748 -553.864 -698.255 L -554.094 -700.192 C -554.043 -698.717 -553.992 -697.243 -553.94 -695.77 L -554.154 -697.647 C -554.132 -696.938 -554.11 -696.229 -554.087 -695.52 L -554.184 -696.374 C -554.152 -695.303 -554.119 -694.233 -554.086 -693.164 L -554.086 -693.164 L -554.086 -693.164 L -554.086 -693.164 L -554.086 -693.164 L -554.229 -694.465 C -553.456 -666.319 -552.499 -638.573 -551.369 -611.219 L -558.046 -666.085 C -557.649 -652.845 -557.209 -639.744 -556.726 -626.778 L -562.103 -667.931 C -561.9 -662.489 -561.687 -657.069 -561.463 -651.672 L -561.463 -651.672 L -561.463 -651.672 L -565.677 -686.315 C -562.665 -598.696 -557.191 -515.095 -549.819 -435.344 L -549.819 -435.344 L -549.819 -435.344 L -581.671 -694.324 C -579.613 -627.849 -576.383 -564.903 -572.166 -505.217 L -572.166 -505.217 L -572.166 -505.217 L -572.166 -505.217 L -595.564 -703 C -593.974 -645.121 -591.632 -589.945 -588.629 -537.293 L -604.342 -672 L -604.342 -672 L -604.342 -672 L -604.342 -672 L -604.342 -672 L -604.342 -672 L -604.342 -672 C -593.143 -298.497 -552.991 -42.941 -508.86 146.561 L -529.207 -27.876 C -520.264 19.551 -510.787 63.755 -500.994 105.151 L -500.665 119.332 L -499.344 112.086 C -499.465 111.581 -499.585 111.076 -499.706 110.571 L -493.903 209.691 Q -496.178 203.282 -492.09 270.549 L -494.251 197.439 L -493.577 250.38 L -492.984 218.813 L -492.654 273.64 L -492.336 229.419 L -491.511 295.695 L -491.739 240.306 L -488.897 338 L -489.824 272.286 L -495.869 206.31 L -494.863 186.632 L -497.04 184.415 L -499.026 110.341 L -499.22 111.406 L -500.085 104.096 L -507.595 -24.198 C -501.536 5.021 -495.282 33.056 -488.897 60 L -513.831 -142.73 L -514.445 -151.682 Z  M -515.459 -158.532 C -516.16 -163.296 -516.854 -168.087 -517.542 -172.905 L -515.173 -153.641 L -515.459 -158.532 Z  M -508.213 -27.186 C -515.112 -60.615 -521.753 -95.589 -528.044 -132.247 L -501.245 94.287 L -502.12 56.507 L -505.638 33.318 L -508.213 -27.186 Z  M -27.233 233.062 C -25.577 240.271 -23.916 247.375 -22.25 254.393 L -27.233 233.062 L -27.233 233.062 L -27.233 233.062 L -27.233 233.062 L -27.233 233.062 L -27.233 233.062 L -27.233 233.062 L -27.233 233.062 L -27.233 233.062 L -27.233 233.062 L -27.233 233.062 L -27.233 233.062 L -27.233 233.062 L -27.233 233.062 L -27.233 233.062 L -27.233 233.062 L -27.233 233.062 L -27.233 233.062 L -27.233 233.062 L -27.233 233.062 L -27.233 233.062 L -27.233 233.062 L -27.233 233.062 L -27.233 233.062 L -27.233 233.062 L -27.233 233.062 L -27.233 233.062 L -27.233 233.062 L -27.233 233.062 L -27.233 233.062 L -27.233 233.062 Z  M 127.789 503.45 C 128.851 507.938 129.924 512.352 131 516.745 L 127.789 503.45 L 127.789 503.45 L 127.789 503.45 L 127.789 503.45 Z  M 109.181 52.249 C 110.08 56.863 110.988 61.425 111.899 65.973 L 109.181 52.249 L 109.181 52.249 L 109.181 52.249 L 109.181 52.249 L 109.181 52.249 L 109.181 52.249 L 109.181 52.249 L 109.181 52.249 L 109.181 52.249 L 109.181 52.249 L 109.181 52.249 L 109.181 52.249 L 109.181 52.249 L 109.181 52.249 L 109.181 52.249 L 109.181 52.249 L 109.181 52.249 L 109.181 52.249 L 109.181 52.249 L 109.181 52.249 L 109.181 52.249 L 109.181 52.249 L 109.181 52.249 L 109.181 52.249 L 109.181 52.249 L 109.181 52.249 L 109.181 52.249 L 109.181 52.249 L 109.181 52.249 L 109.181 52.249 L 109.181 52.249 L 109.181 52.249 L 109.181 52.249 L 109.181 52.249 L 109.181 52.249 L 109.181 52.249 L 109.181 52.249 L 109.181 52.249 L 109.181 52.249 L 109.181 52.249 L 109.181 52.249 L 109.181 52.249 L 109.181 52.249 Z  M -93.303 -232.208 C -86.36 -59.7 -60.867 95.896 -31.24 231.502 L -93.303 -232.208 L -93.303 -232.208 L -93.303 -232.208 L -93.303 -232.208 L -93.303 -232.208 L -93.303 -232.208 L -93.303 -232.208 L -93.303 -232.208 L -93.303 -232.208 L -93.303 -232.208 L -93.303 -232.208 L -93.303 -232.208 L -93.303 -232.208 L -93.303 -232.208 L -93.303 -232.208 L -93.303 -232.208 L -93.303 -232.208 L -93.303 -232.208 L -93.303 -232.208 L -93.303 -232.208 L -93.303 -232.208 L -93.303 -232.208 L -93.303 -232.208 L -93.303 -232.208 L -93.303 -232.208 L -93.303 -232.208 L -93.303 -232.208 L -93.303 -232.208 L -93.303 -232.208 L -93.303 -232.208 L -93.303 -232.208 L -93.303 -232.208 L -93.303 -232.208 L -93.303 -232.208 L -93.303 -232.208 L -93.303 -232.208 L -93.303 -232.208 L -93.303 -232.208 L -93.303 -232.208 L -93.303 -232.208 L -93.303 -232.208 L -93.303 -232.208 L -93.303 -232.208 L -93.303 -232.208 L -93.303 -232.208 L -93.303 -232.208 L -93.303 -232.208 L -93.303 -232.208 L -93.303 -232.208 L -93.303 -232.208 L -93.303 -232.208 L -93.303 -232.208 Z  M 112.993 68.352 C 114.998 76.862 117.013 85.295 119.038 93.63 L 112.993 68.352 L 112.993 68.352 L 112.993 68.352 L 112.993 68.352 L 112.993 68.352 L 112.993 68.352 L 112.993 68.352 L 112.993 68.352 L 112.993 68.352 L 112.993 68.352 L 112.993 68.352 L 112.993 68.352 L 112.993 68.352 L 112.993 68.352 L 112.993 68.352 L 112.993 68.352 L 112.993 68.352 L 112.993 68.352 L 112.993 68.352 L 112.993 68.352 L 112.993 68.352 L 112.993 68.352 L 112.993 68.352 L 112.993 68.352 L 112.993 68.352 L 112.993 68.352 L 112.993 68.352 L 112.993 68.352 L 112.993 68.352 L 112.993 68.352 L 112.993 68.352 L 112.993 68.352 L 112.993 68.352 Z  M -31.501 221.15 C -30.55 226.034 -29.59 230.86 -28.627 235.67 L -31.501 221.15 L -31.501 221.15 L -31.501 221.15 L -31.501 221.15 L -31.501 221.15 L -31.501 221.15 L -31.501 221.15 L -31.501 221.15 L -31.501 221.15 L -31.501 221.15 L -31.501 221.15 L -31.501 221.15 L -31.501 221.15 L -31.501 221.15 L -31.501 221.15 L -31.501 221.15 L -31.501 221.15 L -31.501 221.15 L -31.501 221.15 L -31.501 221.15 L -31.501 221.15 L -31.501 221.15 L -31.501 221.15 L -31.501 221.15 L -31.501 221.15 L -31.501 221.15 L -31.501 221.15 L -31.501 221.15 L -31.501 221.15 L -31.501 221.15 L -31.501 221.15 L -31.501 221.15 L -31.501 221.15 L -31.501 221.15 L -31.501 221.15 Z  M 108.875 64.605 C 109.34 66.852 109.806 69.091 110.274 71.322 C 110.296 71.429 110.319 71.536 110.341 71.646 C 111.094 75.231 111.849 78.799 112.606 82.357 L 108.875 64.605 L 108.875 64.605 L 108.875 64.605 L 108.875 64.605 L 108.875 64.605 L 108.875 64.605 L 108.875 64.605 L 108.875 64.605 L 108.875 64.605 L 108.875 64.605 L 108.875 64.605 L 108.875 64.605 L 108.875 64.605 L 108.875 64.605 L 108.875 64.605 L 108.875 64.605 L 108.875 64.605 L 108.875 64.605 L 108.875 64.605 L 108.875 64.605 L 108.875 64.605 L 108.875 64.605 L 108.875 64.605 L 108.875 64.605 L 108.875 64.605 L 108.875 64.605 L 108.875 64.605 L 108.875 64.605 L 108.875 64.605 L 108.875 64.605 L 108.875 64.605 L 108.875 64.605 L 108.875 64.605 L 108.875 64.605 L 108.875 64.605 L 108.875 64.605 L 108.875 64.605 Z  M 108.407 26.976 C 109.575 32.624 110.753 38.213 111.936 43.774 L 108.407 26.976 L 108.407 26.976 L 108.407 26.976 L 108.407 26.976 L 108.407 26.976 L 108.407 26.976 L 108.407 26.976 L 108.407 26.976 L 108.407 26.976 L 108.407 26.976 L 108.407 26.976 L 108.407 26.976 L 108.407 26.976 L 108.407 26.976 L 108.407 26.976 L 108.407 26.976 L 108.407 26.976 L 108.407 26.976 L 108.407 26.976 L 108.407 26.976 L 108.407 26.976 L 108.407 26.976 L 108.407 26.976 L 108.407 26.976 L 108.407 26.976 L 108.407 26.976 L 108.407 26.976 L 108.407 26.976 L 108.407 26.976 L 108.407 26.976 L 108.407 26.976 L 108.407 26.976 L 108.407 26.976 L 108.407 26.976 L 108.407 26.976 L 108.407 26.976 L 108.407 26.976 L 108.407 26.976 L 108.407 26.976 L 108.407 26.976 L 108.407 26.976 L 108.407 26.976 L 108.407 26.976 L 108.407 26.976 L 108.407 26.976 Z  M -31.24 231.502 L -31.24 231.502 C -30.559 234.673 -29.87 237.806 -29.179 240.928 L -31.24 231.502 L -31.24 231.502 L -31.24 231.502 L -31.24 231.502 L -31.24 231.502 L -31.24 231.502 L -31.24 231.502 L -31.24 231.502 L -31.24 231.502 L -31.24 231.502 L -31.24 231.502 L -31.24 231.502 L -31.24 231.502 L -31.24 231.502 L -31.24 231.502 L -31.24 231.502 L -31.24 231.502 L -31.24 231.502 L -31.24 231.502 L -31.24 231.502 L -31.24 231.502 L -31.24 231.502 L -31.24 231.502 L -31.24 231.502 L -31.24 231.502 L -31.24 231.502 L -31.24 231.502 L -31.24 231.502 L -31.24 231.502 L -31.24 231.502 L -31.24 231.502 L -31.24 231.502 L -31.24 231.502 L -31.24 231.502 L -31.24 231.502 L -31.24 231.502 L -31.24 231.502 L -31.24 231.502 L -31.24 231.502 L -31.24 231.502 L -31.24 231.502 L -31.24 231.502 L -31.24 231.502 L -31.24 231.502 L -31.24 231.502 L -31.24 231.502 L -31.24 231.502 L -31.24 231.502 L -31.24 231.502 L -31.24 231.502 L -31.24 231.502 Z  M 120.843 72.225 L 120.843 72.225 C 122.023 77.039 123.209 81.794 124.399 86.489 L 118.931 46.872 C 120.52 53.307 122.124 59.658 123.74 65.926 L 114.449 1.139 L 64.487 -347.26 L 63.807 -352 L 63.807 -352 L 63.807 -352 C 63.979 -347.713 64.163 -343.448 64.357 -339.206 L 64 -341.809 C 70.831 -172.099 95.686 -24.895 124.794 101 L 120.843 72.225 L 120.843 72.225 L 120.843 72.225 L 120.843 72.225 L 120.843 72.225 L 120.843 72.225 L 120.843 72.225 L 120.843 72.225 L 120.843 72.225 L 120.843 72.225 L 120.843 72.225 L 120.843 72.225 L 120.843 72.225 L 120.843 72.225 L 120.843 72.225 L 120.843 72.225 L 120.843 72.225 L 120.843 72.225 L 120.843 72.225 L 120.843 72.225 L 120.843 72.225 L 120.843 72.225 L 120.843 72.225 L 120.843 72.225 L 120.843 72.225 L 120.843 72.225 L 120.843 72.225 L 120.843 72.225 L 120.843 72.225 L 120.843 72.225 L 120.843 72.225 L 120.843 72.225 L 120.843 72.225 L 120.843 72.225 L 120.843 72.225 L 120.843 72.225 L 120.843 72.225 L 120.843 72.225 L 120.843 72.225 L 120.843 72.225 L 120.843 72.225 L 120.843 72.225 L 120.843 72.225 L 120.843 72.225 L 120.843 72.225 L 120.843 72.225 L 120.843 72.225 L 120.843 72.225 L 120.843 72.225 L 120.843 72.225 L 120.843 72.225 L 120.843 72.225 L 120.843 72.225 L 120.843 72.225 L 120.843 72.225 Z  M 115.384 81.48 C 116.27 85.353 117.163 89.183 118.061 92.992 L 115.384 81.48 L 115.384 81.48 L 115.384 81.48 L 115.384 81.48 L 115.384 81.48 L 115.384 81.48 L 115.384 81.48 L 115.384 81.48 L 115.384 81.48 L 115.384 81.48 L 115.384 81.48 L 115.384 81.48 L 115.384 81.48 L 115.384 81.48 L 115.384 81.48 L 115.384 81.48 L 115.384 81.48 L 115.384 81.48 L 115.384 81.48 L 115.384 81.48 L 115.384 81.48 L 115.384 81.48 L 115.384 81.48 L 115.384 81.48 L 115.384 81.48 L 115.384 81.48 L 115.384 81.48 L 115.384 81.48 L 115.384 81.48 L 115.384 81.48 L 115.384 81.48 L 115.384 81.48 L 115.384 81.48 L 115.384 81.48 L 115.384 81.48 L 115.384 81.48 L 115.384 81.48 L 115.384 81.48 L 115.384 81.48 L 115.384 81.48 L 115.384 81.48 L 115.384 81.48 L 115.384 81.48 L 115.384 81.48 L 115.384 81.48 L 115.384 81.48 L 115.384 81.48 L 115.384 81.48 L 115.384 81.48 L 115.384 81.48 L 115.384 81.48 L 115.384 81.48 L 115.384 81.48 L 115.384 81.48 Z  M 112.124 50.157 C 113.462 55.319 114.806 60.438 116.157 65.502 L 112.124 50.157 L 112.124 50.157 L 112.124 50.157 L 112.124 50.157 L 112.124 50.157 L 112.124 50.157 L 112.124 50.157 L 112.124 50.157 L 112.124 50.157 L 112.124 50.157 L 112.124 50.157 L 112.124 50.157 L 112.124 50.157 L 112.124 50.157 L 112.124 50.157 L 112.124 50.157 L 112.124 50.157 L 112.124 50.157 L 112.124 50.157 L 112.124 50.157 L 112.124 50.157 L 112.124 50.157 L 112.124 50.157 L 112.124 50.157 L 112.124 50.157 L 112.124 50.157 L 112.124 50.157 L 112.124 50.157 L 112.124 50.157 L 112.124 50.157 L 112.124 50.157 L 112.124 50.157 L 112.124 50.157 L 112.124 50.157 L 112.124 50.157 L 112.124 50.157 L 112.124 50.157 L 112.124 50.157 L 112.124 50.157 L 112.124 50.157 L 112.124 50.157 L 112.124 50.157 L 112.124 50.157 L 112.124 50.157 L 112.124 50.157 L 112.124 50.157 L 112.124 50.157 L 112.124 50.157 L 112.124 50.157 L 112.124 50.157 L 112.124 50.157 L 112.124 50.157 L 112.124 50.157 L 112.124 50.157 L 112.124 50.157 L 112.124 50.157 L 112.124 50.157 L 112.124 50.157 L 112.124 50.157 L 112.124 50.157 Z  M -480.534 -145.605 C -478.505 -136.502 -476.457 -127.507 -474.394 -118.617 L -544.09 -647.612 L -552.598 -712.189 L -552.625 -712.389 L -552.682 -712.824 L -552.729 -713.179 L -552.623 -712.35 L -552.597 -712.142 L -543.836 -643.264 L -480.534 -145.605 L -480.534 -145.605 L -480.534 -145.605 L -480.534 -145.605 L -480.534 -145.605 L -480.534 -145.605 L -480.534 -145.605 L -480.534 -145.605 L -480.534 -145.605 L -480.534 -145.605 L -480.534 -145.605 L -480.534 -145.605 L -480.534 -145.605 L -480.534 -145.605 L -480.534 -145.605 L -480.534 -145.605 L -480.534 -145.605 L -480.534 -145.605 L -480.534 -145.605 L -480.534 -145.605 L -480.534 -145.605 L -480.534 -145.605 L -480.534 -145.605 L -480.534 -145.605 L -480.534 -145.605 L -480.534 -145.605 L -480.534 -145.605 L -480.534 -145.605 L -480.534 -145.605 L -480.534 -145.605 L -480.534 -145.605 L -480.534 -145.605 L -480.534 -145.605 L -480.534 -145.605 Z  M 108.77 65.47 C 109.293 67.538 109.817 69.593 110.341 71.646 C 110.925 73.906 111.509 76.163 112.095 78.405 L 110.274 71.322 L 108.77 65.47 L 108.77 65.47 L 108.77 65.47 L 108.77 65.47 L 108.77 65.47 L 108.77 65.47 L 108.77 65.47 L 108.77 65.47 L 108.77 65.47 L 108.77 65.47 L 108.77 65.47 L 108.77 65.47 L 108.77 65.47 L 108.77 65.47 L 108.77 65.47 L 108.77 65.47 L 108.77 65.47 L 108.77 65.47 L 108.77 65.47 L 108.77 65.47 L 108.77 65.47 L 108.77 65.47 L 108.77 65.47 L 108.77 65.47 L 108.77 65.47 L 108.77 65.47 L 108.77 65.47 L 108.77 65.47 L 108.77 65.47 L 108.77 65.47 L 108.77 65.47 L 108.77 65.47 L 108.77 65.47 L 108.77 65.47 L 108.77 65.47 L 108.77 65.47 L 108.77 65.47 L 108.77 65.47 L 108.77 65.47 L 108.77 65.47 L 108.77 65.47 L 108.77 65.47 L 108.77 65.47 L 108.77 65.47 L 108.77 65.47 L 108.77 65.47 L 108.77 65.47 L 108.77 65.47 L 108.77 65.47 L 108.77 65.47 L 108.77 65.47 L 108.77 65.47 L 108.77 65.47 L 108.77 65.47 L 108.77 65.47 L 108.77 65.47 L 108.77 65.47 Z  M 21.741 648.633 L 21.47 644.276 C 21.359 644.582 21.247 644.887 21.135 645.193 L 21.741 648.633 L 21.741 648.633 Z  M -12.725 368.978 C -11.559 374.078 -10.382 379.117 -9.201 384.128 L -12.725 368.978 L -12.725 368.978 L -12.725 368.978 L -12.725 368.978 L -12.725 368.978 L -12.725 368.978 L -12.725 368.978 L -12.725 368.978 L -12.725 368.978 L -12.725 368.978 L -12.725 368.978 L -12.725 368.978 L -12.725 368.978 L -12.725 368.978 L -12.725 368.978 L -12.725 368.978 L -12.725 368.978 L -12.725 368.978 L -12.725 368.978 L -12.725 368.978 L -12.725 368.978 L -12.725 368.978 L -12.725 368.978 L -12.725 368.978 L -12.725 368.978 L -12.725 368.978 L -12.725 368.978 L -12.725 368.978 L -12.725 368.978 Z  M -11.993 393.367 C -11.096 397.553 -10.19 401.685 -9.28 405.803 L -11.993 393.367 L -11.993 393.367 L -11.993 393.367 L -11.993 393.367 L -11.993 393.367 L -11.993 393.367 L -11.993 393.367 L -11.993 393.367 L -11.993 393.367 L -11.993 393.367 L -11.993 393.367 L -11.993 393.367 L -11.993 393.367 L -11.993 393.367 L -11.993 393.367 L -11.993 393.367 L -11.993 393.367 L -11.993 393.367 L -11.993 393.367 L -11.993 393.367 L -11.993 393.367 L -11.993 393.367 L -11.993 393.367 L -11.993 393.367 L -11.993 393.367 L -11.993 393.367 L -11.993 393.367 Z  M -11.488 355.623 C -9.65 362.596 -7.804 369.498 -5.948 376.311 L -11.488 355.623 L -11.488 355.623 L -11.488 355.623 L -11.488 355.623 L -11.488 355.623 L -11.488 355.623 L -11.488 355.623 L -11.488 355.623 L -11.488 355.623 L -11.488 355.623 L -11.488 355.623 L -11.488 355.623 L -11.488 355.623 L -11.488 355.623 L -11.488 355.623 L -11.488 355.623 L -11.488 355.623 L -11.488 355.623 L -11.488 355.623 L -11.488 355.623 L -11.488 355.623 L -11.488 355.623 L -11.488 355.623 L -11.488 355.623 L -11.488 355.623 Z  M -10.661 386.75 C -9.143 392.671 -7.621 398.496 -6.095 404.243 L -10.661 386.75 L -10.661 386.75 L -10.661 386.75 L -10.661 386.75 L -10.661 386.75 L -10.661 386.75 L -10.661 386.75 L -10.661 386.75 L -10.661 386.75 L -10.661 386.75 L -10.661 386.75 L -10.661 386.75 L -10.661 386.75 L -10.661 386.75 L -10.661 386.75 L -10.661 386.75 L -10.661 386.75 L -10.661 386.75 L -10.661 386.75 L -10.661 386.75 L -10.661 386.75 L -10.661 386.75 L -10.661 386.75 Z  M -9.906 415.149 C -8.692 420.466 -7.466 425.71 -6.235 430.921 L -9.906 415.149 L -9.906 415.149 L -9.906 415.149 L -9.906 415.149 L -9.906 415.149 L -9.906 415.149 L -9.906 415.149 L -9.906 415.149 L -9.906 415.149 L -9.906 415.149 L -9.906 415.149 L -9.906 415.149 L -9.906 415.149 L -9.906 415.149 L -9.906 415.149 L -9.906 415.149 L -9.906 415.149 L -9.906 415.149 L -9.906 415.149 L -9.906 415.149 L -9.906 415.149 Z  M 135.095 381.288 C 136.029 385.672 136.973 389.992 137.92 394.295 L 135.095 381.288 L 135.095 381.288 L 135.095 381.288 L 135.095 381.288 L 135.095 381.288 L 135.095 381.288 L 135.095 381.288 L 135.095 381.288 L 135.095 381.288 L 135.095 381.288 L 135.095 381.288 L 135.095 381.288 L 135.095 381.288 L 135.095 381.288 L 135.095 381.288 L 135.095 381.288 L 135.095 381.288 L 135.095 381.288 L 135.095 381.288 Z  M -9.015 380.327 C -7.118 387.502 -5.212 394.601 -3.295 401.604 L -9.015 380.327 L -9.015 380.327 L -9.015 380.327 L -9.015 380.327 L -9.015 380.327 L -9.015 380.327 L -9.015 380.327 L -9.015 380.327 L -9.015 380.327 L -9.015 380.327 L -9.015 380.327 L -9.015 380.327 L -9.015 380.327 L -9.015 380.327 L -9.015 380.327 L -9.015 380.327 L -9.015 380.327 Z  M -8.177 413.069 C -6.611 419.165 -5.039 425.159 -3.463 431.071 L -8.177 413.069 L -8.177 413.069 L -8.177 413.069 L -8.177 413.069 L -8.177 413.069 L -8.177 413.069 L -8.177 413.069 L -8.177 413.069 L -8.177 413.069 L -8.177 413.069 L -8.177 413.069 L -8.177 413.069 L -8.177 413.069 L -8.177 413.069 L -8.177 413.069 Z  M -658.948 -572 C -648.796 -233.417 -608.996 39.025 -562.103 263.222 L -658.948 -572 L -658.948 -572 L -658.948 -572 L -658.948 -572 L -658.948 -572 L -658.948 -572 L -658.948 -572 L -658.948 -572 L -658.948 -572 L -658.948 -572 L -658.948 -572 L -658.948 -572 L -658.948 -572 L -658.948 -572 Z  M 136.869 382.017 C 138.123 387.506 139.388 392.916 140.658 398.291 L 136.869 382.017 L 136.869 382.017 L 136.869 382.017 L 136.869 382.017 L 136.869 382.017 L 136.869 382.017 L 136.869 382.017 L 136.869 382.017 L 136.869 382.017 L 136.869 382.017 L 136.869 382.017 L 136.869 382.017 L 136.869 382.017 Z  M 137.597 410.481 C 137.753 411.213 137.909 411.942 138.066 412.665 C 138.875 416.454 139.693 420.194 140.512 423.922 L 138.197 413.248 L 137.597 410.481 L 137.597 410.481 L 137.597 410.481 L 137.597 410.481 L 137.597 410.481 L 137.597 410.481 L 137.597 410.481 L 137.597 410.481 L 137.597 410.481 L 137.597 410.481 L 137.597 410.481 Z  M -8.105 405.231 C -6.177 412.455 -4.24 419.595 -2.291 426.63 L -8.105 405.231 L -8.105 405.231 L -8.105 405.231 L -8.105 405.231 L -8.105 405.231 L -8.105 405.231 L -8.105 405.231 L -8.105 405.231 L -8.105 405.231 Z  M 136.983 379.265 C 138.575 385.415 140.172 391.454 141.774 397.403 L 136.983 379.265 L 136.983 379.265 L 136.983 379.265 L 136.983 379.265 L 136.983 379.265 L 136.983 379.265 L 136.983 379.265 L 136.983 379.265 Z  M 137.718 411.157 C 137.834 411.662 137.949 412.167 138.066 412.665 C 138.109 412.863 138.153 413.056 138.197 413.248 C 139.313 418.108 140.438 422.906 141.567 427.673 L 137.718 411.157 L 137.718 411.157 L 137.718 411.157 L 137.718 411.157 L 137.718 411.157 L 137.718 411.157 Z  M 47.011 792.026 C 51.198 763.799 52.462 731.605 51.583 695.641 C 51.863 694.759 52.14 693.877 52.411 692.992 L 52.411 692.992 L 52.411 692.992 L 52.411 692.992 L 52.411 692.992 L 52.411 692.992 L 52.411 692.992 L 52.411 692.992 L 52.411 692.992 L 52.411 692.992 L 52.411 692.992 L 52.411 692.992 L 52.411 692.992 L 52.411 692.992 L 52.411 692.992 L 52.411 692.992 L 52.411 692.992 L 52.411 692.992 L 52.411 692.992 L 52.411 692.992 L 52.411 692.992 L 52.411 692.992 L 52.411 692.992 L 52.411 692.992 L 52.411 692.992 L 52.411 692.992 L 52.411 692.992 L 52.411 692.992 L 52.411 692.992 L 52.411 692.992 L 52.411 692.992 L 52.411 692.992 L 52.411 692.992 L 52.411 692.992 L 52.411 692.992 L 52.411 692.992 L 52.411 692.992 L 52.411 692.992 L 52.411 692.992 L 52.411 692.992 L 52.411 692.992 L 52.411 692.992 L 52.411 692.992 L 52.411 692.992 L 52.411 692.992 L 52.411 692.992 L 52.411 692.992 L 52.411 692.992 L 52.411 692.992 L 52.411 692.992 L 52.411 692.992 C 52.937 691.3 53.442 689.6 53.928 687.893 C 81.914 589.622 45.15 466.687 8.65 288.941 L 8.65 288.941 C -0.801 209.482 -9.958 123.71 -16.616 32.162 L -6.968 187.227 L -4.973 219.293 C -13.174 174.825 -20.924 127.214 -27.413 76.085 L -27.413 76.085 L -27.413 76.085 L -27.413 76.085 L -9.549 225.053 C -13.592 200.681 -17.534 175.14 -21.204 148.3 C -21.787 142.075 -22.362 135.83 -22.924 129.552 L -21.618 145.28 C -23.363 132.416 -25.044 119.256 -26.643 105.787 L 18.982 632.98 L -59.13 189.73 L 19.011 633.314 L 20.246 647.576 L 20.246 647.576 C 20.539 646.801 20.828 646.026 21.114 645.25 L 21.758 648.906 L 26.107 718.813 L -65.881 246.146 L 26.914 731.78 L 31.845 811.022 L -90 261.66 L 32.379 819.607 L 33.938 844.66 C 34.784 842.425 35.597 840.15 36.377 837.835 L 150.772 1359.382 L 43.843 809.943 C 45.035 804.2 46.082 798.269 46.992 792.152 L 143.909 1342.315 L -66.94 -303.213 Q -34.171 -35.686 -6.968 187.227 Q 28.107 474.647 53.928 687.893 Q 118.694 1222.764 125.241 1290.995 L -12.315 760.711 L 135.763 1325.329 L -70.198 494.884 L 153.336 1359.221 L -85.044 371.255 L 154.195 1362.666 L 37.223 835.27 C 39.323 828.76 41.171 821.944 42.783 814.827 L 148.865 1370 L 47.011 792.026 L 47.011 792.026 Z " fill-rule="evenodd" fill="none" vector-effect="non-scaling-stroke" stroke-width="0.2" stroke="rgb(191,191,191)" stroke-linejoin="miter" stroke-linecap="square" stroke-miterlimit="3"/></g><path d="M 31.309 99.349 L 57.566 99.349 C 63.902 99.349 69.047 104.493 69.047 110.83 L 69.047 175.66 C 69.047 181.996 63.902 187.141 57.566 187.141 L 31.309 187.141 C 24.973 187.141 19.828 181.996 19.828 175.66 L 19.828 110.83 C 19.828 104.493 24.973 99.349 31.309 99.349 Z" style="stroke:none;fill:#0B0B0B;stroke-miterlimit:10;opacity:0.77;"/><g style="isolation:isolate"><line x1="-0.25" y1="205.474" x2="90" y2="206.224" vector-effect="non-scaling-stroke" stroke-width="0.2" stroke="rgb(191,191,191)" stroke-linejoin="miter" stroke-linecap="square" stroke-miterlimit="3"/></g><g style="isolation:isolate"><g transform="matrix(1,0,0,1,9.375,18.5)"><text transform="matrix(1,0,0,1,0,19.992)" style="font-family:&quot;Champagne &amp; Limousines&quot;;font-weight:400;font-size:24px;font-style:normal;fill:#bfbfbf;stroke:none;">Detuner</text></g><g transform="matrix(1,0,0,1,55.5,143.123)"><text transform="matrix(1,0,0,1,1.422,7.497)" style="font-family:&quot;Champagne &amp; Limousines&quot;;font-weight:400;font-size:9px;font-style:normal;fill:#bfbfbf;stroke:none;">cv</text></g><g transform="matrix(1,0,0,1,4.167,346)"><text transform="matrix(1,0,0,1,8.492,11.662)" style="font-family:&quot;Champagne &amp; Limousines&quot;;font-weight:400;font-size:14px;font-style:normal;fill:#bfbfbf;stroke:none;">aP Modules</text></g><g transform="matrix(1,0,0,1,4.875,74.565)"><text transform="matrix(1,0,0,1,20.982,16.66)" style="font-family:&quot;Champagne &amp; Limousines&quot;;font-weight:400;font-size:20px;font-style:normal;fill:#bfbfbf;stroke:none;">Input</text></g><g transform="matrix(1,0,0,1,22.562,168.44)"><text transform="matrix(1,0,0,1,0.658,12.495)" style="font-family:&quot;Champagne &amp; Limousines&quot;;font-weight:400;font-size:15px;font-style:normal;fill:#bfbfbf;stroke:none;">amount</text></g><g transform="matrix(1,0,0,1,25.875,320.565)"><text transform="matrix(1,0,0,1,0.77,12.495)" style="font-family:&quot;Champagne &amp; Limousines&quot;;font-weight:400;font-size:15px;font-style:normal;fill:#bfbfbf;stroke:none;">output</text></g></g><g style="isolation:isolate"><g><mask id="_mask_z4w1a39PiNfzfuiQ3JeY4RSDfc2x8jDM"><circle vector-effect="non-scaling-stroke" cx="44.87499999999999" cy="270.18215223097127" r="11.848818897637791" fill="white" stroke="none"/></mask><circle vector-effect="non-scaling-stroke" cx="44.87499999999999" cy="270.18215223097127" r="11.848818897637791" fill="rgb(187,187,187)" mask="url(#_mask_z4w1a39PiNfzfuiQ3JeY4RSDfc2x8jDM)" stroke-width="1" stroke="rgb(30,30,30)" stroke-linejoin="round" stroke-linecap="round" stroke-miterlimit="3"/><mask id="_mask_WHOZtswIWb6s0ybtWviw40fvGS4xmBeH"><circle vector-effect="non-scaling-stroke" cx="44.87500000000001" cy="270.182152230971" r="10.814074467458106" fill="white" stroke="none"/></mask><circle vector-effect="non-scaling-stroke" cx="44.87500000000001" cy="270.182152230971" r="10.814074467458106" fill="rgb(240,240,240)" mask="url(#_mask_WHOZtswIWb6s0ybtWviw40fvGS4xmBeH)" stroke-width="0.5" stroke="rgb(187,187,187)" stroke-linejoin="round" stroke-linecap="round" stroke-miterlimit="3"/><clipPath id="_clipPath_K29LEdzXD9NjkZzoeyCRtejnaqsv8Xz9"><circle vector-effect="non-scaling-stroke" cx="44.87500000000001" cy="270.182152230971" r="10.814074467458106" fill="rgb(240,240,240)" mask="url(#_mask_WHOZtswIWb6s0ybtWviw40fvGS4xmBeH)" stroke-width="0.5" stroke="rgb(187,187,187)" stroke-linejoin="round" stroke-linecap="round" stroke-miterlimit="3"/></clipPath><g clip-path="url(#_clipPath_K29LEdzXD9NjkZzoeyCRtejnaqsv8Xz9)"><circle vector-effect="non-scaling-stroke" cx="44.87500000000001" cy="270.182152230971" r="8.877014777435917" fill="rgb(240,240,240)"/></g><mask id="_mask_whQt8chcO8rlJ6MMxiyrm2HeIFXWQFb9"><circle vector-effect="non-scaling-stroke" cx="44.87500000000003" cy="270.18215223097104" r="7.892639777435917" fill="white" stroke="none"/></mask><circle vector-effect="non-scaling-stroke" cx="44.87500000000003" cy="270.18215223097104" r="7.892639777435917" fill="rgb(247,227,47)" mask="url(#_mask_whQt8chcO8rlJ6MMxiyrm2HeIFXWQFb9)" stroke-width="1" stroke="rgb(15,15,15)" stroke-linejoin="round" stroke-linecap="round" stroke-miterlimit="3"/><mask id="_mask_b1HZLZqWGozWIiu7LXXuTXuW4LGvYwCm"><circle vector-effect="non-scaling-stroke" cx="44.875000000000014" cy="270.182152230971" r="5.2973199162770115" fill="white" stroke="none"/></mask><circle vector-effect="non-scaling-stroke" cx="44.875000000000014" cy="270.182152230971" r="5.2973199162770115" fill="rgb(0,0,0)" mask="url(#_mask_b1HZLZqWGozWIiu7LXXuTXuW4LGvYwCm)" stroke-width="1" stroke="rgb(15,15,15)" stroke-linejoin="round" stroke-linecap="round" stroke-miterlimit="3"/></g><g><mask id="_mask_zdEqwV0GgIHQQu9hDVGQuzRMENlDdYEF"><circle vector-effect="non-scaling-stroke" cx="44.87499999999999" cy="238.0154855643047" r="11.848818897637791" fill="white" stroke="none"/></mask><circle vector-effect="non-scaling-stroke" cx="44.87499999999999" cy="238.0154855643047" r="11.848818897637791" fill="rgb(187,187,187)" mask="url(#_mask_zdEqwV0GgIHQQu9hDVGQuzRMENlDdYEF)" stroke-width="1" stroke="rgb(30,30,30)" stroke-linejoin="round" stroke-linecap="round" stroke-miterlimit="3"/><mask id="_mask_yWARuXXbKaQIb6tHwYiST5S1iVapT8BI"><circle vector-effect="non-scaling-stroke" cx="44.875000000000036" cy="238.0154855643047" r="10.814074467458106" fill="white" stroke="none"/></mask><circle vector-effect="non-scaling-stroke" cx="44.875000000000036" cy="238.0154855643047" r="10.814074467458106" fill="rgb(240,240,240)" mask="url(#_mask_yWARuXXbKaQIb6tHwYiST5S1iVapT8BI)" stroke-width="0.5" stroke="rgb(187,187,187)" stroke-linejoin="round" stroke-linecap="round" stroke-miterlimit="3"/><clipPath id="_clipPath_FauQK55tXhBEN1cAVRjY6mrxBHWhwuuk"><circle vector-effect="non-scaling-stroke" cx="44.875000000000036" cy="238.0154855643047" r="10.814074467458106" fill="rgb(240,240,240)" mask="url(#_mask_yWARuXXbKaQIb6tHwYiST5S1iVapT8BI)" stroke-width="0.5" stroke="rgb(187,187,187)" stroke-linejoin="round" stroke-linecap="round" stroke-miterlimit="3"/></clipPath><g clip-path="url(#_clipPath_FauQK55tXhBEN1cAVRjY6mrxBHWhwuuk)"><circle vector-effect="non-scaling-stroke" cx="44.875000000000036" cy="238.0154855643047" r="8.877014777435917" fill="rgb(240,240,240)"/></g><mask id="_mask_kKYBO4rjP1B5OzRPDjENv4vjfvybXevm"><circle vector-effect="non-scaling-stroke" cx="44.87500000000005" cy="238.0154855643045" r="7.892639777435917" fill="white" stroke="none"/></mask><circle vector-effect="non-scaling-stroke" cx="44.87500000000005" cy="238.0154855643045" r="7.892639777435917" fill="rgb(189,120,249)" mask="url(#_mask_kKYBO4rjP1B5OzRPDjENv4vjfvybXevm)" stroke-width="1" stroke="rgb(15,15,15)" stroke-linejoin="round" stroke-linecap="round" stroke-miterlimit="3"/><mask id="_mask_JwhINDUI2PafKcFIIgUlpSIhgMJt0haS"><circle vector-effect="non-scaling-stroke" cx="44.875000000000036" cy="238.01548556430453" r="5.2973199162770115" fill="white" stroke="none"/></mask><circle vector-effect="non-scaling-stroke" cx="44.875000000000036" cy="238.01548556430453" r="5.2973199162770115" fill="rgb(0,0,0)" mask="url(#_mask_JwhINDUI2PafKcFIIgUlpSIhgMJt0haS)" stroke-width="1" stroke="rgb(15,15,15)" stroke-linejoin="round" stroke-linecap="round" stroke-miterlimit="3"/></g><g><mask id="_mask_DxB7gDGhLluyswJfzDTp5ZSH4Nl4eYWx"><circle vector-effect="non-scaling-stroke" cx="44.87499999999999" cy="158.34881889763804" r="11.848818897637791" fill="white" stroke="none"/></mask><circle vector-effect="non-scaling-stroke" cx="44.87499999999999" cy="158.34881889763804" r="11.848818897637791" fill="rgb(187,187,187)" mask="url(#_mask_DxB7gDGhLluyswJfzDTp5ZSH4Nl4eYWx)" stroke-width="1" stroke="rgb(30,30,30)" stroke-linejoin="round" stroke-linecap="round" stroke-miterlimit="3"/><mask id="_mask_gFjMLvSuO6JxH3D7JxWY8gEhpJwVVsmX"><circle vector-effect="non-scaling-stroke" cx="44.875000000000064" cy="158.3488188976378" r="10.814074467458106" fill="white" stroke="none"/></mask><circle vector-effect="non-scaling-stroke" cx="44.875000000000064" cy="158.3488188976378" r="10.814074467458106" fill="rgb(240,240,240)" mask="url(#_mask_gFjMLvSuO6JxH3D7JxWY8gEhpJwVVsmX)" stroke-width="0.5" stroke="rgb(187,187,187)" stroke-linejoin="round" stroke-linecap="round" stroke-miterlimit="3"/><clipPath id="_clipPath_4sqYSxwOxyAWpw2pZhEg5rx3glfxJrHw"><circle vector-effect="non-scaling-stroke" cx="44.875000000000064" cy="158.3488188976378" r="10.814074467458106" fill="rgb(240,240,240)" mask="url(#_mask_gFjMLvSuO6JxH3D7JxWY8gEhpJwVVsmX)" stroke-width="0.5" stroke="rgb(187,187,187)" stroke-linejoin="round" stroke-linecap="round" stroke-miterlimit="3"/></clipPath><g clip-path="url(#_clipPath_4sqYSxwOxyAWpw2pZhEg5rx3glfxJrHw)"><circle vector-effect="non-scaling-stroke" cx="44.875000000000064" cy="158.3488188976378" r="8.877014777435917" fill="rgb(240,240,240)"/></g><mask id="_mask_PKsm5AzNRGdvJP8yW8stSEQcgXR0Bol4"><circle vector-effect="non-scaling-stroke" cx="44.875000000000085" cy="158.34881889763787" r="7.892639777435917" fill="white" stroke="none"/></mask><circle vector-effect="non-scaling-stroke" cx="44.875000000000085" cy="158.34881889763787" r="7.892639777435917" fill="rgb(247,184,47)" mask="url(#_mask_PKsm5AzNRGdvJP8yW8stSEQcgXR0Bol4)" stroke-width="1" stroke="rgb(15,15,15)" stroke-linejoin="round" stroke-linecap="round" stroke-miterlimit="3"/><mask id="_mask_HHv4sOGULiREoOdn2KfFnqveGMVZ5fqG"><circle vector-effect="non-scaling-stroke" cx="44.87500000000005" cy="158.34881889763778" r="5.2973199162770115" fill="white" stroke="none"/></mask><circle vector-effect="non-scaling-stroke" cx="44.87500000000005" cy="158.34881889763778" r="5.2973199162770115" fill="rgb(0,0,0)" mask="url(#_mask_HHv4sOGULiREoOdn2KfFnqveGMVZ5fqG)" stroke-width="1" stroke="rgb(15,15,15)" stroke-linejoin="round" stroke-linecap="round" stroke-miterlimit="3"/></g><g><mask id="_mask_1BcoGB4pVxtGcNohde9Bj6W1i6AzUilD"><circle vector-effect="non-scaling-stroke" cx="44.875" cy="64.47381889763778" r="11.848818897637798" fill="white" stroke="none"/></mask><circle vector-effect="non-scaling-stroke" cx="44.875" cy="64.47381889763778" r="11.848818897637798" fill="rgb(187,187,187)" mask="url(#_mask_1BcoGB4pVxtGcNohde9Bj6W1i6AzUilD)" stroke-width="1" stroke="rgb(30,30,30)" stroke-linejoin="round" stroke-linecap="round" stroke-miterlimit="3"/><mask id="_mask_26rCCWfunxrvJvKIB36C8Ag5HdInQMKj"><circle vector-effect="non-scaling-stroke" cx="44.87500000000004" cy="64.47381889763781" r="10.814074467458113" fill="white" stroke="none"/></mask><circle vector-effect="non-scaling-stroke" cx="44.87500000000004" cy="64.47381889763781" r="10.814074467458113" fill="rgb(240,240,240)" mask="url(#_mask_26rCCWfunxrvJvKIB36C8Ag5HdInQMKj)" stroke-width="0.5" stroke="rgb(187,187,187)" stroke-linejoin="round" stroke-linecap="round" stroke-miterlimit="3"/><clipPath id="_clipPath_4lR3lQxhEkrSKBesc72LAOkApqq98PPv"><circle vector-effect="non-scaling-stroke" cx="44.87500000000004" cy="64.47381889763781" r="10.814074467458113" fill="rgb(240,240,240)" mask="url(#_mask_26rCCWfunxrvJvKIB36C8Ag5HdInQMKj)" stroke-width="0.5" stroke="rgb(187,187,187)" stroke-linejoin="round" stroke-linecap="round" stroke-miterlimit="3"/></clipPath><g clip-path="url(#_clipPath_4lR3lQxhEkrSKBesc72LAOkApqq98PPv)"><circle vector-effect="non-scaling-stroke" cx="44.87500000000004" cy="64.47381889763781" r="8.877014777435917" fill="rgb(240,240,240)"/></g><mask id="_mask_05c6OVPqXrQjtePePBEFClHetHjLmzJH"><circle vector-effect="non-scaling-stroke" cx="44.87500000000006" cy="64.47381889763778" r="7.892639777435917" fill="white" stroke="none"/></mask><circle vector-effect="non-scaling-stroke" cx="44.87500000000006" cy="64.47381889763778" r="7.892639777435917" fill="rgb(255,78,78)" mask="url(#_mask_05c6OVPqXrQjtePePBEFClHetHjLmzJH)" stroke-width="1" stroke="rgb(15,15,15)" stroke-linejoin="round" stroke-linecap="round" stroke-miterlimit="3"/><mask id="_mask_1AcFWNLV8LNfgAhhG2qu3BwI69MUUAU7"><circle vector-effect="non-scaling-stroke" cx="44.87500000000004" cy="64.47381889763778" r="5.2973199162770115" fill="white" stroke="none"/></mask><circle vector-effect="non-scaling-stroke" cx="44.87500000000004" cy="64.47381889763778" r="5.2973199162770115" fill="rgb(0,0,0)" mask="url(#_mask_1AcFWNLV8LNfgAhhG2qu3BwI69MUUAU7)" stroke-width="1" stroke="rgb(15,15,15)" stroke-linejoin="round" stroke-linecap="round" stroke-miterlimit="3"/></g><g><mask id="_mask_eAqdvFcUBZRQpZW1bouAOfkqdgy9wDkh"><circle vector-effect="non-scaling-stroke" cx="44.87499999999999" cy="205.84881889763815" r="11.848818897637791" fill="white" stroke="none"/></mask><circle vector-effect="non-scaling-stroke" cx="44.87499999999999" cy="205.84881889763815" r="11.848818897637791" fill="rgb(187,187,187)" mask="url(#_mask_eAqdvFcUBZRQpZW1bouAOfkqdgy9wDkh)" stroke-width="1" stroke="rgb(30,30,30)" stroke-linejoin="round" stroke-linecap="round" stroke-miterlimit="3"/><mask id="_mask_rJg90BmM8Z88DblTMKziE35D0tLnVJYd"><circle vector-effect="non-scaling-stroke" cx="44.87500000000007" cy="205.84881889763807" r="10.814074467458113" fill="white" stroke="none"/></mask><circle vector-effect="non-scaling-stroke" cx="44.87500000000007" cy="205.84881889763807" r="10.814074467458113" fill="rgb(240,240,240)" mask="url(#_mask_rJg90BmM8Z88DblTMKziE35D0tLnVJYd)" stroke-width="0.5" stroke="rgb(187,187,187)" stroke-linejoin="round" stroke-linecap="round" stroke-miterlimit="3"/><clipPath id="_clipPath_ya4FaWfG6FsIktr2aWRxXXLaFpgVC2CB"><circle vector-effect="non-scaling-stroke" cx="44.87500000000007" cy="205.84881889763807" r="10.814074467458113" fill="rgb(240,240,240)" mask="url(#_mask_rJg90BmM8Z88DblTMKziE35D0tLnVJYd)" stroke-width="0.5" stroke="rgb(187,187,187)" stroke-linejoin="round" stroke-linecap="round" stroke-miterlimit="3"/></clipPath><g clip-path="url(#_clipPath_ya4FaWfG6FsIktr2aWRxXXLaFpgVC2CB)"><circle vector-effect="non-scaling-stroke" cx="44.87500000000007" cy="205.84881889763807" r="8.877014777435917" fill="rgb(240,240,240)"/></g><mask id="_mask_uba5Yxq7PKC1vseVS1bbCsKR4HZoWJyr"><circle vector-effect="non-scaling-stroke" cx="44.87500000000007" cy="205.84881889763784" r="7.892639777435917" fill="white" stroke="none"/></mask><circle vector-effect="non-scaling-stroke" cx="44.87500000000007" cy="205.84881889763784" r="7.892639777435917" fill="rgb(173,255,50)" mask="url(#_mask_uba5Yxq7PKC1vseVS1bbCsKR4HZoWJyr)" stroke-width="1" stroke="rgb(15,15,15)" stroke-linejoin="round" stroke-linecap="round" stroke-miterlimit="3"/><mask id="_mask_9xSSK1661AGjSRc5V2brglCawtTwhZvf"><circle vector-effect="non-scaling-stroke" cx="44.87500000000005" cy="205.8488188976378" r="5.2973199162770115" fill="white" stroke="none"/></mask><circle vector-effect="non-scaling-stroke" cx="44.87500000000005" cy="205.8488188976378" r="5.2973199162770115" fill="rgb(0,0,0)" mask="url(#_mask_9xSSK1661AGjSRc5V2brglCawtTwhZvf)" stroke-width="1" stroke="rgb(15,15,15)" stroke-linejoin="round" stroke-linecap="round" stroke-miterlimit="3"/></g><g><mask id="_mask_6CFN2VwT6iQt3ixJSCISDNe6VQUtwfGv"><circle vector-effect="non-scaling-stroke" cx="44.87499999999999" cy="302.3488188976378" r="11.848818897637791" fill="white" stroke="none"/></mask><circle vector-effect="non-scaling-stroke" cx="44.87499999999999" cy="302.3488188976378" r="11.848818897637791" fill="rgb(187,187,187)" mask="url(#_mask_6CFN2VwT6iQt3ixJSCISDNe6VQUtwfGv)" stroke-width="1" stroke="rgb(30,30,30)" stroke-linejoin="round" stroke-linecap="round" stroke-miterlimit="3"/><mask id="_mask_odggBqyLRf2QkuULaaLTG16lzSPMS4Pd"><circle vector-effect="non-scaling-stroke" cx="44.87500000000009" cy="302.3488188976378" r="10.814074467458106" fill="white" stroke="none"/></mask><circle vector-effect="non-scaling-stroke" cx="44.87500000000009" cy="302.3488188976378" r="10.814074467458106" fill="rgb(240,240,240)" mask="url(#_mask_odggBqyLRf2QkuULaaLTG16lzSPMS4Pd)" stroke-width="0.5" stroke="rgb(187,187,187)" stroke-linejoin="round" stroke-linecap="round" stroke-miterlimit="3"/><clipPath id="_clipPath_LgDIpcWGyHaLEs9QglWnZSARJmQxGnAR"><circle vector-effect="non-scaling-stroke" cx="44.87500000000009" cy="302.3488188976378" r="10.814074467458106" fill="rgb(240,240,240)" mask="url(#_mask_odggBqyLRf2QkuULaaLTG16lzSPMS4Pd)" stroke-width="0.5" stroke="rgb(187,187,187)" stroke-linejoin="round" stroke-linecap="round" stroke-miterlimit="3"/></clipPath><g clip-path="url(#_clipPath_LgDIpcWGyHaLEs9QglWnZSARJmQxGnAR)"><circle vector-effect="non-scaling-stroke" cx="44.87500000000009" cy="302.3488188976378" r="8.877014777435917" fill="rgb(240,240,240)"/></g><mask id="_mask_iVlud6fW3q7Hxin7GdWsXaOh1OwGXl71"><circle vector-effect="non-scaling-stroke" cx="44.87500000000009" cy="302.3488188976377" r="7.892639777435917" fill="white" stroke="none"/></mask><circle vector-effect="non-scaling-stroke" cx="44.87500000000009" cy="302.3488188976377" r="7.892639777435917" fill="rgb(72,179,255)" mask="url(#_mask_iVlud6fW3q7Hxin7GdWsXaOh1OwGXl71)" stroke-width="1" stroke="rgb(15,15,15)" stroke-linejoin="round" stroke-linecap="round" stroke-miterlimit="3"/><mask id="_mask_Mg3u9jct7KrWPyk9F8g1cGE4bgpIxjpQ"><circle vector-effect="non-scaling-stroke" cx="44.87500000000008" cy="302.3488188976378" r="5.2973199162770115" fill="white" stroke="none"/></mask><circle vector-effect="non-scaling-stroke" cx="44.87500000000008" cy="302.3488188976378" r="5.2973199162770115" fill="rgb(0,0,0)" mask="url(#_mask_Mg3u9jct7KrWPyk9F8g1cGE4bgpIxjpQ)" stroke-width="1" stroke="rgb(15,15,15)" stroke-linejoin="round" stroke-linecap="round" stroke-miterlimit="3"/></g><g><mask id="_mask_glrzJcJSWJQ7tzW5dI8cDGE9p1HFXcMX"><ellipse vector-effect="non-scaling-stroke" cx="44.87499999999999" cy="121.92339449541282" rx="17.499999999999993" ry="16.976605504587127" fill="white" stroke="none"/></mask><ellipse vector-effect="non-scaling-stroke" cx="44.87499999999999" cy="121.92339449541282" rx="17.499999999999993" ry="16.976605504587127" fill="rgb(28,28,28)" mask="url(#_mask_glrzJcJSWJQ7tzW5dI8cDGE9p1HFXcMX)" stroke-width="1" stroke="rgb(21,21,21)" stroke-linejoin="round" stroke-linecap="round" stroke-miterlimit="3"/><path d=" M 30.362 121.9 C 30.374 114.13 36.887 107.831 44.897 107.844 C 52.907 107.857 59.4 114.176 59.388 121.947 C 59.376 129.717 52.863 136.015 44.853 136.002 C 36.843 135.99 30.35 129.67 30.362 121.9 Z " fill="rgb(8,8,8)"/><path d=" M 28.711 121.718 C 28.832 113.066 36.172 106.134 45.093 106.247 C 54.015 106.361 61.16 113.477 61.039 122.129 C 60.918 130.781 53.578 137.713 44.657 137.599 C 35.735 137.486 28.59 130.37 28.711 121.718 Z " fill="rgb(28,28,28)" fill-opacity="0.77"/><mask id="_mask_Sp5ldyAdrkKI4TYadRI26t508oSnk5si" x="-200%" y="-200%" width="400%" height="400%"><rect x="0" y="0" width="100%" height="100%" style="fill:white;"/><ellipse vector-effect="non-scaling-stroke" cx="44.874999999999964" cy="121.92339449541277" rx="10.393792495989842" ry="10.07557294653094" fill="black" stroke="none"/></mask><ellipse vector-effect="non-scaling-stroke" cx="44.874999999999964" cy="121.92339449541277" rx="10.393792495989842" ry="10.07557294653094" fill="rgb(0,0,0)" mask="url(#_mask_Sp5ldyAdrkKI4TYadRI26t508oSnk5si)" stroke-width="4" stroke="rgb(48,48,48)" stroke-linejoin="round" stroke-linecap="round" stroke-miterlimit="3"/><rect x="44.346" y="103.9" width="1.059" height="3.958" transform="matrix(1,0,0,1,0,0)" fill="rgb(111,111,111)"/></g></g></g></svg>