<?xml version="1.0" standalone="no"?><!-- Generator: Gravit.io --><svg xmlns="http://www.w3.org/2000/svg" xmlns:xlink="http://www.w3.org/1999/xlink" style="isolation:isolate" viewBox="0 0 90 380" width="90" height="380"><defs><clipPath id="_clipPath_pnFmG09aRxAokaAdFyVU0urJ4MBCKUtj"><rect width="90" height="380"/></clipPath></defs><g clip-path="url(#_clipPath_pnFmG09aRxAokaAdFyVU0urJ4MBCKUtj)"><rect width="90" height="380" style="fill:rgb(30,30,30)"/><g opacity="0.48"><path d=" M -514.445 -151.682 C -513.078 -142.504 -511.688 -133.426 -510.278 -124.446 C -494.161 0.054 -474.943 114.159 -454.451 219.172 L -462.483 145.63 C -460.093 157.535 -457.68 169.297 -455.249 180.918 L -461.176 128.217 L -461.176 128.217 L -461.176 128.217 C -460.199 133.271 -459.218 138.305 -458.235 143.319 L -465.956 75.627 C -463.675 86.955 -461.373 98.164 -459.053 109.255 L -463.518 71.178 C -462.823 74.739 -462.127 78.292 -461.428 81.836 L -465.12 50.678 C -463.392 58.393 -461.655 66.002 -459.912 73.507 L -468.284 2.532 L -468.284 2.532 L -468.284 2.532 C -467.99 4.025 -467.696 5.516 -467.402 7.005 L -469.263 -8.245 C -467.231 0.948 -465.187 10.001 -463.135 18.917 L -543.558 -638.521 L -552.637 -712.736 C -552.633 -712.62 -552.629 -712.505 -552.625 -712.389 C -552.624 -712.376 -552.624 -712.363 -552.623 -712.35 C -552.614 -712.077 -552.604 -711.804 -552.595 -711.531 L -552.595 -711.531 L -552.595 -711.531 L -552.595 -711.531 L -553.627 -720 L -553.627 -720 L -553.627 -720 L -553.627 -720 C -553.365 -712.368 -553.085 -704.78 -552.787 -697.238 L -553.085 -699.598 C -553.06 -698.951 -553.035 -698.303 -553.01 -697.656 L -553.01 -697.656 L -553.01 -697.656 L -553.063 -698.074 C -553.032 -697.257 -553.002 -696.44 -552.971 -695.623 L -554.004 -704.01 C -553.976 -703.271 -553.947 -702.531 -553.918 -701.792 L -554.034 -702.738 C -553.978 -701.243 -553.922 -699.748 -553.864 -698.255 L -554.094 -700.192 C -554.043 -698.717 -553.992 -697.243 -553.94 -695.77 L -554.154 -697.647 C -554.132 -696.938 -554.11 -696.229 -554.087 -695.52 L -554.184 -696.374 C -554.152 -695.303 -554.119 -694.233 -554.086 -693.164 L -554.086 -693.164 L -554.086 -693.164 L -554.086 -693.164 L -554.086 -693.164 L -554.229 -694.465 C -553.456 -666.319 -552.499 -638.573 -551.369 -611.219 L -558.046 -666.085 C -557.649 -652.845 -557.209 -639.744 -556.726 -626.778 L -562.103 -667.931 C -561.9 -662.489 -561.687 -657.069 -561.463 -651.672 L -561.463 -651.672 L -561.463 -651.672 L -565.677 -686.315 C -562.665 -598.696 -557.191 -515.095 -549.819 -435.344 L -549.819 -435.344 L -549.819 -435.344 L -581.671 -694.324 C -579.613 -627.849 -576.383 -564.903 -572.166 -505.217 L -572.166 -505.217 L -572.166 -505.217 L -572.166 -505.217 L -595.564 -703 C -593.974 -645.121 -591.632 -589.945 -588.629 -537.293 L -604.342 -672 L -604.342 -672 L -604.342 -672 L -604.342 -672 L -604.342 -672 L -604.342 -672 L -604.342 -672 C -593.143 -298.497 -552.991 -42.941 -508.86 146.561 L -529.207 -27.876 C -520.264 19.551 -510.787 63.755 -500.994 105.151 L -500.665 119.332 L -499.344 112.086 C -499.465 111.581 -499.585 111.076 -499.706 110.571 L -493.903 209.691 Q -496.178 203.282 -492.09 270.549 L -494.251 197.439 L -493.577 250.38 L -492.984 218.813 L -492.654 273.64 L -492.336 229.419 L -491.511 295.695 L -491.739 240.306 L -488.897 338 L -489.824 272.286 L -495.869 206.31 L -494.863 186.632 L -497.04 184.415 L -499.026 110.341 L -499.22 111.406 L -500.085 104.096 L -507.595 -24.198 C -501.536 5.021 -495.282 33.056 -488.897 60 L -513.831 -142.73 L -514.445 -151.682 Z  M -515.459 -158.532 C -516.16 -163.296 -516.854 -168.087 -517.542 -172.905 L -515.173 -153.641 L -515.459 -158.532 Z  M -508.213 -27.186 C -515.112 -60.615 -521.753 -95.589 -528.044 -132.247 L -501.245 94.287 L -502.12 56.507 L -505.638 33.318 L -508.213 -27.186 Z  M -27.233 233.062 C -25.577 240.271 -23.916 247.375 -22.25 254.393 L -27.233 233.062 L -27.233 233.062 L -27.233 233.062 L -27.233 233.062 L -27.233 233.062 L -27.233 233.062 L -27.233 233.062 L -27.233 233.062 L -27.233 233.062 L -27.233 233.062 L -27.233 233.062 L -27.233 233.062 L -27.233 233.062 L -27.233 233.062 L -27.233 233.062 L -27.233 233.062 L -27.233 233.062 L -27.233 233.062 L -27.233 233.062 L -27.233 233.062 L -27.233 233.062 L -27.233 233.062 L -27.233 233.062 L -27.233 233.062 L -27.233 233.062 L -27.233 233.062 L -27.233 233.062 L -27.233 233.062 L -27.233 233.062 L -27.233 233.062 L -27.233 233.062 Z  M 127.789 503.45 C 128.851 507.938 129.924 512.352 131 516.745 L 127.789 503.45 L 127.789 503.45 L 127.789 503.45 L 127.789 503.45 Z  M 109.181 52.249 C 110.08 56.863 110.988 61.425 111.899 65.973 L 109.181 52.249 L 109.181 52.249 L 109.181 52.249 L 109.181 52.249 L 109.181 52.249 L 109.181 52.249 L 109.181 52.249 L 109.181 52.249 L 109.181 52.249 L 109.181 52.249 L 109.181 52.249 L 109.181 52.249 L 109.181 52.249 L 109.181 52.249 L 109.181 52.249 L 109.181 52.249 L 109.181 52.249 L 109.181 52.249 L 109.181 52.249 L 109.181 52.249 L 109.181 52.249 L 109.181 52.249 L 109.181 52.249 L 109.181 52.249 L 109.181 52.249 L 109.181 52.249 L 109.181 52.249 L 109.181 52.249 L 109.181 52.249 L 109.181 52.249 L 109.181 52.249 L 109.181 52.249 L 109.181 52.249 L 109.181 52.249 L 109.181 52.249 L 109.181 52.249 L 109.181 52.249 L 109.181 52.249 L 109.181 52.249 L 109.181 52.249 L 109.181 52.249 L 109.181 52.249 L 109.181 52.249 Z  M -93.303 -232.208 C -86.36 -59.7 -60.867 95.896 -31.24 231.502 L -93.303 -232.208 L -93.303 -232.208 L -93.303 -232.208 L -93.303 -232.208 L -93.303 -232.208 L -93.303 -232.208 L -93.303 -232.208 L -93.303 -232.208 L -93.303 -232.208 L -93.303 -232.208 L -93.303 -232.208 L -93.303 -232.208 L -93.303 -232.208 L -93.303 -232.208 L -93.303 -232.208 L -93.303 -232.208 L -93.303 -232.208 L -93.303 -232.208 L -93.303 -232.208 L -93.303 -232.208 L -93.303 -232.208 L -93.303 -232.208 L -93.303 -232.208 L -93.303 -232.208 L -93.303 -232.208 L -93.303 -232.208 L -93.303 -232.208 L -93.303 -232.208 L -93.303 -232.208 L -93.303 -232.208 L -93.303 -232.208 L -93.303 -232.208 L -93.303 -232.208 L -93.303 -232.208 L -93.303 -232.208 L -93.303 -232.208 L -93.303 -232.208 L -93.303 -232.208 L -93.303 -232.208 L -93.303 -232.208 L -93.303 -232.208 L -93.303 -232.208 L -93.303 -232.208 L -93.303 -232.208 L -93.303 -232.208 L -93.303 -232.208 L -93.303 -232.208 L -93.303 -232.208 L -93.303 -232.208 L -93.303 -232.208 L -93.303 -232.208 L -93.303 -232.208 Z  M 112.993 68.352 C 114.998 76.862 117.013 85.295 119.038 93.63 L 112.993 68.352 L 112.993 68.352 L 112.993 68.352 L 112.993 68.352 L 112.993 68.352 L 112.993 68.352 L 112.993 68.352 L 112.993 68.352 L 112.993 68.352 L 112.993 68.352 L 112.993 68.352 L 112.993 68.352 L 112.993 68.352 L 112.993 68.352 L 112.993 68.352 L 112.993 68.352 L 112.993 68.352 L 112.993 68.352 L 112.993 68.352 L 112.993 68.352 L 112.993 68.352 L 112.993 68.352 L 112.993 68.352 L 112.993 68.352 L 112.993 68.352 L 112.993 68.352 L 112.993 68.352 L 112.993 68.352 L 112.993 68.352 L 112.993 68.352 L 112.993 68.352 L 112.993 68.352 L 112.993 68.352 Z  M -31.501 221.15 C -30.55 226.034 -29.59 230.86 -28.627 235.67 L -31.501 221.15 L -31.501 221.15 L -31.501 221.15 L -31.501 221.15 L -31.501 221.15 L -31.501 221.15 L -31.501 221.15 L -31.501 221.15 L -31.501 221.15 L -31.501 221.15 L -31.501 221.15 L -31.501 221.15 L -31.501 221.15 L -31.501 221.15 L -31.501 221.15 L -31.501 221.15 L -31.501 221.15 L -31.501 221.15 L -31.501 221.15 L -31.501 221.15 L -31.501 221.15 L -31.501 221.15 L -31.501 221.15 L -31.501 221.15 L -31.501 221.15 L -31.501 221.15 L -31.501 221.15 L -31.501 221.15 L -31.501 221.15 L -31.501 221.15 L -31.501 221.15 L -31.501 221.15 L -31.501 221.15 L -31.501 221.15 L -31.501 221.15 Z  M 108.875 64.605 C 109.34 66.852 109.806 69.091 110.274 71.322 C 110.296 71.429 110.319 71.536 110.341 71.646 C 111.094 75.231 111.849 78.799 112.606 82.357 L 108.875 64.605 L 108.875 64.605 L 108.875 64.605 L 108.875 64.605 L 108.875 64.605 L 108.875 64.605 L 108.875 64.605 L 108.875 64.605 L 108.875 64.605 L 108.875 64.605 L 108.875 64.605 L 108.875 64.605 L 108.875 64.605 L 108.875 64.605 L 108.875 64.605 L 108.875 64.605 L 108.875 64.605 L 108.875 64.605 L 108.875 64.605 L 108.875 64.605 L 108.875 64.605 L 108.875 64.605 L 108.875 64.605 L 108.875 64.605 L 108.875 64.605 L 108.875 64.605 L 108.875 64.605 L 108.875 64.605 L 108.875 64.605 L 108.875 64.605 L 108.875 64.605 L 108.875 64.605 L 108.875 64.605 L 108.875 64.605 L 108.875 64.605 L 108.875 64.605 L 108.875 64.605 Z  M 108.407 26.976 C 109.575 32.624 110.753 38.213 111.936 43.774 L 108.407 26.976 L 108.407 26.976 L 108.407 26.976 L 108.407 26.976 L 108.407 26.976 L 108.407 26.976 L 108.407 26.976 L 108.407 26.976 L 108.407 26.976 L 108.407 26.976 L 108.407 26.976 L 108.407 26.976 L 108.407 26.976 L 108.407 26.976 L 108.407 26.976 L 108.407 26.976 L 108.407 26.976 L 108.407 26.976 L 108.407 26.976 L 108.407 26.976 L 108.407 26.976 L 108.407 26.976 L 108.407 26.976 L 108.407 26.976 L 108.407 26.976 L 108.407 26.976 L 108.407 26.976 L 108.407 26.976 L 108.407 26.976 L 108.407 26.976 L 108.407 26.976 L 108.407 26.976 L 108.407 26.976 L 108.407 26.976 L 108.407 26.976 L 108.407 26.976 L 108.407 26.976 L 108.407 26.976 L 108.407 26.976 L 108.407 26.976 L 108.407 26.976 L 108.407 26.976 L 108.407 26.976 L 108.407 26.976 L 108.407 26.976 Z  M -31.24 231.502 L -31.24 231.502 C -30.559 234.673 -29.87 237.806 -29.179 240.928 L -31.24 231.502 L -31.24 231.502 L -31.24 231.502 L -31.24 231.502 L -31.24 231.502 L -31.24 231.502 L -31.24 231.502 L -31.24 231.502 L -31.24 231.502 L -31.24 231.502 L -31.24 231.502 L -31.24 231.502 L -31.24 231.502 L -31.24 231.502 L -31.24 231.502 L -31.24 231.502 L -31.24 231.502 L -31.24 231.502 L -31.24 231.502 L -31.24 231.502 L -31.24 231.502 L -31.24 231.502 L -31.24 231.502 L -31.24 231.502 L -31.24 231.502 L -31.24 231.502 L -31.24 231.502 L -31.24 231.502 L -31.24 231.502 L -31.24 231.502 L -31.24 231.502 L -31.24 231.502 L -31.24 231.502 L -31.24 231.502 L -31.24 231.502 L -31.24 231.502 L -31.24 231.502 L -31.24 231.502 L -31.24 231.502 L -31.24 231.502 L -31.24 231.502 L -31.24 231.502 L -31.24 231.502 L -31.24 231.502 L -31.24 231.502 L -31.24 231.502 L -31.24 231.502 L -31.24 231.502 L -31.24 231.502 L -31.24 231.502 L -31.24 231.502 Z  M 120.843 72.225 L 120.843 72.225 C 122.023 77.039 123.209 81.794 124.399 86.489 L 118.931 46.872 C 120.52 53.307 122.124 59.658 123.74 65.926 L 114.449 1.139 L 64.487 -347.26 L 63.807 -352 L 63.807 -352 L 63.807 -352 C 63.979 -347.713 64.163 -343.448 64.357 -339.206 L 64 -341.809 C 70.831 -172.099 95.686 -24.895 124.794 101 L 120.843 72.225 L 120.843 72.225 L 120.843 72.225 L 120.843 72.225 L 120.843 72.225 L 120.843 72.225 L 120.843 72.225 L 120.843 72.225 L 120.843 72.225 L 120.843 72.225 L 120.843 72.225 L 120.843 72.225 L 120.843 72.225 L 120.843 72.225 L 120.843 72.225 L 120.843 72.225 L 120.843 72.225 L 120.843 72.225 L 120.843 72.225 L 120.843 72.225 L 120.843 72.225 L 120.843 72.225 L 120.843 72.225 L 120.843 72.225 L 120.843 72.225 L 120.843 72.225 L 120.843 72.225 L 120.843 72.225 L 120.843 72.225 L 120.843 72.225 L 120.843 72.225 L 120.843 72.225 L 120.843 72.225 L 120.843 72.225 L 120.843 72.225 L 120.843 72.225 L 120.843 72.225 L 120.843 72.225 L 120.843 72.225 L 120.843 72.225 L 120.843 72.225 L 120.843 72.225 L 120.843 72.225 L 120.843 72.225 L 120.843 72.225 L 120.843 72.225 L 120.843 72.225 L 120.843 72.225 L 120.843 72.225 L 120.843 72.225 L 120.843 72.225 L 120.843 72.225 L 120.843 72.225 L 120.843 72.225 L 120.843 72.225 Z  M 115.384 81.48 C 116.27 85.353 117.163 89.183 118.061 92.992 L 115.384 81.48 L 115.384 81.48 L 115.384 81.48 L 115.384 81.48 L 115.384 81.48 L 115.384 81.48 L 115.384 81.48 L 115.384 81.48 L 115.384 81.48 L 115.384 81.48 L 115.384 81.48 L 115.384 81.48 L 115.384 81.48 L 115.384 81.48 L 115.384 81.48 L 115.384 81.48 L 115.384 81.48 L 115.384 81.48 L 115.384 81.48 L 115.384 81.48 L 115.384 81.48 L 115.384 81.48 L 115.384 81.48 L 115.384 81.48 L 115.384 81.48 L 115.384 81.48 L 115.384 81.48 L 115.384 81.48 L 115.384 81.48 L 115.384 81.48 L 115.384 81.48 L 115.384 81.48 L 115.384 81.48 L 115.384 81.48 L 115.384 81.48 L 115.384 81.48 L 115.384 81.48 L 115.384 81.48 L 115.384 81.48 L 115.384 81.48 L 115.384 81.48 L 115.384 81.48 L 115.384 81.48 L 115.384 81.48 L 115.384 81.48 L 115.384 81.48 L 115.384 81.48 L 115.384 81.48 L 115.384 81.48 L 115.384 81.48 L 115.384 81.48 L 115.384 81.48 L 115.384 81.48 L 115.384 81.48 Z  M 112.124 50.157 C 113.462 55.319 114.806 60.438 116.157 65.502 L 112.124 50.157 L 112.124 50.157 L 112.124 50.157 L 112.124 50.157 L 112.124 50.157 L 112.124 50.157 L 112.124 50.157 L 112.124 50.157 L 112.124 50.157 L 112.124 50.157 L 112.124 50.157 L 112.124 50.157 L 112.124 50.157 L 112.124 50.157 L 112.124 50.157 L 112.124 50.157 L 112.124 50.157 L 112.124 50.157 L 112.124 50.157 L 112.124 50.157 L 112.124 50.157 L 112.124 50.157 L 112.124 50.157 L 112.124 50.157 L 112.124 50.157 L 112.124 50.157 L 112.124 50.157 L 112.124 50.157 L 112.124 50.157 L 112.124 50.157 L 112.124 50.157 L 112.124 50.157 L 112.124 50.157 L 112.124 50.157 L 112.124 50.157 L 112.124 50.157 L 112.124 50.157 L 112.124 50.157 L 112.124 50.157 L 112.124 50.157 L 112.124 50.157 L 112.124 50.157 L 112.124 50.157 L 112.124 50.157 L 112.124 50.157 L 112.124 50.157 L 112.124 50.157 L 112.124 50.157 L 112.124 50.157 L 112.124 50.157 L 112.124 50.157 L 112.124 50.157 L 112.124 50.157 L 112.124 50.157 L 112.124 50.157 L 112.124 50.157 L 112.124 50.157 L 112.124 50.157 L 112.124 50.157 L 112.124 50.157 Z  M -480.534 -145.605 C -478.505 -136.502 -476.457 -127.507 -474.394 -118.617 L -544.09 -647.612 L -552.598 -712.189 L -552.625 -712.389 L -552.682 -712.824 L -552.729 -713.179 L -552.623 -712.35 L -552.597 -712.142 L -543.836 -643.264 L -480.534 -145.605 L -480.534 -145.605 L -480.534 -145.605 L -480.534 -145.605 L -480.534 -145.605 L -480.534 -145.605 L -480.534 -145.605 L -480.534 -145.605 L -480.534 -145.605 L -480.534 -145.605 L -480.534 -145.605 L -480.534 -145.605 L -480.534 -145.605 L -480.534 -145.605 L -480.534 -145.605 L -480.534 -145.605 L -480.534 -145.605 L -480.534 -145.605 L -480.534 -145.605 L -480.534 -145.605 L -480.534 -145.605 L -480.534 -145.605 L -480.534 -145.605 L -480.534 -145.605 L -480.534 -145.605 L -480.534 -145.605 L -480.534 -145.605 L -480.534 -145.605 L -480.534 -145.605 L -480.534 -145.605 L -480.534 -145.605 L -480.534 -145.605 L -480.534 -145.605 L -480.534 -145.605 Z  M 108.77 65.47 C 109.293 67.538 109.817 69.593 110.341 71.646 C 110.925 73.906 111.509 76.163 112.095 78.405 L 110.274 71.322 L 108.77 65.47 L 108.77 65.47 L 108.77 65.47 L 108.77 65.47 L 108.77 65.47 L 108.77 65.47 L 108.77 65.47 L 108.77 65.47 L 108.77 65.47 L 108.77 65.47 L 108.77 65.47 L 108.77 65.47 L 108.77 65.47 L 108.77 65.47 L 108.77 65.47 L 108.77 65.47 L 108.77 65.47 L 108.77 65.47 L 108.77 65.47 L 108.77 65.47 L 108.77 65.47 L 108.77 65.47 L 108.77 65.47 L 108.77 65.47 L 108.77 65.47 L 108.77 65.47 L 108.77 65.47 L 108.77 65.47 L 108.77 65.47 L 108.77 65.47 L 108.77 65.47 L 108.77 65.47 L 108.77 65.47 L 108.77 65.47 L 108.77 65.47 L 108.77 65.47 L 108.77 65.47 L 108.77 65.47 L 108.77 65.47 L 108.77 65.47 L 108.77 65.47 L 108.77 65.47 L 108.77 65.47 L 108.77 65.47 L 108.77 65.47 L 108.77 65.47 L 108.77 65.47 L 108.77 65.47 L 108.77 65.47 L 108.77 65.47 L 108.77 65.47 L 108.77 65.47 L 108.77 65.47 L 108.77 65.47 L 108.77 65.47 L 108.77 65.47 L 108.77 65.47 Z  M 21.741 648.633 L 21.47 644.276 C 21.359 644.582 21.247 644.887 21.135 645.193 L 21.741 648.633 L 21.741 648.633 Z  M -12.725 368.978 C -11.559 374.078 -10.382 379.117 -9.201 384.128 L -12.725 368.978 L -12.725 368.978 L -12.725 368.978 L -12.725 368.978 L -12.725 368.978 L -12.725 368.978 L -12.725 368.978 L -12.725 368.978 L -12.725 368.978 L -12.725 368.978 L -12.725 368.978 L -12.725 368.978 L -12.725 368.978 L -12.725 368.978 L -12.725 368.978 L -12.725 368.978 L -12.725 368.978 L -12.725 368.978 L -12.725 368.978 L -12.725 368.978 L -12.725 368.978 L -12.725 368.978 L -12.725 368.978 L -12.725 368.978 L -12.725 368.978 L -12.725 368.978 L -12.725 368.978 L -12.725 368.978 L -12.725 368.978 Z  M -11.993 393.367 C -11.096 397.553 -10.19 401.685 -9.28 405.803 L -11.993 393.367 L -11.993 393.367 L -11.993 393.367 L -11.993 393.367 L -11.993 393.367 L -11.993 393.367 L -11.993 393.367 L -11.993 393.367 L -11.993 393.367 L -11.993 393.367 L -11.993 393.367 L -11.993 393.367 L -11.993 393.367 L -11.993 393.367 L -11.993 393.367 L -11.993 393.367 L -11.993 393.367 L -11.993 393.367 L -11.993 393.367 L -11.993 393.367 L -11.993 393.367 L -11.993 393.367 L -11.993 393.367 L -11.993 393.367 L -11.993 393.367 L -11.993 393.367 L -11.993 393.367 Z  M -11.488 355.623 C -9.65 362.596 -7.804 369.498 -5.948 376.311 L -11.488 355.623 L -11.488 355.623 L -11.488 355.623 L -11.488 355.623 L -11.488 355.623 L -11.488 355.623 L -11.488 355.623 L -11.488 355.623 L -11.488 355.623 L -11.488 355.623 L -11.488 355.623 L -11.488 355.623 L -11.488 355.623 L -11.488 355.623 L -11.488 355.623 L -11.488 355.623 L -11.488 355.623 L -11.488 355.623 L -11.488 355.623 L -11.488 355.623 L -11.488 355.623 L -11.488 355.623 L -11.488 355.623 L -11.488 355.623 L -11.488 355.623 Z  M -10.661 386.75 C -9.143 392.671 -7.621 398.496 -6.095 404.243 L -10.661 386.75 L -10.661 386.75 L -10.661 386.75 L -10.661 386.75 L -10.661 386.75 L -10.661 386.75 L -10.661 386.75 L -10.661 386.75 L -10.661 386.75 L -10.661 386.75 L -10.661 386.75 L -10.661 386.75 L -10.661 386.75 L -10.661 386.75 L -10.661 386.75 L -10.661 386.75 L -10.661 386.75 L -10.661 386.75 L -10.661 386.75 L -10.661 386.75 L -10.661 386.75 L -10.661 386.75 L -10.661 386.75 Z  M -9.906 415.149 C -8.692 420.466 -7.466 425.71 -6.235 430.921 L -9.906 415.149 L -9.906 415.149 L -9.906 415.149 L -9.906 415.149 L -9.906 415.149 L -9.906 415.149 L -9.906 415.149 L -9.906 415.149 L -9.906 415.149 L -9.906 415.149 L -9.906 415.149 L -9.906 415.149 L -9.906 415.149 L -9.906 415.149 L -9.906 415.149 L -9.906 415.149 L -9.906 415.149 L -9.906 415.149 L -9.906 415.149 L -9.906 415.149 L -9.906 415.149 Z  M 135.095 381.288 C 136.029 385.672 136.973 389.992 137.92 394.295 L 135.095 381.288 L 135.095 381.288 L 135.095 381.288 L 135.095 381.288 L 135.095 381.288 L 135.095 381.288 L 135.095 381.288 L 135.095 381.288 L 135.095 381.288 L 135.095 381.288 L 135.095 381.288 L 135.095 381.288 L 135.095 381.288 L 135.095 381.288 L 135.095 381.288 L 135.095 381.288 L 135.095 381.288 L 135.095 381.288 L 135.095 381.288 Z  M -9.015 380.327 C -7.118 387.502 -5.212 394.601 -3.295 401.604 L -9.015 380.327 L -9.015 380.327 L -9.015 380.327 L -9.015 380.327 L -9.015 380.327 L -9.015 380.327 L -9.015 380.327 L -9.015 380.327 L -9.015 380.327 L -9.015 380.327 L -9.015 380.327 L -9.015 380.327 L -9.015 380.327 L -9.015 380.327 L -9.015 380.327 L -9.015 380.327 L -9.015 380.327 Z  M -8.177 413.069 C -6.611 419.165 -5.039 425.159 -3.463 431.071 L -8.177 413.069 L -8.177 413.069 L -8.177 413.069 L -8.177 413.069 L -8.177 413.069 L -8.177 413.069 L -8.177 413.069 L -8.177 413.069 L -8.177 413.069 L -8.177 413.069 L -8.177 413.069 L -8.177 413.069 L -8.177 413.069 L -8.177 413.069 L -8.177 413.069 Z  M -658.948 -572 C -648.796 -233.417 -608.996 39.025 -562.103 263.222 L -658.948 -572 L -658.948 -572 L -658.948 -572 L -658.948 -572 L -658.948 -572 L -658.948 -572 L -658.948 -572 L -658.948 -572 L -658.948 -572 L -658.948 -572 L -658.948 -572 L -658.948 -572 L -658.948 -572 L -658.948 -572 Z  M 136.869 382.017 C 138.123 387.506 139.388 392.916 140.658 398.291 L 136.869 382.017 L 136.869 382.017 L 136.869 382.017 L 136.869 382.017 L 136.869 382.017 L 136.869 382.017 L 136.869 382.017 L 136.869 382.017 L 136.869 382.017 L 136.869 382.017 L 136.869 382.017 L 136.869 382.017 L 136.869 382.017 Z  M 137.597 410.481 C 137.753 411.213 137.909 411.942 138.066 412.665 C 138.875 416.454 139.693 420.194 140.512 423.922 L 138.197 413.248 L 137.597 410.481 L 137.597 410.481 L 137.597 410.481 L 137.597 410.481 L 137.597 410.481 L 137.597 410.481 L 137.597 410.481 L 137.597 410.481 L 137.597 410.481 L 137.597 410.481 L 137.597 410.481 Z  M -8.105 405.231 C -6.177 412.455 -4.24 419.595 -2.291 426.63 L -8.105 405.231 L -8.105 405.231 L -8.105 405.231 L -8.105 405.231 L -8.105 405.231 L -8.105 405.231 L -8.105 405.231 L -8.105 405.231 L -8.105 405.231 Z  M 136.983 379.265 C 138.575 385.415 140.172 391.454 141.774 397.403 L 136.983 379.265 L 136.983 379.265 L 136.983 379.265 L 136.983 379.265 L 136.983 379.265 L 136.983 379.265 L 136.983 379.265 L 136.983 379.265 Z  M 137.718 411.157 C 137.834 411.662 137.949 412.167 138.066 412.665 C 138.109 412.863 138.153 413.056 138.197 413.248 C 139.313 418.108 140.438 422.906 141.567 427.673 L 137.718 411.157 L 137.718 411.157 L 137.718 411.157 L 137.718 411.157 L 137.718 411.157 L 137.718 411.157 Z  M 47.011 792.026 C 51.198 763.799 52.462 731.605 51.583 695.641 C 51.863 694.759 52.14 693.877 52.411 692.992 L 52.411 692.992 L 52.411 692.992 L 52.411 692.992 L 52.411 692.992 L 52.411 692.992 L 52.411 692.992 L 52.411 692.992 L 52.411 692.992 L 52.411 692.992 L 52.411 692.992 L 52.411 692.992 L 52.411 692.992 L 52.411 692.992 L 52.411 692.992 L 52.411 692.992 L 52.411 692.992 L 52.411 692.992 L 52.411 692.992 L 52.411 692.992 L 52.411 692.992 L 52.411 692.992 L 52.411 692.992 L 52.411 692.992 L 52.411 692.992 L 52.411 692.992 L 52.411 692.992 L 52.411 692.992 L 52.411 692.992 L 52.411 692.992 L 52.411 692.992 L 52.411 692.992 L 52.411 692.992 L 52.411 692.992 L 52.411 692.992 L 52.411 692.992 L 52.411 692.992 L 52.411 692.992 L 52.411 692.992 L 52.411 692.992 L 52.411 692.992 L 52.411 692.992 L 52.411 692.992 L 52.411 692.992 L 52.411 692.992 L 52.411 692.992 L 52.411 692.992 L 52.411 692.992 L 52.411 692.992 L 52.411 692.992 L 52.411 692.992 C 52.937 691.3 53.442 689.6 53.928 687.893 C 81.914 589.622 45.15 466.687 8.65 288.941 L 8.65 288.941 C -0.801 209.482 -9.958 123.71 -16.616 32.162 L -6.968 187.227 L -4.973 219.293 C -13.174 174.825 -20.924 127.214 -27.413 76.085 L -27.413 76.085 L -27.413 76.085 L -27.413 76.085 L -9.549 225.053 C -13.592 200.681 -17.534 175.14 -21.204 148.3 C -21.787 142.075 -22.362 135.83 -22.924 129.552 L -21.618 145.28 C -23.363 132.416 -25.044 119.256 -26.643 105.787 L 18.982 632.98 L -59.13 189.73 L 19.011 633.314 L 20.246 647.576 L 20.246 647.576 C 20.539 646.801 20.828 646.026 21.114 645.25 L 21.758 648.906 L 26.107 718.813 L -65.881 246.146 L 26.914 731.78 L 31.845 811.022 L -90 261.66 L 32.379 819.607 L 33.938 844.66 C 34.784 842.425 35.597 840.15 36.377 837.835 L 150.772 1359.382 L 43.843 809.943 C 45.035 804.2 46.082 798.269 46.992 792.152 L 143.909 1342.315 L -66.94 -303.213 Q -34.171 -35.686 -6.968 187.227 Q 28.107 474.647 53.928 687.893 Q 118.694 1222.764 125.241 1290.995 L -12.315 760.711 L 135.763 1325.329 L -70.198 494.884 L 153.336 1359.221 L -85.044 371.255 L 154.195 1362.666 L 37.223 835.27 C 39.323 828.76 41.171 821.944 42.783 814.827 L 148.865 1370 L 47.011 792.026 L 47.011 792.026 Z " fill-rule="evenodd" fill="none" vector-effect="non-scaling-stroke" stroke-width="0.2" stroke="rgb(191,191,191)" stroke-linejoin="miter" stroke-linecap="square" stroke-miterlimit="3"/></g><g style="opacity:0.36;"><line x1="349.423" y1="157.784" x2="-190.165" y2="462.549" vector-effect="non-scaling-stroke" stroke-width="0.5" stroke="rgb(191,191,191)" stroke-opacity="0.38" stroke-linejoin="miter" stroke-linecap="square" stroke-miterlimit="3"/><line x1="350.812" y1="161.152" x2="-188.776" y2="465.918" vector-effect="non-scaling-stroke" stroke-width="0.5" stroke="rgb(191,191,191)" stroke-opacity="0.38" stroke-linejoin="miter" stroke-linecap="square" stroke-miterlimit="3"/><line x1="353.591" y1="167.889" x2="-185.997" y2="472.655" vector-effect="non-scaling-stroke" stroke-width="0.5" stroke="rgb(191,191,191)" stroke-opacity="0.38" stroke-linejoin="miter" stroke-linecap="square" stroke-miterlimit="3"/><line x1="354.981" y1="171.258" x2="-184.607" y2="476.023" vector-effect="non-scaling-stroke" stroke-width="0.5" stroke="rgb(191,191,191)" stroke-opacity="0.38" stroke-linejoin="miter" stroke-linecap="square" stroke-miterlimit="3"/><line x1="356.37" y1="174.626" x2="-183.218" y2="479.392" vector-effect="non-scaling-stroke" stroke-width="0.5" stroke="rgb(191,191,191)" stroke-opacity="0.38" stroke-linejoin="miter" stroke-linecap="square" stroke-miterlimit="3"/><line x1="357.76" y1="177.995" x2="-181.828" y2="482.761" vector-effect="non-scaling-stroke" stroke-width="0.5" stroke="rgb(191,191,191)" stroke-opacity="0.38" stroke-linejoin="miter" stroke-linecap="square" stroke-miterlimit="3"/><line x1="352.202" y1="164.521" x2="-187.386" y2="469.286" vector-effect="non-scaling-stroke" stroke-width="0.5" stroke="rgb(191,191,191)" stroke-opacity="0.38" stroke-linejoin="miter" stroke-linecap="square" stroke-miterlimit="3"/><line x1="359.01" y1="181.027" x2="-180.578" y2="485.792" vector-effect="non-scaling-stroke" stroke-width="0.5" stroke="rgb(191,191,191)" stroke-opacity="0.38" stroke-linejoin="miter" stroke-linecap="square" stroke-miterlimit="3"/><line x1="360.4" y1="184.395" x2="-179.188" y2="489.161" vector-effect="non-scaling-stroke" stroke-width="0.5" stroke="rgb(191,191,191)" stroke-opacity="0.38" stroke-linejoin="miter" stroke-linecap="square" stroke-miterlimit="3"/><line x1="363.179" y1="191.132" x2="-176.409" y2="495.898" vector-effect="non-scaling-stroke" stroke-width="0.5" stroke="rgb(191,191,191)" stroke-opacity="0.38" stroke-linejoin="miter" stroke-linecap="square" stroke-miterlimit="3"/><line x1="364.569" y1="194.501" x2="-175.019" y2="499.266" vector-effect="non-scaling-stroke" stroke-width="0.5" stroke="rgb(191,191,191)" stroke-opacity="0.38" stroke-linejoin="miter" stroke-linecap="square" stroke-miterlimit="3"/><line x1="365.958" y1="197.869" x2="-173.63" y2="502.635" vector-effect="non-scaling-stroke" stroke-width="0.5" stroke="rgb(191,191,191)" stroke-opacity="0.38" stroke-linejoin="miter" stroke-linecap="square" stroke-miterlimit="3"/><line x1="367.348" y1="201.238" x2="-172.24" y2="506.003" vector-effect="non-scaling-stroke" stroke-width="0.5" stroke="rgb(191,191,191)" stroke-opacity="0.38" stroke-linejoin="miter" stroke-linecap="square" stroke-miterlimit="3"/><line x1="361.789" y1="187.764" x2="-177.798" y2="492.529" vector-effect="non-scaling-stroke" stroke-width="0.5" stroke="rgb(191,191,191)" stroke-opacity="0.38" stroke-linejoin="miter" stroke-linecap="square" stroke-miterlimit="3"/></g><g style="opacity:0.36;"><line x1="-41.256" y1="-91.803" x2="124.981" y2="523.23" vector-effect="non-scaling-stroke" stroke-width="0.2" stroke="rgb(0,0,0)" stroke-linejoin="miter" stroke-linecap="square" stroke-miterlimit="3"/><line x1="-33.283" y1="-91.803" x2="132.954" y2="523.23" vector-effect="non-scaling-stroke" stroke-width="0.2" stroke="rgb(0,0,0)" stroke-linejoin="miter" stroke-linecap="square" stroke-miterlimit="3"/><line x1="-17.337" y1="-91.803" x2="148.9" y2="523.23" vector-effect="non-scaling-stroke" stroke-width="0.2" stroke="rgb(0,0,0)" stroke-linejoin="miter" stroke-linecap="square" stroke-miterlimit="3"/><line x1="-9.364" y1="-91.803" x2="156.873" y2="523.23" vector-effect="non-scaling-stroke" stroke-width="0.2" stroke="rgb(0,0,0)" stroke-linejoin="miter" stroke-linecap="square" stroke-miterlimit="3"/><line x1="-1.391" y1="-91.803" x2="164.846" y2="523.23" vector-effect="non-scaling-stroke" stroke-width="0.2" stroke="rgb(0,0,0)" stroke-linejoin="miter" stroke-linecap="square" stroke-miterlimit="3"/><line x1="6.582" y1="-91.803" x2="172.819" y2="523.23" vector-effect="non-scaling-stroke" stroke-width="0.2" stroke="rgb(0,0,0)" stroke-linejoin="miter" stroke-linecap="square" stroke-miterlimit="3"/><line x1="-25.31" y1="-91.803" x2="140.927" y2="523.23" vector-effect="non-scaling-stroke" stroke-width="0.2" stroke="rgb(0,0,0)" stroke-linejoin="miter" stroke-linecap="square" stroke-miterlimit="3"/><line x1="13.758" y1="-91.803" x2="179.995" y2="523.23" vector-effect="non-scaling-stroke" stroke-width="0.2" stroke="rgb(0,0,0)" stroke-linejoin="miter" stroke-linecap="square" stroke-miterlimit="3"/><line x1="21.731" y1="-91.803" x2="187.968" y2="523.23" vector-effect="non-scaling-stroke" stroke-width="0.2" stroke="rgb(0,0,0)" stroke-linejoin="miter" stroke-linecap="square" stroke-miterlimit="3"/><line x1="37.677" y1="-91.803" x2="203.914" y2="523.23" vector-effect="non-scaling-stroke" stroke-width="0.2" stroke="rgb(0,0,0)" stroke-linejoin="miter" stroke-linecap="square" stroke-miterlimit="3"/><line x1="45.65" y1="-91.803" x2="211.887" y2="523.23" vector-effect="non-scaling-stroke" stroke-width="0.2" stroke="rgb(0,0,0)" stroke-linejoin="miter" stroke-linecap="square" stroke-miterlimit="3"/><line x1="53.623" y1="-91.803" x2="219.86" y2="523.23" vector-effect="non-scaling-stroke" stroke-width="0.2" stroke="rgb(0,0,0)" stroke-linejoin="miter" stroke-linecap="square" stroke-miterlimit="3"/><line x1="61.596" y1="-91.803" x2="227.833" y2="523.23" vector-effect="non-scaling-stroke" stroke-width="0.2" stroke="rgb(0,0,0)" stroke-linejoin="miter" stroke-linecap="square" stroke-miterlimit="3"/><line x1="29.704" y1="-91.803" x2="195.941" y2="523.23" vector-effect="non-scaling-stroke" stroke-width="0.2" stroke="rgb(0,0,0)" stroke-linejoin="miter" stroke-linecap="square" stroke-miterlimit="3"/></g><g><line x1="-55.564" y1="-0.634" x2="124.572" y2="61.484" vector-effect="non-scaling-stroke" stroke-width="0.2" stroke="rgb(0,0,0)" stroke-linejoin="miter" stroke-linecap="square" stroke-miterlimit="3"/><line x1="-50.493" y1="-3.651" x2="129.642" y2="58.466" vector-effect="non-scaling-stroke" stroke-width="0.2" stroke="rgb(0,0,0)" stroke-linejoin="miter" stroke-linecap="square" stroke-miterlimit="3"/><line x1="-40.351" y1="-9.687" x2="139.784" y2="52.431" vector-effect="non-scaling-stroke" stroke-width="0.2" stroke="rgb(0,0,0)" stroke-linejoin="miter" stroke-linecap="square" stroke-miterlimit="3"/><line x1="-35.281" y1="-12.704" x2="144.855" y2="49.413" vector-effect="non-scaling-stroke" stroke-width="0.2" stroke="rgb(0,0,0)" stroke-linejoin="miter" stroke-linecap="square" stroke-miterlimit="3"/><line x1="-30.21" y1="-15.722" x2="149.925" y2="46.395" vector-effect="non-scaling-stroke" stroke-width="0.2" stroke="rgb(0,0,0)" stroke-linejoin="miter" stroke-linecap="square" stroke-miterlimit="3"/><line x1="-25.139" y1="-18.74" x2="154.996" y2="43.378" vector-effect="non-scaling-stroke" stroke-width="0.2" stroke="rgb(0,0,0)" stroke-linejoin="miter" stroke-linecap="square" stroke-miterlimit="3"/><line x1="-45.422" y1="-6.669" x2="134.713" y2="55.448" vector-effect="non-scaling-stroke" stroke-width="0.2" stroke="rgb(0,0,0)" stroke-linejoin="miter" stroke-linecap="square" stroke-miterlimit="3"/><line x1="-20.575" y1="-21.455" x2="159.56" y2="40.662" vector-effect="non-scaling-stroke" stroke-width="0.2" stroke="rgb(0,0,0)" stroke-linejoin="miter" stroke-linecap="square" stroke-miterlimit="3"/><line x1="-15.505" y1="-24.473" x2="164.631" y2="37.644" vector-effect="non-scaling-stroke" stroke-width="0.2" stroke="rgb(0,0,0)" stroke-linejoin="miter" stroke-linecap="square" stroke-miterlimit="3"/><line x1="-5.363" y1="-30.508" x2="174.772" y2="31.609" vector-effect="non-scaling-stroke" stroke-width="0.2" stroke="rgb(0,0,0)" stroke-linejoin="miter" stroke-linecap="square" stroke-miterlimit="3"/><line x1="-0.292" y1="-33.526" x2="179.843" y2="28.591" vector-effect="non-scaling-stroke" stroke-width="0.2" stroke="rgb(0,0,0)" stroke-linejoin="miter" stroke-linecap="square" stroke-miterlimit="3"/><line x1="4.779" y1="-36.544" x2="184.914" y2="25.573" vector-effect="non-scaling-stroke" stroke-width="0.2" stroke="rgb(0,0,0)" stroke-linejoin="miter" stroke-linecap="square" stroke-miterlimit="3"/><line x1="9.849" y1="-39.561" x2="189.984" y2="22.556" vector-effect="non-scaling-stroke" stroke-width="0.2" stroke="rgb(0,0,0)" stroke-linejoin="miter" stroke-linecap="square" stroke-miterlimit="3"/><line x1="-10.434" y1="-27.491" x2="169.701" y2="34.626" vector-effect="non-scaling-stroke" stroke-width="0.2" stroke="rgb(0,0,0)" stroke-linejoin="miter" stroke-linecap="square" stroke-miterlimit="3"/></g><g style="isolation:isolate"><line x1="-0.25" y1="193.5" x2="90" y2="194.25" vector-effect="non-scaling-stroke" stroke-width="0.2" stroke="rgb(191,191,191)" stroke-linejoin="miter" stroke-linecap="square" stroke-miterlimit="3"/><path d="M 23.497 99.349 L 67.138 99.349 C 74.053 99.349 79.667 104.963 79.667 111.878 L 79.667 161.721 C 79.667 168.636 74.053 174.25 67.138 174.25 L 23.497 174.25 C 16.583 174.25 10.969 168.636 10.969 161.721 L 10.969 111.878 C 10.969 104.963 16.583 99.349 23.497 99.349 Z" style="stroke:none;fill:#0B0B0B;stroke-miterlimit:10;opacity:0.77;"/><path d="M 16.842 223.849 L 71.329 223.849 C 78.219 223.849 83.812 229.442 83.812 236.332 L 83.812 275.658 C 83.812 282.547 78.219 288.141 71.329 288.141 L 16.842 288.141 C 9.953 288.141 4.359 282.547 4.359 275.658 L 4.359 236.332 C 4.359 229.442 9.953 223.849 16.842 223.849 Z" style="stroke:none;fill:#0B0B0B;stroke-miterlimit:10;opacity:0.77;"/></g><g style="isolation:isolate"><g transform="matrix(1,0,0,1,7.375,18.5)"><text transform="matrix(1,0,0,1,2.631,19.992)" style="font-family:&quot;Champagne &amp; Limousines&quot;;font-weight:400;font-size:24px;font-style:normal;fill:#bfbfbf;stroke:none;">Groove</text></g><g transform="matrix(1,0,0,1,17,29.5)"><text transform="matrix(1,0,0,1,4.582,14.994)" style="font-family:&quot;Champagne &amp; Limousines&quot;;font-weight:400;font-size:18px;font-style:italic;fill:#65ff98;stroke:none;">Recorder</text></g><g transform="matrix(1,0,0,1,20.375,157)"><text transform="matrix(1,0,0,1,8.632,9.996)" style="font-family:&quot;Champagne &amp; Limousines&quot;;font-weight:400;font-size:12px;font-style:normal;fill:#bfbfbf;stroke:none;">record</text></g><g transform="matrix(1,0,0,1,38.5,138.373)"><text transform="matrix(1,0,0,1,1.422,7.497)" style="font-family:&quot;Champagne &amp; Limousines&quot;;font-weight:400;font-size:9px;font-style:normal;fill:#bfbfbf;stroke:none;">cv</text></g><g transform="matrix(1,0,0,1,4.167,346)"><text transform="matrix(1,0,0,1,8.492,11.662)" style="font-family:&quot;Champagne &amp; Limousines&quot;;font-weight:400;font-size:14px;font-style:normal;fill:#bfbfbf;stroke:none;">aP Modules</text></g><g transform="matrix(1,0,0,1,4.875,74.565)"><text transform="matrix(1,0,0,1,9.288,16.66)" style="font-family:&quot;Champagne &amp; Limousines&quot;;font-weight:400;font-size:20px;font-style:normal;fill:#bfbfbf;stroke:none;">Clock in</text></g><g transform="matrix(1,0,0,1,28.125,205.565)"><text transform="matrix(1,0,0,1,2.237,12.495)" style="font-family:&quot;Champagne &amp; Limousines&quot;;font-weight:400;font-size:15px;font-style:normal;fill:#bfbfbf;stroke:none;">Input</text></g><g transform="matrix(1,0,0,1,27.875,271.065)"><text transform="matrix(1,0,0,1,0.491,12.495)" style="font-family:&quot;Champagne &amp; Limousines&quot;;font-weight:400;font-size:15px;font-style:normal;fill:#bfbfbf;stroke:none;">Steps</text></g><g transform="matrix(1,0,0,1,24.875,320.565)"><text transform="matrix(1,0,0,1,0.77,12.495)" style="font-family:&quot;Champagne &amp; Limousines&quot;;font-weight:400;font-size:15px;font-style:normal;fill:#bfbfbf;stroke:none;">output</text></g><g transform="matrix(1,0,0,1,17.25,120)"><text transform="matrix(1,0,0,1,3.122,7.497)" style="font-family:&quot;Champagne &amp; Limousines&quot;;font-weight:400;font-size:9px;font-style:normal;fill:#bfbfbf;stroke:none;">in</text></g><g transform="matrix(1,0,0,1,59.25,120)"><text transform="matrix(1,0,0,1,0.277,7.497)" style="font-family:&quot;Champagne &amp; Limousines&quot;;font-weight:400;font-size:9px;font-style:normal;fill:#bfbfbf;stroke:none;">out</text></g></g><g style="isolation:isolate"><g><mask id="_mask_B8l5WxXUMybJj7TYvznGgvMYruG51Roi"><circle vector-effect="non-scaling-stroke" cx="24.34881889763779" cy="142.84881889763778" r="11.848818897637793" fill="white" stroke="none"/></mask><circle vector-effect="non-scaling-stroke" cx="24.34881889763779" cy="142.84881889763778" r="11.848818897637793" fill="rgb(187,187,187)" mask="url(#_mask_B8l5WxXUMybJj7TYvznGgvMYruG51Roi)" stroke-width="1" stroke="rgb(30,30,30)" stroke-linejoin="round" stroke-linecap="round" stroke-miterlimit="3"/><mask id="_mask_PRzpfi6pRwQ0p1HnLaMAl4jr8WpSUTgR"><circle vector-effect="non-scaling-stroke" cx="24.3488188976378" cy="142.8488188976378" r="10.814074467458111" fill="white" stroke="none"/></mask><circle vector-effect="non-scaling-stroke" cx="24.3488188976378" cy="142.8488188976378" r="10.814074467458111" fill="rgb(240,240,240)" mask="url(#_mask_PRzpfi6pRwQ0p1HnLaMAl4jr8WpSUTgR)" stroke-width="0.5" stroke="rgb(187,187,187)" stroke-linejoin="round" stroke-linecap="round" stroke-miterlimit="3"/><clipPath id="_clipPath_fhp3bQDvJSpo9VE9ASf3JKI2qhUdDLje"><circle vector-effect="non-scaling-stroke" cx="24.3488188976378" cy="142.8488188976378" r="10.814074467458111" fill="rgb(240,240,240)" mask="url(#_mask_PRzpfi6pRwQ0p1HnLaMAl4jr8WpSUTgR)" stroke-width="0.5" stroke="rgb(187,187,187)" stroke-linejoin="round" stroke-linecap="round" stroke-miterlimit="3"/></clipPath><g clip-path="url(#_clipPath_fhp3bQDvJSpo9VE9ASf3JKI2qhUdDLje)"><circle vector-effect="non-scaling-stroke" cx="24.348818897637805" cy="142.8488188976378" r="8.877014777435921" fill="rgb(240,240,240)"/></g><mask id="_mask_vHSMUnPQZnTihyaSvkTrJSw4yi5D00vB"><circle vector-effect="non-scaling-stroke" cx="24.348818897637813" cy="142.84881889763778" r="7.892639777435919" fill="white" stroke="none"/></mask><circle vector-effect="non-scaling-stroke" cx="24.348818897637813" cy="142.84881889763778" r="7.892639777435919" fill="rgb(247,227,47)" mask="url(#_mask_vHSMUnPQZnTihyaSvkTrJSw4yi5D00vB)" stroke-width="1" stroke="rgb(15,15,15)" stroke-linejoin="round" stroke-linecap="round" stroke-miterlimit="3"/><mask id="_mask_1ItrewidMlVFga1hVvHklyZNtkRbBt8h"><circle vector-effect="non-scaling-stroke" cx="24.3488188976378" cy="142.84881889763778" r="5.2973199162770115" fill="white" stroke="none"/></mask><circle vector-effect="non-scaling-stroke" cx="24.3488188976378" cy="142.84881889763778" r="5.2973199162770115" fill="rgb(0,0,0)" mask="url(#_mask_1ItrewidMlVFga1hVvHklyZNtkRbBt8h)" stroke-width="1" stroke="rgb(15,15,15)" stroke-linejoin="round" stroke-linecap="round" stroke-miterlimit="3"/></g><g><mask id="_mask_HdmHofRdzhuS1QgYAvaOKkz5shhN58zS"><circle vector-effect="non-scaling-stroke" cx="66.3488188976378" cy="249.54881889763783" r="11.848818897637798" fill="white" stroke="none"/></mask><circle vector-effect="non-scaling-stroke" cx="66.3488188976378" cy="249.54881889763783" r="11.848818897637798" fill="rgb(187,187,187)" mask="url(#_mask_HdmHofRdzhuS1QgYAvaOKkz5shhN58zS)" stroke-width="1" stroke="rgb(30,30,30)" stroke-linejoin="round" stroke-linecap="round" stroke-miterlimit="3"/><mask id="_mask_bnnBqyCLfONrXzZSaZ4MF1PtwUk74mtl"><circle vector-effect="non-scaling-stroke" cx="66.34881889763786" cy="249.54881889763777" r="10.814074467458113" fill="white" stroke="none"/></mask><circle vector-effect="non-scaling-stroke" cx="66.34881889763786" cy="249.54881889763777" r="10.814074467458113" fill="rgb(240,240,240)" mask="url(#_mask_bnnBqyCLfONrXzZSaZ4MF1PtwUk74mtl)" stroke-width="0.5" stroke="rgb(187,187,187)" stroke-linejoin="round" stroke-linecap="round" stroke-miterlimit="3"/><clipPath id="_clipPath_RD1pohJvB55EdcMjurXygHipWEqhkrIB"><circle vector-effect="non-scaling-stroke" cx="66.34881889763786" cy="249.54881889763777" r="10.814074467458113" fill="rgb(240,240,240)" mask="url(#_mask_bnnBqyCLfONrXzZSaZ4MF1PtwUk74mtl)" stroke-width="0.5" stroke="rgb(187,187,187)" stroke-linejoin="round" stroke-linecap="round" stroke-miterlimit="3"/></clipPath><g clip-path="url(#_clipPath_RD1pohJvB55EdcMjurXygHipWEqhkrIB)"><circle vector-effect="non-scaling-stroke" cx="66.34881889763786" cy="249.5488188976378" r="8.877014777435917" fill="rgb(240,240,240)"/></g><mask id="_mask_W1RcKLioBWi3a3rARRIa6LTM5qiPUkod"><circle vector-effect="non-scaling-stroke" cx="66.34881889763788" cy="249.54881889763772" r="7.892639777435917" fill="white" stroke="none"/></mask><circle vector-effect="non-scaling-stroke" cx="66.34881889763788" cy="249.54881889763772" r="7.892639777435917" fill="rgb(189,120,249)" mask="url(#_mask_W1RcKLioBWi3a3rARRIa6LTM5qiPUkod)" stroke-width="1" stroke="rgb(15,15,15)" stroke-linejoin="round" stroke-linecap="round" stroke-miterlimit="3"/><mask id="_mask_PQ0uRjQlBi7cCWQODncFRcfXZCPJt37S"><circle vector-effect="non-scaling-stroke" cx="66.34881889763786" cy="249.54881889763772" r="5.297319916277015" fill="white" stroke="none"/></mask><circle vector-effect="non-scaling-stroke" cx="66.34881889763786" cy="249.54881889763772" r="5.297319916277015" fill="rgb(0,0,0)" mask="url(#_mask_PQ0uRjQlBi7cCWQODncFRcfXZCPJt37S)" stroke-width="1" stroke="rgb(15,15,15)" stroke-linejoin="round" stroke-linecap="round" stroke-miterlimit="3"/></g><g><mask id="_mask_UFO5J81mBreCb2QCwOKbT9czxU7bVPqR"><circle vector-effect="non-scaling-stroke" cx="66.34881889763777" cy="142.84881889763778" r="11.848818897637798" fill="white" stroke="none"/></mask><circle vector-effect="non-scaling-stroke" cx="66.34881889763777" cy="142.84881889763778" r="11.848818897637798" fill="rgb(187,187,187)" mask="url(#_mask_UFO5J81mBreCb2QCwOKbT9czxU7bVPqR)" stroke-width="1" stroke="rgb(30,30,30)" stroke-linejoin="round" stroke-linecap="round" stroke-miterlimit="3"/><mask id="_mask_QozBYhick5TXnOdg1PXt7BB8rrCIrMXV"><circle vector-effect="non-scaling-stroke" cx="66.34881889763781" cy="142.8488188976378" r="10.814074467458113" fill="white" stroke="none"/></mask><circle vector-effect="non-scaling-stroke" cx="66.34881889763781" cy="142.8488188976378" r="10.814074467458113" fill="rgb(240,240,240)" mask="url(#_mask_QozBYhick5TXnOdg1PXt7BB8rrCIrMXV)" stroke-width="0.5" stroke="rgb(187,187,187)" stroke-linejoin="round" stroke-linecap="round" stroke-miterlimit="3"/><clipPath id="_clipPath_xBqGv7rhF3oLM2hpu340cSpbKgBwO20p"><circle vector-effect="non-scaling-stroke" cx="66.34881889763781" cy="142.8488188976378" r="10.814074467458113" fill="rgb(240,240,240)" mask="url(#_mask_QozBYhick5TXnOdg1PXt7BB8rrCIrMXV)" stroke-width="0.5" stroke="rgb(187,187,187)" stroke-linejoin="round" stroke-linecap="round" stroke-miterlimit="3"/></clipPath><g clip-path="url(#_clipPath_xBqGv7rhF3oLM2hpu340cSpbKgBwO20p)"><circle vector-effect="non-scaling-stroke" cx="66.34881889763781" cy="142.8488188976378" r="8.877014777435917" fill="rgb(240,240,240)"/></g><mask id="_mask_LeziNQ10p5ccD40GBtVRomq42f0OB2By"><circle vector-effect="non-scaling-stroke" cx="66.34881889763783" cy="142.84881889763778" r="7.892639777435917" fill="white" stroke="none"/></mask><circle vector-effect="non-scaling-stroke" cx="66.34881889763783" cy="142.84881889763778" r="7.892639777435917" fill="rgb(247,184,47)" mask="url(#_mask_LeziNQ10p5ccD40GBtVRomq42f0OB2By)" stroke-width="1" stroke="rgb(15,15,15)" stroke-linejoin="round" stroke-linecap="round" stroke-miterlimit="3"/><mask id="_mask_vgXRxUtGIeL1UnAAWVlhkWQYeMY5mGEj"><circle vector-effect="non-scaling-stroke" cx="66.34881889763781" cy="142.84881889763778" r="5.297319916277015" fill="white" stroke="none"/></mask><circle vector-effect="non-scaling-stroke" cx="66.34881889763781" cy="142.84881889763778" r="5.297319916277015" fill="rgb(0,0,0)" mask="url(#_mask_vgXRxUtGIeL1UnAAWVlhkWQYeMY5mGEj)" stroke-width="1" stroke="rgb(15,15,15)" stroke-linejoin="round" stroke-linecap="round" stroke-miterlimit="3"/></g><g><mask id="_mask_yZ3flqHMSCgoHFE3CR1yrUdWJogeXzPc"><circle vector-effect="non-scaling-stroke" cx="44.875" cy="64.47381889763778" r="11.848818897637798" fill="white" stroke="none"/></mask><circle vector-effect="non-scaling-stroke" cx="44.875" cy="64.47381889763778" r="11.848818897637798" fill="rgb(187,187,187)" mask="url(#_mask_yZ3flqHMSCgoHFE3CR1yrUdWJogeXzPc)" stroke-width="1" stroke="rgb(30,30,30)" stroke-linejoin="round" stroke-linecap="round" stroke-miterlimit="3"/><mask id="_mask_g2Prd43SHswcA5BDjRD0GTTuEM7IUP0J"><circle vector-effect="non-scaling-stroke" cx="44.87500000000004" cy="64.47381889763781" r="10.814074467458113" fill="white" stroke="none"/></mask><circle vector-effect="non-scaling-stroke" cx="44.87500000000004" cy="64.47381889763781" r="10.814074467458113" fill="rgb(240,240,240)" mask="url(#_mask_g2Prd43SHswcA5BDjRD0GTTuEM7IUP0J)" stroke-width="0.5" stroke="rgb(187,187,187)" stroke-linejoin="round" stroke-linecap="round" stroke-miterlimit="3"/><clipPath id="_clipPath_odFvSchAg8d7gvh745U8j6dZbnhcfvLy"><circle vector-effect="non-scaling-stroke" cx="44.87500000000004" cy="64.47381889763781" r="10.814074467458113" fill="rgb(240,240,240)" mask="url(#_mask_g2Prd43SHswcA5BDjRD0GTTuEM7IUP0J)" stroke-width="0.5" stroke="rgb(187,187,187)" stroke-linejoin="round" stroke-linecap="round" stroke-miterlimit="3"/></clipPath><g clip-path="url(#_clipPath_odFvSchAg8d7gvh745U8j6dZbnhcfvLy)"><circle vector-effect="non-scaling-stroke" cx="44.87500000000004" cy="64.47381889763781" r="8.877014777435917" fill="rgb(240,240,240)"/></g><mask id="_mask_HVXUJLuleBPkAZQmtWKw6aGT0CQSpYUA"><circle vector-effect="non-scaling-stroke" cx="44.87500000000006" cy="64.47381889763778" r="7.892639777435917" fill="white" stroke="none"/></mask><circle vector-effect="non-scaling-stroke" cx="44.87500000000006" cy="64.47381889763778" r="7.892639777435917" fill="rgb(255,78,78)" mask="url(#_mask_HVXUJLuleBPkAZQmtWKw6aGT0CQSpYUA)" stroke-width="1" stroke="rgb(15,15,15)" stroke-linejoin="round" stroke-linecap="round" stroke-miterlimit="3"/><mask id="_mask_fZSXQBc14clrreU9tFmGVJW2KdQVILu9"><circle vector-effect="non-scaling-stroke" cx="44.87500000000004" cy="64.47381889763778" r="5.2973199162770115" fill="white" stroke="none"/></mask><circle vector-effect="non-scaling-stroke" cx="44.87500000000004" cy="64.47381889763778" r="5.2973199162770115" fill="rgb(0,0,0)" mask="url(#_mask_fZSXQBc14clrreU9tFmGVJW2KdQVILu9)" stroke-width="1" stroke="rgb(15,15,15)" stroke-linejoin="round" stroke-linecap="round" stroke-miterlimit="3"/></g><g><mask id="_mask_myjSpxYQILq82M3F4bNuue4HBoMcGebS"><circle vector-effect="non-scaling-stroke" cx="44.875" cy="193.8488188976378" r="11.848818897637798" fill="white" stroke="none"/></mask><circle vector-effect="non-scaling-stroke" cx="44.875" cy="193.8488188976378" r="11.848818897637798" fill="rgb(187,187,187)" mask="url(#_mask_myjSpxYQILq82M3F4bNuue4HBoMcGebS)" stroke-width="1" stroke="rgb(30,30,30)" stroke-linejoin="round" stroke-linecap="round" stroke-miterlimit="3"/><mask id="_mask_bZOMyiRYTY4Y4zII9jeMwv4FXMOR5eu6"><circle vector-effect="non-scaling-stroke" cx="44.87500000000006" cy="193.84881889763778" r="10.814074467458113" fill="white" stroke="none"/></mask><circle vector-effect="non-scaling-stroke" cx="44.87500000000006" cy="193.84881889763778" r="10.814074467458113" fill="rgb(240,240,240)" mask="url(#_mask_bZOMyiRYTY4Y4zII9jeMwv4FXMOR5eu6)" stroke-width="0.5" stroke="rgb(187,187,187)" stroke-linejoin="round" stroke-linecap="round" stroke-miterlimit="3"/><clipPath id="_clipPath_sjkKuMiAV2KZ8yPBY5lI0wix1rQMksMI"><circle vector-effect="non-scaling-stroke" cx="44.87500000000006" cy="193.84881889763778" r="10.814074467458113" fill="rgb(240,240,240)" mask="url(#_mask_bZOMyiRYTY4Y4zII9jeMwv4FXMOR5eu6)" stroke-width="0.5" stroke="rgb(187,187,187)" stroke-linejoin="round" stroke-linecap="round" stroke-miterlimit="3"/></clipPath><g clip-path="url(#_clipPath_sjkKuMiAV2KZ8yPBY5lI0wix1rQMksMI)"><circle vector-effect="non-scaling-stroke" cx="44.87500000000006" cy="193.84881889763778" r="8.877014777435917" fill="rgb(240,240,240)"/></g><mask id="_mask_MiFEKosE774LyyHqT4tY4ghyR1OSCepJ"><circle vector-effect="non-scaling-stroke" cx="44.875000000000064" cy="193.84881889763776" r="7.892639777435917" fill="white" stroke="none"/></mask><circle vector-effect="non-scaling-stroke" cx="44.875000000000064" cy="193.84881889763776" r="7.892639777435917" fill="rgb(173,255,50)" mask="url(#_mask_MiFEKosE774LyyHqT4tY4ghyR1OSCepJ)" stroke-width="1" stroke="rgb(15,15,15)" stroke-linejoin="round" stroke-linecap="round" stroke-miterlimit="3"/><mask id="_mask_1OZflo5A6vkZsubwOk4rDUpiN9ZfqudW"><circle vector-effect="non-scaling-stroke" cx="44.87500000000005" cy="193.84881889763778" r="5.2973199162770115" fill="white" stroke="none"/></mask><circle vector-effect="non-scaling-stroke" cx="44.87500000000005" cy="193.84881889763778" r="5.2973199162770115" fill="rgb(0,0,0)" mask="url(#_mask_1OZflo5A6vkZsubwOk4rDUpiN9ZfqudW)" stroke-width="1" stroke="rgb(15,15,15)" stroke-linejoin="round" stroke-linecap="round" stroke-miterlimit="3"/></g><g><mask id="_mask_0kuzWq9SfjkWNnwVMmmS7nUQQWmVI0Sv"><circle vector-effect="non-scaling-stroke" cx="44.87499999999999" cy="309.3488188976378" r="11.848818897637791" fill="white" stroke="none"/></mask><circle vector-effect="non-scaling-stroke" cx="44.87499999999999" cy="309.3488188976378" r="11.848818897637791" fill="rgb(187,187,187)" mask="url(#_mask_0kuzWq9SfjkWNnwVMmmS7nUQQWmVI0Sv)" stroke-width="1" stroke="rgb(30,30,30)" stroke-linejoin="round" stroke-linecap="round" stroke-miterlimit="3"/><mask id="_mask_E4RALHeosVqJitCvwzk0IISMbvmIV30y"><circle vector-effect="non-scaling-stroke" cx="44.87500000000008" cy="309.3488188976378" r="10.814074467458106" fill="white" stroke="none"/></mask><circle vector-effect="non-scaling-stroke" cx="44.87500000000008" cy="309.3488188976378" r="10.814074467458106" fill="rgb(240,240,240)" mask="url(#_mask_E4RALHeosVqJitCvwzk0IISMbvmIV30y)" stroke-width="0.5" stroke="rgb(187,187,187)" stroke-linejoin="round" stroke-linecap="round" stroke-miterlimit="3"/><clipPath id="_clipPath_8PikVZJPNjXIa9bjuw3KZTCXMySY7H9y"><circle vector-effect="non-scaling-stroke" cx="44.87500000000008" cy="309.3488188976378" r="10.814074467458106" fill="rgb(240,240,240)" mask="url(#_mask_E4RALHeosVqJitCvwzk0IISMbvmIV30y)" stroke-width="0.5" stroke="rgb(187,187,187)" stroke-linejoin="round" stroke-linecap="round" stroke-miterlimit="3"/></clipPath><g clip-path="url(#_clipPath_8PikVZJPNjXIa9bjuw3KZTCXMySY7H9y)"><circle vector-effect="non-scaling-stroke" cx="44.87500000000008" cy="309.3488188976378" r="8.877014777435917" fill="rgb(240,240,240)"/></g><mask id="_mask_VBkwb3S5yegFd06s273CIoWX8oXmfqcL"><circle vector-effect="non-scaling-stroke" cx="44.875000000000085" cy="309.3488188976377" r="7.892639777435917" fill="white" stroke="none"/></mask><circle vector-effect="non-scaling-stroke" cx="44.875000000000085" cy="309.3488188976377" r="7.892639777435917" fill="rgb(72,179,255)" mask="url(#_mask_VBkwb3S5yegFd06s273CIoWX8oXmfqcL)" stroke-width="1" stroke="rgb(15,15,15)" stroke-linejoin="round" stroke-linecap="round" stroke-miterlimit="3"/><mask id="_mask_qofO8OrZRLb1jsNbj9zXNZxTM4erqV2s"><circle vector-effect="non-scaling-stroke" cx="44.87500000000007" cy="309.3488188976378" r="5.2973199162770115" fill="white" stroke="none"/></mask><circle vector-effect="non-scaling-stroke" cx="44.87500000000007" cy="309.3488188976378" r="5.2973199162770115" fill="rgb(0,0,0)" mask="url(#_mask_qofO8OrZRLb1jsNbj9zXNZxTM4erqV2s)" stroke-width="1" stroke="rgb(15,15,15)" stroke-linejoin="round" stroke-linecap="round" stroke-miterlimit="3"/></g><mask id="_mask_K9t8gBMiIriaG3lIeqjNkkcbrHkJGv1L"><circle vector-effect="non-scaling-stroke" cx="44.87500000000001" cy="111.39999999999999" r="10.649999999999999" fill="white" stroke="none"/></mask><circle vector-effect="non-scaling-stroke" cx="44.87500000000001" cy="111.39999999999999" r="10.649999999999999" fill="rgb(62,62,62)" mask="url(#_mask_K9t8gBMiIriaG3lIeqjNkkcbrHkJGv1L)" stroke-width="4" stroke="rgb(2,2,2)" stroke-opacity="0.77" stroke-linejoin="miter" stroke-linecap="square" stroke-miterlimit="3"/><g><mask id="_mask_urZJey6KhaLpRzCUv8bDmkInQlRYZZ49"><ellipse vector-effect="non-scaling-stroke" cx="26.8" cy="247.52339449541284" rx="17.5" ry="16.976605504587155" fill="white" stroke="none"/></mask><ellipse vector-effect="non-scaling-stroke" cx="26.8" cy="247.52339449541284" rx="17.5" ry="16.976605504587155" fill="rgb(28,28,28)" mask="url(#_mask_urZJey6KhaLpRzCUv8bDmkInQlRYZZ49)" stroke-width="1" stroke="rgb(21,21,21)" stroke-linejoin="round" stroke-linecap="round" stroke-miterlimit="3"/><path d=" M 12.287 247.5 C 12.299 239.73 18.812 233.431 26.822 233.444 C 34.832 233.457 41.325 239.776 41.313 247.547 C 41.301 255.317 34.788 261.615 26.778 261.602 C 18.768 261.59 12.275 255.27 12.287 247.5 Z " fill="rgb(8,8,8)"/><path d=" M 10.636 247.318 C 10.757 238.666 18.097 231.734 27.018 231.847 C 35.94 231.961 43.085 239.077 42.964 247.729 C 42.843 256.381 35.503 263.313 26.582 263.199 C 17.66 263.086 10.515 255.97 10.636 247.318 Z " fill="rgb(28,28,28)" fill-opacity="0.77"/><mask id="_mask_YF2rIyVifP0C3wAB20rU4uUVa2FINZ81" x="-200%" y="-200%" width="400%" height="400%"><rect x="0" y="0" width="100%" height="100%" style="fill:white;"/><ellipse vector-effect="non-scaling-stroke" cx="26.799999999999976" cy="247.5233944954128" rx="10.393792495989851" ry="10.075572946530954" fill="black" stroke="none"/></mask><ellipse vector-effect="non-scaling-stroke" cx="26.799999999999976" cy="247.5233944954128" rx="10.393792495989851" ry="10.075572946530954" fill="rgb(0,0,0)" mask="url(#_mask_YF2rIyVifP0C3wAB20rU4uUVa2FINZ81)" stroke-width="4" stroke="rgb(48,48,48)" stroke-linejoin="round" stroke-linecap="round" stroke-miterlimit="3"/><rect x="26.271" y="229.5" width="1.059" height="3.958" transform="matrix(1,0,0,1,0,0)" fill="rgb(111,111,111)"/></g></g></g></svg>