<?xml version="1.0" standalone="no"?><!-- Generator: Gravit.io --><svg xmlns="http://www.w3.org/2000/svg" xmlns:xlink="http://www.w3.org/1999/xlink" style="isolation:isolate" viewBox="0 0 120 380" width="120" height="380"><defs><clipPath id="_clipPath_jyz6hiK8WZtkoJZOgJjspY5H9i20Tb5d"><rect width="120" height="380"/></clipPath></defs><g clip-path="url(#_clipPath_jyz6hiK8WZtkoJZOgJjspY5H9i20Tb5d)"><rect width="120" height="380" style="fill:rgb(30,30,30)"/><path d="M 24.609 67.875 L 94.641 67.875 C 106.292 67.875 115.75 77.333 115.75 88.984 L 115.75 176.891 C 115.75 188.542 106.292 198 94.641 198 L 24.609 198 C 12.958 198 3.5 188.542 3.5 176.891 L 3.5 88.984 C 3.5 77.333 12.958 67.875 24.609 67.875 Z" style="stroke:none;fill:#0B0B0B;stroke-miterlimit:10;opacity:0.77;"/><path d="M 24.609 207 L 94.641 207 C 106.292 207 115.75 216.458 115.75 228.109 L 115.75 316.016 C 115.75 327.667 106.292 337.125 94.641 337.125 L 24.609 337.125 C 12.958 337.125 3.5 327.667 3.5 316.016 L 3.5 228.109 C 3.5 216.458 12.958 207 24.609 207 Z" style="stroke:none;fill:#0B0B0B;stroke-miterlimit:10;opacity:0.77;"/><g opacity="0.48"><path d=" M -514.445 -151.682 C -513.078 -142.504 -511.688 -133.426 -510.278 -124.446 C -494.161 0.054 -474.943 114.159 -454.451 219.172 L -462.483 145.63 C -460.093 157.535 -457.68 169.297 -455.249 180.918 L -461.176 128.217 L -461.176 128.217 L -461.176 128.217 C -460.199 133.271 -459.218 138.305 -458.235 143.319 L -465.956 75.627 C -463.675 86.955 -461.373 98.164 -459.053 109.255 L -463.518 71.178 C -462.823 74.739 -462.127 78.292 -461.428 81.836 L -465.12 50.678 C -463.392 58.393 -461.655 66.002 -459.912 73.507 L -468.284 2.532 L -468.284 2.532 L -468.284 2.532 C -467.99 4.025 -467.696 5.516 -467.402 7.005 L -469.263 -8.245 C -467.231 0.948 -465.187 10.001 -463.135 18.917 L -543.558 -638.521 L -552.637 -712.736 C -552.633 -712.62 -552.629 -712.505 -552.625 -712.389 C -552.624 -712.376 -552.624 -712.363 -552.623 -712.35 C -552.614 -712.077 -552.604 -711.804 -552.595 -711.531 L -552.595 -711.531 L -552.595 -711.531 L -552.595 -711.531 L -553.627 -720 L -553.627 -720 L -553.627 -720 L -553.627 -720 C -553.365 -712.368 -553.085 -704.78 -552.787 -697.238 L -553.085 -699.598 C -553.06 -698.951 -553.035 -698.303 -553.01 -697.656 L -553.01 -697.656 L -553.01 -697.656 L -553.063 -698.074 C -553.032 -697.257 -553.002 -696.44 -552.971 -695.623 L -554.004 -704.01 C -553.976 -703.271 -553.947 -702.531 -553.918 -701.792 L -554.034 -702.738 C -553.978 -701.243 -553.922 -699.748 -553.864 -698.255 L -554.094 -700.192 C -554.043 -698.717 -553.992 -697.243 -553.94 -695.77 L -554.154 -697.647 C -554.132 -696.938 -554.11 -696.229 -554.087 -695.52 L -554.184 -696.374 C -554.152 -695.303 -554.119 -694.233 -554.086 -693.164 L -554.086 -693.164 L -554.086 -693.164 L -554.086 -693.164 L -554.086 -693.164 L -554.229 -694.465 C -553.456 -666.319 -552.499 -638.573 -551.369 -611.219 L -558.046 -666.085 C -557.649 -652.845 -557.209 -639.744 -556.726 -626.778 L -562.103 -667.931 C -561.9 -662.489 -561.687 -657.069 -561.463 -651.672 L -561.463 -651.672 L -561.463 -651.672 L -565.677 -686.315 C -562.665 -598.696 -557.191 -515.095 -549.819 -435.344 L -549.819 -435.344 L -549.819 -435.344 L -581.671 -694.324 C -579.613 -627.849 -576.383 -564.903 -572.166 -505.217 L -572.166 -505.217 L -572.166 -505.217 L -572.166 -505.217 L -595.564 -703 C -593.974 -645.121 -591.632 -589.945 -588.629 -537.293 L -604.342 -672 L -604.342 -672 L -604.342 -672 L -604.342 -672 L -604.342 -672 L -604.342 -672 L -604.342 -672 C -593.143 -298.497 -552.991 -42.941 -508.86 146.561 L -529.207 -27.876 C -520.264 19.551 -510.787 63.755 -500.994 105.151 L -500.665 119.332 L -499.344 112.086 C -499.465 111.581 -499.585 111.076 -499.706 110.571 L -493.903 209.691 Q -496.178 203.282 -492.09 270.549 L -494.251 197.439 L -493.577 250.38 L -492.984 218.813 L -492.654 273.64 L -492.336 229.419 L -491.511 295.695 L -491.739 240.306 L -488.897 338 L -489.824 272.286 L -495.869 206.31 L -494.863 186.632 L -497.04 184.415 L -499.026 110.341 L -499.22 111.406 L -500.085 104.096 L -507.595 -24.198 C -501.536 5.021 -495.282 33.056 -488.897 60 L -513.831 -142.73 L -514.445 -151.682 Z  M -515.459 -158.532 C -516.16 -163.296 -516.854 -168.087 -517.542 -172.905 L -515.173 -153.641 L -515.459 -158.532 Z  M -508.213 -27.186 C -515.112 -60.615 -521.753 -95.589 -528.044 -132.247 L -501.245 94.287 L -502.12 56.507 L -505.638 33.318 L -508.213 -27.186 Z  M -27.233 233.062 C -25.577 240.271 -23.916 247.375 -22.25 254.393 L -27.233 233.062 L -27.233 233.062 L -27.233 233.062 L -27.233 233.062 L -27.233 233.062 L -27.233 233.062 L -27.233 233.062 L -27.233 233.062 L -27.233 233.062 L -27.233 233.062 L -27.233 233.062 L -27.233 233.062 L -27.233 233.062 L -27.233 233.062 L -27.233 233.062 L -27.233 233.062 L -27.233 233.062 L -27.233 233.062 L -27.233 233.062 L -27.233 233.062 L -27.233 233.062 L -27.233 233.062 L -27.233 233.062 L -27.233 233.062 L -27.233 233.062 L -27.233 233.062 L -27.233 233.062 L -27.233 233.062 L -27.233 233.062 L -27.233 233.062 L -27.233 233.062 Z  M 127.789 503.45 C 128.851 507.938 129.924 512.352 131 516.745 L 127.789 503.45 L 127.789 503.45 L 127.789 503.45 L 127.789 503.45 Z  M 109.181 52.249 C 110.08 56.863 110.988 61.425 111.899 65.973 L 109.181 52.249 L 109.181 52.249 L 109.181 52.249 L 109.181 52.249 L 109.181 52.249 L 109.181 52.249 L 109.181 52.249 L 109.181 52.249 L 109.181 52.249 L 109.181 52.249 L 109.181 52.249 L 109.181 52.249 L 109.181 52.249 L 109.181 52.249 L 109.181 52.249 L 109.181 52.249 L 109.181 52.249 L 109.181 52.249 L 109.181 52.249 L 109.181 52.249 L 109.181 52.249 L 109.181 52.249 L 109.181 52.249 L 109.181 52.249 L 109.181 52.249 L 109.181 52.249 L 109.181 52.249 L 109.181 52.249 L 109.181 52.249 L 109.181 52.249 L 109.181 52.249 L 109.181 52.249 L 109.181 52.249 L 109.181 52.249 L 109.181 52.249 L 109.181 52.249 L 109.181 52.249 L 109.181 52.249 L 109.181 52.249 L 109.181 52.249 L 109.181 52.249 L 109.181 52.249 L 109.181 52.249 Z  M -93.303 -232.208 C -86.36 -59.7 -60.867 95.896 -31.24 231.502 L -93.303 -232.208 L -93.303 -232.208 L -93.303 -232.208 L -93.303 -232.208 L -93.303 -232.208 L -93.303 -232.208 L -93.303 -232.208 L -93.303 -232.208 L -93.303 -232.208 L -93.303 -232.208 L -93.303 -232.208 L -93.303 -232.208 L -93.303 -232.208 L -93.303 -232.208 L -93.303 -232.208 L -93.303 -232.208 L -93.303 -232.208 L -93.303 -232.208 L -93.303 -232.208 L -93.303 -232.208 L -93.303 -232.208 L -93.303 -232.208 L -93.303 -232.208 L -93.303 -232.208 L -93.303 -232.208 L -93.303 -232.208 L -93.303 -232.208 L -93.303 -232.208 L -93.303 -232.208 L -93.303 -232.208 L -93.303 -232.208 L -93.303 -232.208 L -93.303 -232.208 L -93.303 -232.208 L -93.303 -232.208 L -93.303 -232.208 L -93.303 -232.208 L -93.303 -232.208 L -93.303 -232.208 L -93.303 -232.208 L -93.303 -232.208 L -93.303 -232.208 L -93.303 -232.208 L -93.303 -232.208 L -93.303 -232.208 L -93.303 -232.208 L -93.303 -232.208 L -93.303 -232.208 L -93.303 -232.208 L -93.303 -232.208 L -93.303 -232.208 L -93.303 -232.208 Z  M 112.993 68.352 C 114.998 76.862 117.013 85.295 119.038 93.63 L 112.993 68.352 L 112.993 68.352 L 112.993 68.352 L 112.993 68.352 L 112.993 68.352 L 112.993 68.352 L 112.993 68.352 L 112.993 68.352 L 112.993 68.352 L 112.993 68.352 L 112.993 68.352 L 112.993 68.352 L 112.993 68.352 L 112.993 68.352 L 112.993 68.352 L 112.993 68.352 L 112.993 68.352 L 112.993 68.352 L 112.993 68.352 L 112.993 68.352 L 112.993 68.352 L 112.993 68.352 L 112.993 68.352 L 112.993 68.352 L 112.993 68.352 L 112.993 68.352 L 112.993 68.352 L 112.993 68.352 L 112.993 68.352 L 112.993 68.352 L 112.993 68.352 L 112.993 68.352 L 112.993 68.352 Z  M -31.501 221.15 C -30.55 226.034 -29.59 230.86 -28.627 235.67 L -31.501 221.15 L -31.501 221.15 L -31.501 221.15 L -31.501 221.15 L -31.501 221.15 L -31.501 221.15 L -31.501 221.15 L -31.501 221.15 L -31.501 221.15 L -31.501 221.15 L -31.501 221.15 L -31.501 221.15 L -31.501 221.15 L -31.501 221.15 L -31.501 221.15 L -31.501 221.15 L -31.501 221.15 L -31.501 221.15 L -31.501 221.15 L -31.501 221.15 L -31.501 221.15 L -31.501 221.15 L -31.501 221.15 L -31.501 221.15 L -31.501 221.15 L -31.501 221.15 L -31.501 221.15 L -31.501 221.15 L -31.501 221.15 L -31.501 221.15 L -31.501 221.15 L -31.501 221.15 L -31.501 221.15 L -31.501 221.15 L -31.501 221.15 Z  M 108.875 64.605 C 109.34 66.852 109.806 69.091 110.274 71.322 C 110.296 71.429 110.319 71.536 110.341 71.646 C 111.094 75.231 111.849 78.799 112.606 82.357 L 108.875 64.605 L 108.875 64.605 L 108.875 64.605 L 108.875 64.605 L 108.875 64.605 L 108.875 64.605 L 108.875 64.605 L 108.875 64.605 L 108.875 64.605 L 108.875 64.605 L 108.875 64.605 L 108.875 64.605 L 108.875 64.605 L 108.875 64.605 L 108.875 64.605 L 108.875 64.605 L 108.875 64.605 L 108.875 64.605 L 108.875 64.605 L 108.875 64.605 L 108.875 64.605 L 108.875 64.605 L 108.875 64.605 L 108.875 64.605 L 108.875 64.605 L 108.875 64.605 L 108.875 64.605 L 108.875 64.605 L 108.875 64.605 L 108.875 64.605 L 108.875 64.605 L 108.875 64.605 L 108.875 64.605 L 108.875 64.605 L 108.875 64.605 L 108.875 64.605 L 108.875 64.605 Z  M 108.407 26.976 C 109.575 32.624 110.753 38.213 111.936 43.774 L 108.407 26.976 L 108.407 26.976 L 108.407 26.976 L 108.407 26.976 L 108.407 26.976 L 108.407 26.976 L 108.407 26.976 L 108.407 26.976 L 108.407 26.976 L 108.407 26.976 L 108.407 26.976 L 108.407 26.976 L 108.407 26.976 L 108.407 26.976 L 108.407 26.976 L 108.407 26.976 L 108.407 26.976 L 108.407 26.976 L 108.407 26.976 L 108.407 26.976 L 108.407 26.976 L 108.407 26.976 L 108.407 26.976 L 108.407 26.976 L 108.407 26.976 L 108.407 26.976 L 108.407 26.976 L 108.407 26.976 L 108.407 26.976 L 108.407 26.976 L 108.407 26.976 L 108.407 26.976 L 108.407 26.976 L 108.407 26.976 L 108.407 26.976 L 108.407 26.976 L 108.407 26.976 L 108.407 26.976 L 108.407 26.976 L 108.407 26.976 L 108.407 26.976 L 108.407 26.976 L 108.407 26.976 L 108.407 26.976 L 108.407 26.976 Z  M -31.24 231.502 L -31.24 231.502 C -30.559 234.673 -29.87 237.806 -29.179 240.928 L -31.24 231.502 L -31.24 231.502 L -31.24 231.502 L -31.24 231.502 L -31.24 231.502 L -31.24 231.502 L -31.24 231.502 L -31.24 231.502 L -31.24 231.502 L -31.24 231.502 L -31.24 231.502 L -31.24 231.502 L -31.24 231.502 L -31.24 231.502 L -31.24 231.502 L -31.24 231.502 L -31.24 231.502 L -31.24 231.502 L -31.24 231.502 L -31.24 231.502 L -31.24 231.502 L -31.24 231.502 L -31.24 231.502 L -31.24 231.502 L -31.24 231.502 L -31.24 231.502 L -31.24 231.502 L -31.24 231.502 L -31.24 231.502 L -31.24 231.502 L -31.24 231.502 L -31.24 231.502 L -31.24 231.502 L -31.24 231.502 L -31.24 231.502 L -31.24 231.502 L -31.24 231.502 L -31.24 231.502 L -31.24 231.502 L -31.24 231.502 L -31.24 231.502 L -31.24 231.502 L -31.24 231.502 L -31.24 231.502 L -31.24 231.502 L -31.24 231.502 L -31.24 231.502 L -31.24 231.502 L -31.24 231.502 L -31.24 231.502 L -31.24 231.502 Z  M 120.843 72.225 L 120.843 72.225 C 122.023 77.039 123.209 81.794 124.399 86.489 L 118.931 46.872 C 120.52 53.307 122.124 59.658 123.74 65.926 L 114.449 1.139 L 64.487 -347.26 L 63.807 -352 L 63.807 -352 L 63.807 -352 C 63.979 -347.713 64.163 -343.448 64.357 -339.206 L 64 -341.809 C 70.831 -172.099 95.686 -24.895 124.794 101 L 120.843 72.225 L 120.843 72.225 L 120.843 72.225 L 120.843 72.225 L 120.843 72.225 L 120.843 72.225 L 120.843 72.225 L 120.843 72.225 L 120.843 72.225 L 120.843 72.225 L 120.843 72.225 L 120.843 72.225 L 120.843 72.225 L 120.843 72.225 L 120.843 72.225 L 120.843 72.225 L 120.843 72.225 L 120.843 72.225 L 120.843 72.225 L 120.843 72.225 L 120.843 72.225 L 120.843 72.225 L 120.843 72.225 L 120.843 72.225 L 120.843 72.225 L 120.843 72.225 L 120.843 72.225 L 120.843 72.225 L 120.843 72.225 L 120.843 72.225 L 120.843 72.225 L 120.843 72.225 L 120.843 72.225 L 120.843 72.225 L 120.843 72.225 L 120.843 72.225 L 120.843 72.225 L 120.843 72.225 L 120.843 72.225 L 120.843 72.225 L 120.843 72.225 L 120.843 72.225 L 120.843 72.225 L 120.843 72.225 L 120.843 72.225 L 120.843 72.225 L 120.843 72.225 L 120.843 72.225 L 120.843 72.225 L 120.843 72.225 L 120.843 72.225 L 120.843 72.225 L 120.843 72.225 L 120.843 72.225 L 120.843 72.225 Z  M 115.384 81.48 C 116.27 85.353 117.163 89.183 118.061 92.992 L 115.384 81.48 L 115.384 81.48 L 115.384 81.48 L 115.384 81.48 L 115.384 81.48 L 115.384 81.48 L 115.384 81.48 L 115.384 81.48 L 115.384 81.48 L 115.384 81.48 L 115.384 81.48 L 115.384 81.48 L 115.384 81.48 L 115.384 81.48 L 115.384 81.48 L 115.384 81.48 L 115.384 81.48 L 115.384 81.48 L 115.384 81.48 L 115.384 81.48 L 115.384 81.48 L 115.384 81.48 L 115.384 81.48 L 115.384 81.48 L 115.384 81.48 L 115.384 81.48 L 115.384 81.48 L 115.384 81.48 L 115.384 81.48 L 115.384 81.48 L 115.384 81.48 L 115.384 81.48 L 115.384 81.48 L 115.384 81.48 L 115.384 81.48 L 115.384 81.48 L 115.384 81.48 L 115.384 81.48 L 115.384 81.48 L 115.384 81.48 L 115.384 81.48 L 115.384 81.48 L 115.384 81.48 L 115.384 81.48 L 115.384 81.48 L 115.384 81.48 L 115.384 81.48 L 115.384 81.48 L 115.384 81.48 L 115.384 81.48 L 115.384 81.48 L 115.384 81.48 L 115.384 81.48 L 115.384 81.48 Z  M 112.124 50.157 C 113.462 55.319 114.806 60.438 116.157 65.502 L 112.124 50.157 L 112.124 50.157 L 112.124 50.157 L 112.124 50.157 L 112.124 50.157 L 112.124 50.157 L 112.124 50.157 L 112.124 50.157 L 112.124 50.157 L 112.124 50.157 L 112.124 50.157 L 112.124 50.157 L 112.124 50.157 L 112.124 50.157 L 112.124 50.157 L 112.124 50.157 L 112.124 50.157 L 112.124 50.157 L 112.124 50.157 L 112.124 50.157 L 112.124 50.157 L 112.124 50.157 L 112.124 50.157 L 112.124 50.157 L 112.124 50.157 L 112.124 50.157 L 112.124 50.157 L 112.124 50.157 L 112.124 50.157 L 112.124 50.157 L 112.124 50.157 L 112.124 50.157 L 112.124 50.157 L 112.124 50.157 L 112.124 50.157 L 112.124 50.157 L 112.124 50.157 L 112.124 50.157 L 112.124 50.157 L 112.124 50.157 L 112.124 50.157 L 112.124 50.157 L 112.124 50.157 L 112.124 50.157 L 112.124 50.157 L 112.124 50.157 L 112.124 50.157 L 112.124 50.157 L 112.124 50.157 L 112.124 50.157 L 112.124 50.157 L 112.124 50.157 L 112.124 50.157 L 112.124 50.157 L 112.124 50.157 L 112.124 50.157 L 112.124 50.157 L 112.124 50.157 L 112.124 50.157 L 112.124 50.157 Z  M -480.534 -145.605 C -478.505 -136.502 -476.457 -127.507 -474.394 -118.617 L -544.09 -647.612 L -552.598 -712.189 L -552.625 -712.389 L -552.682 -712.824 L -552.729 -713.179 L -552.623 -712.35 L -552.597 -712.142 L -543.836 -643.264 L -480.534 -145.605 L -480.534 -145.605 L -480.534 -145.605 L -480.534 -145.605 L -480.534 -145.605 L -480.534 -145.605 L -480.534 -145.605 L -480.534 -145.605 L -480.534 -145.605 L -480.534 -145.605 L -480.534 -145.605 L -480.534 -145.605 L -480.534 -145.605 L -480.534 -145.605 L -480.534 -145.605 L -480.534 -145.605 L -480.534 -145.605 L -480.534 -145.605 L -480.534 -145.605 L -480.534 -145.605 L -480.534 -145.605 L -480.534 -145.605 L -480.534 -145.605 L -480.534 -145.605 L -480.534 -145.605 L -480.534 -145.605 L -480.534 -145.605 L -480.534 -145.605 L -480.534 -145.605 L -480.534 -145.605 L -480.534 -145.605 L -480.534 -145.605 L -480.534 -145.605 L -480.534 -145.605 Z  M 108.77 65.47 C 109.293 67.538 109.817 69.593 110.341 71.646 C 110.925 73.906 111.509 76.163 112.095 78.405 L 110.274 71.322 L 108.77 65.47 L 108.77 65.47 L 108.77 65.47 L 108.77 65.47 L 108.77 65.47 L 108.77 65.47 L 108.77 65.47 L 108.77 65.47 L 108.77 65.47 L 108.77 65.47 L 108.77 65.47 L 108.77 65.47 L 108.77 65.47 L 108.77 65.47 L 108.77 65.47 L 108.77 65.47 L 108.77 65.47 L 108.77 65.47 L 108.77 65.47 L 108.77 65.47 L 108.77 65.47 L 108.77 65.47 L 108.77 65.47 L 108.77 65.47 L 108.77 65.47 L 108.77 65.47 L 108.77 65.47 L 108.77 65.47 L 108.77 65.47 L 108.77 65.47 L 108.77 65.47 L 108.77 65.47 L 108.77 65.47 L 108.77 65.47 L 108.77 65.47 L 108.77 65.47 L 108.77 65.47 L 108.77 65.47 L 108.77 65.47 L 108.77 65.47 L 108.77 65.47 L 108.77 65.47 L 108.77 65.47 L 108.77 65.47 L 108.77 65.47 L 108.77 65.47 L 108.77 65.47 L 108.77 65.47 L 108.77 65.47 L 108.77 65.47 L 108.77 65.47 L 108.77 65.47 L 108.77 65.47 L 108.77 65.47 L 108.77 65.47 L 108.77 65.47 L 108.77 65.47 Z  M 21.741 648.633 L 21.47 644.276 C 21.359 644.582 21.247 644.887 21.135 645.193 L 21.741 648.633 L 21.741 648.633 Z  M -12.725 368.978 C -11.559 374.078 -10.382 379.117 -9.201 384.128 L -12.725 368.978 L -12.725 368.978 L -12.725 368.978 L -12.725 368.978 L -12.725 368.978 L -12.725 368.978 L -12.725 368.978 L -12.725 368.978 L -12.725 368.978 L -12.725 368.978 L -12.725 368.978 L -12.725 368.978 L -12.725 368.978 L -12.725 368.978 L -12.725 368.978 L -12.725 368.978 L -12.725 368.978 L -12.725 368.978 L -12.725 368.978 L -12.725 368.978 L -12.725 368.978 L -12.725 368.978 L -12.725 368.978 L -12.725 368.978 L -12.725 368.978 L -12.725 368.978 L -12.725 368.978 L -12.725 368.978 L -12.725 368.978 Z  M -11.993 393.367 C -11.096 397.553 -10.19 401.685 -9.28 405.803 L -11.993 393.367 L -11.993 393.367 L -11.993 393.367 L -11.993 393.367 L -11.993 393.367 L -11.993 393.367 L -11.993 393.367 L -11.993 393.367 L -11.993 393.367 L -11.993 393.367 L -11.993 393.367 L -11.993 393.367 L -11.993 393.367 L -11.993 393.367 L -11.993 393.367 L -11.993 393.367 L -11.993 393.367 L -11.993 393.367 L -11.993 393.367 L -11.993 393.367 L -11.993 393.367 L -11.993 393.367 L -11.993 393.367 L -11.993 393.367 L -11.993 393.367 L -11.993 393.367 L -11.993 393.367 Z  M -11.488 355.623 C -9.65 362.596 -7.804 369.498 -5.948 376.311 L -11.488 355.623 L -11.488 355.623 L -11.488 355.623 L -11.488 355.623 L -11.488 355.623 L -11.488 355.623 L -11.488 355.623 L -11.488 355.623 L -11.488 355.623 L -11.488 355.623 L -11.488 355.623 L -11.488 355.623 L -11.488 355.623 L -11.488 355.623 L -11.488 355.623 L -11.488 355.623 L -11.488 355.623 L -11.488 355.623 L -11.488 355.623 L -11.488 355.623 L -11.488 355.623 L -11.488 355.623 L -11.488 355.623 L -11.488 355.623 L -11.488 355.623 Z  M -10.661 386.75 C -9.143 392.671 -7.621 398.496 -6.095 404.243 L -10.661 386.75 L -10.661 386.75 L -10.661 386.75 L -10.661 386.75 L -10.661 386.75 L -10.661 386.75 L -10.661 386.75 L -10.661 386.75 L -10.661 386.75 L -10.661 386.75 L -10.661 386.75 L -10.661 386.75 L -10.661 386.75 L -10.661 386.75 L -10.661 386.75 L -10.661 386.75 L -10.661 386.75 L -10.661 386.75 L -10.661 386.75 L -10.661 386.75 L -10.661 386.75 L -10.661 386.75 L -10.661 386.75 Z  M -9.906 415.149 C -8.692 420.466 -7.466 425.71 -6.235 430.921 L -9.906 415.149 L -9.906 415.149 L -9.906 415.149 L -9.906 415.149 L -9.906 415.149 L -9.906 415.149 L -9.906 415.149 L -9.906 415.149 L -9.906 415.149 L -9.906 415.149 L -9.906 415.149 L -9.906 415.149 L -9.906 415.149 L -9.906 415.149 L -9.906 415.149 L -9.906 415.149 L -9.906 415.149 L -9.906 415.149 L -9.906 415.149 L -9.906 415.149 L -9.906 415.149 Z  M 135.095 381.288 C 136.029 385.672 136.973 389.992 137.92 394.295 L 135.095 381.288 L 135.095 381.288 L 135.095 381.288 L 135.095 381.288 L 135.095 381.288 L 135.095 381.288 L 135.095 381.288 L 135.095 381.288 L 135.095 381.288 L 135.095 381.288 L 135.095 381.288 L 135.095 381.288 L 135.095 381.288 L 135.095 381.288 L 135.095 381.288 L 135.095 381.288 L 135.095 381.288 L 135.095 381.288 L 135.095 381.288 Z  M -9.015 380.327 C -7.118 387.502 -5.212 394.601 -3.295 401.604 L -9.015 380.327 L -9.015 380.327 L -9.015 380.327 L -9.015 380.327 L -9.015 380.327 L -9.015 380.327 L -9.015 380.327 L -9.015 380.327 L -9.015 380.327 L -9.015 380.327 L -9.015 380.327 L -9.015 380.327 L -9.015 380.327 L -9.015 380.327 L -9.015 380.327 L -9.015 380.327 L -9.015 380.327 Z  M -8.177 413.069 C -6.611 419.165 -5.039 425.159 -3.463 431.071 L -8.177 413.069 L -8.177 413.069 L -8.177 413.069 L -8.177 413.069 L -8.177 413.069 L -8.177 413.069 L -8.177 413.069 L -8.177 413.069 L -8.177 413.069 L -8.177 413.069 L -8.177 413.069 L -8.177 413.069 L -8.177 413.069 L -8.177 413.069 L -8.177 413.069 Z  M -658.948 -572 C -648.796 -233.417 -608.996 39.025 -562.103 263.222 L -658.948 -572 L -658.948 -572 L -658.948 -572 L -658.948 -572 L -658.948 -572 L -658.948 -572 L -658.948 -572 L -658.948 -572 L -658.948 -572 L -658.948 -572 L -658.948 -572 L -658.948 -572 L -658.948 -572 L -658.948 -572 Z  M 136.869 382.017 C 138.123 387.506 139.388 392.916 140.658 398.291 L 136.869 382.017 L 136.869 382.017 L 136.869 382.017 L 136.869 382.017 L 136.869 382.017 L 136.869 382.017 L 136.869 382.017 L 136.869 382.017 L 136.869 382.017 L 136.869 382.017 L 136.869 382.017 L 136.869 382.017 L 136.869 382.017 Z  M 137.597 410.481 C 137.753 411.213 137.909 411.942 138.066 412.665 C 138.875 416.454 139.693 420.194 140.512 423.922 L 138.197 413.248 L 137.597 410.481 L 137.597 410.481 L 137.597 410.481 L 137.597 410.481 L 137.597 410.481 L 137.597 410.481 L 137.597 410.481 L 137.597 410.481 L 137.597 410.481 L 137.597 410.481 L 137.597 410.481 Z  M -8.105 405.231 C -6.177 412.455 -4.24 419.595 -2.291 426.63 L -8.105 405.231 L -8.105 405.231 L -8.105 405.231 L -8.105 405.231 L -8.105 405.231 L -8.105 405.231 L -8.105 405.231 L -8.105 405.231 L -8.105 405.231 Z  M 136.983 379.265 C 138.575 385.415 140.172 391.454 141.774 397.403 L 136.983 379.265 L 136.983 379.265 L 136.983 379.265 L 136.983 379.265 L 136.983 379.265 L 136.983 379.265 L 136.983 379.265 L 136.983 379.265 Z  M 137.718 411.157 C 137.834 411.662 137.949 412.167 138.066 412.665 C 138.109 412.863 138.153 413.056 138.197 413.248 C 139.313 418.108 140.438 422.906 141.567 427.673 L 137.718 411.157 L 137.718 411.157 L 137.718 411.157 L 137.718 411.157 L 137.718 411.157 L 137.718 411.157 Z  M 47.011 792.026 C 51.198 763.799 52.462 731.605 51.583 695.641 C 51.863 694.759 52.14 693.877 52.411 692.992 L 52.411 692.992 L 52.411 692.992 L 52.411 692.992 L 52.411 692.992 L 52.411 692.992 L 52.411 692.992 L 52.411 692.992 L 52.411 692.992 L 52.411 692.992 L 52.411 692.992 L 52.411 692.992 L 52.411 692.992 L 52.411 692.992 L 52.411 692.992 L 52.411 692.992 L 52.411 692.992 L 52.411 692.992 L 52.411 692.992 L 52.411 692.992 L 52.411 692.992 L 52.411 692.992 L 52.411 692.992 L 52.411 692.992 L 52.411 692.992 L 52.411 692.992 L 52.411 692.992 L 52.411 692.992 L 52.411 692.992 L 52.411 692.992 L 52.411 692.992 L 52.411 692.992 L 52.411 692.992 L 52.411 692.992 L 52.411 692.992 L 52.411 692.992 L 52.411 692.992 L 52.411 692.992 L 52.411 692.992 L 52.411 692.992 L 52.411 692.992 L 52.411 692.992 L 52.411 692.992 L 52.411 692.992 L 52.411 692.992 L 52.411 692.992 L 52.411 692.992 L 52.411 692.992 L 52.411 692.992 L 52.411 692.992 L 52.411 692.992 C 52.937 691.3 53.442 689.6 53.928 687.893 C 81.914 589.622 45.15 466.687 8.65 288.941 L 8.65 288.941 C -0.801 209.482 -9.958 123.71 -16.616 32.162 L -6.968 187.227 L -4.973 219.293 C -13.174 174.825 -20.924 127.214 -27.413 76.085 L -27.413 76.085 L -27.413 76.085 L -27.413 76.085 L -9.549 225.053 C -13.592 200.681 -17.534 175.14 -21.204 148.3 C -21.787 142.075 -22.362 135.83 -22.924 129.552 L -21.618 145.28 C -23.363 132.416 -25.044 119.256 -26.643 105.787 L 18.982 632.98 L -59.13 189.73 L 19.011 633.314 L 20.246 647.576 L 20.246 647.576 C 20.539 646.801 20.828 646.026 21.114 645.25 L 21.758 648.906 L 26.107 718.813 L -65.881 246.146 L 26.914 731.78 L 31.845 811.022 L -90 261.66 L 32.379 819.607 L 33.938 844.66 C 34.784 842.425 35.597 840.15 36.377 837.835 L 150.772 1359.382 L 43.843 809.943 C 45.035 804.2 46.082 798.269 46.992 792.152 L 143.909 1342.315 L -66.94 -303.213 Q -34.171 -35.686 -6.968 187.227 Q 28.107 474.647 53.928 687.893 Q 118.694 1222.764 125.241 1290.995 L -12.315 760.711 L 135.763 1325.329 L -70.198 494.884 L 153.336 1359.221 L -85.044 371.255 L 154.195 1362.666 L 37.223 835.27 C 39.323 828.76 41.171 821.944 42.783 814.827 L 148.865 1370 L 47.011 792.026 L 47.011 792.026 Z " fill-rule="evenodd" fill="none" vector-effect="non-scaling-stroke" stroke-width="0.2" stroke="rgb(191,191,191)" stroke-linejoin="miter" stroke-linecap="square" stroke-miterlimit="3"/></g><g style="isolation:isolate"><g transform="matrix(1,0,0,1,18,18.5)"><text transform="matrix(1,0,0,1,0.389,19.992)" style="font-family:&quot;Champagne &amp; Limousines&quot;;font-weight:400;font-size:24px;font-style:normal;fill:#bfbfbf;stroke:none;">Mid/Side</text></g><g transform="matrix(1,0,0,1,39.5,69.5)"><text transform="matrix(1,0,0,1,0.193,9.996)" style="font-family:&quot;Champagne &amp; Limousines&quot;;font-weight:400;font-size:12px;font-style:normal;fill:#bfbfbf;stroke:none;">encoder</text></g><g transform="matrix(1,0,0,1,38.5,209)"><text transform="matrix(1,0,0,1,0.481,9.996)" style="font-family:&quot;Champagne &amp; Limousines&quot;;font-weight:400;font-size:12px;font-style:normal;fill:#bfbfbf;stroke:none;">decoder</text></g><g transform="matrix(1,0,0,1,19.292,346)"><text transform="matrix(1,0,0,1,8.492,11.662)" style="font-family:&quot;Champagne &amp; Limousines&quot;;font-weight:400;font-size:14px;font-style:normal;fill:#bfbfbf;stroke:none;">aP Modules</text></g><g transform="matrix(1,0,0,1,13,144.381)"><text transform="matrix(1,0,0,1,0.433,16.66)" style="font-family:&quot;Champagne &amp; Limousines&quot;;font-weight:400;font-size:20px;font-style:normal;fill:#bfbfbf;stroke:none;">Mid</text></g><g transform="matrix(1,0,0,1,73.5,144.381)"><text transform="matrix(1,0,0,1,0.286,16.66)" style="font-family:&quot;Champagne &amp; Limousines&quot;;font-weight:400;font-size:20px;font-style:normal;fill:#bfbfbf;stroke:none;">Side</text></g><g transform="matrix(1,0,0,1,14,87.107)"><text transform="matrix(1,0,0,1,0.292,16.66)" style="font-family:&quot;Champagne &amp; Limousines&quot;;font-weight:400;font-size:20px;font-style:normal;fill:#bfbfbf;stroke:none;">Left</text></g><g transform="matrix(1,0,0,1,72,87.107)"><text transform="matrix(1,0,0,1,0.36,16.66)" style="font-family:&quot;Champagne &amp; Limousines&quot;;font-weight:400;font-size:20px;font-style:normal;fill:#bfbfbf;stroke:none;">Right</text></g><g transform="matrix(1,0,0,1,13,223.655)"><text transform="matrix(1,0,0,1,0.433,16.66)" style="font-family:&quot;Champagne &amp; Limousines&quot;;font-weight:400;font-size:20px;font-style:normal;fill:#bfbfbf;stroke:none;">Mid</text></g><g transform="matrix(1,0,0,1,73.5,223.655)"><text transform="matrix(1,0,0,1,0.286,16.66)" style="font-family:&quot;Champagne &amp; Limousines&quot;;font-weight:400;font-size:20px;font-style:normal;fill:#bfbfbf;stroke:none;">Side</text></g><g transform="matrix(1,0,0,1,14,280.929)"><text transform="matrix(1,0,0,1,0.292,16.66)" style="font-family:&quot;Champagne &amp; Limousines&quot;;font-weight:400;font-size:20px;font-style:normal;fill:#bfbfbf;stroke:none;">Left</text></g><g transform="matrix(1,0,0,1,72,280.929)"><text transform="matrix(1,0,0,1,0.36,16.66)" style="font-family:&quot;Champagne &amp; Limousines&quot;;font-weight:400;font-size:20px;font-style:normal;fill:#bfbfbf;stroke:none;">Right</text></g><g transform="matrix(1,0,0,1,44.667,30.5)"><text transform="matrix(1,0,0,1,15.973,14.994)" style="font-family:&quot;Champagne &amp; Limousines&quot;;font-weight:400;font-size:18px;font-style:italic;fill:#38ffee;stroke:none;">Matrix</text></g></g><g style="isolation:isolate"><g><mask id="_mask_SGabPUjwnR2bwMBqgJ9QMYPS05PcWmaA"><circle vector-effect="non-scaling-stroke" cx="28.5" cy="125.09881889763778" r="11.848818897637797" fill="white" stroke="none"/></mask><circle vector-effect="non-scaling-stroke" cx="28.5" cy="125.09881889763778" r="11.848818897637797" fill="rgb(187,187,187)" mask="url(#_mask_SGabPUjwnR2bwMBqgJ9QMYPS05PcWmaA)" stroke-width="1" stroke="rgb(30,30,30)" stroke-linejoin="round" stroke-linecap="round" stroke-miterlimit="3"/><mask id="_mask_ABK8OU32UcUURXlWssfGXwe5dmLLgyBJ"><circle vector-effect="non-scaling-stroke" cx="28.50000000000001" cy="125.09881889763781" r="10.81407446745811" fill="white" stroke="none"/></mask><circle vector-effect="non-scaling-stroke" cx="28.50000000000001" cy="125.09881889763781" r="10.81407446745811" fill="rgb(240,240,240)" mask="url(#_mask_ABK8OU32UcUURXlWssfGXwe5dmLLgyBJ)" stroke-width="0.5" stroke="rgb(187,187,187)" stroke-linejoin="round" stroke-linecap="round" stroke-miterlimit="3"/><clipPath id="_clipPath_fgMGTJ161ttt7xZ8sQP9dZqmKkW8C9Do"><circle vector-effect="non-scaling-stroke" cx="28.50000000000001" cy="125.09881889763781" r="10.81407446745811" fill="rgb(240,240,240)" mask="url(#_mask_ABK8OU32UcUURXlWssfGXwe5dmLLgyBJ)" stroke-width="0.5" stroke="rgb(187,187,187)" stroke-linejoin="round" stroke-linecap="round" stroke-miterlimit="3"/></clipPath><g clip-path="url(#_clipPath_fgMGTJ161ttt7xZ8sQP9dZqmKkW8C9Do)"><circle vector-effect="non-scaling-stroke" cx="28.500000000000014" cy="125.09881889763781" r="8.877014777435917" fill="rgb(240,240,240)"/></g><mask id="_mask_MfsVeMOSFjRrbsjyfofnVtx4M3NcnJH7"><circle vector-effect="non-scaling-stroke" cx="28.50000000000003" cy="125.09881889763781" r="7.892639777435919" fill="white" stroke="none"/></mask><circle vector-effect="non-scaling-stroke" cx="28.50000000000003" cy="125.09881889763781" r="7.892639777435919" fill="rgb(247,227,47)" mask="url(#_mask_MfsVeMOSFjRrbsjyfofnVtx4M3NcnJH7)" stroke-width="1" stroke="rgb(15,15,15)" stroke-linejoin="round" stroke-linecap="round" stroke-miterlimit="3"/><mask id="_mask_aJ3u7UA58nnpbyI0AF7w48ZLF8hkZgAa"><circle vector-effect="non-scaling-stroke" cx="28.50000000000001" cy="125.09881889763778" r="5.297319916277015" fill="white" stroke="none"/></mask><circle vector-effect="non-scaling-stroke" cx="28.50000000000001" cy="125.09881889763778" r="5.297319916277015" fill="rgb(0,0,0)" mask="url(#_mask_aJ3u7UA58nnpbyI0AF7w48ZLF8hkZgAa)" stroke-width="1" stroke="rgb(15,15,15)" stroke-linejoin="round" stroke-linecap="round" stroke-miterlimit="3"/></g><g><mask id="_mask_uLgM77GIDwqhtcBB1s6QvPOi8eiDSjfr"><circle vector-effect="non-scaling-stroke" cx="91.5" cy="125.09881889763778" r="11.848818897637798" fill="white" stroke="none"/></mask><circle vector-effect="non-scaling-stroke" cx="91.5" cy="125.09881889763778" r="11.848818897637798" fill="rgb(187,187,187)" mask="url(#_mask_uLgM77GIDwqhtcBB1s6QvPOi8eiDSjfr)" stroke-width="1" stroke="rgb(30,30,30)" stroke-linejoin="round" stroke-linecap="round" stroke-miterlimit="3"/><mask id="_mask_cp1KW0YugNS4TzS2Vm6pWVyXEeRvZptD"><circle vector-effect="non-scaling-stroke" cx="91.50000000000006" cy="125.09881889763781" r="10.814074467458113" fill="white" stroke="none"/></mask><circle vector-effect="non-scaling-stroke" cx="91.50000000000006" cy="125.09881889763781" r="10.814074467458113" fill="rgb(240,240,240)" mask="url(#_mask_cp1KW0YugNS4TzS2Vm6pWVyXEeRvZptD)" stroke-width="0.5" stroke="rgb(187,187,187)" stroke-linejoin="round" stroke-linecap="round" stroke-miterlimit="3"/><clipPath id="_clipPath_1KQ3ESlldOMoDXxGeJttqOx5TqEDeubM"><circle vector-effect="non-scaling-stroke" cx="91.50000000000006" cy="125.09881889763781" r="10.814074467458113" fill="rgb(240,240,240)" mask="url(#_mask_cp1KW0YugNS4TzS2Vm6pWVyXEeRvZptD)" stroke-width="0.5" stroke="rgb(187,187,187)" stroke-linejoin="round" stroke-linecap="round" stroke-miterlimit="3"/></clipPath><g clip-path="url(#_clipPath_1KQ3ESlldOMoDXxGeJttqOx5TqEDeubM)"><circle vector-effect="non-scaling-stroke" cx="91.50000000000006" cy="125.09881889763781" r="8.877014777435917" fill="rgb(240,240,240)"/></g><mask id="_mask_J6dcY7NLRJBaB2V5cy68yXHrqJDlJcbc"><circle vector-effect="non-scaling-stroke" cx="91.50000000000007" cy="125.09881889763781" r="7.892639777435917" fill="white" stroke="none"/></mask><circle vector-effect="non-scaling-stroke" cx="91.50000000000007" cy="125.09881889763781" r="7.892639777435917" fill="rgb(247,184,47)" mask="url(#_mask_J6dcY7NLRJBaB2V5cy68yXHrqJDlJcbc)" stroke-width="1" stroke="rgb(15,15,15)" stroke-linejoin="round" stroke-linecap="round" stroke-miterlimit="3"/><mask id="_mask_SmuOw21kXE71OkaaVA2kpWYu0fgGnCPT"><circle vector-effect="non-scaling-stroke" cx="91.50000000000006" cy="125.09881889763778" r="5.297319916277019" fill="white" stroke="none"/></mask><circle vector-effect="non-scaling-stroke" cx="91.50000000000006" cy="125.09881889763778" r="5.297319916277019" fill="rgb(0,0,0)" mask="url(#_mask_SmuOw21kXE71OkaaVA2kpWYu0fgGnCPT)" stroke-width="1" stroke="rgb(15,15,15)" stroke-linejoin="round" stroke-linecap="round" stroke-miterlimit="3"/></g><g><mask id="_mask_mAJ5l0IFkNtg1TwH3VNrZrkGwPMfZjSk"><circle vector-effect="non-scaling-stroke" cx="91.49999999999997" cy="179.0910761154858" r="11.848818897637798" fill="white" stroke="none"/></mask><circle vector-effect="non-scaling-stroke" cx="91.49999999999997" cy="179.0910761154858" r="11.848818897637798" fill="rgb(187,187,187)" mask="url(#_mask_mAJ5l0IFkNtg1TwH3VNrZrkGwPMfZjSk)" stroke-width="1" stroke="rgb(30,30,30)" stroke-linejoin="round" stroke-linecap="round" stroke-miterlimit="3"/><mask id="_mask_6BI7B6iNJ3V69oYLEpygUtJBxrY8vHe2"><circle vector-effect="non-scaling-stroke" cx="91.50000000000003" cy="179.09107611548572" r="10.814074467458113" fill="white" stroke="none"/></mask><circle vector-effect="non-scaling-stroke" cx="91.50000000000003" cy="179.09107611548572" r="10.814074467458113" fill="rgb(240,240,240)" mask="url(#_mask_6BI7B6iNJ3V69oYLEpygUtJBxrY8vHe2)" stroke-width="0.5" stroke="rgb(187,187,187)" stroke-linejoin="round" stroke-linecap="round" stroke-miterlimit="3"/><clipPath id="_clipPath_z5nAAvv4b531ExlPzqAWdlBjhMBDyDGa"><circle vector-effect="non-scaling-stroke" cx="91.50000000000003" cy="179.09107611548572" r="10.814074467458113" fill="rgb(240,240,240)" mask="url(#_mask_6BI7B6iNJ3V69oYLEpygUtJBxrY8vHe2)" stroke-width="0.5" stroke="rgb(187,187,187)" stroke-linejoin="round" stroke-linecap="round" stroke-miterlimit="3"/></clipPath><g clip-path="url(#_clipPath_z5nAAvv4b531ExlPzqAWdlBjhMBDyDGa)"><circle vector-effect="non-scaling-stroke" cx="91.50000000000003" cy="179.09107611548572" r="8.877014777435917" fill="rgb(240,240,240)"/></g><mask id="_mask_h59Bo4ZS9dmAVfo64PGCuyZLibeFgYqi"><circle vector-effect="non-scaling-stroke" cx="91.50000000000004" cy="179.09107611548563" r="7.892639777435917" fill="white" stroke="none"/></mask><circle vector-effect="non-scaling-stroke" cx="91.50000000000004" cy="179.09107611548563" r="7.892639777435917" fill="rgb(189,120,249)" mask="url(#_mask_h59Bo4ZS9dmAVfo64PGCuyZLibeFgYqi)" stroke-width="1" stroke="rgb(15,15,15)" stroke-linejoin="round" stroke-linecap="round" stroke-miterlimit="3"/><mask id="_mask_DrPq6PKJwSTTqKOugztwGzClHdPBu148"><circle vector-effect="non-scaling-stroke" cx="91.50000000000003" cy="179.0910761154854" r="5.297319916277019" fill="white" stroke="none"/></mask><circle vector-effect="non-scaling-stroke" cx="91.50000000000003" cy="179.0910761154854" r="5.297319916277019" fill="rgb(0,0,0)" mask="url(#_mask_DrPq6PKJwSTTqKOugztwGzClHdPBu148)" stroke-width="1" stroke="rgb(15,15,15)" stroke-linejoin="round" stroke-linecap="round" stroke-miterlimit="3"/></g><g><mask id="_mask_nD1OKnrNq9mYSZioy0pslTETdGym6Hlo"><circle vector-effect="non-scaling-stroke" cx="28.499999999999993" cy="179.0910761154858" r="11.848818897637793" fill="white" stroke="none"/></mask><circle vector-effect="non-scaling-stroke" cx="28.499999999999993" cy="179.0910761154858" r="11.848818897637793" fill="rgb(187,187,187)" mask="url(#_mask_nD1OKnrNq9mYSZioy0pslTETdGym6Hlo)" stroke-width="1" stroke="rgb(30,30,30)" stroke-linejoin="round" stroke-linecap="round" stroke-miterlimit="3"/><mask id="_mask_9TXNwlR5UKRUBG9sw3CXFWmT0Wm1owRe"><circle vector-effect="non-scaling-stroke" cx="28.500000000000085" cy="179.09107611548572" r="10.814074467458111" fill="white" stroke="none"/></mask><circle vector-effect="non-scaling-stroke" cx="28.500000000000085" cy="179.09107611548572" r="10.814074467458111" fill="rgb(240,240,240)" mask="url(#_mask_9TXNwlR5UKRUBG9sw3CXFWmT0Wm1owRe)" stroke-width="0.5" stroke="rgb(187,187,187)" stroke-linejoin="round" stroke-linecap="round" stroke-miterlimit="3"/><clipPath id="_clipPath_XT42agv994ojvLndo7IkwnawtDtAVkF7"><circle vector-effect="non-scaling-stroke" cx="28.500000000000085" cy="179.09107611548572" r="10.814074467458111" fill="rgb(240,240,240)" mask="url(#_mask_9TXNwlR5UKRUBG9sw3CXFWmT0Wm1owRe)" stroke-width="0.5" stroke="rgb(187,187,187)" stroke-linejoin="round" stroke-linecap="round" stroke-miterlimit="3"/></clipPath><g clip-path="url(#_clipPath_XT42agv994ojvLndo7IkwnawtDtAVkF7)"><circle vector-effect="non-scaling-stroke" cx="28.500000000000085" cy="179.09107611548572" r="8.877014777435917" fill="rgb(240,240,240)"/></g><mask id="_mask_9M5tHtZ5LOM9hYARGz8fKUCq5D2Zqfjm"><circle vector-effect="non-scaling-stroke" cx="28.500000000000156" cy="179.09107611548563" r="7.892639777435919" fill="white" stroke="none"/></mask><circle vector-effect="non-scaling-stroke" cx="28.500000000000156" cy="179.09107611548563" r="7.892639777435919" fill="rgb(72,179,255)" mask="url(#_mask_9M5tHtZ5LOM9hYARGz8fKUCq5D2Zqfjm)" stroke-width="1" stroke="rgb(15,15,15)" stroke-linejoin="round" stroke-linecap="round" stroke-miterlimit="3"/><mask id="_mask_bfB9yat2UiUDNa0zxrPaWzjelSYD1X87"><circle vector-effect="non-scaling-stroke" cx="28.500000000000075" cy="179.0910761154854" r="5.297319916277015" fill="white" stroke="none"/></mask><circle vector-effect="non-scaling-stroke" cx="28.500000000000075" cy="179.0910761154854" r="5.297319916277015" fill="rgb(0,0,0)" mask="url(#_mask_bfB9yat2UiUDNa0zxrPaWzjelSYD1X87)" stroke-width="1" stroke="rgb(15,15,15)" stroke-linejoin="round" stroke-linecap="round" stroke-miterlimit="3"/></g><g><mask id="_mask_k6A7xk2zC3IK1Qpx4ZzYnipAGMNTHbH7"><circle vector-effect="non-scaling-stroke" cx="91.49999999999999" cy="259.7577427821522" r="11.848818897637798" fill="white" stroke="none"/></mask><circle vector-effect="non-scaling-stroke" cx="91.49999999999999" cy="259.7577427821522" r="11.848818897637798" fill="rgb(187,187,187)" mask="url(#_mask_k6A7xk2zC3IK1Qpx4ZzYnipAGMNTHbH7)" stroke-width="1" stroke="rgb(30,30,30)" stroke-linejoin="round" stroke-linecap="round" stroke-miterlimit="3"/><mask id="_mask_ntjCOzJjyUNOHoL4qQ18jyhwLwyRdrjL"><circle vector-effect="non-scaling-stroke" cx="91.50000000000003" cy="259.7577427821522" r="10.814074467458113" fill="white" stroke="none"/></mask><circle vector-effect="non-scaling-stroke" cx="91.50000000000003" cy="259.7577427821522" r="10.814074467458113" fill="rgb(240,240,240)" mask="url(#_mask_ntjCOzJjyUNOHoL4qQ18jyhwLwyRdrjL)" stroke-width="0.5" stroke="rgb(187,187,187)" stroke-linejoin="round" stroke-linecap="round" stroke-miterlimit="3"/><clipPath id="_clipPath_YkvO0kCl07vTDWHUHGECnYZ2xRCnPBWG"><circle vector-effect="non-scaling-stroke" cx="91.50000000000003" cy="259.7577427821522" r="10.814074467458113" fill="rgb(240,240,240)" mask="url(#_mask_ntjCOzJjyUNOHoL4qQ18jyhwLwyRdrjL)" stroke-width="0.5" stroke="rgb(187,187,187)" stroke-linejoin="round" stroke-linecap="round" stroke-miterlimit="3"/></clipPath><g clip-path="url(#_clipPath_YkvO0kCl07vTDWHUHGECnYZ2xRCnPBWG)"><circle vector-effect="non-scaling-stroke" cx="91.50000000000003" cy="259.7577427821522" r="8.877014777435917" fill="rgb(240,240,240)"/></g><mask id="_mask_Qdjr2134NcpNGzgtrV3k0qC7iyChflNO"><circle vector-effect="non-scaling-stroke" cx="91.50000000000006" cy="259.7577427821522" r="7.892639777435917" fill="white" stroke="none"/></mask><circle vector-effect="non-scaling-stroke" cx="91.50000000000006" cy="259.7577427821522" r="7.892639777435917" fill="rgb(189,120,249)" mask="url(#_mask_Qdjr2134NcpNGzgtrV3k0qC7iyChflNO)" stroke-width="1" stroke="rgb(15,15,15)" stroke-linejoin="round" stroke-linecap="round" stroke-miterlimit="3"/><mask id="_mask_AJybHMLw2wCJgPdRlDoHKmNToFsu047o"><circle vector-effect="non-scaling-stroke" cx="91.50000000000003" cy="259.75774278215215" r="5.297319916277019" fill="white" stroke="none"/></mask><circle vector-effect="non-scaling-stroke" cx="91.50000000000003" cy="259.75774278215215" r="5.297319916277019" fill="rgb(0,0,0)" mask="url(#_mask_AJybHMLw2wCJgPdRlDoHKmNToFsu047o)" stroke-width="1" stroke="rgb(15,15,15)" stroke-linejoin="round" stroke-linecap="round" stroke-miterlimit="3"/></g><g><mask id="_mask_Lmt93h6jlwtDXOb01goHrk7yrqCpgsOh"><circle vector-effect="non-scaling-stroke" cx="28.499999999999996" cy="259.7577427821522" r="11.848818897637795" fill="white" stroke="none"/></mask><circle vector-effect="non-scaling-stroke" cx="28.499999999999996" cy="259.7577427821522" r="11.848818897637795" fill="rgb(187,187,187)" mask="url(#_mask_Lmt93h6jlwtDXOb01goHrk7yrqCpgsOh)" stroke-width="1" stroke="rgb(30,30,30)" stroke-linejoin="round" stroke-linecap="round" stroke-miterlimit="3"/><mask id="_mask_gQJRAOuU29EmhRXyYlBJUw4NnUc7i1QA"><circle vector-effect="non-scaling-stroke" cx="28.50000000000009" cy="259.7577427821522" r="10.81407446745811" fill="white" stroke="none"/></mask><circle vector-effect="non-scaling-stroke" cx="28.50000000000009" cy="259.7577427821522" r="10.81407446745811" fill="rgb(240,240,240)" mask="url(#_mask_gQJRAOuU29EmhRXyYlBJUw4NnUc7i1QA)" stroke-width="0.5" stroke="rgb(187,187,187)" stroke-linejoin="round" stroke-linecap="round" stroke-miterlimit="3"/><clipPath id="_clipPath_eCxALVx1If6kzm6erY4gRHnu3MCNwRWh"><circle vector-effect="non-scaling-stroke" cx="28.50000000000009" cy="259.7577427821522" r="10.81407446745811" fill="rgb(240,240,240)" mask="url(#_mask_gQJRAOuU29EmhRXyYlBJUw4NnUc7i1QA)" stroke-width="0.5" stroke="rgb(187,187,187)" stroke-linejoin="round" stroke-linecap="round" stroke-miterlimit="3"/></clipPath><g clip-path="url(#_clipPath_eCxALVx1If6kzm6erY4gRHnu3MCNwRWh)"><circle vector-effect="non-scaling-stroke" cx="28.50000000000009" cy="259.7577427821522" r="8.877014777435921" fill="rgb(240,240,240)"/></g><mask id="_mask_hfPsBg4fOF39wnJD9QsTWy7b91kZtdd6"><circle vector-effect="non-scaling-stroke" cx="28.5000000000001" cy="259.7577427821522" r="7.892639777435916" fill="white" stroke="none"/></mask><circle vector-effect="non-scaling-stroke" cx="28.5000000000001" cy="259.7577427821522" r="7.892639777435916" fill="rgb(72,179,255)" mask="url(#_mask_hfPsBg4fOF39wnJD9QsTWy7b91kZtdd6)" stroke-width="1" stroke="rgb(15,15,15)" stroke-linejoin="round" stroke-linecap="round" stroke-miterlimit="3"/><mask id="_mask_9hlmlR9IaT4G4a4kUbV2GmqeEWw5wacg"><circle vector-effect="non-scaling-stroke" cx="28.50000000000008" cy="259.7577427821522" r="5.297319916277015" fill="white" stroke="none"/></mask><circle vector-effect="non-scaling-stroke" cx="28.50000000000008" cy="259.7577427821522" r="5.297319916277015" fill="rgb(0,0,0)" mask="url(#_mask_9hlmlR9IaT4G4a4kUbV2GmqeEWw5wacg)" stroke-width="1" stroke="rgb(15,15,15)" stroke-linejoin="round" stroke-linecap="round" stroke-miterlimit="3"/></g><g><mask id="_mask_R7W8fwW1YDORAQFFvoB0V97qHChQBdGK"><circle vector-effect="non-scaling-stroke" cx="91.49999999999997" cy="316.8279855643045" r="11.848818897637798" fill="white" stroke="none"/></mask><circle vector-effect="non-scaling-stroke" cx="91.49999999999997" cy="316.8279855643045" r="11.848818897637798" fill="rgb(187,187,187)" mask="url(#_mask_R7W8fwW1YDORAQFFvoB0V97qHChQBdGK)" stroke-width="1" stroke="rgb(30,30,30)" stroke-linejoin="round" stroke-linecap="round" stroke-miterlimit="3"/><mask id="_mask_JpzQ2yhd1JzqdVWOTC8h2JD3nY0LC7Ir"><circle vector-effect="non-scaling-stroke" cx="91.50000000000007" cy="316.8279855643045" r="10.814074467458113" fill="white" stroke="none"/></mask><circle vector-effect="non-scaling-stroke" cx="91.50000000000007" cy="316.8279855643045" r="10.814074467458113" fill="rgb(240,240,240)" mask="url(#_mask_JpzQ2yhd1JzqdVWOTC8h2JD3nY0LC7Ir)" stroke-width="0.5" stroke="rgb(187,187,187)" stroke-linejoin="round" stroke-linecap="round" stroke-miterlimit="3"/><clipPath id="_clipPath_CGCV8KHUZtJf3PI2iB9Fq8LCUDadWW0j"><circle vector-effect="non-scaling-stroke" cx="91.50000000000007" cy="316.8279855643045" r="10.814074467458113" fill="rgb(240,240,240)" mask="url(#_mask_JpzQ2yhd1JzqdVWOTC8h2JD3nY0LC7Ir)" stroke-width="0.5" stroke="rgb(187,187,187)" stroke-linejoin="round" stroke-linecap="round" stroke-miterlimit="3"/></clipPath><g clip-path="url(#_clipPath_CGCV8KHUZtJf3PI2iB9Fq8LCUDadWW0j)"><circle vector-effect="non-scaling-stroke" cx="91.50000000000007" cy="316.8279855643045" r="8.877014777435917" fill="rgb(240,240,240)"/></g><mask id="_mask_DXBuEIrADWCPJU3DydQjBMALtHTS7u6w"><circle vector-effect="non-scaling-stroke" cx="91.50000000000009" cy="316.82798556430464" r="7.892639777435917" fill="white" stroke="none"/></mask><circle vector-effect="non-scaling-stroke" cx="91.50000000000009" cy="316.82798556430464" r="7.892639777435917" fill="rgb(255,78,78)" mask="url(#_mask_DXBuEIrADWCPJU3DydQjBMALtHTS7u6w)" stroke-width="1" stroke="rgb(15,15,15)" stroke-linejoin="round" stroke-linecap="round" stroke-miterlimit="3"/><mask id="_mask_8G2IFj7ugnUv4fnaLXVdEL1VaYdAd6o1"><circle vector-effect="non-scaling-stroke" cx="91.50000000000006" cy="316.82798556430447" r="5.297319916277019" fill="white" stroke="none"/></mask><circle vector-effect="non-scaling-stroke" cx="91.50000000000006" cy="316.82798556430447" r="5.297319916277019" fill="rgb(0,0,0)" mask="url(#_mask_8G2IFj7ugnUv4fnaLXVdEL1VaYdAd6o1)" stroke-width="1" stroke="rgb(15,15,15)" stroke-linejoin="round" stroke-linecap="round" stroke-miterlimit="3"/></g><g><mask id="_mask_HKkr4VCigXcyaAcmUFaahHkwNNtsOPAK"><circle vector-effect="non-scaling-stroke" cx="28.499999999999993" cy="316.8279855643045" r="11.848818897637793" fill="white" stroke="none"/></mask><circle vector-effect="non-scaling-stroke" cx="28.499999999999993" cy="316.8279855643045" r="11.848818897637793" fill="rgb(187,187,187)" mask="url(#_mask_HKkr4VCigXcyaAcmUFaahHkwNNtsOPAK)" stroke-width="1" stroke="rgb(30,30,30)" stroke-linejoin="round" stroke-linecap="round" stroke-miterlimit="3"/><mask id="_mask_VPK8jwo1PDR26uzHzqsEi9pU3BHQmigx"><circle vector-effect="non-scaling-stroke" cx="28.50000000000007" cy="316.82798556430447" r="10.814074467458111" fill="white" stroke="none"/></mask><circle vector-effect="non-scaling-stroke" cx="28.50000000000007" cy="316.82798556430447" r="10.814074467458111" fill="rgb(240,240,240)" mask="url(#_mask_VPK8jwo1PDR26uzHzqsEi9pU3BHQmigx)" stroke-width="0.5" stroke="rgb(187,187,187)" stroke-linejoin="round" stroke-linecap="round" stroke-miterlimit="3"/><clipPath id="_clipPath_7Ulzdx9GiFD6IlAN6ZjioLA7TBj6frfW"><circle vector-effect="non-scaling-stroke" cx="28.50000000000007" cy="316.82798556430447" r="10.814074467458111" fill="rgb(240,240,240)" mask="url(#_mask_VPK8jwo1PDR26uzHzqsEi9pU3BHQmigx)" stroke-width="0.5" stroke="rgb(187,187,187)" stroke-linejoin="round" stroke-linecap="round" stroke-miterlimit="3"/></clipPath><g clip-path="url(#_clipPath_7Ulzdx9GiFD6IlAN6ZjioLA7TBj6frfW)"><circle vector-effect="non-scaling-stroke" cx="28.50000000000007" cy="316.82798556430447" r="8.877014777435917" fill="rgb(240,240,240)"/></g><mask id="_mask_swrLXwZhzJ2AdsSifSDFvDlMJCZdn2Kj"><circle vector-effect="non-scaling-stroke" cx="28.500000000000085" cy="316.8279855643045" r="7.892639777435917" fill="white" stroke="none"/></mask><circle vector-effect="non-scaling-stroke" cx="28.500000000000085" cy="316.8279855643045" r="7.892639777435917" fill="rgb(173,255,50)" mask="url(#_mask_swrLXwZhzJ2AdsSifSDFvDlMJCZdn2Kj)" stroke-width="1" stroke="rgb(15,15,15)" stroke-linejoin="round" stroke-linecap="round" stroke-miterlimit="3"/><mask id="_mask_JsTEQ1nGltrh0pbOYrecYATE59M4rqEe"><circle vector-effect="non-scaling-stroke" cx="28.50000000000006" cy="316.82798556430447" r="5.297319916277015" fill="white" stroke="none"/></mask><circle vector-effect="non-scaling-stroke" cx="28.50000000000006" cy="316.82798556430447" r="5.297319916277015" fill="rgb(0,0,0)" mask="url(#_mask_JsTEQ1nGltrh0pbOYrecYATE59M4rqEe)" stroke-width="1" stroke="rgb(15,15,15)" stroke-linejoin="round" stroke-linecap="round" stroke-miterlimit="3"/></g></g></g></svg>