<?xml version="1.0" standalone="no"?><!-- Generator: Gravit.io --><svg xmlns="http://www.w3.org/2000/svg" xmlns:xlink="http://www.w3.org/1999/xlink" style="isolation:isolate" viewBox="0 0 90 380" width="90" height="380"><defs><clipPath id="_clipPath_lxygFUSVF3vgSNP2d3WJ7VY7Fvni4bL1"><rect width="90" height="380"/></clipPath></defs><g clip-path="url(#_clipPath_lxygFUSVF3vgSNP2d3WJ7VY7Fvni4bL1)"><rect width="90" height="380" style="fill:rgb(30,30,30)"/><g opacity="0.48"><path d=" M -514.445 -151.682 C -513.078 -142.504 -511.688 -133.426 -510.278 -124.446 C -494.161 0.054 -474.943 114.159 -454.451 219.172 L -462.483 145.63 C -460.093 157.535 -457.68 169.297 -455.249 180.918 L -461.176 128.217 L -461.176 128.217 L -461.176 128.217 C -460.199 133.271 -459.218 138.305 -458.235 143.319 L -465.956 75.627 C -463.675 86.955 -461.373 98.164 -459.053 109.255 L -463.518 71.178 C -462.823 74.739 -462.127 78.292 -461.428 81.836 L -465.12 50.678 C -463.392 58.393 -461.655 66.002 -459.912 73.507 L -468.284 2.532 L -468.284 2.532 L -468.284 2.532 C -467.99 4.025 -467.696 5.516 -467.402 7.005 L -469.263 -8.245 C -467.231 0.948 -465.187 10.001 -463.135 18.917 L -543.558 -638.521 L -552.637 -712.736 C -552.633 -712.62 -552.629 -712.505 -552.625 -712.389 C -552.624 -712.376 -552.624 -712.363 -552.623 -712.35 C -552.614 -712.077 -552.604 -711.804 -552.595 -711.531 L -552.595 -711.531 L -552.595 -711.531 L -552.595 -711.531 L -553.627 -720 L -553.627 -720 L -553.627 -720 L -553.627 -720 C -553.365 -712.368 -553.085 -704.78 -552.787 -697.238 L -553.085 -699.598 C -553.06 -698.951 -553.035 -698.303 -553.01 -697.656 L -553.01 -697.656 L -553.01 -697.656 L -553.063 -698.074 C -553.032 -697.257 -553.002 -696.44 -552.971 -695.623 L -554.004 -704.01 C -553.976 -703.271 -553.947 -702.531 -553.918 -701.792 L -554.034 -702.738 C -553.978 -701.243 -553.922 -699.748 -553.864 -698.255 L -554.094 -700.192 C -554.043 -698.717 -553.992 -697.243 -553.94 -695.77 L -554.154 -697.647 C -554.132 -696.938 -554.11 -696.229 -554.087 -695.52 L -554.184 -696.374 C -554.152 -695.303 -554.119 -694.233 -554.086 -693.164 L -554.086 -693.164 L -554.086 -693.164 L -554.086 -693.164 L -554.086 -693.164 L -554.229 -694.465 C -553.456 -666.319 -552.499 -638.573 -551.369 -611.219 L -558.046 -666.085 C -557.649 -652.845 -557.209 -639.744 -556.726 -626.778 L -562.103 -667.931 C -561.9 -662.489 -561.687 -657.069 -561.463 -651.672 L -561.463 -651.672 L -561.463 -651.672 L -565.677 -686.315 C -562.665 -598.696 -557.191 -515.095 -549.819 -435.344 L -549.819 -435.344 L -549.819 -435.344 L -581.671 -694.324 C -579.613 -627.849 -576.383 -564.903 -572.166 -505.217 L -572.166 -505.217 L -572.166 -505.217 L -572.166 -505.217 L -595.564 -703 C -593.974 -645.121 -591.632 -589.945 -588.629 -537.293 L -604.342 -672 L -604.342 -672 L -604.342 -672 L -604.342 -672 L -604.342 -672 L -604.342 -672 L -604.342 -672 C -593.143 -298.497 -552.991 -42.941 -508.86 146.561 L -529.207 -27.876 C -520.264 19.551 -510.787 63.755 -500.994 105.151 L -500.665 119.332 L -499.344 112.086 C -499.465 111.581 -499.585 111.076 -499.706 110.571 L -493.903 209.691 Q -496.178 203.282 -492.09 270.549 L -494.251 197.439 L -493.577 250.38 L -492.984 218.813 L -492.654 273.64 L -492.336 229.419 L -491.511 295.695 L -491.739 240.306 L -488.897 338 L -489.824 272.286 L -495.869 206.31 L -494.863 186.632 L -497.04 184.415 L -499.026 110.341 L -499.22 111.406 L -500.085 104.096 L -507.595 -24.198 C -501.536 5.021 -495.282 33.056 -488.897 60 L -513.831 -142.73 L -514.445 -151.682 Z  M -515.459 -158.532 C -516.16 -163.296 -516.854 -168.087 -517.542 -172.905 L -515.173 -153.641 L -515.459 -158.532 Z  M -508.213 -27.186 C -515.112 -60.615 -521.753 -95.589 -528.044 -132.247 L -501.245 94.287 L -502.12 56.507 L -505.638 33.318 L -508.213 -27.186 Z  M -27.233 233.062 C -25.577 240.271 -23.916 247.375 -22.25 254.393 L -27.233 233.062 L -27.233 233.062 L -27.233 233.062 L -27.233 233.062 L -27.233 233.062 L -27.233 233.062 L -27.233 233.062 L -27.233 233.062 L -27.233 233.062 L -27.233 233.062 L -27.233 233.062 L -27.233 233.062 L -27.233 233.062 L -27.233 233.062 L -27.233 233.062 L -27.233 233.062 L -27.233 233.062 L -27.233 233.062 L -27.233 233.062 L -27.233 233.062 L -27.233 233.062 L -27.233 233.062 L -27.233 233.062 L -27.233 233.062 L -27.233 233.062 L -27.233 233.062 L -27.233 233.062 L -27.233 233.062 L -27.233 233.062 L -27.233 233.062 L -27.233 233.062 Z  M 127.789 503.45 C 128.851 507.938 129.924 512.352 131 516.745 L 127.789 503.45 L 127.789 503.45 L 127.789 503.45 L 127.789 503.45 Z  M 109.181 52.249 C 110.08 56.863 110.988 61.425 111.899 65.973 L 109.181 52.249 L 109.181 52.249 L 109.181 52.249 L 109.181 52.249 L 109.181 52.249 L 109.181 52.249 L 109.181 52.249 L 109.181 52.249 L 109.181 52.249 L 109.181 52.249 L 109.181 52.249 L 109.181 52.249 L 109.181 52.249 L 109.181 52.249 L 109.181 52.249 L 109.181 52.249 L 109.181 52.249 L 109.181 52.249 L 109.181 52.249 L 109.181 52.249 L 109.181 52.249 L 109.181 52.249 L 109.181 52.249 L 109.181 52.249 L 109.181 52.249 L 109.181 52.249 L 109.181 52.249 L 109.181 52.249 L 109.181 52.249 L 109.181 52.249 L 109.181 52.249 L 109.181 52.249 L 109.181 52.249 L 109.181 52.249 L 109.181 52.249 L 109.181 52.249 L 109.181 52.249 L 109.181 52.249 L 109.181 52.249 L 109.181 52.249 L 109.181 52.249 L 109.181 52.249 L 109.181 52.249 Z  M -93.303 -232.208 C -86.36 -59.7 -60.867 95.896 -31.24 231.502 L -93.303 -232.208 L -93.303 -232.208 L -93.303 -232.208 L -93.303 -232.208 L -93.303 -232.208 L -93.303 -232.208 L -93.303 -232.208 L -93.303 -232.208 L -93.303 -232.208 L -93.303 -232.208 L -93.303 -232.208 L -93.303 -232.208 L -93.303 -232.208 L -93.303 -232.208 L -93.303 -232.208 L -93.303 -232.208 L -93.303 -232.208 L -93.303 -232.208 L -93.303 -232.208 L -93.303 -232.208 L -93.303 -232.208 L -93.303 -232.208 L -93.303 -232.208 L -93.303 -232.208 L -93.303 -232.208 L -93.303 -232.208 L -93.303 -232.208 L -93.303 -232.208 L -93.303 -232.208 L -93.303 -232.208 L -93.303 -232.208 L -93.303 -232.208 L -93.303 -232.208 L -93.303 -232.208 L -93.303 -232.208 L -93.303 -232.208 L -93.303 -232.208 L -93.303 -232.208 L -93.303 -232.208 L -93.303 -232.208 L -93.303 -232.208 L -93.303 -232.208 L -93.303 -232.208 L -93.303 -232.208 L -93.303 -232.208 L -93.303 -232.208 L -93.303 -232.208 L -93.303 -232.208 L -93.303 -232.208 L -93.303 -232.208 L -93.303 -232.208 L -93.303 -232.208 Z  M 112.993 68.352 C 114.998 76.862 117.013 85.295 119.038 93.63 L 112.993 68.352 L 112.993 68.352 L 112.993 68.352 L 112.993 68.352 L 112.993 68.352 L 112.993 68.352 L 112.993 68.352 L 112.993 68.352 L 112.993 68.352 L 112.993 68.352 L 112.993 68.352 L 112.993 68.352 L 112.993 68.352 L 112.993 68.352 L 112.993 68.352 L 112.993 68.352 L 112.993 68.352 L 112.993 68.352 L 112.993 68.352 L 112.993 68.352 L 112.993 68.352 L 112.993 68.352 L 112.993 68.352 L 112.993 68.352 L 112.993 68.352 L 112.993 68.352 L 112.993 68.352 L 112.993 68.352 L 112.993 68.352 L 112.993 68.352 L 112.993 68.352 L 112.993 68.352 L 112.993 68.352 Z  M -31.501 221.15 C -30.55 226.034 -29.59 230.86 -28.627 235.67 L -31.501 221.15 L -31.501 221.15 L -31.501 221.15 L -31.501 221.15 L -31.501 221.15 L -31.501 221.15 L -31.501 221.15 L -31.501 221.15 L -31.501 221.15 L -31.501 221.15 L -31.501 221.15 L -31.501 221.15 L -31.501 221.15 L -31.501 221.15 L -31.501 221.15 L -31.501 221.15 L -31.501 221.15 L -31.501 221.15 L -31.501 221.15 L -31.501 221.15 L -31.501 221.15 L -31.501 221.15 L -31.501 221.15 L -31.501 221.15 L -31.501 221.15 L -31.501 221.15 L -31.501 221.15 L -31.501 221.15 L -31.501 221.15 L -31.501 221.15 L -31.501 221.15 L -31.501 221.15 L -31.501 221.15 L -31.501 221.15 L -31.501 221.15 Z  M 108.875 64.605 C 109.34 66.852 109.806 69.091 110.274 71.322 C 110.296 71.429 110.319 71.536 110.341 71.646 C 111.094 75.231 111.849 78.799 112.606 82.357 L 108.875 64.605 L 108.875 64.605 L 108.875 64.605 L 108.875 64.605 L 108.875 64.605 L 108.875 64.605 L 108.875 64.605 L 108.875 64.605 L 108.875 64.605 L 108.875 64.605 L 108.875 64.605 L 108.875 64.605 L 108.875 64.605 L 108.875 64.605 L 108.875 64.605 L 108.875 64.605 L 108.875 64.605 L 108.875 64.605 L 108.875 64.605 L 108.875 64.605 L 108.875 64.605 L 108.875 64.605 L 108.875 64.605 L 108.875 64.605 L 108.875 64.605 L 108.875 64.605 L 108.875 64.605 L 108.875 64.605 L 108.875 64.605 L 108.875 64.605 L 108.875 64.605 L 108.875 64.605 L 108.875 64.605 L 108.875 64.605 L 108.875 64.605 L 108.875 64.605 L 108.875 64.605 Z  M 108.407 26.976 C 109.575 32.624 110.753 38.213 111.936 43.774 L 108.407 26.976 L 108.407 26.976 L 108.407 26.976 L 108.407 26.976 L 108.407 26.976 L 108.407 26.976 L 108.407 26.976 L 108.407 26.976 L 108.407 26.976 L 108.407 26.976 L 108.407 26.976 L 108.407 26.976 L 108.407 26.976 L 108.407 26.976 L 108.407 26.976 L 108.407 26.976 L 108.407 26.976 L 108.407 26.976 L 108.407 26.976 L 108.407 26.976 L 108.407 26.976 L 108.407 26.976 L 108.407 26.976 L 108.407 26.976 L 108.407 26.976 L 108.407 26.976 L 108.407 26.976 L 108.407 26.976 L 108.407 26.976 L 108.407 26.976 L 108.407 26.976 L 108.407 26.976 L 108.407 26.976 L 108.407 26.976 L 108.407 26.976 L 108.407 26.976 L 108.407 26.976 L 108.407 26.976 L 108.407 26.976 L 108.407 26.976 L 108.407 26.976 L 108.407 26.976 L 108.407 26.976 L 108.407 26.976 L 108.407 26.976 Z  M -31.24 231.502 L -31.24 231.502 C -30.559 234.673 -29.87 237.806 -29.179 240.928 L -31.24 231.502 L -31.24 231.502 L -31.24 231.502 L -31.24 231.502 L -31.24 231.502 L -31.24 231.502 L -31.24 231.502 L -31.24 231.502 L -31.24 231.502 L -31.24 231.502 L -31.24 231.502 L -31.24 231.502 L -31.24 231.502 L -31.24 231.502 L -31.24 231.502 L -31.24 231.502 L -31.24 231.502 L -31.24 231.502 L -31.24 231.502 L -31.24 231.502 L -31.24 231.502 L -31.24 231.502 L -31.24 231.502 L -31.24 231.502 L -31.24 231.502 L -31.24 231.502 L -31.24 231.502 L -31.24 231.502 L -31.24 231.502 L -31.24 231.502 L -31.24 231.502 L -31.24 231.502 L -31.24 231.502 L -31.24 231.502 L -31.24 231.502 L -31.24 231.502 L -31.24 231.502 L -31.24 231.502 L -31.24 231.502 L -31.24 231.502 L -31.24 231.502 L -31.24 231.502 L -31.24 231.502 L -31.24 231.502 L -31.24 231.502 L -31.24 231.502 L -31.24 231.502 L -31.24 231.502 L -31.24 231.502 L -31.24 231.502 L -31.24 231.502 Z  M 120.843 72.225 L 120.843 72.225 C 122.023 77.039 123.209 81.794 124.399 86.489 L 118.931 46.872 C 120.52 53.307 122.124 59.658 123.74 65.926 L 114.449 1.139 L 64.487 -347.26 L 63.807 -352 L 63.807 -352 L 63.807 -352 C 63.979 -347.713 64.163 -343.448 64.357 -339.206 L 64 -341.809 C 70.831 -172.099 95.686 -24.895 124.794 101 L 120.843 72.225 L 120.843 72.225 L 120.843 72.225 L 120.843 72.225 L 120.843 72.225 L 120.843 72.225 L 120.843 72.225 L 120.843 72.225 L 120.843 72.225 L 120.843 72.225 L 120.843 72.225 L 120.843 72.225 L 120.843 72.225 L 120.843 72.225 L 120.843 72.225 L 120.843 72.225 L 120.843 72.225 L 120.843 72.225 L 120.843 72.225 L 120.843 72.225 L 120.843 72.225 L 120.843 72.225 L 120.843 72.225 L 120.843 72.225 L 120.843 72.225 L 120.843 72.225 L 120.843 72.225 L 120.843 72.225 L 120.843 72.225 L 120.843 72.225 L 120.843 72.225 L 120.843 72.225 L 120.843 72.225 L 120.843 72.225 L 120.843 72.225 L 120.843 72.225 L 120.843 72.225 L 120.843 72.225 L 120.843 72.225 L 120.843 72.225 L 120.843 72.225 L 120.843 72.225 L 120.843 72.225 L 120.843 72.225 L 120.843 72.225 L 120.843 72.225 L 120.843 72.225 L 120.843 72.225 L 120.843 72.225 L 120.843 72.225 L 120.843 72.225 L 120.843 72.225 L 120.843 72.225 L 120.843 72.225 L 120.843 72.225 Z  M 115.384 81.48 C 116.27 85.353 117.163 89.183 118.061 92.992 L 115.384 81.48 L 115.384 81.48 L 115.384 81.48 L 115.384 81.48 L 115.384 81.48 L 115.384 81.48 L 115.384 81.48 L 115.384 81.48 L 115.384 81.48 L 115.384 81.48 L 115.384 81.48 L 115.384 81.48 L 115.384 81.48 L 115.384 81.48 L 115.384 81.48 L 115.384 81.48 L 115.384 81.48 L 115.384 81.48 L 115.384 81.48 L 115.384 81.48 L 115.384 81.48 L 115.384 81.48 L 115.384 81.48 L 115.384 81.48 L 115.384 81.48 L 115.384 81.48 L 115.384 81.48 L 115.384 81.48 L 115.384 81.48 L 115.384 81.48 L 115.384 81.48 L 115.384 81.48 L 115.384 81.48 L 115.384 81.48 L 115.384 81.48 L 115.384 81.48 L 115.384 81.48 L 115.384 81.48 L 115.384 81.48 L 115.384 81.48 L 115.384 81.48 L 115.384 81.48 L 115.384 81.48 L 115.384 81.48 L 115.384 81.48 L 115.384 81.48 L 115.384 81.48 L 115.384 81.48 L 115.384 81.48 L 115.384 81.48 L 115.384 81.48 L 115.384 81.48 L 115.384 81.48 L 115.384 81.48 Z  M 112.124 50.157 C 113.462 55.319 114.806 60.438 116.157 65.502 L 112.124 50.157 L 112.124 50.157 L 112.124 50.157 L 112.124 50.157 L 112.124 50.157 L 112.124 50.157 L 112.124 50.157 L 112.124 50.157 L 112.124 50.157 L 112.124 50.157 L 112.124 50.157 L 112.124 50.157 L 112.124 50.157 L 112.124 50.157 L 112.124 50.157 L 112.124 50.157 L 112.124 50.157 L 112.124 50.157 L 112.124 50.157 L 112.124 50.157 L 112.124 50.157 L 112.124 50.157 L 112.124 50.157 L 112.124 50.157 L 112.124 50.157 L 112.124 50.157 L 112.124 50.157 L 112.124 50.157 L 112.124 50.157 L 112.124 50.157 L 112.124 50.157 L 112.124 50.157 L 112.124 50.157 L 112.124 50.157 L 112.124 50.157 L 112.124 50.157 L 112.124 50.157 L 112.124 50.157 L 112.124 50.157 L 112.124 50.157 L 112.124 50.157 L 112.124 50.157 L 112.124 50.157 L 112.124 50.157 L 112.124 50.157 L 112.124 50.157 L 112.124 50.157 L 112.124 50.157 L 112.124 50.157 L 112.124 50.157 L 112.124 50.157 L 112.124 50.157 L 112.124 50.157 L 112.124 50.157 L 112.124 50.157 L 112.124 50.157 L 112.124 50.157 L 112.124 50.157 L 112.124 50.157 L 112.124 50.157 Z  M -480.534 -145.605 C -478.505 -136.502 -476.457 -127.507 -474.394 -118.617 L -544.09 -647.612 L -552.598 -712.189 L -552.625 -712.389 L -552.682 -712.824 L -552.729 -713.179 L -552.623 -712.35 L -552.597 -712.142 L -543.836 -643.264 L -480.534 -145.605 L -480.534 -145.605 L -480.534 -145.605 L -480.534 -145.605 L -480.534 -145.605 L -480.534 -145.605 L -480.534 -145.605 L -480.534 -145.605 L -480.534 -145.605 L -480.534 -145.605 L -480.534 -145.605 L -480.534 -145.605 L -480.534 -145.605 L -480.534 -145.605 L -480.534 -145.605 L -480.534 -145.605 L -480.534 -145.605 L -480.534 -145.605 L -480.534 -145.605 L -480.534 -145.605 L -480.534 -145.605 L -480.534 -145.605 L -480.534 -145.605 L -480.534 -145.605 L -480.534 -145.605 L -480.534 -145.605 L -480.534 -145.605 L -480.534 -145.605 L -480.534 -145.605 L -480.534 -145.605 L -480.534 -145.605 L -480.534 -145.605 L -480.534 -145.605 L -480.534 -145.605 Z  M 108.77 65.47 C 109.293 67.538 109.817 69.593 110.341 71.646 C 110.925 73.906 111.509 76.163 112.095 78.405 L 110.274 71.322 L 108.77 65.47 L 108.77 65.47 L 108.77 65.47 L 108.77 65.47 L 108.77 65.47 L 108.77 65.47 L 108.77 65.47 L 108.77 65.47 L 108.77 65.47 L 108.77 65.47 L 108.77 65.47 L 108.77 65.47 L 108.77 65.47 L 108.77 65.47 L 108.77 65.47 L 108.77 65.47 L 108.77 65.47 L 108.77 65.47 L 108.77 65.47 L 108.77 65.47 L 108.77 65.47 L 108.77 65.47 L 108.77 65.47 L 108.77 65.47 L 108.77 65.47 L 108.77 65.47 L 108.77 65.47 L 108.77 65.47 L 108.77 65.47 L 108.77 65.47 L 108.77 65.47 L 108.77 65.47 L 108.77 65.47 L 108.77 65.47 L 108.77 65.47 L 108.77 65.47 L 108.77 65.47 L 108.77 65.47 L 108.77 65.47 L 108.77 65.47 L 108.77 65.47 L 108.77 65.47 L 108.77 65.47 L 108.77 65.47 L 108.77 65.47 L 108.77 65.47 L 108.77 65.47 L 108.77 65.47 L 108.77 65.47 L 108.77 65.47 L 108.77 65.47 L 108.77 65.47 L 108.77 65.47 L 108.77 65.47 L 108.77 65.47 L 108.77 65.47 L 108.77 65.47 Z  M 21.741 648.633 L 21.47 644.276 C 21.359 644.582 21.247 644.887 21.135 645.193 L 21.741 648.633 L 21.741 648.633 Z  M -12.725 368.978 C -11.559 374.078 -10.382 379.117 -9.201 384.128 L -12.725 368.978 L -12.725 368.978 L -12.725 368.978 L -12.725 368.978 L -12.725 368.978 L -12.725 368.978 L -12.725 368.978 L -12.725 368.978 L -12.725 368.978 L -12.725 368.978 L -12.725 368.978 L -12.725 368.978 L -12.725 368.978 L -12.725 368.978 L -12.725 368.978 L -12.725 368.978 L -12.725 368.978 L -12.725 368.978 L -12.725 368.978 L -12.725 368.978 L -12.725 368.978 L -12.725 368.978 L -12.725 368.978 L -12.725 368.978 L -12.725 368.978 L -12.725 368.978 L -12.725 368.978 L -12.725 368.978 L -12.725 368.978 Z  M -11.993 393.367 C -11.096 397.553 -10.19 401.685 -9.28 405.803 L -11.993 393.367 L -11.993 393.367 L -11.993 393.367 L -11.993 393.367 L -11.993 393.367 L -11.993 393.367 L -11.993 393.367 L -11.993 393.367 L -11.993 393.367 L -11.993 393.367 L -11.993 393.367 L -11.993 393.367 L -11.993 393.367 L -11.993 393.367 L -11.993 393.367 L -11.993 393.367 L -11.993 393.367 L -11.993 393.367 L -11.993 393.367 L -11.993 393.367 L -11.993 393.367 L -11.993 393.367 L -11.993 393.367 L -11.993 393.367 L -11.993 393.367 L -11.993 393.367 L -11.993 393.367 Z  M -11.488 355.623 C -9.65 362.596 -7.804 369.498 -5.948 376.311 L -11.488 355.623 L -11.488 355.623 L -11.488 355.623 L -11.488 355.623 L -11.488 355.623 L -11.488 355.623 L -11.488 355.623 L -11.488 355.623 L -11.488 355.623 L -11.488 355.623 L -11.488 355.623 L -11.488 355.623 L -11.488 355.623 L -11.488 355.623 L -11.488 355.623 L -11.488 355.623 L -11.488 355.623 L -11.488 355.623 L -11.488 355.623 L -11.488 355.623 L -11.488 355.623 L -11.488 355.623 L -11.488 355.623 L -11.488 355.623 L -11.488 355.623 Z  M -10.661 386.75 C -9.143 392.671 -7.621 398.496 -6.095 404.243 L -10.661 386.75 L -10.661 386.75 L -10.661 386.75 L -10.661 386.75 L -10.661 386.75 L -10.661 386.75 L -10.661 386.75 L -10.661 386.75 L -10.661 386.75 L -10.661 386.75 L -10.661 386.75 L -10.661 386.75 L -10.661 386.75 L -10.661 386.75 L -10.661 386.75 L -10.661 386.75 L -10.661 386.75 L -10.661 386.75 L -10.661 386.75 L -10.661 386.75 L -10.661 386.75 L -10.661 386.75 L -10.661 386.75 Z  M -9.906 415.149 C -8.692 420.466 -7.466 425.71 -6.235 430.921 L -9.906 415.149 L -9.906 415.149 L -9.906 415.149 L -9.906 415.149 L -9.906 415.149 L -9.906 415.149 L -9.906 415.149 L -9.906 415.149 L -9.906 415.149 L -9.906 415.149 L -9.906 415.149 L -9.906 415.149 L -9.906 415.149 L -9.906 415.149 L -9.906 415.149 L -9.906 415.149 L -9.906 415.149 L -9.906 415.149 L -9.906 415.149 L -9.906 415.149 L -9.906 415.149 Z  M 135.095 381.288 C 136.029 385.672 136.973 389.992 137.92 394.295 L 135.095 381.288 L 135.095 381.288 L 135.095 381.288 L 135.095 381.288 L 135.095 381.288 L 135.095 381.288 L 135.095 381.288 L 135.095 381.288 L 135.095 381.288 L 135.095 381.288 L 135.095 381.288 L 135.095 381.288 L 135.095 381.288 L 135.095 381.288 L 135.095 381.288 L 135.095 381.288 L 135.095 381.288 L 135.095 381.288 L 135.095 381.288 Z  M -9.015 380.327 C -7.118 387.502 -5.212 394.601 -3.295 401.604 L -9.015 380.327 L -9.015 380.327 L -9.015 380.327 L -9.015 380.327 L -9.015 380.327 L -9.015 380.327 L -9.015 380.327 L -9.015 380.327 L -9.015 380.327 L -9.015 380.327 L -9.015 380.327 L -9.015 380.327 L -9.015 380.327 L -9.015 380.327 L -9.015 380.327 L -9.015 380.327 L -9.015 380.327 Z  M -8.177 413.069 C -6.611 419.165 -5.039 425.159 -3.463 431.071 L -8.177 413.069 L -8.177 413.069 L -8.177 413.069 L -8.177 413.069 L -8.177 413.069 L -8.177 413.069 L -8.177 413.069 L -8.177 413.069 L -8.177 413.069 L -8.177 413.069 L -8.177 413.069 L -8.177 413.069 L -8.177 413.069 L -8.177 413.069 L -8.177 413.069 Z  M -658.948 -572 C -648.796 -233.417 -608.996 39.025 -562.103 263.222 L -658.948 -572 L -658.948 -572 L -658.948 -572 L -658.948 -572 L -658.948 -572 L -658.948 -572 L -658.948 -572 L -658.948 -572 L -658.948 -572 L -658.948 -572 L -658.948 -572 L -658.948 -572 L -658.948 -572 L -658.948 -572 Z  M 136.869 382.017 C 138.123 387.506 139.388 392.916 140.658 398.291 L 136.869 382.017 L 136.869 382.017 L 136.869 382.017 L 136.869 382.017 L 136.869 382.017 L 136.869 382.017 L 136.869 382.017 L 136.869 382.017 L 136.869 382.017 L 136.869 382.017 L 136.869 382.017 L 136.869 382.017 L 136.869 382.017 Z  M 137.597 410.481 C 137.753 411.213 137.909 411.942 138.066 412.665 C 138.875 416.454 139.693 420.194 140.512 423.922 L 138.197 413.248 L 137.597 410.481 L 137.597 410.481 L 137.597 410.481 L 137.597 410.481 L 137.597 410.481 L 137.597 410.481 L 137.597 410.481 L 137.597 410.481 L 137.597 410.481 L 137.597 410.481 L 137.597 410.481 Z  M -8.105 405.231 C -6.177 412.455 -4.24 419.595 -2.291 426.63 L -8.105 405.231 L -8.105 405.231 L -8.105 405.231 L -8.105 405.231 L -8.105 405.231 L -8.105 405.231 L -8.105 405.231 L -8.105 405.231 L -8.105 405.231 Z  M 136.983 379.265 C 138.575 385.415 140.172 391.454 141.774 397.403 L 136.983 379.265 L 136.983 379.265 L 136.983 379.265 L 136.983 379.265 L 136.983 379.265 L 136.983 379.265 L 136.983 379.265 L 136.983 379.265 Z  M 137.718 411.157 C 137.834 411.662 137.949 412.167 138.066 412.665 C 138.109 412.863 138.153 413.056 138.197 413.248 C 139.313 418.108 140.438 422.906 141.567 427.673 L 137.718 411.157 L 137.718 411.157 L 137.718 411.157 L 137.718 411.157 L 137.718 411.157 L 137.718 411.157 Z  M 47.011 792.026 C 51.198 763.799 52.462 731.605 51.583 695.641 C 51.863 694.759 52.14 693.877 52.411 692.992 L 52.411 692.992 L 52.411 692.992 L 52.411 692.992 L 52.411 692.992 L 52.411 692.992 L 52.411 692.992 L 52.411 692.992 L 52.411 692.992 L 52.411 692.992 L 52.411 692.992 L 52.411 692.992 L 52.411 692.992 L 52.411 692.992 L 52.411 692.992 L 52.411 692.992 L 52.411 692.992 L 52.411 692.992 L 52.411 692.992 L 52.411 692.992 L 52.411 692.992 L 52.411 692.992 L 52.411 692.992 L 52.411 692.992 L 52.411 692.992 L 52.411 692.992 L 52.411 692.992 L 52.411 692.992 L 52.411 692.992 L 52.411 692.992 L 52.411 692.992 L 52.411 692.992 L 52.411 692.992 L 52.411 692.992 L 52.411 692.992 L 52.411 692.992 L 52.411 692.992 L 52.411 692.992 L 52.411 692.992 L 52.411 692.992 L 52.411 692.992 L 52.411 692.992 L 52.411 692.992 L 52.411 692.992 L 52.411 692.992 L 52.411 692.992 L 52.411 692.992 L 52.411 692.992 L 52.411 692.992 L 52.411 692.992 L 52.411 692.992 C 52.937 691.3 53.442 689.6 53.928 687.893 C 81.914 589.622 45.15 466.687 8.65 288.941 L 8.65 288.941 C -0.801 209.482 -9.958 123.71 -16.616 32.162 L -6.968 187.227 L -4.973 219.293 C -13.174 174.825 -20.924 127.214 -27.413 76.085 L -27.413 76.085 L -27.413 76.085 L -27.413 76.085 L -9.549 225.053 C -13.592 200.681 -17.534 175.14 -21.204 148.3 C -21.787 142.075 -22.362 135.83 -22.924 129.552 L -21.618 145.28 C -23.363 132.416 -25.044 119.256 -26.643 105.787 L 18.982 632.98 L -59.13 189.73 L 19.011 633.314 L 20.246 647.576 L 20.246 647.576 C 20.539 646.801 20.828 646.026 21.114 645.25 L 21.758 648.906 L 26.107 718.813 L -65.881 246.146 L 26.914 731.78 L 31.845 811.022 L -90 261.66 L 32.379 819.607 L 33.938 844.66 C 34.784 842.425 35.597 840.15 36.377 837.835 L 150.772 1359.382 L 43.843 809.943 C 45.035 804.2 46.082 798.269 46.992 792.152 L 143.909 1342.315 L -66.94 -303.213 Q -34.171 -35.686 -6.968 187.227 Q 28.107 474.647 53.928 687.893 Q 118.694 1222.764 125.241 1290.995 L -12.315 760.711 L 135.763 1325.329 L -70.198 494.884 L 153.336 1359.221 L -85.044 371.255 L 154.195 1362.666 L 37.223 835.27 C 39.323 828.76 41.171 821.944 42.783 814.827 L 148.865 1370 L 47.011 792.026 L 47.011 792.026 Z " fill-rule="evenodd" fill="none" vector-effect="non-scaling-stroke" stroke-width="0.2" stroke="rgb(191,191,191)" stroke-linejoin="miter" stroke-linecap="square" stroke-miterlimit="3"/></g><g style="isolation:isolate"><line x1="-0.25" y1="193.5" x2="90" y2="194.25" vector-effect="non-scaling-stroke" stroke-width="0.2" stroke="rgb(191,191,191)" stroke-linejoin="miter" stroke-linecap="square" stroke-miterlimit="3"/></g><g><path d=" M 178.534 140.27 C 165.27 162.841 172.755 181.187 144.547 198.105 C 116.338 215.023 114.194 196.382 95.899 208.763 C 77.604 221.144 99.642 241.226 77.823 260.449 C 56.004 279.672 33 266.106 13.537 285.153 C -5.927 304.2 28.938 312.161 7.272 331.875 C -14.394 351.59 -32.953 335.614 -52.616 352.365 C -72.28 369.116 -36.841 383.092 -61.509 404.493 C -86.177 425.894 -97.726 417.844 -120.906 426.39" fill="none" vector-effect="non-scaling-stroke" stroke-width="0.5" stroke="rgb(191,191,191)" stroke-opacity="0.35" stroke-linejoin="miter" stroke-linecap="square" stroke-miterlimit="3"/><path d=" M 176.922 150.18 C 163.658 172.751 171.143 191.097 142.935 208.015 C 114.726 224.933 112.582 206.292 94.287 218.673 C 75.992 231.054 98.03 251.136 76.211 270.359 C 54.392 289.582 31.388 276.015 11.925 295.063 C -7.539 314.11 27.325 322.071 5.66 341.785 C -16.006 361.499 -34.565 345.524 -54.228 362.275 C -73.892 379.026 -38.453 393.002 -63.121 414.403 C -87.789 435.804 -99.338 427.754 -122.518 436.299" fill="none" vector-effect="non-scaling-stroke" stroke-width="0.5" stroke="rgb(191,191,191)" stroke-opacity="0.35" stroke-linejoin="miter" stroke-linecap="square" stroke-miterlimit="3"/><path d=" M 175.31 160.089 C 162.046 182.66 169.531 201.006 141.323 217.924 C 113.114 234.842 110.97 216.201 92.675 228.582 C 74.38 240.963 96.418 261.045 74.599 280.268 C 52.78 299.491 29.776 285.925 10.313 304.972 C -9.151 324.019 25.713 331.98 4.048 351.694 C -17.618 371.409 -36.177 355.433 -55.841 372.184 C -75.504 388.935 -40.065 402.911 -64.733 424.312 C -89.401 445.713 -100.95 437.663 -124.13 446.209" fill="none" vector-effect="non-scaling-stroke" stroke-width="0.5" stroke="rgb(191,191,191)" stroke-opacity="0.35" stroke-linejoin="miter" stroke-linecap="square" stroke-miterlimit="3"/><path d=" M 173.698 169.999 C 160.434 192.57 167.919 210.916 139.71 227.834 C 111.502 244.752 109.358 226.111 91.063 238.492 C 72.768 250.873 94.806 270.955 72.987 290.178 C 51.168 309.401 28.164 295.834 8.701 314.882 C -10.763 333.929 24.101 341.89 2.436 361.604 C -19.23 381.318 -37.789 365.343 -57.453 382.094 C -77.116 398.845 -41.677 412.821 -66.345 434.222 C -91.013 455.623 -102.562 447.573 -125.743 456.118" fill="none" vector-effect="non-scaling-stroke" stroke-width="0.5" stroke="rgb(191,191,191)" stroke-opacity="0.35" stroke-linejoin="miter" stroke-linecap="square" stroke-miterlimit="3"/><path d=" M 172.086 179.908 C 158.822 202.479 166.307 220.825 138.098 237.743 C 109.89 254.661 107.746 236.02 89.451 248.401 C 71.156 260.782 93.194 280.864 71.375 300.087 C 49.556 319.31 26.552 305.744 7.088 324.791 C -12.375 343.838 22.489 351.799 0.824 371.513 C -20.842 391.228 -39.401 375.252 -59.065 392.003 C -78.728 408.754 -43.289 422.73 -67.957 444.131 C -92.625 465.532 -104.174 457.482 -127.355 466.028" fill="none" vector-effect="non-scaling-stroke" stroke-width="0.5" stroke="rgb(191,191,191)" stroke-opacity="0.35" stroke-linejoin="miter" stroke-linecap="square" stroke-miterlimit="3"/><path d=" M 170.474 189.818 C 157.21 212.389 164.695 230.735 136.486 247.653 C 108.278 264.571 106.133 245.93 87.839 258.311 C 69.544 270.692 91.581 290.774 69.763 309.997 C 47.944 329.22 24.94 315.653 5.476 334.701 C -13.987 353.748 20.877 361.709 -0.789 381.423 C -22.454 401.137 -41.013 385.162 -60.677 401.913 C -80.34 418.664 -44.901 432.64 -69.569 454.041 C -94.238 475.442 -105.786 467.392 -128.967 475.937" fill="none" vector-effect="non-scaling-stroke" stroke-width="0.5" stroke="rgb(191,191,191)" stroke-opacity="0.35" stroke-linejoin="miter" stroke-linecap="square" stroke-miterlimit="3"/><path d=" M 168.862 199.727 C 155.598 222.298 163.083 240.644 134.874 257.562 C 106.666 274.48 104.521 255.839 86.226 268.22 C 67.932 280.601 89.969 300.683 68.151 319.906 C 46.332 339.129 23.328 325.563 3.864 344.61 C -15.599 363.657 19.265 371.618 -2.401 391.332 C -24.066 411.047 -42.625 395.071 -62.289 411.822 C -81.952 428.573 -46.513 442.549 -71.181 463.95 C -95.85 485.351 -107.398 477.301 -130.579 485.847" fill="none" vector-effect="non-scaling-stroke" stroke-width="0.5" stroke="rgb(191,191,191)" stroke-opacity="0.35" stroke-linejoin="miter" stroke-linecap="square" stroke-miterlimit="3"/></g><g style="opacity:0.33;"><path d=" M -21.377 -16.794 C -9.525 -3.766 5.866 -3.399 8.992 16.587 C 12.117 36.574 -1.8 33.145 1.227 46.457 C 4.255 59.769 25.467 52.424 32.244 69.407 C 39.021 86.391 22.133 95.894 29.527 111.516 C 36.922 127.138 53.567 109.605 60.742 126.624 C 67.916 143.644 50.718 150.062 56.418 165.226 C 62.118 180.389 83.218 164.028 90.644 183.147 C 98.07 202.265 88.711 206.729 87.474 221.822" fill="none" vector-effect="non-scaling-stroke" stroke-width="0.5" stroke="rgb(191,191,191)" stroke-opacity="0.35" stroke-linejoin="miter" stroke-linecap="square" stroke-miterlimit="3"/><path d=" M -14.846 -13.431 C -2.994 -0.403 12.397 -0.036 15.523 19.95 C 18.648 39.937 4.731 36.508 7.758 49.82 C 10.786 63.132 31.998 55.787 38.775 72.77 C 45.552 89.753 28.664 99.257 36.058 114.879 C 43.453 130.501 60.098 112.968 67.273 129.987 C 74.447 147.007 57.249 153.425 62.949 168.588 C 68.649 183.752 89.749 167.391 97.175 186.51 C 104.601 205.628 95.242 210.092 94.005 225.185" fill="none" vector-effect="non-scaling-stroke" stroke-width="0.5" stroke="rgb(191,191,191)" stroke-opacity="0.35" stroke-linejoin="miter" stroke-linecap="square" stroke-miterlimit="3"/><path d=" M -8.315 -10.068 C 3.537 2.96 18.928 3.327 22.054 23.313 C 25.179 43.3 11.262 39.871 14.289 53.183 C 17.317 66.495 38.529 59.15 45.306 76.133 C 52.083 93.116 35.195 102.62 42.589 118.242 C 49.984 133.864 66.629 116.331 73.804 133.35 C 80.978 150.37 63.78 156.788 69.48 171.951 C 75.18 187.115 96.28 170.754 103.706 189.873 C 111.132 208.991 101.773 213.455 100.536 228.548" fill="none" vector-effect="non-scaling-stroke" stroke-width="0.5" stroke="rgb(191,191,191)" stroke-opacity="0.35" stroke-linejoin="miter" stroke-linecap="square" stroke-miterlimit="3"/><path d=" M -1.784 -6.705 C 10.068 6.322 25.459 6.69 28.585 26.676 C 31.71 46.663 17.793 43.234 20.82 56.546 C 23.848 69.858 45.06 62.513 51.837 79.496 C 58.614 96.479 41.726 105.983 49.12 121.605 C 56.515 137.226 73.16 119.694 80.335 136.713 C 87.509 153.733 70.311 160.151 76.011 175.314 C 81.711 190.478 102.811 174.117 110.237 193.235 C 117.663 212.354 108.304 216.818 107.067 231.911" fill="none" vector-effect="non-scaling-stroke" stroke-width="0.5" stroke="rgb(191,191,191)" stroke-opacity="0.35" stroke-linejoin="miter" stroke-linecap="square" stroke-miterlimit="3"/><path d=" M 4.747 -3.342 C 16.599 9.685 31.99 10.053 35.116 30.039 C 38.241 50.026 24.324 46.596 27.351 59.909 C 30.379 73.221 51.591 65.876 58.368 82.859 C 65.145 99.842 48.257 109.346 55.652 124.968 C 63.046 140.589 79.691 123.056 86.866 140.076 C 94.04 157.096 76.842 163.514 82.542 178.677 C 88.242 193.841 109.342 177.48 116.768 196.598 C 124.194 215.717 114.835 220.18 113.598 235.274" fill="none" vector-effect="non-scaling-stroke" stroke-width="0.5" stroke="rgb(191,191,191)" stroke-opacity="0.35" stroke-linejoin="miter" stroke-linecap="square" stroke-miterlimit="3"/><path d=" M 11.278 0.021 C 23.13 13.048 38.521 13.416 41.647 33.402 C 44.772 53.389 30.855 49.959 33.882 63.272 C 36.91 76.584 58.122 69.239 64.899 86.222 C 71.676 103.205 54.788 112.709 62.183 128.331 C 69.577 143.952 86.222 126.419 93.397 143.439 C 100.571 160.459 83.373 166.877 89.073 182.04 C 94.773 197.203 115.873 180.843 123.299 199.961 C 130.725 219.08 121.366 223.543 120.129 238.637" fill="none" vector-effect="non-scaling-stroke" stroke-width="0.5" stroke="rgb(191,191,191)" stroke-opacity="0.35" stroke-linejoin="miter" stroke-linecap="square" stroke-miterlimit="3"/><path d=" M 17.809 3.384 C 29.661 16.411 45.052 16.778 48.178 36.765 C 51.303 56.751 37.386 53.322 40.413 66.635 C 43.441 79.947 64.653 72.602 71.43 89.585 C 78.207 106.568 61.319 116.072 68.714 131.694 C 76.108 147.315 92.753 129.782 99.928 146.802 C 107.102 163.821 89.904 170.24 95.604 185.403 C 101.304 200.566 122.404 184.206 129.83 203.324 C 137.256 222.443 127.897 226.906 126.66 242" fill="none" vector-effect="non-scaling-stroke" stroke-width="0.5" stroke="rgb(191,191,191)" stroke-opacity="0.35" stroke-linejoin="miter" stroke-linecap="square" stroke-miterlimit="3"/></g><path d="M 23.497 99.349 L 67.138 99.349 C 74.053 99.349 79.667 104.963 79.667 111.878 L 79.667 161.721 C 79.667 168.636 74.053 174.25 67.138 174.25 L 23.497 174.25 C 16.583 174.25 10.969 168.636 10.969 161.721 L 10.969 111.878 C 10.969 104.963 16.583 99.349 23.497 99.349 Z" style="stroke:none;fill:#0B0B0B;stroke-miterlimit:10;opacity:0.77;"/><path d="M 16.842 223.849 L 71.329 223.849 C 78.219 223.849 83.812 229.442 83.812 236.332 L 83.812 275.658 C 83.812 282.547 78.219 288.141 71.329 288.141 L 16.842 288.141 C 9.953 288.141 4.359 282.547 4.359 275.658 L 4.359 236.332 C 4.359 229.442 9.953 223.849 16.842 223.849 Z" style="stroke:none;fill:#0B0B0B;stroke-miterlimit:10;opacity:0.77;"/><g style="isolation:isolate"><g transform="matrix(1,0,0,1,7.375,18.5)"><text transform="matrix(1,0,0,1,0.439,19.992)" style="font-family:&quot;Champagne &amp; Limousines&quot;;font-weight:400;font-size:24px;font-style:normal;fill:#bfbfbf;stroke:none;">Voltage</text></g><g transform="matrix(1,0,0,1,17,29.5)"><text transform="matrix(1,0,0,1,4.582,14.994)" style="font-family:&quot;Champagne &amp; Limousines&quot;;font-weight:400;font-size:18px;font-style:italic;fill:#ecff96;stroke:none;">Recorder</text></g><g transform="matrix(1,0,0,1,20.375,157)"><text transform="matrix(1,0,0,1,8.632,9.996)" style="font-family:&quot;Champagne &amp; Limousines&quot;;font-weight:400;font-size:12px;font-style:normal;fill:#bfbfbf;stroke:none;">record</text></g><g transform="matrix(1,0,0,1,38.5,138.373)"><text transform="matrix(1,0,0,1,1.422,7.497)" style="font-family:&quot;Champagne &amp; Limousines&quot;;font-weight:400;font-size:9px;font-style:normal;fill:#bfbfbf;stroke:none;">cv</text></g><g transform="matrix(1,0,0,1,4.167,346)"><text transform="matrix(1,0,0,1,8.492,11.662)" style="font-family:&quot;Champagne &amp; Limousines&quot;;font-weight:400;font-size:14px;font-style:normal;fill:#bfbfbf;stroke:none;">aP Modules</text></g><g transform="matrix(1,0,0,1,4.875,74.565)"><text transform="matrix(1,0,0,1,9.288,16.66)" style="font-family:&quot;Champagne &amp; Limousines&quot;;font-weight:400;font-size:20px;font-style:normal;fill:#bfbfbf;stroke:none;">Clock in</text></g><g transform="matrix(1,0,0,1,28.125,205.565)"><text transform="matrix(1,0,0,1,2.237,12.495)" style="font-family:&quot;Champagne &amp; Limousines&quot;;font-weight:400;font-size:15px;font-style:normal;fill:#bfbfbf;stroke:none;">Input</text></g><g transform="matrix(1,0,0,1,27.875,271.065)"><text transform="matrix(1,0,0,1,0.491,12.495)" style="font-family:&quot;Champagne &amp; Limousines&quot;;font-weight:400;font-size:15px;font-style:normal;fill:#bfbfbf;stroke:none;">Steps</text></g><g transform="matrix(1,0,0,1,24.875,320.565)"><text transform="matrix(1,0,0,1,0.77,12.495)" style="font-family:&quot;Champagne &amp; Limousines&quot;;font-weight:400;font-size:15px;font-style:normal;fill:#bfbfbf;stroke:none;">output</text></g><g transform="matrix(1,0,0,1,17.25,120)"><text transform="matrix(1,0,0,1,3.122,7.497)" style="font-family:&quot;Champagne &amp; Limousines&quot;;font-weight:400;font-size:9px;font-style:normal;fill:#bfbfbf;stroke:none;">in</text></g><g transform="matrix(1,0,0,1,59.25,120)"><text transform="matrix(1,0,0,1,0.277,7.497)" style="font-family:&quot;Champagne &amp; Limousines&quot;;font-weight:400;font-size:9px;font-style:normal;fill:#bfbfbf;stroke:none;">out</text></g></g><g style="isolation:isolate"><g><mask id="_mask_GIG7ODnk1dV6yLPKE8GKLsGOUKo8pgqB"><circle vector-effect="non-scaling-stroke" cx="24.34881889763779" cy="142.84881889763778" r="11.848818897637793" fill="white" stroke="none"/></mask><circle vector-effect="non-scaling-stroke" cx="24.34881889763779" cy="142.84881889763778" r="11.848818897637793" fill="rgb(187,187,187)" mask="url(#_mask_GIG7ODnk1dV6yLPKE8GKLsGOUKo8pgqB)" stroke-width="1" stroke="rgb(30,30,30)" stroke-linejoin="round" stroke-linecap="round" stroke-miterlimit="3"/><mask id="_mask_yjbgoxT9KWkuyKCPludZ0ftCmebmzHPp"><circle vector-effect="non-scaling-stroke" cx="24.3488188976378" cy="142.8488188976378" r="10.814074467458111" fill="white" stroke="none"/></mask><circle vector-effect="non-scaling-stroke" cx="24.3488188976378" cy="142.8488188976378" r="10.814074467458111" fill="rgb(240,240,240)" mask="url(#_mask_yjbgoxT9KWkuyKCPludZ0ftCmebmzHPp)" stroke-width="0.5" stroke="rgb(187,187,187)" stroke-linejoin="round" stroke-linecap="round" stroke-miterlimit="3"/><clipPath id="_clipPath_fxy8VNRbxrWYtpHPQ3fOMAY8fwbW98KL"><circle vector-effect="non-scaling-stroke" cx="24.3488188976378" cy="142.8488188976378" r="10.814074467458111" fill="rgb(240,240,240)" mask="url(#_mask_yjbgoxT9KWkuyKCPludZ0ftCmebmzHPp)" stroke-width="0.5" stroke="rgb(187,187,187)" stroke-linejoin="round" stroke-linecap="round" stroke-miterlimit="3"/></clipPath><g clip-path="url(#_clipPath_fxy8VNRbxrWYtpHPQ3fOMAY8fwbW98KL)"><circle vector-effect="non-scaling-stroke" cx="24.348818897637805" cy="142.8488188976378" r="8.877014777435921" fill="rgb(240,240,240)"/></g><mask id="_mask_ca9bMVQB8oLoccE16mxrZ6vCv676DyfB"><circle vector-effect="non-scaling-stroke" cx="24.348818897637813" cy="142.84881889763778" r="7.892639777435919" fill="white" stroke="none"/></mask><circle vector-effect="non-scaling-stroke" cx="24.348818897637813" cy="142.84881889763778" r="7.892639777435919" fill="rgb(247,227,47)" mask="url(#_mask_ca9bMVQB8oLoccE16mxrZ6vCv676DyfB)" stroke-width="1" stroke="rgb(15,15,15)" stroke-linejoin="round" stroke-linecap="round" stroke-miterlimit="3"/><mask id="_mask_7OiGBPtkXPrunAmVXFYWLt72XuXWKDwP"><circle vector-effect="non-scaling-stroke" cx="24.3488188976378" cy="142.84881889763778" r="5.2973199162770115" fill="white" stroke="none"/></mask><circle vector-effect="non-scaling-stroke" cx="24.3488188976378" cy="142.84881889763778" r="5.2973199162770115" fill="rgb(0,0,0)" mask="url(#_mask_7OiGBPtkXPrunAmVXFYWLt72XuXWKDwP)" stroke-width="1" stroke="rgb(15,15,15)" stroke-linejoin="round" stroke-linecap="round" stroke-miterlimit="3"/></g><g><mask id="_mask_mQjPlbgbyth1PjmozMwvnvqSKuemE3mb"><circle vector-effect="non-scaling-stroke" cx="66.34881889763776" cy="249.50000000000006" r="11.848818897637798" fill="white" stroke="none"/></mask><circle vector-effect="non-scaling-stroke" cx="66.34881889763776" cy="249.50000000000006" r="11.848818897637798" fill="rgb(187,187,187)" mask="url(#_mask_mQjPlbgbyth1PjmozMwvnvqSKuemE3mb)" stroke-width="1" stroke="rgb(30,30,30)" stroke-linejoin="round" stroke-linecap="round" stroke-miterlimit="3"/><mask id="_mask_EvfTroT093CiW3NnMxkwN4l00LqKzptu"><circle vector-effect="non-scaling-stroke" cx="66.34881889763781" cy="249.5" r="10.814074467458113" fill="white" stroke="none"/></mask><circle vector-effect="non-scaling-stroke" cx="66.34881889763781" cy="249.5" r="10.814074467458113" fill="rgb(240,240,240)" mask="url(#_mask_EvfTroT093CiW3NnMxkwN4l00LqKzptu)" stroke-width="0.5" stroke="rgb(187,187,187)" stroke-linejoin="round" stroke-linecap="round" stroke-miterlimit="3"/><clipPath id="_clipPath_maWNnGDqpe8wtPxe8Il2AKRUpudVFzuE"><circle vector-effect="non-scaling-stroke" cx="66.34881889763781" cy="249.5" r="10.814074467458113" fill="rgb(240,240,240)" mask="url(#_mask_EvfTroT093CiW3NnMxkwN4l00LqKzptu)" stroke-width="0.5" stroke="rgb(187,187,187)" stroke-linejoin="round" stroke-linecap="round" stroke-miterlimit="3"/></clipPath><g clip-path="url(#_clipPath_maWNnGDqpe8wtPxe8Il2AKRUpudVFzuE)"><circle vector-effect="non-scaling-stroke" cx="66.34881889763781" cy="249.50000000000003" r="8.877014777435917" fill="rgb(240,240,240)"/></g><mask id="_mask_Evdt13gZGlfaPUnirCxJv7dreu8UcbcE"><circle vector-effect="non-scaling-stroke" cx="66.34881889763784" cy="249.49999999999994" r="7.892639777435917" fill="white" stroke="none"/></mask><circle vector-effect="non-scaling-stroke" cx="66.34881889763784" cy="249.49999999999994" r="7.892639777435917" fill="rgb(189,120,249)" mask="url(#_mask_Evdt13gZGlfaPUnirCxJv7dreu8UcbcE)" stroke-width="1" stroke="rgb(15,15,15)" stroke-linejoin="round" stroke-linecap="round" stroke-miterlimit="3"/><mask id="_mask_ZhKAScChrzdoPrEYE1hlWNe16VzPy0WN"><circle vector-effect="non-scaling-stroke" cx="66.34881889763781" cy="249.49999999999997" r="5.297319916277015" fill="white" stroke="none"/></mask><circle vector-effect="non-scaling-stroke" cx="66.34881889763781" cy="249.49999999999997" r="5.297319916277015" fill="rgb(0,0,0)" mask="url(#_mask_ZhKAScChrzdoPrEYE1hlWNe16VzPy0WN)" stroke-width="1" stroke="rgb(15,15,15)" stroke-linejoin="round" stroke-linecap="round" stroke-miterlimit="3"/></g><g><mask id="_mask_ghOfvmEsjZ78jhuLW5nWbGBx6RBCWnyH"><circle vector-effect="non-scaling-stroke" cx="66.34881889763777" cy="142.84881889763778" r="11.848818897637798" fill="white" stroke="none"/></mask><circle vector-effect="non-scaling-stroke" cx="66.34881889763777" cy="142.84881889763778" r="11.848818897637798" fill="rgb(187,187,187)" mask="url(#_mask_ghOfvmEsjZ78jhuLW5nWbGBx6RBCWnyH)" stroke-width="1" stroke="rgb(30,30,30)" stroke-linejoin="round" stroke-linecap="round" stroke-miterlimit="3"/><mask id="_mask_Eu1RREod54wH3piFKt5jRt9xbfYyHJ3J"><circle vector-effect="non-scaling-stroke" cx="66.34881889763781" cy="142.8488188976378" r="10.814074467458113" fill="white" stroke="none"/></mask><circle vector-effect="non-scaling-stroke" cx="66.34881889763781" cy="142.8488188976378" r="10.814074467458113" fill="rgb(240,240,240)" mask="url(#_mask_Eu1RREod54wH3piFKt5jRt9xbfYyHJ3J)" stroke-width="0.5" stroke="rgb(187,187,187)" stroke-linejoin="round" stroke-linecap="round" stroke-miterlimit="3"/><clipPath id="_clipPath_WzihLPV4YRpHEG7df4h9L3YpCeUvPFrB"><circle vector-effect="non-scaling-stroke" cx="66.34881889763781" cy="142.8488188976378" r="10.814074467458113" fill="rgb(240,240,240)" mask="url(#_mask_Eu1RREod54wH3piFKt5jRt9xbfYyHJ3J)" stroke-width="0.5" stroke="rgb(187,187,187)" stroke-linejoin="round" stroke-linecap="round" stroke-miterlimit="3"/></clipPath><g clip-path="url(#_clipPath_WzihLPV4YRpHEG7df4h9L3YpCeUvPFrB)"><circle vector-effect="non-scaling-stroke" cx="66.34881889763781" cy="142.8488188976378" r="8.877014777435917" fill="rgb(240,240,240)"/></g><mask id="_mask_aPdLpxX7L3hCuxJmm618prOcAzXEQP7I"><circle vector-effect="non-scaling-stroke" cx="66.34881889763783" cy="142.84881889763778" r="7.892639777435917" fill="white" stroke="none"/></mask><circle vector-effect="non-scaling-stroke" cx="66.34881889763783" cy="142.84881889763778" r="7.892639777435917" fill="rgb(247,184,47)" mask="url(#_mask_aPdLpxX7L3hCuxJmm618prOcAzXEQP7I)" stroke-width="1" stroke="rgb(15,15,15)" stroke-linejoin="round" stroke-linecap="round" stroke-miterlimit="3"/><mask id="_mask_hssbt4EJ1yctCde2wqLdlf6lBEE9x1Ih"><circle vector-effect="non-scaling-stroke" cx="66.34881889763781" cy="142.84881889763778" r="5.297319916277015" fill="white" stroke="none"/></mask><circle vector-effect="non-scaling-stroke" cx="66.34881889763781" cy="142.84881889763778" r="5.297319916277015" fill="rgb(0,0,0)" mask="url(#_mask_hssbt4EJ1yctCde2wqLdlf6lBEE9x1Ih)" stroke-width="1" stroke="rgb(15,15,15)" stroke-linejoin="round" stroke-linecap="round" stroke-miterlimit="3"/></g><g><mask id="_mask_9B8YtLowoCzUyfIIgYoFOGvYsSEzmd0o"><circle vector-effect="non-scaling-stroke" cx="44.87499999999999" cy="64.97381889763778" r="11.848818897637791" fill="white" stroke="none"/></mask><circle vector-effect="non-scaling-stroke" cx="44.87499999999999" cy="64.97381889763778" r="11.848818897637791" fill="rgb(187,187,187)" mask="url(#_mask_9B8YtLowoCzUyfIIgYoFOGvYsSEzmd0o)" stroke-width="1" stroke="rgb(30,30,30)" stroke-linejoin="round" stroke-linecap="round" stroke-miterlimit="3"/><mask id="_mask_aQFCIMqZSjaDMxzFQHdfOZpgDfS9Xnat"><circle vector-effect="non-scaling-stroke" cx="44.87500000000004" cy="64.97381889763781" r="10.814074467458113" fill="white" stroke="none"/></mask><circle vector-effect="non-scaling-stroke" cx="44.87500000000004" cy="64.97381889763781" r="10.814074467458113" fill="rgb(240,240,240)" mask="url(#_mask_aQFCIMqZSjaDMxzFQHdfOZpgDfS9Xnat)" stroke-width="0.5" stroke="rgb(187,187,187)" stroke-linejoin="round" stroke-linecap="round" stroke-miterlimit="3"/><clipPath id="_clipPath_WL1KZE9r9kyNDBaiCj61GOUbpii3oACN"><circle vector-effect="non-scaling-stroke" cx="44.87500000000004" cy="64.97381889763781" r="10.814074467458113" fill="rgb(240,240,240)" mask="url(#_mask_aQFCIMqZSjaDMxzFQHdfOZpgDfS9Xnat)" stroke-width="0.5" stroke="rgb(187,187,187)" stroke-linejoin="round" stroke-linecap="round" stroke-miterlimit="3"/></clipPath><g clip-path="url(#_clipPath_WL1KZE9r9kyNDBaiCj61GOUbpii3oACN)"><circle vector-effect="non-scaling-stroke" cx="44.87500000000004" cy="64.97381889763781" r="8.877014777435917" fill="rgb(240,240,240)"/></g><mask id="_mask_OIYwiwCGt4sI1SSlnfA3UE9VvZr6AnNp"><circle vector-effect="non-scaling-stroke" cx="44.87500000000006" cy="64.97381889763778" r="7.892639777435917" fill="white" stroke="none"/></mask><circle vector-effect="non-scaling-stroke" cx="44.87500000000006" cy="64.97381889763778" r="7.892639777435917" fill="rgb(255,78,78)" mask="url(#_mask_OIYwiwCGt4sI1SSlnfA3UE9VvZr6AnNp)" stroke-width="1" stroke="rgb(15,15,15)" stroke-linejoin="round" stroke-linecap="round" stroke-miterlimit="3"/><mask id="_mask_FezNowzcEdCHNlBRFqYsHgAHO5o6td0M"><circle vector-effect="non-scaling-stroke" cx="44.87500000000004" cy="64.97381889763778" r="5.2973199162770115" fill="white" stroke="none"/></mask><circle vector-effect="non-scaling-stroke" cx="44.87500000000004" cy="64.97381889763778" r="5.2973199162770115" fill="rgb(0,0,0)" mask="url(#_mask_FezNowzcEdCHNlBRFqYsHgAHO5o6td0M)" stroke-width="1" stroke="rgb(15,15,15)" stroke-linejoin="round" stroke-linecap="round" stroke-miterlimit="3"/></g><g><mask id="_mask_PSpQeMadOcxVCCp6RQfN7vjg2C76lOvF"><circle vector-effect="non-scaling-stroke" cx="44.875" cy="193.8488188976378" r="11.848818897637798" fill="white" stroke="none"/></mask><circle vector-effect="non-scaling-stroke" cx="44.875" cy="193.8488188976378" r="11.848818897637798" fill="rgb(187,187,187)" mask="url(#_mask_PSpQeMadOcxVCCp6RQfN7vjg2C76lOvF)" stroke-width="1" stroke="rgb(30,30,30)" stroke-linejoin="round" stroke-linecap="round" stroke-miterlimit="3"/><mask id="_mask_unVehIx92iFUCgjCUbaQRl42UBKbCxVX"><circle vector-effect="non-scaling-stroke" cx="44.87500000000006" cy="193.84881889763778" r="10.814074467458113" fill="white" stroke="none"/></mask><circle vector-effect="non-scaling-stroke" cx="44.87500000000006" cy="193.84881889763778" r="10.814074467458113" fill="rgb(240,240,240)" mask="url(#_mask_unVehIx92iFUCgjCUbaQRl42UBKbCxVX)" stroke-width="0.5" stroke="rgb(187,187,187)" stroke-linejoin="round" stroke-linecap="round" stroke-miterlimit="3"/><clipPath id="_clipPath_eTMP076a5cxzeP1dZ0E6XFcXSqrqrep5"><circle vector-effect="non-scaling-stroke" cx="44.87500000000006" cy="193.84881889763778" r="10.814074467458113" fill="rgb(240,240,240)" mask="url(#_mask_unVehIx92iFUCgjCUbaQRl42UBKbCxVX)" stroke-width="0.5" stroke="rgb(187,187,187)" stroke-linejoin="round" stroke-linecap="round" stroke-miterlimit="3"/></clipPath><g clip-path="url(#_clipPath_eTMP076a5cxzeP1dZ0E6XFcXSqrqrep5)"><circle vector-effect="non-scaling-stroke" cx="44.87500000000006" cy="193.84881889763778" r="8.877014777435917" fill="rgb(240,240,240)"/></g><mask id="_mask_PeSGSFvW10JsC6ZxozqpWQKLINM3FVm6"><circle vector-effect="non-scaling-stroke" cx="44.875000000000064" cy="193.84881889763776" r="7.892639777435917" fill="white" stroke="none"/></mask><circle vector-effect="non-scaling-stroke" cx="44.875000000000064" cy="193.84881889763776" r="7.892639777435917" fill="rgb(173,255,50)" mask="url(#_mask_PeSGSFvW10JsC6ZxozqpWQKLINM3FVm6)" stroke-width="1" stroke="rgb(15,15,15)" stroke-linejoin="round" stroke-linecap="round" stroke-miterlimit="3"/><mask id="_mask_wpJR1noNm1NlXQ0qDTjRnRdx3FDCJu4s"><circle vector-effect="non-scaling-stroke" cx="44.87500000000005" cy="193.84881889763778" r="5.2973199162770115" fill="white" stroke="none"/></mask><circle vector-effect="non-scaling-stroke" cx="44.87500000000005" cy="193.84881889763778" r="5.2973199162770115" fill="rgb(0,0,0)" mask="url(#_mask_wpJR1noNm1NlXQ0qDTjRnRdx3FDCJu4s)" stroke-width="1" stroke="rgb(15,15,15)" stroke-linejoin="round" stroke-linecap="round" stroke-miterlimit="3"/></g><g><mask id="_mask_ewTr3qJCOgiYctjZkngLB8ki7U1DZsLb"><circle vector-effect="non-scaling-stroke" cx="44.87499999999999" cy="309.3488188976378" r="11.848818897637791" fill="white" stroke="none"/></mask><circle vector-effect="non-scaling-stroke" cx="44.87499999999999" cy="309.3488188976378" r="11.848818897637791" fill="rgb(187,187,187)" mask="url(#_mask_ewTr3qJCOgiYctjZkngLB8ki7U1DZsLb)" stroke-width="1" stroke="rgb(30,30,30)" stroke-linejoin="round" stroke-linecap="round" stroke-miterlimit="3"/><mask id="_mask_ESPcMPUFsAhHEOdmyIWhf7wm4buygb2B"><circle vector-effect="non-scaling-stroke" cx="44.87500000000008" cy="309.3488188976378" r="10.814074467458106" fill="white" stroke="none"/></mask><circle vector-effect="non-scaling-stroke" cx="44.87500000000008" cy="309.3488188976378" r="10.814074467458106" fill="rgb(240,240,240)" mask="url(#_mask_ESPcMPUFsAhHEOdmyIWhf7wm4buygb2B)" stroke-width="0.5" stroke="rgb(187,187,187)" stroke-linejoin="round" stroke-linecap="round" stroke-miterlimit="3"/><clipPath id="_clipPath_HbMheXXAYS42Ce1RNWsjrndpSmvBSyCz"><circle vector-effect="non-scaling-stroke" cx="44.87500000000008" cy="309.3488188976378" r="10.814074467458106" fill="rgb(240,240,240)" mask="url(#_mask_ESPcMPUFsAhHEOdmyIWhf7wm4buygb2B)" stroke-width="0.5" stroke="rgb(187,187,187)" stroke-linejoin="round" stroke-linecap="round" stroke-miterlimit="3"/></clipPath><g clip-path="url(#_clipPath_HbMheXXAYS42Ce1RNWsjrndpSmvBSyCz)"><circle vector-effect="non-scaling-stroke" cx="44.87500000000008" cy="309.3488188976378" r="8.877014777435917" fill="rgb(240,240,240)"/></g><mask id="_mask_IEMcnDBOcCvOggTGU7fJwpluqrOWy2zR"><circle vector-effect="non-scaling-stroke" cx="44.875000000000085" cy="309.3488188976377" r="7.892639777435917" fill="white" stroke="none"/></mask><circle vector-effect="non-scaling-stroke" cx="44.875000000000085" cy="309.3488188976377" r="7.892639777435917" fill="rgb(72,179,255)" mask="url(#_mask_IEMcnDBOcCvOggTGU7fJwpluqrOWy2zR)" stroke-width="1" stroke="rgb(15,15,15)" stroke-linejoin="round" stroke-linecap="round" stroke-miterlimit="3"/><mask id="_mask_EMseKUzFjFNZa7yGcy4jRTYZ2cEQk2RB"><circle vector-effect="non-scaling-stroke" cx="44.87500000000007" cy="309.3488188976378" r="5.2973199162770115" fill="white" stroke="none"/></mask><circle vector-effect="non-scaling-stroke" cx="44.87500000000007" cy="309.3488188976378" r="5.2973199162770115" fill="rgb(0,0,0)" mask="url(#_mask_EMseKUzFjFNZa7yGcy4jRTYZ2cEQk2RB)" stroke-width="1" stroke="rgb(15,15,15)" stroke-linejoin="round" stroke-linecap="round" stroke-miterlimit="3"/></g><mask id="_mask_SRd2CjH0fxmiU3dF338QonQH5UX4N0ry"><circle vector-effect="non-scaling-stroke" cx="44.87500000000001" cy="111.39999999999999" r="10.649999999999999" fill="white" stroke="none"/></mask><circle vector-effect="non-scaling-stroke" cx="44.87500000000001" cy="111.39999999999999" r="10.649999999999999" fill="rgb(62,62,62)" mask="url(#_mask_SRd2CjH0fxmiU3dF338QonQH5UX4N0ry)" stroke-width="4" stroke="rgb(2,2,2)" stroke-opacity="0.77" stroke-linejoin="miter" stroke-linecap="square" stroke-miterlimit="3"/><g><mask id="_mask_Qn1dD7mWx5r2AHsXOVigmo8HJUKJVaN5"><ellipse vector-effect="non-scaling-stroke" cx="26.8" cy="247.52339449541296" rx="17.5" ry="16.976605504586658" fill="white" stroke="none"/></mask><ellipse vector-effect="non-scaling-stroke" cx="26.8" cy="247.52339449541296" rx="17.5" ry="16.976605504586658" fill="rgb(28,28,28)" mask="url(#_mask_Qn1dD7mWx5r2AHsXOVigmo8HJUKJVaN5)" stroke-width="1" stroke="rgb(21,21,21)" stroke-linejoin="round" stroke-linecap="round" stroke-miterlimit="3"/><path d=" M 12.287 247.5 C 12.299 239.73 18.812 233.431 26.822 233.444 C 34.832 233.457 41.325 239.776 41.313 247.547 C 41.301 255.317 34.788 261.615 26.778 261.602 C 18.768 261.59 12.275 255.27 12.287 247.5 Z " fill="rgb(8,8,8)"/><path d=" M 10.636 247.318 C 10.757 238.666 18.097 231.734 27.018 231.847 C 35.94 231.961 43.085 239.077 42.964 247.729 C 42.843 256.381 35.503 263.313 26.582 263.199 C 17.66 263.086 10.515 255.97 10.636 247.318 Z " fill="rgb(28,28,28)" fill-opacity="0.77"/><mask id="_mask_puZ2TkddktBEaPp3VRHvzTh1LJcD9TKf" x="-200%" y="-200%" width="400%" height="400%"><rect x="0" y="0" width="100%" height="100%" style="fill:white;"/><ellipse vector-effect="non-scaling-stroke" cx="26.79999999999997" cy="247.52339449541296" rx="10.393792495989844" ry="10.07557294653067" fill="black" stroke="none"/></mask><ellipse vector-effect="non-scaling-stroke" cx="26.79999999999997" cy="247.52339449541296" rx="10.393792495989844" ry="10.07557294653067" fill="rgb(0,0,0)" mask="url(#_mask_puZ2TkddktBEaPp3VRHvzTh1LJcD9TKf)" stroke-width="4" stroke="rgb(48,48,48)" stroke-linejoin="round" stroke-linecap="round" stroke-miterlimit="3"/><rect x="26.271" y="229.5" width="1.059" height="3.958" transform="matrix(1,0,0,1,0,0)" fill="rgb(111,111,111)"/></g></g></g></svg>